<mxfile host="app.diagrams.net" agent="Mozilla/5.0 (Windows NT 10.0; Win64; x64) AppleWebKit/537.36 (KHTML, like Gecko) Chrome/133.0.0.0 Safari/537.36" version="26.1.0">
  <diagram name="ADIB-CEQ" id="6ndG-OGHZO6Guso6sbdz">
    <mxGraphModel dx="5014" dy="911" grid="0" gridSize="10" guides="1" tooltips="1" connect="1" arrows="1" fold="1" page="1" pageScale="1" pageWidth="3300" pageHeight="2339" background="none" math="0" shadow="0">
      <root>
        <mxCell id="0" />
        <mxCell id="1" parent="0" />
        <mxCell id="fn9IHwnqcPsOMm7Z17Oq-1" value="" style="rounded=0;whiteSpace=wrap;html=1;fillColor=#dae8fc;strokeColor=#6c8ebf;" parent="1" vertex="1">
          <mxGeometry x="-3174" y="845" width="1940" height="254" as="geometry" />
        </mxCell>
        <mxCell id="KE77L9WXBN6WNrBAQjAJ-39" value="" style="rounded=1;whiteSpace=wrap;html=1;arcSize=9;fillColor=#f5f5f5;fontColor=#333333;strokeColor=#666666;" parent="1" vertex="1">
          <mxGeometry x="-2598" y="273.78" width="712" height="562.22" as="geometry" />
        </mxCell>
        <mxCell id="ACQ-QuZeGpSRvs1RcJJU-251" value="" style="endArrow=classic;startArrow=classic;html=1;rounded=0;movable=1;resizable=1;rotatable=1;deletable=1;editable=1;locked=0;connectable=1;dashed=1;" parent="1" source="batxA4M3d1ItoKZKUvxp-9" target="batxA4M3d1ItoKZKUvxp-27" edge="1">
          <mxGeometry width="50" height="50" relative="1" as="geometry">
            <mxPoint x="-2344" y="588" as="sourcePoint" />
            <mxPoint x="-2155" y="586.78" as="targetPoint" />
          </mxGeometry>
        </mxCell>
        <mxCell id="KE77L9WXBN6WNrBAQjAJ-26" style="edgeStyle=orthogonalEdgeStyle;rounded=0;orthogonalLoop=1;jettySize=auto;html=1;exitX=0.5;exitY=1;exitDx=0;exitDy=0;entryX=1;entryY=0.5;entryDx=0;entryDy=0;endArrow=none;startFill=0;" parent="1" source="KE77L9WXBN6WNrBAQjAJ-2" target="KE77L9WXBN6WNrBAQjAJ-5" edge="1">
          <mxGeometry relative="1" as="geometry">
            <Array as="points">
              <mxPoint x="-2229" y="248" />
              <mxPoint x="-2229" y="460" />
            </Array>
          </mxGeometry>
        </mxCell>
        <mxCell id="KE77L9WXBN6WNrBAQjAJ-27" style="edgeStyle=orthogonalEdgeStyle;rounded=0;orthogonalLoop=1;jettySize=auto;html=1;exitX=1;exitY=0.5;exitDx=0;exitDy=0;exitPerimeter=0;endArrow=none;startFill=0;" parent="1" source="KE77L9WXBN6WNrBAQjAJ-3" edge="1">
          <mxGeometry relative="1" as="geometry">
            <mxPoint x="-2229.333251953125" y="233.33331298828125" as="targetPoint" />
          </mxGeometry>
        </mxCell>
        <mxCell id="KE77L9WXBN6WNrBAQjAJ-3" value="" style="verticalLabelPosition=bottom;sketch=0;html=1;fillColor=#6ABD46;strokeColor=#ffffff;verticalAlign=top;align=center;points=[[0.085,0.085,0],[0.915,0.085,0],[0.915,0.915,0],[0.085,0.915,0],[0.25,0,0],[0.5,0,0],[0.75,0,0],[1,0.25,0],[1,0.5,0],[1,0.75,0],[0.75,1,0],[0.5,1,0],[0.25,1,0],[0,0.75,0],[0,0.5,0],[0,0.25,0]];pointerEvents=1;shape=mxgraph.cisco_safe.compositeIcon;bgIcon=mxgraph.cisco_safe.architecture.generic_appliance;resIcon=mxgraph.cisco_safe.architecture.ddos_protection_appliance;" parent="1" vertex="1">
          <mxGeometry x="-2397.5" y="304.78" width="65" height="61.25" as="geometry" />
        </mxCell>
        <mxCell id="KE77L9WXBN6WNrBAQjAJ-28" style="edgeStyle=orthogonalEdgeStyle;rounded=0;orthogonalLoop=1;jettySize=auto;html=1;exitX=0;exitY=0.5;exitDx=0;exitDy=0;exitPerimeter=0;endArrow=none;startFill=0;" parent="1" source="KE77L9WXBN6WNrBAQjAJ-4" target="KE77L9WXBN6WNrBAQjAJ-2" edge="1">
          <mxGeometry relative="1" as="geometry">
            <Array as="points">
              <mxPoint x="-2229" y="336" />
            </Array>
          </mxGeometry>
        </mxCell>
        <mxCell id="KE77L9WXBN6WNrBAQjAJ-4" value="" style="verticalLabelPosition=bottom;sketch=0;html=1;fillColor=#6ABD46;strokeColor=#ffffff;verticalAlign=top;align=center;points=[[0.085,0.085,0],[0.915,0.085,0],[0.915,0.915,0],[0.085,0.915,0],[0.25,0,0],[0.5,0,0],[0.75,0,0],[1,0.25,0],[1,0.5,0],[1,0.75,0],[0.75,1,0],[0.5,1,0],[0.25,1,0],[0,0.75,0],[0,0.5,0],[0,0.25,0]];pointerEvents=1;shape=mxgraph.cisco_safe.compositeIcon;bgIcon=mxgraph.cisco_safe.architecture.generic_appliance;resIcon=mxgraph.cisco_safe.architecture.ddos_protection_appliance;" parent="1" vertex="1">
          <mxGeometry x="-2138.5" y="305" width="65" height="61.25" as="geometry" />
        </mxCell>
        <mxCell id="KE77L9WXBN6WNrBAQjAJ-5" value="" style="image;html=1;image=img/lib/clip_art/networking/Firewall_02_128x128.png" parent="1" vertex="1">
          <mxGeometry x="-2463" y="419.78" width="80" height="80" as="geometry" />
        </mxCell>
        <mxCell id="KE77L9WXBN6WNrBAQjAJ-29" style="edgeStyle=orthogonalEdgeStyle;rounded=0;orthogonalLoop=1;jettySize=auto;html=1;exitX=0;exitY=0.5;exitDx=0;exitDy=0;endArrow=none;startFill=0;" parent="1" target="KE77L9WXBN6WNrBAQjAJ-2" edge="1">
          <mxGeometry relative="1" as="geometry">
            <mxPoint x="-2091" y="459" as="sourcePoint" />
            <mxPoint x="-2229" y="248.77999999999997" as="targetPoint" />
            <Array as="points">
              <mxPoint x="-2091" y="460" />
              <mxPoint x="-2229" y="460" />
            </Array>
          </mxGeometry>
        </mxCell>
        <mxCell id="KE77L9WXBN6WNrBAQjAJ-6" value="" style="image;html=1;image=img/lib/clip_art/networking/Firewall_02_128x128.png" parent="1" vertex="1">
          <mxGeometry x="-2091" y="418" width="80" height="80" as="geometry" />
        </mxCell>
        <mxCell id="KE77L9WXBN6WNrBAQjAJ-12" value="" style="shape=image;verticalLabelPosition=bottom;labelBackgroundColor=default;verticalAlign=top;aspect=fixed;imageAspect=0;image=data:image/png,iVBORw0KGgoAAAANSUhEUgAAAgAAAAIACAYAAAD0eNT6AAAAAXNSR0IArs4c6QAAIABJREFUeAHtvQuYJFV5/7+oifFuTEzyi+wuu+x1bjv3+870TNd53+5ddkHZRUBF/4AQQRRFQdGQFRVBBBFFQSCKunhDgwhIAAUVROQqRCAkIWqI5IchP4OG4I3znzNM7XT3VHWft+t6ur/zPPNUd/Xp6qrPe/vWqapzli3DHwiAAAiAAAiAAAiAAAiAAAiAAAiAAAiAAAiAAAiAAAiAAAiAAAiAAAiAAAiAAAiAAAiAAAiAAAiAAAiAAAiAAAiAAAiAAAiAAAiAAAiAAAiAAAiAAAiAAAiAAAiAAAiAAAiAAAiAAAiAAAiAAAiAAAiAAAiAAAiAAAiAAAiAAAiAAAiAAAiAAAiAAAiAAAiAAAiAAAiAAAiAAAiAAAiAAAiAAAiAAAiAAAiAAAiAAAiAAAiAAAiAAAiAAAiAAAiAAAiAAAiAAAiAAAiAAAiAAAiAAAiAAAiAAAiAAAiAAAiAAAiAAAiAAAiAAAiAAAiAAAiAAAiAAAiAAAiAAAiAAAiAAAiAAAiAAAiAAAiAAAiAAAiAAAiAAAiAAAiAAAiAAAiAAAiAAAiAAAiAAAiAAAiAAAiAAAiAAAiAAAiAAAiAAAiAAAiAAAiAAAiAAAiAAAiAAAiAAAiAAAiAAAiAAAiAAAiAAAiAAAiAAAiAAAiAAAiAAAiAAAiAAAiAAAiAAAiAAAiAAAiAAAiAAAiAAAiAAAiAAAiAAAiAAAiAAAiAAAiAAAiAAAiAAAiAAAiAAAiAAAiAAAiAAAiAAAiAAAiAAAiAAAiAAAiAAAiAAAiAAAiAAAiAAAiAAAiAAAiAAAiAAAiAAAiAAAiAAAiAAAiAAAiAAAiAAAiAAAiAAAiAAAiAAAiAAAiAAAiAAAiAAAiAAAiAAAiAAAiAAAiAAAiAAAiAAAiAAAiAAAiAAAiAAAiAAAiAAAiAAAiAAAiAAAiAAAiAAAiAAAiAAAiAAAiAAAiAAAiAAAiAAAiAAAiAAAiAAAiAAAiAAAiAAAiAAAiAAAiAAAiAAAiAAAiAAAiAAAiAAAiAAAiAAAiAAAiAAAiAAAiAAAiAAAiAAAiAAAiAAAiAAAiAAAiAAAiAAAiAAAiAAAiAAAiAAAiAAAiAAAiAAAiAAAiAAAiAAAiAAAiAAAiAAAiAAAiAAAiAAAiAAAiAAAiAAAiAAAiAAAiAAAiAAAiAAAiAAAiAAAiAAAiAAAiAAAiAAAiAAAiAAAiAAAiAAAiAAAiAAAiAAAiAAAiAAAiAAAiAAAiAAAiAAAiAAAiAQDWBcrn80lKptL5UKo2VSqUC/uUMyuXyAZ7nHa+Ueo3neQX8gwF8IH4fIKKDF+Ls5chT8jyllJr2PK9vy5YtK7dv3/6C6kqAdy1NgJn7lVLHKqU+QUTXEdFPiEjjHwzgA/AB+EBb+sATRHQHEX2ZiN6rlNpeLBb/pKULYTsdnFLq1UR0LREZQ6PYgwF8AD4AH4APNPKBB5n5LNMz3E71siWOtVwu701E5xLRf6PoQ/TAB+AD8AH4QAQf+B4zv6YlimMrHwQRrSKii4noNxGM3UgZ4nOcPcAH4APwgfbzgQeMENi1a9czWrmOOndshULh+aa7hoh+i8IPpQ8fgA/AB+ADSfmAUupHc5eVx50rlK24w0qplxPRz5IyNraLRAIfgA+44ANKKfRKpNsr8dmtW7f+cSvW1dwfU6FQ+CNm/pQLgYl9RAGBD8AHkvYBCIBMfOxnnueN5r5gttIOep63ce552AeSDihsP5OAwllMumcx4N0ivCEAMs1X72ilGpvbYzGD9RDR4yjOmTo7ikaLFA3EUevEEQRA5rb8NG4QTFA6MPP+RPQkklbmjg4BAAEAH8iZD0AA5CIvfn1sbOw5CZbB9ty0GaEp7sK/n/L0q2YL+pipCX3y5Kg+Y2xAf3ikD/8WDGxtYdiCab596pzRp/fPLP3XxmaNXle2t3ldu83a93H8nu9rjbZV+ds2++638Zf+9/3f8Zf++tr9qPc9/7v+snYbtrF24uQIYq1B7jp7pE+fOjGkT9g8pl9f2KwPLM4mIWS/0Z5VOqGj9jxv0jYI6rXbqtS88b/Q36G/371a/+PGvfHfJIN6nCs/MwIAnOFn8IHmfMCIgcp4qvf60v4OxFqT+eya3nX6guFN+rUz09a869mCiD6XUDlsr82aoRiJ6JcNYNc12gFeUZ870qvv7lyJAGkyQGoTuK09IACaS/y1vPG+PTlCAKRv9yt61+u3bB6rW1Ns8h8zn9pe1TrmozWP+hHRvTawg9rs73n6gqEeFP2Yin5lEQriHbQOAiD9BFZpJ7x2mz8EQHb2u6FnX3381HgkIcDMXsxlsX02tzBrX1MGeNfkiL4TZ/yJiZ+gYh+0DgIguwSG4u8+e4kA+DwuASSS774w0Kl3eMWm6hARPWqmm2+fqh3TkRLRfkEFpdG6HcVZfXnf+kQcAQl1MaE2soP/OQTAIjP4D1hIfQACIB8+Yy4fv3tiuFkRcFVMZbE9NmPG9iei/+sXEdvla2am9R1d+6D4J9DlX5u4bG0CAZCPBFZrP7x3wy4SAYCbAJO36ceHNzUrAg5uj+odw1ES0cdtC4zf7rDZAop/CoXfLxw+90ZLCIDkk5JvEyxbj7VEAOASQDr2/+hIr1gEMPPPMW+AhTgolUr7ENFTjQpL5eevK0zhen+Kxd8Umkr+9V5DAKSTlFD8W5OzRACgByA9H2iyJ+A0ixLY3k2I6Px6BaX2s4NnZ/TdnSvQ7Q8BAB9I2QcgOpIvOBIBgB6A5O1R6fNnj/Zbnwgt1K3/2rZt23Pbu8LXOXpztyQR/bq2yIe9Z6X0NZvWIvFnkPjDbFK7Hj0A6SalygSF1+6zlwgA9ACka+/7Ny7XRxSmpCLgTXVKYHt/pJT669oCUu/9B8cGUPwzKP6msNSzS+VnEADpJiUU/dbiLREA6AFI3/bf6dnXOhcu5MV/bu8qH370exHRI5XFo97rg4oz+t6O5RAAEADwgYx8AGIj+YIjEQDoAUjeHkE+f6bwUgAzz4SXwTb9hIjK9Qp+7WeXDmDc6yBnTGtdrT3C3qMHIJuklJYf4HeSta9EAKAHIFlbhPn6vR0rpAMF7W7TMh9+2GbyhLAiUrv+kNkZnPVlfNZXa5Ow9xAA2SSlsGSF9W7ZAwLADXuZIefDcmDQejPMfXg1bMNPJN3/GN8/+6AIcuqgdRAA2dsKRd9dG5gpgoPiKmgdegCytfMByrO2FTNvbsMyH3zIxWJxXZBDB63bT3nadLkgqWXr7EG2CVoHAZCtnRAnbvOX9ADgHoBsbb1rfEgiAE4JroZtuFYpdWRQ8Qhad8rEMIp/xt3/pqgE2SZoHQRAtkkJAsBt/hIBgB6AbG19Vd9667xIRNe1YakPPmRm/lhQ8Qhat3uwEwIAAgA+kAMfgLhIvuBIBAB6AJK3Rz2fN+MClEjZioBHg6thG65l5uuDin3Qutsx2U8uil+QbYLWoQcg26RUL2Hhs/zbBgIg/zaqjKO/mp60FQC6XC6/sA3L/dJDJqKHg4pH7boDi7O5KH6VBm/X17W2CXsPAeBWAmtXf87rcUMAuBU/p40PWgsAIhpZWg3bcE1Y8ahdf9z0BARATrp+a20T9h4CwK0EltdC2K77JREAuAcg+1i7WPA4oFLqkDYs99WHbCZHCCsetetxA2D2Du4n4lrbhL2HAMiPzXzbYemOTSAA3LGViasreu1vBGTm46urYRu+M3MkhxWP2vXmMQskr3wERK1twt5DAOTDXogbN+0gEQC4CTB7G98omBtAKXV6G5b86kMuFot/HlY8atefOgEBkJdEXmubsPcQANknpbz4DPZD7gsSAYBLAHK+cfvknZ0rJfcAXFxdDdvw3ZYtW/4irHjUrn8PegBy0wNSa5uw9xAA2SeluJMctpeeTSUCAD0A6dklLAbMIHVhuTBg/efbsORXHzIEQPZOG+bM9dYHOHOg40MAuGnferbHZ+nZVDIUMARAenYJiwEIgOr63vAdBED2ThvmzPXWQwC4abd6NsVn+bMpegDyZ5N6cQIB0LDkVzeAAHDLwX3nhwBw026+/bB0w34QAG7YyY8nCIDq+t7wHQSAWw7uOzoEgJt28+2HpRv2gwBww05+PEEANCz51Q0gANxycN/RIQDctJtvPyzdsB8EgBt28uMJAqC6vjd8BwHgloP7jg4B4KbdfPth6Yb9IADcsJMfTxAADUt+dQMIALcc3Hd0CAA37ebbD0s37IenANywkx9PEADV9b3hOwgAtxzcd3QIADft5tsPSzfshx4AN+zkxxMEQMOSX90AAsAtB/cdHQLATbv59sPSDftBALhhJz+eIACq63vDdxAAbjm47+gQAG7Y7f6O5fqOzpX6pu7V+rpNa/Xlfev15wc69MWD3fpjI736g2MD2syxcdLmUX3c1Lh+y9S4fsfk6Py608cGtSlAnxju0Z8a6p7/3lf7Nuhv9K7T3+pZo2/uXqXv7NpH/6hjeW5GqPT9s1WWEABuxJnvbxAADUt+dQMIALcc3Hd0CIB82O273av1V/o36o8P92gzVLYZefH/m5nSBxdn9HbPCxyd0dZ2knYHeEV9VGGzPnlyZF407B7o1H+/aa2+q3MlxEGEKbwhAPIRZ37ea7SEAKiu7w3fQQC45eB+ANgWBwwFHN2+t3Xto6/sXaf/dqhbnz46oE/YPKZfNTOdWnG3tXVYu0pxYG5qgziw9wncBGjPys9NWS4hABqW/OoGEABuObgfXGHJvnY9BIDMvtf0rtMm6b9zYkQfUZjS27yiM4W+1vY27w+dnZm/3GAuSxih4/sXlk/7DXoAZPGTtd9AAFTX94bvIADccnA/wGySu2kDAVDfvuba/EVD3fptm8dS7bK3tV/a7Q6fmZrv5bisb4O+A4Jg/nKKrQ0wGVD9WPNzV5JLCICGJb+6AQRA9k7bTEDYJiUIgGr73t25Qn+xv0OfOj6oD5sttPTZva2P1Gt37PSkPmu0X5ubD+9uw/sJ0ANQHT/N5Ko0vwMBUF3fG76DAHDLwf1gqpe0Kz+DANhbX927Tn9kpFe/aWpCl5VC0SdqisF+ytNvnpqYPyu+vmdNW1wugABwKz9CADQs+dUNIADccnAIgMb2eqBjuf7CQKc+ZWJEHzI701SxqxRReB0sGIygunCoW9/ataplxQAEQON483NSHpYQANX1veE7CAC3HNwPMtui1E49AN/sWaPPHu3Xr3HoDn1bO+a5nekZOHliZF50tdqYBBAAbuVHCICGJb+6AQSAWw4OAVBtLxPwnxvs0idMjeNMv8mu/TjFxcGzM/q08UF9Zd/6lugVgACojjc//+R1CQFQXd8bvoMAcMvB/cCzTdqt2gNgBrk5Y2xAm4JjywLtgrvyk+JyZGGzPnekV9/Qs6+zYgACwK38CAHQsORXN4AAcMvB21kAmLvQzZC45ka0pIpWDNv9JRH9GxHdy8zfJaKvE9FnlVIfJaL3EtHblFJHEtEOZvaUUoPMvKZQKPxpoVB41rZt255bLBb/3KzzPK+PiKY8z9tKRAczs/neW5j5FCI6k4jOJ6LdRHSFUuoGZv55DPufCNu3bh6bf/rC919XlhAAbuVHCIDq+t7wHQSAWw7uJ07bRN8KPQBmFL73jQ3qHcXZRIqTLcuadv9FRDcuFPajSqXS2FxRfl7DgEu4gYlnIyyY+XgiuoiIvj8nOn5Vs++Zcfyr6cl5EXdfhOF5/RhIYwkB4FZ+hAAQJhgIALcc3E96tgndZQHwtf4N88Pu2h5rQu2eIqIfLpzFn0hE5XK5vLcwzDJvTkSriGgbEb1zodfAHNPvE2LWUGC8dmZanze8Sd/eme/RByEA3MqPEADCVAMB4JaDt4MAMGf8J02ONCwiCRSv3851yV9JRB8olUqHEFGXMJyca14sFjuI6HBmvlQplfolhJ3FWf2h0X59U07vE4AAcCs/QgAIUxAEgFsO3soC4JpNa/W7J4bTLvyPKaU+Q0QHCEOnJZszc7+5T4GZr0mzh2Cr5+lTx4fmZzD0fTwPSwgAt/IjBIAwLUEAuOXgflK0Pft14RKAGVVu1/hQmoX/ISK6oFQqsTBc2qp5oVB4vrkBkZnPIKLbbH0uart3To7qy/s25OLJAQgAt/IjBIAwRUEAuOXgrSQAvt29Wr9/fFCXKJXhee82d87P3S0/LQwRNF8goJRaa55gMD0mSqkfRy30jb5/8uSoNoM7+T6fxRICwK38CAEgTFcQAG45uJ8EGyVP//M89gDc3L1q/hl+M4Kcv58JLb+jlPprZh4WhgWaWxBg5oOUUl9JyHbzvmF8xMzjkNUIgxAAbuVHCACLwK1sAgHgloO7LAB+0LXP/FC9L/eKSRb+7xHRm8zNbZV+jtfJEWDmTcz8fiL656TEwJGFKf2F/o7UewMgANzKjxAAwjiHAHDLwV0VAGa43oRH7bucmQ8Uuj+ax0igUCj8ETMfxszmSYpERN67J0f0jSk+MQAB4FZ+hAAQBjQEgFsO7poAuK1rnyRv8HuSiD7JzJuFbo/mCRMgohFmPmvunoGH4xYD+3ue/uhIr76/Y3niPQIQAG7lRwgAYWBDALjl4C4JADMlb0Iz8/1UKWW6nDcI3R3NUyZQKBReTERHMfP1cQuBowub9Zf6NyYqAiAA3MqPEADCAIcAcMvBXRAAZsx+M3Rv3Al/biS7O5j5zcz8EqGbo3kOCJgnMJj5wrj94pSJYf2dhC4LQAC4lR8hAISBDgHgloPnXQBc1rdBHz4zFXfx/wYzHyp0bTTPKQEzV8HCJEmx+Ym5sfTioZ7YewMgANzKjxAAwqCHAHDLwfMqAEzgmel54zy7M8+bm2IhdGk0d4SAUurVcQ8wdOr4oL6nY0VsQgACwK38CAEgDH4IALccPI8C4PK+9fqowubYij8zf00pNSF0ZTR3kICZAtkMPbwwhXIsPnT09KS+pnddLCIAAsCt/AgBIEwCEABuOXieBMADHcvnn+uP8az/QTPSnNCF0bwFCJgZFs1IjUT02zj8aZvyYrkkAAHgVn6EABAmAwgAtxw8LwLg2p41+tjpyVjO2EzCZ+YPEdGfCd0XzVuMwNxsjINm6uU4RIDZRtRLAhAAbuVHCABhQoAAcMvB8yAAvjjQoQ/0ZuMq/ldhfH5h0LZBcyLaj4iui0MIRLkkAAHgVn6EABAmBwgAtxw8awHwieGeuAr/Q0qpo4XuiuZtRsBcEiKin0QVAs1eEoAAcCs/QgAIEwQEgFsOnqUAOG08nmf7mfkcpdRfCl0VzduUADOvYeZLo4qAZi4JQAC4lR8hAIRJAgLALQfPQgCYSXyOmxqP48z/75VSRaGLojkIzBNQSh1LRI9FFQLmkoDtNMMQAG7lRwgAYbKAAHDLwdMWAOZxqq1KRS3+PzHJW+iaaA4CSwiYmQeJ6IqoIsBMTHWlxaOCEABu5UcIgCUhU38FBIBbDp6mAPj8QEfUwm++/3XThVvfC/EpCMgIMPNJRPTrKEJgf6+oL2swlwAEgFv5EQJAFkfLIADccvC0BEBM1/vPFLojmoOANQEzWBQRfSuKCGAi/dnBrtBBgyAA3MqPEADW4fN0QwgAtxw8DQFwRPRR/f6biA4XuiKag0BTBJj51CgiwHz3gpB5BCAA3MqPEADCEIIAcMvBkxQA3+5eHUeX/61ENC50QzQHgUgESqUSK6V+EEUInDPSu6QnAALArfwIASAMIwgAtxw8KQFw9aa1cRT/S7Zu3frHQhdEcxCIhUChUHg+EZ0dRQR8YGygSgRAALiVHyEAhKEEAeCWgychAK6Lp/i/Q+h6aA4CiRBg5uOjiIBTJob13Z1PzygIAeBWfoQAEIYUBIBbDh63APhWz5qoZ/7/SkQHCN0OzUEgUQILUw03/ZTA2zeP6Vu6V2kIALfyIwSAMKwgANxy8DgFwHd69o1a/L9RKpXWC10OzUEgFQLMXCKif2+2N+CYqQkIgI1u5UcIAGFoQQC45eBxCYCbu1fpUrQBfs4Wuhqag0DqBLZs2bKSiH7YrAg4fGbKWiRf2t9Rdf+AH6tYppdjIQCEIQYBkJ5zxpkIbBOaOYup/d0fdK/S+3uedWIL+K2jhG6G5iCQKQEi+maAH0eJgSXfhQDIPpdCAAjDDAIge6etLdA2722TWa0AuKNrH31QsfmpfJVSLxe6GJqDQC4IKKW+aBs3zbSDAMg+l0IACEMNAiB7p7Up+LVtbBNUpQAwdza/emZ6yZmL7baIqCx0LzQHgVwRIKL3CfxdFCsQANnnUggAYbhBAGTvtLXF3ea9bRLzBcA/dCzXUUb4Y+YZoWuhOQjkkgARHWwbP5J2EADZ51IIAGHIQQBk77Q2Bb+2jW1iMgLg/o1762OmJ0VnMzXbx8h+wrhC83wTIKKuGh+PEh/z34UAyD6XQgAI4w4CIHunrS3uNu9tk5cRAG+ZGm86uTFzv9Cl0BwEnCFgG0c27SAAss+lEADC0IMAyN5pbQp+bRubhGTaGAFg27a2Xblc7hC6E5qDgFMEmPkltX7f7HsIgOxzKQSAMPwgALJ32tribvO+2SRl+73Z2dl9ha6E5iDgJAGl1FrbuKjXDgIg+1wKASAMQQiA7J3WpuDXtqmXiKJ+Njs7+zKhG6E5CDhNgIhGosYNBED2uRQCQBiGEADZO21tcbd5HzVZhX2/WCz+idCF0BwEWoLA3HTCW8LiwmY9BED2uRQCQBiKEADZO61Nwa9tY5OQpG3MdKpC90FzEGgpAguTCDV138zuAQwFXJun0n5/b8dyie12t5TzNnMwEAAQAEYoFAqFZzXjP/gOCLQaAaXUm6Xi2bR/w/TkkmG30y6A7f576AEQRiMEAATA7OzsSqHboDkItDQBpdR7pCJAKaUvHO6BCMhwBkH0AAjDEgKgvQWA6fIUugyag0BbEFBKfVQqAspK6W/2rIEIyEgEoAdAGJoQAG0tAD4pdBc0B4G2IsDMV0pFwKGzM/qezpUQARmIAIkAYOZL28qZgw4WAqBtBcADQf6AdSAAAtUEmPnfpCLg7ZvHIAByLgCI6PPVlm7DdxAA7SkA2tDVccgg0BSB7du3v4CI/lsqAj411A0RkLIIwD0AQheHAGg/AVAqlYaEboLmINDWBEqlUg8R/VYiArYqpW/uXg0RkKIIkFwCQA/AsmXLIADaSwAw8wltnclx8CDQJAEiOlwiAEzbIwpT+oGO5RABKYkACAChc0sEwKkTQ3DklBy50fO80kRk2iulviZ0DzQHARCoIKCU+ltp7J0z2oe8mVLehACocFablxIB8J5xCIBGhTmNz88d6ZWMduW3/S8bf4irTblcfqlS6kgi+vjcOOvfYOaz2vXSAzMPK6VOJqIrzJ3HzHySmYUuLtbYTnoEyuXys4nohxIRwErp6zfh0cA0ciMEgDAWJAIAPQDZXy74bs++fkEXLcvl8guFrtF0c2ben4j+X0iSNEWwbYqfuc4YwuF/iOi4piHji5kRIKJVRPR4iF0D49I8GmhuUEujCLbzb+AmQGFYSAQAegCyFwCvL2wOTDANktF+QrdoujkRbSCiJxrsz0+JaKDpH3Hki8x8RgMOxpaf37Zt23MdOSTs5gIBpdROC9tWxeoHR/shABK+FIAeAGGIQgBkX9RtFfvFQ91VCcUmATFzqoP9ENHlNvtFRL9m5r8SuqszzT3PWyG4a/w+c1bpzMFhR+cJENFuS1+fj9uSUtr04NnGO9rJczMEgDA4JQIAlwDkDhlXEN/atY/eT3lSAfCI0B2iNt9LUPT8Y9k9Njb2nKg/nLfvE9EbJMXBdCkrpbbn7TiwP+EEzGW1uScDTG+W78sNl0djwqBEBRAEQLi/Bn4iEQC4BJCdADhueqJhcqlJRP+zdevWPw40ekIrmfn/1OyD7T7f02pnwET03mZYmMsGCZkHm02AgOd5o0T0lMTWnxrsSrQIxnXS4eJ2IACETi4RAOgByEYAfLG/o2EhZeY9bcysZFmcTZbL5b0libCmrbmpqix039w2J6LTao5vj30s1t9snqLI7cFhx6oIENEHLGy6x/4HKE/fgbkCEhFBEABVrtn4jUQAoAcgfQFw38a99StnC3uSh2WiuaSx5eNvEVEAzB+jOQPeuXPnM+Pfu3S3GFEAGBaPENF4unuNX2uWADPfaRmb835+ysRIIgXQxbP2OPdZIgAwGZBwJED0AKQvAM4b3iQt/v+e5iN/lQkzDgGwkESdPwOOQQAYu/9WKfXWSsZ4nU8CC0MFW18KMGMD3IgbAmMXQRIBgKGAhQIAPQDpCoC7O1fq7Z7sxj9mPiirFBmjAJg/AzYD6GR1LFF/NyYBMC/+mPlrRPS8qPuE7ydLgJk/JukFePPUROwFMM6zaRe3BQEg9HFcAki3qEuC6tTxQenZ/7eE5o+1ecwCYP4MmJmPj3UnU9pYnAJgoag86HnexpR2Hz/TBIFCofDiOgNgBcbylX3rIQJiHBsAAkDouBAA+RQAN3Wv1ua5YcEZxW+KxeJqofljbZ6AAJg/fhfPgBMQAIaFGWBpR6xGw8ZiJbAw/LV13L52ZhoCAAIgVh8UbUwiAHAPQHpi4fipcesksiAS3isyfAKNkxIA/hmwUmptArudyCYTEgC+T5xbKBSelciOY6NRCZixMERzBXwOjwXGJoLQAyB0X4kA2FGc1cdMTeA/YQZHTU/6id52+bM8DCebsAAwLH7lyhlwwgLAsLh1dnb2ZcJwR/MUCCilBgU9d3q7V0ROjSmnvkGQO/EUgPAmQIlTo6396GBRWSmlXpdCXmv4EykIAF8QfSTvZ8ApCADD4jGl1HRDw6BB6gSamTY4ah7A92U5FwIAAsAvKC4v70o9u4X8YIoCwNjrVtN7FbIrma9OSQAYDr+bm1fhnZkfMHagigARLTfzXaAoy4pyyrw+X2W0dnwjuQSQsnFcLspp7vtIXvxWIgCY+R+j+hMz/5yZZ/IWJNxmAAAgAElEQVRy/JX7IREAh8kHelriX3Pdzld6nveiyn3A62wJENFHovo4vp+ogLgsWw/Jwa9DACTqYEsSdZwBbZJ+Dlxozy6Ya9KC4zvbjHRHRI8KvhPE05wBv2PPTuTkBTO/3/a4zAxxp48OBB2bdN1PPM/rzgmCtt+NYrH4J0T0v7Z+gHbp5mKl1C1t76RbtmxZB8dL1/Hi4q2U6s2TA0sFgNn3BQF6cwxMrt6+ffsL8sJDIgDMI59mfIjL+jbobV5RWvRr2z/JzIfmhUO774ekJyiGGKj1BbyvM1MjM9/f7v7pJ2A4Sh1HyWlgXps355VcAiCiD/v7b8b+nxvp7swYOD+UlzNgSeL3BYARAd/rXqXjuCRARJ/cuXPnH/qMscyGgLksw8y4FyCf+fW+bLwiR7+KSwBunv2bscdz5Ebzu9KsAPCPw8xgSERmVsAogjQXZ8DNCgAjAu7tWK5P3DwahcH8d80ENZ7nrfD5YpkNAWb+QkSfjuwL+P2lOYWZr8/GI3L0qxAASx3DgWB5IEcutGdXogoAsyEiWkVE98VggwuyPAOOIgD84aIvHurWZdlokEGF4hfM7O0xEl6kTsCM0bHwtEaQfbAumuCPwu/TqTtD3n4QAsA9AcDMm/LmR2Z/4hAAZjtjY2PPIaIvRxUBWZ4BxyEAjBC4vmeNPqg4GyXJme8+pZR6z7Jly/bKo9+0wz4ppS6M6s/4fuy5GgIAAiB2p4qarBt9/xt5TZhxCQD/+IjoDTE8S53JGXBcAsCIgLs6V+rj5ENDB/nRdcz8Ep8vlukR2Lp16x8z85Mo4rnKtxAAEgFwwuYxfVXfevzHyOCUieGgRB26jpk3p5e2ZL8UtwAwv+55Xh8RPRwxcf6eiHaleQYcpwAwIuCBjXvrs0f6NEfvLn3YMJVZFq3jIEBE50r8+JLBLuRaYa69vG99aO4MYA8BIBEA7xkfim3SBv86Z7svXyUbBOa2OBJRUttIQgCYfTVnrUR0XUAAS4LdtE3tDDhuAeDHyRV9G/T+nic97tr2v2bmv0rKD7DdYAIL97cYMVprj8D3Z431I98KZwoUTgYEAQABkN4Mf34S95emN8U2GSy0y/VUsEkJgIV0amZZ20VE1gk0hG0qZ8BJCQDjO7d0rdJHzExJfSeo/W5zv0VwucLaJAgw85dC/HKJfXYWZ/UDHcshAgQiAAJA6LUQANkJgHdMih71+tddu3Y9Q2jeVJsnLADmj8Xc0U5Ev7BNoiHtnlRKHZ0knCQFgBEB93Us12Z67pDjk6w3T1ysSpIFtr1IwDy+K7HZV/s3QgBAACw6UNyvJALAJBz/7BXLaMLh9s59JEnatD0ubtvHvb00BIDZZ/Nsu7nDX5JIQ9omdgactADw42/3YKfeL/qjgmbshXLc/oDtBRMgoptC/HFJTnj75ChyrkgALF/CsA5rXAKQCADcAxCt6PtJ2yw/NtIrcdQny+XyC4PTSX7WpiUAzBGbZ/yJ6Pw6wW3LN5Ez4LQEgPGlb88NJXzI7Izt8Ya2Y+YzzKiM+fGo1twTInqtrd+yUvqOrn0gAixFAC4BCGNGIgDQAxCfAJAkbKXUZ4RmzaR5mgLAP0Az7j0RPWGbUEPaxX4GnKYAMCLgns6V+vh4HhW8uVwuv9Tni2X8BMrl8rMll7E+PrwJAgACIH5HNFuUCAD0AMQjAK7pXRd6FhZUoDzPm0zG+vFuNQsBYI7A87yNRPRQEDvBOjNYzulxnQGnLQD83qXzhjfpUvRLAo8w83C83oGtVRIgovNsffN1M9MQABAAle4T32sIgHiKup+AbZanjQ9KBMA/xWftZLeUlQAwR2VmAiSiq22Tap12sZwBZyUAjP8ZgfmK6KMH/paZj0/WY9p362bSqjo+uCQ/3NizL0SAhQjAJQBhTEEApCsAzIAuO2RTvr5FaNLMmmcpAPyDJqK3xzDueuQz4CwFgBEBt3fto4+enlxSSCRFx7Rl5q/NzdT4PJ8vlvERIKLbbO2BMQHs8jQEgNA/IQDsHMvmzN6mzVWy7v/funDzn+9yeRAAZl+IaJyIHrVNriHtfqOUerN/bNJl1gLA+OL9Hcv16WOi3qYwwfCgUmqtlAHa1yfAzK8P8b0ldnhlcQY9AOgBqO9QzXwqEQC4CTC6WHjfuOjZ7S80Y9OsvpMXAWCOf8Gvb7ZNsGHtmj0DzoMA8AXpZX0b9H4q8uiBvyKiXA9ElZXfN/u7hULh+WF+F7T+2k1rIQIaiAAzlXYQu5B1eAxQIgBwE2A0AWC6//cXdP8z84HNJpcsvpcnAWCO39zQx8xnhQS/JFGIz4DzJACMELipe7U+TDbsdBifjxQKhWdl4V+t+JtE9FVb/zT3DvmiDsvgXIxLAMIokQgA9AAEO51tMF4p6/7/pWvDtOZNAPihoJTaTkTmDDasqNms/5XZjr/NRsu8CQDjo+bs6MTNotEnw7jcavJGIwb4vDEBIjrY1i/NvUO2uaZd20EANPa5qhYSAYAegGgC4IOj/WEJdcl6Zr60ylAOvMmrADDozDVsIjKD/ixhLVnHzOfYnAHnUQD4ReGioW5djv6o4KNKqWkH3DLXu2hEvmTK62/2rIEIqHMZAAJA6O4QANGKup9UbZaHyyZwOUBoysyb51kAGDgLyfbLkoIf0rbhGXCeBYDx1et71uiDoj8q+Dsiekfmjuf4DiilvhLiZ0vEqhnnwSbXtGsbCABhMEAApCMAzHCetkFORI8PDAz8gdCUmTfPuwDwAc09IXCM5KwrxG7mKYNxf5u1y7wLAFMg7upcqY+N4VFBM/6CGYehlgHe2xGQXAY4bnoCAgA9AHaOZdMKAiAdAfC5wS6JAPisje3y1sYVAWC4eZ7XR0QPhxR3W1v9jplPCrKDCwLAiAAz3ezZo/2aI14aMSMxmsFtglhgXX0CCz1TVsNZb1FK/whTBIeKIPQA1Pe1JZ9KBABuAmxeLLxrYti2qGil1MuXGMqBFS4JAIOTmV9CRDdGFAHGrkvOgF0RAH5X8RV9G/T+XuRHBZ80czM44Kq528WFx02tcsTlfRtCC6Bvz3Zd4jFAoWtLBABuAmxeAAiGZn2qUCi8WGjGXDR3TQAYaLt27XoGM59KRE9FFALmDHijbwjXBIApGLd0rdJHyO5TCStYF5jZGn0WWDYmYIZdtvW/08YGIABCLgOgB6Cxr1W1kAgA9AA0JwDMnbu2wU1Ed1QZyKE3LgoAHy8ze5IZ2kLs+YR/BuyiADAi4L6O5XqXbLCqQN9m5js9z1vh88WyPoFSqdQT4lNL+L4WkwOFCiAIgPp+tuRTiQBAD0BzAuCCoZ4lQRwW7EqpDy0xkiMrXBYABrEpWKZwhdlGsP58Zj7Dtr0ZpCdvXba7Bzu1ud5sewwh7X5hhJUj7pv5bhLRYyEcl9jhh50rcuczefBhCAChG0MANFfUJc5+kmzwlbLQhLlp7roAMCBN1zURXWCbiOu0+486n1Ul9DwKAOPfN8zNQHfI7EzVvtoeU0U7c2ll17Jly/bKjaPmdEeIyPoR1cv6N0IABFwGgAAQOjcEQPIC4AD74X9/6/LMa60gAPzwMV35c8+4P1lRyKIWwtDv51UAGBFwT+dKffzUeOi+C/hcZ2669PliuZQAEb3BlucHcR9AoACCAFjqV3XXQAAkKwBu7l4tSZ431zVWzj9sJQFgUC/M2f6QbVJutl2eBYDf03XeSK8uRb8k8LB5/DLnbpzZ7hHRBlsfMlM9+7bBcjGHQwAI3VciAHAT4KKj2QbdZ2TP/79XaL5cNW81AWDgmgFuzGN+tom5mXYuCADj79f0rtOCp1nChO+TSqmjc+W4OdoZIvqZrQ/Z5qB2aofHAIXOLBEAuAlQLgD+RvD8PzNvFZovV81bUQD4gM2AP0Rkhr4NK2xNr3dFAJhCcnvXPvr1hc1NH2sFv92uTXbl+0KSS8nsgFf3rkMvQM19AOgBEHqnRACgB0AuAMwjOxVJr+7rYrH4J0Lz5ap5KwsAA9oM/Ts3jLAZAriuHaWfuyQAjAi4f+Ny/YGxgTgYmMmZVuXKiTPembkhqt9p6z+fGMG8ALW9G+gBEDqwRACgB0AmAO6bG1yF7a+b/kRoutw1b3UBYIAvxMuttknapp1rAsBPupf1bdD7qcijBz5ORM4++RJ3EBKRsvEZ0+bdE8PoAUAPQDQXhACQFXU/+dksvyUbAOiyaJbM/tvtIAAMZTMdMBGdbZuoG7VzVQCYGDD7fthsIWpvwFNKqdN37tz5zOy9ONs98DzvRY38xf/cjNpok4faqQ0uAQj9FwIgOQHwuYFO68QYNqmM0JyZNm8XAeBDVkptJ6Jf+Qm52aXLAsAUF9PteqJsrIuwuLi5XC6/1Ofbrksi+hcbXyorNT+ZUzsV+EbHCgEgjBoIgOQEgHlW1yaQF9rMCk2Xu+btJgCMAZRSa4nIXMuW2LqqresCwE/KFw73aFOUorAgokeYeTh3zp3iDs09DvgFW4bfnRusyeePpRGjKyT+9+kUzZrPn4IASE4ASAZQaYU7ottRAJioXpjO1XoUt9rk3ioCwBSgazet1QcVZyVJOKjtb5RSb85nxkx+r+Z6ld5W6yNh77840AEBUHEfAASA0D8hAJITALaJUCn1Y6HZctm8XQWAbwxmfuPcXdy/DkvWYetbSQAYEXBX50p97PRkUGEXrVuYIvd5Pt92WXqex2G+Urv+wyN9EAAQAM2HhkQA4DFAe7Fwj6wr6rrmLZifb7a7ADCWMN3XRPRwbaKu977VBIARAQ90LNdnj/ZrjnBpZIHZg+YyS368PPk9KZfL+9bzl8rP3jE5CgFQJQCWS0QmLgFIBAAeA7QXAGYilcpArfdaKfWJ5NNK8r8AAfA0YzPmPRH9pJ7NKz9rRQHgX4++om+D3t+L/KigudFyR/IenI9fME9D2A46dVRhMwRAlQDAPQAiL4YAsC/qflKzWX6lf6NEALxVZLScNoYAWDQMEX2gssjXe93KAsDEyi1dq/TrBANihbFi5nPMI5iLlFv3FRH9UxiHyvUHFmchACAAmg8ECIBkBIC5I7oyUBu83ta8BfPzTQiARVsQ0WkNbL7HP1pdABgR8KOO5XqXYFjsOuxuNTlrkXRrvrKdf8JcYjEjM9qclLRDG9wEKIwHCIBkBMAZskcANwjNlsvmEACLZoEACI6r3YOdekv0RwUfVUpNL9JuvVdEdG4dEbRHPJo27SAgbcULBIAwFiAAghOVrcOFtZMMjNIqI6BBACwGHwRAeFyZ+2MOmZ2pKmK2xa6i3e9aYfCsRY+pfkVEb6o41rqszH0WYXmo3dZDAFT7UcN3EgGApwDCk1ptoB1pOWNaqzwCaBwNAmAx3CAA6sfKPZ0rtWScjDrF8GozZfMi+dZ4ZWYGrXPMVYLgksEuCICF+wAgAIT+DwFQP1HVFnbb9zu8YlWQ1gnm7wtNltvmEACLpoEAsIurj4306lL0SwIPeZ63cZG++6+IaKBOzqjKLRgLYNHXIACEvi8RAHgMcNHRGgkBwfPPVwhNltvmEACLpoEAsI+VK3vX6VdEHz3wCWY+dNECbr/yPG+FrQB43/gQegDQA9Ccw0MA2CeqRkXf//wuwSBAzHxhc5bL37cgABZtAgEgi6vbu/bRr7e8bNagMJ6/c+fOP1y0hJuvzDE0OM49vQDvxGBAewQQegCE/g4BIEtUfpGvtzR35doGLzO/X2iy3DaHAFg0DQSAPK7M42ynjQ9ax05YjDHznbOzsy9btIabr4jo8bBjrFz/pqmJPQWwXl5qh88gAIS+DgEgT1SNAunvN621TmKtNOkJBMBi8EEANB9Xl/Vt0PupyKMHPsbM3qJF3HtFRP9cWejDXh+B0QD3CCAIAKGfQwA0n6jChMBXBaMAEtHBQpPltjkEwKJpIACixZXpRXvVbMFaSIcUx9/Prf+bZcuW7bVoGXdeEdH3Qo6rissrZwt7CmBYTmqX9RAAQv+GAIiWqIIC67ODXVUB2iCIZ4Umy21zCIBF00AARI8rk8wl42nUibPrPM970aJ13Hi1MBtiw1yyTXkQALgJsDmnlggAjANgl9QuGBINAzzQnOXy9y0IgEWbQADYxUqQgK5d98mhHl2OPqvgTzzP61u0UP5fKaU+U0fUVAmDWmbt+h49AEK/lggAPAZol9TOG95UFZz1glgp1Ss0WW6bQwAsmgYCwC5WbAvVtZvW6oOiPyr4JBEdtWilfL8iok/Wyx2Vn/2wcwV6ATburSEAhD4NARBvojIJ7dzhXmsBwMydQpPltjkEwKJpIADij6u7OlfqY6cnrWOrskDWvN5dLpefvWitfL6SzAdwe+c+EAAQAHJHhgCIP1GdM9pnnaSKxeI6udXy+Q2hADg7n0cRz15BAMQfV35vwdmj/dbxVVP4K7/3QzPYTjzWTmYrRHRmnf2vPJb5KZd9Pu28RA+A0BchAOJPVJIEVSwWVwtNltvmEgHAzGfl9kBi2DEzvoNt8sZsbvIY/GrfBr3di/yo4L/n+eZAInqvrQ99t3s1egDQAyDPXBAA8uTTSGGfKTtDWS63Wj6/AQGwaBcIgPjjqjbuvte9Sh8xM1V1JmxbMCvafXDRavl6RUTvqtjPusf5rZ41EAAQAHIHhgCIP1GdPjpQN1grg9rwl1stn9+QCAAiwiWAhTvb0QMQLQZ3jQ9Zx1tl7C28fjCf0bRsGTOfELC/gcdqBh+rFUjt+B6XAITeLBEAeAzQLlF9YMxeABQKhT8Vmiy3zSUCAJcAaE8ihwCwi6t6Be3CYdGjt3vYmwKb14AiomNsBcBVvesgAOZ7AJZX2bYBv0/n1fap7ZdEAOAxQLtEdYZAADDz/0nN2An/kEQAENGHE96dTDePmwDtYqVeUbf9zAiow5ofNfCJTB2lzo8z8xsbFLA9xc7MqGjLq5XboQegjkMFfQQBEH+iOmvM/i7lLVu2rAyyi4vrIAAWrQYBEH9cBRWuGOYNuGzRavl6JbkEcA0uAcwLIAgAoQ9DAMSfqPAY4GL3dp0zGPQA4B6Aps9azcyBkkttIX74a2ZeI0yZqTVXSp0cst97zvz9z6/HTYAQAM14JgRA/ALgoyP2AwF5ntfdjN3y+B30ACxaBT0A8ceV3wNwe9c++vWFzUuKoF8MbZfMfOiixfL3iplPtT2WG3v2bVpM+VxbYYkeAKEfQwDEn6g+MWI/FDARYS4Aoc+60BwCIP64MgXqmt51+hXRhwR+goh25N2PmPkMWwGAG0mf9jcIAKFXQwDEn6jM5CW2gUtE40KT5bY5egAWTQMBEH9cnTfSq0tKSWIrqO2DnudtXLRUfl8x8zm2eeT7XavQA4BxAOTODAEQf6K6eLA7KPEErmPmGbnV8vkNCIBFu0AAxBdX93Su1MdPjQfGj22BNO0Wptd93qKV8v1KKfUJ2+O7rXMlBAAEgNyhJQIA4wDYJbXdg52SZFWWWy2f34AAWLQLBIBdrDS67nzD3LXtQ2ZnJPEU1PY3zHz8onXceEVEn7YVAPd2LIcAgACQO7ZEAGAcALukdnnfhqAkFLiOmV8jt1o+vwEBsGgXCAC7WKknAIyQ3hK9y/8RZh5etIw7r4joKhsBUFYKxX/j0/6GewCE/g0BED1R1SYxM3e5TeCaNuZZX6HJctscAmDRNBAAzcfVfR3LdcThff34u7FcLr900SpuvSKi22zyyM7iLAQABEBzzg0B0Hyiqi38/ntzR65N4C4IgDOas1z+vgUBsGgTCIDm4uqWrlgm+HnK8N+1a9czFi3i3isi+qlNHnndzDQEAARAcw4OAdBcovKLfdDyrs6VEgHwqeYsl79vQQAs2gQCQB5XV/Rt0PtHn+L3F0TUEvfVENFvbATAMVMTEAAQAIvJR/IKAkCeqIKKfuW6BzqWa7a/dnmVxF55bgsBsGgdCAD7uDLxcvZov+aFkRFtil5Im3s8z1uxaAV3X5XL5ReGHOOSk4sTJ0chACAAmnN2CAD7RFVZ5Bu9PsArLgnUkIC+rTnL5e9bEACLNoEAsIsr01t27PSkbazUa3dxuVx+9qIF3H6llFobki+WMDD3SzTKR+3yOW4CFPq9RADgMUC7pGaC7TUz00sCNSiglVI/Fpost80hABZNAwHQOFbM+PUHRR/V78m8D+m76BX2r8wAYUH5Imjd2SN9EAB7egAwHbC9ly1btkwiAPAYYOOk5ivtN09NWAkAIvrdzp07nykyWk4bQwAsGgYCoH6sXDjUrc3ja0EFTbDuJ600l8ai9yxbppQ6xJbDpwe7IAD2CIAVEp/6dCXztnwNAVA/UfkFXbo0vSW2AVwsFle3gvNBACxaEQIgOK7MgDUnbh61jo06MXS153kvWiTeWq+Y+ZQ6x17F7+u96yEAIACaCwAIgOBEJS34te0/JpgRUClFzVkvX9+CAFi0BwTA0rgyj8ceNluoKl62Ra6i3e+I6B2LpFvzlVLqMxXHXJfZzd2YB8DPv7gHQBgPEABLE5XvTFGWlw501A3amuA+Rmi2XDaHAFg0CwRAdVxd1rdB76c8SUwEtX1UKTW9SLl1XxHRLTU5IojH/Lr7MQzwnh4QCABhTEAAVCeqKEW/8rvXCEYDJKIPC82Wy+YQAItmYWbrM7hWnsrVFKcPjA2EFi/bIjf3bP+tJlctEm7tV0T0nzZsDi7O7Cl+lfmnXV9DAAjjAgIgGQFwe9c+kqT3daHZctkcAuBpsyilTiQiMxqdlQ+0qgAwMXB0PI/4fbhQKDwrl06fwE4VCoXn2/qOeYSyXYt90HFDAAgdUiIA8BigTCwIujzvE5otl83bXQBs3779BUR0tW3y9tu1ogC4pnedfkX0R/x+pZTanktnT3CnSqXSkO8bjZa7JoYhABZuADSCwNxk2ohZxed4CgACQFbUg1Rn2LqjC5utnTHBfJLapttZAHiet5GIHqpILta2bzUBcN7wJl2K/ojffWYwnNScN0c/pJR6ta0fXTDUAwFQJQDwGKDIlSUCAOMAyMSCUee2gayU6hUZLoeN21UAmIFoiOgJW1vXtmsVAXBP50p9/NS4tc/Xcqh4/+WxsbHn5NDFU9klc09QBYu6PPEIYHVOxiUAoYtCAFQ7UNjZfDPrjTq3DWSl1JFC0+WuebsJgJ07d/4hEV1ga+Owdq0gAG7o2VcfMjtj7e8hLH5NRC3xREyU4CSim0L4LOF7V8cK9ACgB6B5d4MASE4AGHVuG8imkDRvxXx8s50EgJl0hpnvFNg31BdcFwC7Bzv1luhd/g97nteXD0/Obi/MFMa2vUk7vCKKf0XxNydp6AEQ+i4EQHICQDItMBHdITRd7pq3iwBgZo+IzLSzoUVd8pmrAuC+juXaXBaUHGtI2+uY+SW5c+gMdqhUKvWEMFrC+bipcQgACIBoXgoBkJwAMIr0QG92SeCGBPhvBgYG/iCaNbP9dhsIgL2UUu+RPOIXYusqn3BRANzStUofMTNVdRw2x1rT5veG57Jly/bK1nPz8+tEdEQNo1DGp48NQgBAAERzXokAwGOAcrEgmBRIK6UGo1kz22+3sgAwZ6hEdJ1tcpa0c00AXNG3Qe/vRR7V7zHTk5Ktx+bv15VSn7D1nd0DnRAASwQAHgMUeTUEgLyoS24IPFcwJ4DrN0C1qgAw16aJ6GHbxCxt54oAeKBjuT57tF9zxEsf5t6J2dnZl4kSVZs0JqLbbf3n+92rIQAgAKJFhkQA4DFAuVi4ss/+RkCl1BejWTPbb7eiADCijIjM3emhXbFRP3NBAJj7Wcyoc1GP1ZzhmqcnsvXUfP66md3Q9vLSgcVZFP+a4o+bAJvwawgAeVGX9ACYkanK9sXjsSZMmJuvtJIAMM+hE9GXoxY8m+/nXQBc37NGHxR9VL8nzHgJuXHWHO5IqVR6hY2/mDbvnByFAIAAiO7FEADJCgAjFl4vGBGQiLqiWzWbLbSKADAj0BHRfbbJOKgdM/8+aH3QujwLgIuGunU5+iN+D5mRErPxSnd+VXL9/8KhbggACIDozg0BkLwAMHfrBiX+kHXHRbdqNltoBQFgxp4nol+F2MbWjo+4Phug6bk6cfOo7fGGtmPmr5k5ErLxSLd+lYj+ydbvbti0BgIAAiC6g0MAJC8AvtS/MTRBBgT830W3ajZbcFkA7Ny585nMfFaAPSS2M21vLpfLLyWi02y3lbceALM/h80WpMdd2/63zHxCNp7o3q9KYmeb8rS5IVNyKbJd2mIgIKHvQwAkLwDMcJ2CO6d/aUYDE5oxF80lScyMd56LnV62bNlCDNxsW7BD2j3FzGcYIWGOy1UBcFnfBi2YxbK26PvvHyGi8bzY14X9MEOBh/iVz3TP8oTNYyj+AWf/RuRAAAi9HQIgeQFgHPNIwX0AzNwvNGMumrsoAEyhmrvT/1Hb5BvS7nEiKlcawTUBcH/Hci28VLWnINUwme8BqWSB140JENEXajiG8dUX4/p/qACCAGjsa1UtJAIAAwE1LxbM89O2AU5E76gykiNvXBMARPR2IvqdwC5BNryHiFbVmsglAXB71z766Bge8avsAanlgffhBEyvEREZERnkX0vW3dq1KrQAtktXf9hxQgCE+1ngJxIBgHEAmhcAV/WuWxLIdQL+rkBj5XylKwLA3JRGRFfX4W9rq93lcvnZQWZxRQBc07tOvyL6I35LekCCmGBdMAHP89jWFw+dLaD4h3T/4xJAsH/VXQsB0HxRD1OhQevv37hcdG3VzDZX13A5/NAFAWAeRyOih2wTbki7/200fbMLAuC84U26FP0Rv8AekBy6Z253iZkvDPGzJUL0veNDEAAQAPH5MgRAOgLAiIITpsaXBHRY4CulTo7PyulsKe8CwAxEYzvVaphdiOgnnud1NyKaZwFwT+dKfbzAF+uwCO0BacQHnz9NYKH7/7E6jKtyhrlJM+gEA+uezuO4BCCMLAiA9ASAGbzDNtCJ6G6hKTNvnlcBYBwC1N4AACAASURBVIaeJaLzBezD7HS1Ga7VBnReBcC358aPP2R2Juz4bNc/ycyvt+GANvUJMPOMrV+a3hpT4FDsw3M2BEB9f1vyKQRAuDPFHWhmClXbYDftzIh0SwyW4xV5FADmUoqZfEbCPaCtmbZW1COTRwGwe7BT7xe9y9+qByTHbpqrXSOi8wL8LTBPmJlF485JrbY9CAChe0MApCcATLAdLXgckIjeJTRnps3zJgDMdLNE9AvbBBvS7lGl1LQUbJ4EwH0dy7W5gTfk+CTrrXtApLzatP1eRGTGTLCywSWDXRAAda7/m/wKASCMJIkAwGOA0cXCBcObrIJ9ISncLzRnps1zJAD2Ukq9x3ZmtToJ+FYTH81AzYsAML1OR8xMSXwuqK2Z18ApMdqMzdL+jhGWdXxviR3MgGKtdsYe9/GYIawFTD+dts1z93sSAYDHAKMLAPPMtcBBTVtnRlTLgwBg5pcQ0XVCxkE2+UihUHhWswGbBwFwRd8Gvb/nBR2bZN1jzfSANMutnb7HzJfa+ulbpsZR/Buc/aMHoInogQCIXtSlKlYy6Aozf6oJs2bylawFgOd5fUT0sG1SDWlnJgLaERVglgLggY1767NH+iTDT4cJgltnZ2dfFpUFvr+UQLlcfuFcr8pvQ3xwiT0+i+5/KwGESwBLfa3uGgiA9AXABUM9SwK8TiJ4koieV9eIOfkwSwFARG8gol/X4WjD/MG4brzMSgDc1blSHxfPI36RekBy4pK53Q0ieoutr5aJtHl0U3qi0Y7tIQCELi8RALgHIB6x8APhZQCl1NFCs2bSPAsBMDY29hwi+rJtMq3TzmwjNqGVhQC4vmeNPij6qH6x9IBk4oAO/SgR3V/HF6vE6tsw+Y+1+ME9AMIgkAgA3AMQjwAwytxc07NNAER0j9CsmTRPWwCYMfiJ6D4BxyDmv2HmN8YNLG0BcNFQty5Hf8Qvth6QuHm20vY8z5uU+Oxl/RutC2A7nvVXHjN6AISRAgEQX1GvdMRGr7/avzGoGNVbNyA0berN0xQASqntkglUQhLuw8w8nASotASAOeM5cfNoPb+x/SzWHpAkmLbKNpVSnwnxxyW2OrA4qx/oWA4BYHEDoMm5EADCKJEIAFwCiFcsHCwbke0ioWlTb56GADBDpyqlPmSbQOu0u9E8MZAUpDQEwE3dq/Vhs4UlRaPOMQe1/Q0RHZcUB2y3mkChUPhTIvpfWxuZWUQbnUzg88W8jEsA1f7W8J1EAOASwKKjxRF0Hx3pDUrIYevMHcN/1tCgGTZIWgAs+OrNtskzpN1TzHzqrl27npEkqqQFgBkTfj8V+RG/xHpAkmTr8raVUn8d4pdL4p6JtBnHIY5c0y7bQA+AMDogAOIt6pJAu7NzpS6RWhL4YQlCKXW60LypNk9SAJjxEIjo0TA2lut/YUYHTANKUgLg/o7l+vSxQWufqcMl0R6QNBi79hsLc1L83zo2qbIrhv6V52YIAGFUQADInUxS5Bu1feek6Prt42Yue6GJU2uelAAgorcT0e9sE2dQOzMfQJpTLCchAMwgUpIxJII4LIyO+N6ke0BSczqHfoiIDg+xSVXh99t8sb8DZ/+W1/79PAsBIAwIiQDYUZzVx05P4j9GBq8WXsNVSr1VaOLUmsctAIzYYeav+QkxwvJ8c/aVGohly5bFLQCu6V2nXxH9Eb/UekDSZO3KbymlfiTxYSP2kG9lDN4wPRkopkK4YyhgiQAIgSgBjraWE3+EsWbm/4oyRG2SyTJOAeB53kYieiiMg+X6J5j50CSPOWzbcQqA84Y3aTMVrOUxB7ZLuwckjEu7rldKURT74bt2EyYJOUEAQAAk4liBSVjonKHbyOu9AHEJAFO0ieiJiLweMiIiq4IThwAwo78dLxsvIsxnLki7ByQr7nn93bnu/59G9Ocw22J98ydVEAAQAO4JAGb+dR4TXVQBsHCT1PlRE6W5bJD1vRJRBcC3u1frQ2SPiQYVgiez6gHJo39mtU+lUukVUX0a308kT38zK5/Ize9CACTiWEHJONZ1Zrrb3DjRwo5EEQDmBj3TTR0x0ZlHJd+WBy5RBMDuwU69X8Quf3P5xPO87jywaPd9YOYfR/TrWHMH9mVPzn+w3X1zWbFYXA2H2OMQzgSaUur/xTl2fRyB0KwAMI/mEdEvIvrhI3maOrkZAXBfx3JtBtuKyMF8/+qse0Di8KdW2IZSaksM9ozDJ7CNpZcKHm0FH4t0DAvzp8M5ljqHC0zeFcn4MX+5CQGwFxHtIqLfR0ySN5fL5ZfGfDiRNicVAGbAlyNmpqL6nHlU8u2Rdhxfjo2AedSSmf8xom9H9Ql8Pzy3PxKbsV3dEASAe2f/FQnlv5Mczlbq0xIBoJT6W2a+puJYmk1UH5TuZxrtieh9tsdmJvLZ3ys2e/z+9/6DmTencWz4DTsCzHyYrQ+gXSZ5+AE7S7ZwKwiATBzPT9qRl8x8Tl7cUyIAYkh4jxNROS/HXrsfkh6AGFjcbO7lqd0HvM+OwMDAwB8Q0cMx2DZyjsA+hOb4u7PzkJz8MgRAqHO4Eni/Y+Y1eXCnFAWAmQJ4VR6OOWwfUhQAZ5oJksL2A+uzIWAG7ELhzX1uhQCAAMi9k9oIkcuzSXPVv5qSANg9Njb2nOpfzt+7FATA42ZK5PwdOfZoYcY/00NlE7tokx0nCICtW7f+sa2jYjrgdOYNuLtzhfiasFJqOuvUm7AAeJKIjsr6GG1/P2EBkPseEFtOrdiOiD5tm1NNuxM2j2HMf+GY//7Y/0HLV9kPrw4BIOkBwHTA6QgA49SfHOqRnhncn3VXcIIC4Cee5/W5VCwSFABO9IC4ZKs491UpNSgp/maI55vmBn0KKmRY11y+hQAQeDQEQHNOlnRwmmlfpRMFEdFbBKaPvWlCAuA6z/NeFPvOJrzBBATAk0qpoxPebWw+GgHzWOs9EgGAk6r48y8EgMCJIQDid8C4xMFl/RulvQCPm+uPAvPH2jRmAWDGBnj3smXL9op1J1PaWMwCwLkekJQw5+pniOgNkuK/n/L0HV374Ow/xu5/k3shAARhAQGQXwFgnPnYqQmpCPicwPyxNo1RADyWh3saosCJUQA42QMShZ2L3y0UCi8mIjM6p3W8fnikD8U/5uIPASCMHgiAfAuAG3v2tU4oFclnVugGsTSPSQDcOjs7+7JYdijDjcQgAH7PzKe42gOSIfpMflp6498Or6jv7VgBAZCAABBcOsVNgBAA+RYARtH+9cSwlQhQixPI/Hu5XH5h2pkwBgFwbqFQeFba+53E70UUAM73gCTBNK/b9DyPK8S3Vax+brALxT+B4o8eAGGUQADkXwDc1rlS7+95VomlIhF9W+gKkZsrpf6y4vcl+/tLZj4w8g7kaAOSoYBrmN1mhFSODgW7UofAwmPUj9bYsK7vHzM1geKfUPGHAKjjrEEfQQDkXwAYp75ksKtuUglJQKmOk2/O3onoqZB9Cdv/B5VSa4N80+V1zPxGIQfNzB/buXPnH7p83O2270R0ucTOW+Z66b7XvQoCAAIgH6ECAeCGADAi4JjpybAiGrheKfVUqVQqpOlpRPQ924SolPpioVB4fpr7l9ZvlUqlHlsORPS/RPTKtPYNvxMPASI6WGDj+Rg9ZxQ3/plcluQ/ngIQ+LdEAGAkwGQdt1FQmDOHrYvX+QOLfkBC+pc0Hw0UXA/NdMwCQYg03ZSZvxZgj1q7/VO5XO5o+kfwxUwImOmniei/LOy7x96HzM7o+zcuT7T4Ncoh7fA5BIAgJCQCAINWZCsATPB+YmTTnoRim3yUUp8RuETkpkqp0+vs2797njca+Ucc2IARXkqpH4exUEp9pVV7QBwwT6RdJKJvhNk1bP1VfetR/BM++zc5Ek8BCFwbAiD7oi5R5WaEwCNmpsQigIjeKXCLyE2JSM3931yRDP+VmU/avn37CyJv3KENFAqFP1JKvYeZf+6zYObrmbnk0GFgVysIGHv6trRdvn98EMU/heJvcil6ACqctdFLTAbklgAwDv6tnjXNCABzk9n+jfwh7s+J6M+YuTPu7bq4PTOfQRaPZ7rIKq/7TERl6Y2ur56Z1v/Qga5/yYlOlLYQAILoQQ+AewLABIftmUdNu4eKxeI6gXugKQiAwAKBUqm0noh+WRNTdWOxRErf0LMvzv5TOvs3uRECQBCyEABtJQBML8CVAvdAUxAAgWXLlpl7NZg59H6OMFFw7nAvin+KxR8CQBiuEADtJQAWEtWZQjdBcxBoZwJ7KaXuDCvyYeuPLmzWD6DrP3UBhB4AQahCALSlADDdlocL3ARNQaBtCRDR34UV+bD12z1Pf797derFL8q181b5Lp4CEIQqBEDbCoBftMvjeIJwQFMQqCJARPuFFfl66y/HI3+ZiR8IgCoXrv8GAqBtBYDpBfghM6+p7yH4FATal0C9Ih/2GUb7yzan4hKAIF4hALJ11ma73cKSTxPrb8FgNIKAQdO2IUBE/yaNpzdPjWd25ttsLmm176EHQBCiEABtLwBMT8A3BS6DpiDQ8gSUUjdIi/+BxVl9d+cKCICU7/qvFTDoARCEJwQABMBCortC4DZoCgItS6CZ4m9i6ONDPSj+GRd/IwYgAAShCQEAAVBxpvMFgeugKQi0HIFmi7+JoUsGOiEAIADcigkIAAiACgFgBgq60C0Pxt6CQDwEohR/CID85FH0AAjiAQIgP45bey2r3vvKop3A63cLXAhNQcB5AlGLPwRAfvIoBIAgHCEA8uO49Qp+7WcJFP2qMc2VUq8WuBGagoCzBOIo/hAA+cmjEACCUIQAyI/j1hb5eu9tBcAxUxNVhd32e6adUqoocCU0BQHnCMRV/CEA8pNHIQAEYQgBkB/HrVfwaz+zLeRGAHx2sKtpEcDMhwrcCU1BwBkCcRZ/CID85FEIAEEIQgDkx3Fri3y99xIBYLbzyaGepkWAUuqtApdCUxDIPQEiusk2hmzb4SmAfORSCABB+EEA5MNp6xX7oM9sk5LpAfC//5GR3qZFADOfIXArNAWB3BIgop/Zxo+kHQRAPnIpBIAg9CAA8uG0fpG2XdompkoBYLZ9xthA0yKAiC4RuBaagkCuCJRKpfVE9D+2sSNtBwGQj1wKASAIOwiAfDitbeH329kmp1oBYL6/a3yoaRHAzNcUCoW/ELgYmoJA5gRKpdJ225hpth0EQD5yKQSAINwgAPLhtH5ht13aJqkgAWB+46TJkaZFABHdzcz9AjdDUxDIjAAzn2AbL1HaQQDkI5dCAAhCDQIgH05rW/j9draJKkwAmO2csHmsaRHAzI+YudIFroamIJA6AWY+1TZWgtp9eKTPOkYgAPKRSyEABGEGAZAPp/ULu+0yKFkFrasnAMxvvSnCOAHm95j5eIG7oSkIpEaAiD4SFBO26y4Y3qQhANzLjxAAghCDAHDPwU3htk1ijQSA2dYJU+PW2wv53Qu2bdv2XIHboSkIJEqAiD4d4qsNfb2slL5ksGv+6RkIAPfyIwSAILQgANxz8LgFgNlexKcDTFL9DhENCFwPTUEgdgLMPMzM1zdb/F9enNVf6t+459FZCAD38iMEgCCsIADcc/AkBIDZ5qeGuhueHdVLrEqpn2MOAUHwoWmsBIjoOCL6ZT0frffZobMz+uu96/cUfxMTEADu5UcIAEFYQQC45+BJCQCz3a/0b4wkAkyCVUq9X+CCaAoCkQh4nreCiD5br7g3+uzwmSl9/aa1VcUfAsDN3AgBIAgnCAA3nbxRQvM/t7kHwCS6yv+retdFFgHM/JXZ2dmVAldEUxAQEyCiHUT0oO/vzSyPnZ7UN3evrooBPx7QA1CdG3wueV5CAAjCCALAPQc3wWeb6JoRAGb73+pZow+enbH+nZD9ua9UKrHAHdEUBKwIDAwM/AERnRnid9Z+ax6FvbNzZWDxN3EAAeBefoQAsAqhpxtBALjn4GkIAPMb3+tepY+ZnrROpmHJ2FwSwFMCgqBE07oElFITRPTtMH+zXf+e8SF9/8blocUfAsDN3AgBUDd8qj+EAHDTyW2TXLM9ACb5mf+7OldGGjCoYj9v9zzvFdXeh3cgICNgZqYkoicr/KopgWqe8fd9vN4SPQDu5UcIAEFMQQC45+AmYdkmwKgCwPyWOUt6X4T5A2r29QLcGyAIUDSdJ0BEioiurfEl6zjwv3fYbEF/rX+DVfE3vg8B4F5+hAAQJA0IAPccPG0BYH7P/H9msEvvKM6Kk66ffP0lM/94bkrWowRuiqZtSoCIliulPur7TpTliZvH9C1dq6yLPwSAm7kRAkCQLCAA3HRy20QYRw+ALwDM8ts9+8YxcuC8iDBPCmDwIEGwtllTZn4jEf3U1tfrtfvQaJ+o8Ps+jx4A9/IjBIAgUUAAuOfgJjnVS3aVn8UtAPzE+JGRXut9qNyfgNf/w8wnC1wWTVucQFzd/cbXzMh+nxvobKr4G1+HAHAvP0IACBIEBIB7Dp4HAWD24fK+9frwwuZYhIBS6gdKqdcJXBdNW4xAnN39pvi/YXpSX79pTdPFHwLAzdwIASBIDBAAbjp5wJl0YCFOqgfAJEfzb54SMI9T2e6PRbsbmfkggQujqfsE9oqzu9/42GljA/rejhWRij8EgJu5EQJAkBAgANx0cotCOl+UkxYAvhD41GDXfHer7X5ZtLuaiPYTuDKaOkZg586df0hExzDznRb+YCUyjyxM6csqJvPx/bPZJS4BuJcfIQAEiQACwD0HN8nMNmGmJQDMPpnRA82d1rb7ZtnusrmZBmcFLo2mOScwN4Lf85j5zUR0r6UPWPnUB2M6668UCxAA7uVHCABBAoAAcM/B8yoA/MR50VC3PjCGxwUri4NS6jOe540KXBtNc0agUCi8mIjeRkQPVNo26uujpyf15X32z/b7fmqzhABwLz9CAAgCHwLAPQfPuwAw+3dTz7765MkRqzM3SQFg5k8RUVng4miaMYFyufxSInonEf2LxNY2bc3jffd11B/O16bQh7WBAHAvP0IACAIeAsA9B3dBAPgJ9ZLBTm3mWbdJ5sI2t5hhYcvl8t4Cd0fTFAkUi8XVzHxKXM/yV/qHmaPiit71kW/y8/00bAkB4F5+hAAQBDkEgHsO7pIAMPv6/a5Vele8TwpUCopfENEnmdkTuD2aJkTA87wXMfNriMjcu/GbyqIdx+vtnqfPGe3TD9RMYR1WwKOuhwBwLz9CAAiCGwLAPQd3TQD4SfjzAx36tTPTlcU77tffIaLjisXinwtCAE1jIDA3jsMWIjp/bojnn8VR6IO2ccrEsL6xZ9/Ez/p9fzVLCAD38iMEgCCgIQDcc3BXBYDZbzP3+mnjg3EX/qrtKaV+TkTnmaK0c+fOZwrCAU0FBJh5mIjeF/fd/LXF/7ipcf13Cd3kV1nsg15DALiXHyEAZEH8ktqAC3tvBnwJChKsSz9IwmxUuz7NxwAlfnDdprXanNHV7m8C7x8ioo8z8/6FQuGPBKGBpgEESqXSeiJ6i1LqhgRsVeUPr5qZ1hcPdmeacyAA0s9tkjwS1BYCICBww1ahB8A9BzdOb5t88yoA/MC9pnedflc6QsAw+zciuoiIdkxMTLwgLCawvpqAUmpi4Wa+b9v6XZR2+ymlzxrtn+8t8v0kqyUEgHv5EQKgOn7rvoMAcM/BW0kA+In9yt51+uTJUWthE6XALHz3P4joEqXUISYG6gZJm324ffv2FxDRAabnZG5+BjN1c2p2effkiP5mT7Tx+32fimMJAeBefoQAECQsCAD3HLwVBYCfrM2jXSduTlUIaGZ+nIhuJKKzlVKvLhaL6wQh1BJNlVJriehNzHxNmgXf/62TJ0b0V2Mcwtf3p6hLCAD38iMEgCAlQQC45+CtLAD8hG1Gdjsh/mGFJWey5t6By5j5JGbe3Eo3E3qet8Kc4TPzqUqpK5O8c98v8EHLg4sz+szRfn1Dynf2+z5ms4QAcC8/QgBAAGR645BNYonaJiihBq3L+z0AjTh8pW+DfvfEsN6ilKR4J9H2d0T0fdNLwMx/ZUYjLJfLHWZce0G4pd6UmdeY2RWVUqcT0bVE9J9BfpLmujcUNuuLh7r13Z3RZ+tr5D9RP4cAgABIPWjT/EH0ALjn4Cap2SZs1wWAn8Bv6l6tzx3p1a8rTFkfuy2jqO0WHju8XSn1FWY+a6ErfX8iGlkowIncY2CG2C0Wiz1KKWLmw5RSJxLRh4no8wt36f931GOL8/t57eb3fSxoCQHgXn5ED4BAQUAAuOfg7SgAKpPzF/s7Ur9PIKZC+BgR/dNCT4KZ7vhzRHQuEe0iotOUUh9aeH++UupvzefM/CUiupyIrmbm64noNqXUw0RkeiRyJ4Zq98kMA533bv5K36p9DQHgXn6EAIAAwCWAheLQKj0AtYnZvL9h05r5x8UEAZ/7gllbQF18bx7jM090fGGgM9GJeoJ8Iu51EAAQAIJy6l5T9AC45+AmydkWhlYWAH6y/1HHcv3ZwS791qlxXXbgrNjWdq61M772yeFN+vvdq1tGgEMAuJcfBScEd7tXsWPeYwgA9xwcAiDcZmbiITMDoZmK+MDirLVQcq3Y5mV/Xz0zrT842q+v2bS2ZYq+LyzNEgIgPNYqOeXpNQSAQCRAALjn4CbYbAtAO/QAhCWfeztW6Mv6N87PPZDwJETW9rC1W57bvbI4M/9kxpf6N6Y2K1+YjZNeDwHgXn6EAIAAaMmzkcpkZ1sg2lkAVPIyr82wwx8Z6dXHTk+2VcG29ZWwdjuKs9rcwX/BUI++tkXP9Gt9xX8PAQABICin7jVFD4B7Dm6SU1iyrl0PARBs35t69tWXDHbpUyeG9OEz+Xu0sNaOab5/uVfUJ20enX9W/5ttVvD9wu8vIQCC48fnk8clegAEOgQCwD0HN0FnWxAgAOzse2vXqvm71j8wNqCPnp7UJcp84CFrG9v6Qlg7M+veOydG5m/gM09W5DGpZ7VPEAB28ZOVfYJ+FwIAAqDlk1hYMq9dDwHQXAIzTxZc2bd+/pLB8VPjen/PS60g19owzvd+sf/4cI82EzD9sCP/o/EFJfm01kEANBc/adkn6HcgACAAIADaYByAoOBPct0PuvbRV/eum3/K4OzR/vnr4kcVNuuX5+xpAzNsshln/8jC1PyZPYp980UMAqB5dknGYr1tQwBAAEAAQACk6gM/7FyhzfVyM0rheSO984/GvW9sUJ8yMaxPmhzRb9k8pk1vzOtnpvRrZwvzBdpca9+qlGai+bkOtilPH+AV9Q6vqM2d9ofOFvRrZqbnhz8+ojA1f2nimOlJ/fbNY/P3Lpw90qcvGuqe/00jTL7bvVrfhTP6WO0OAQABICin7jXFPQDuObhRv7bdwrgE4KZ9653h4LP0bAoBkB7ruPwaPQACHQIB4J6DQwC4abO4Ehy2k579IQDSYx2XX0MAQADE2g0Yl2PGuR30ALiXmOK0P7aVjv0hANLhHKc/QwBAAEAA4B6AlveBOJMmthVc6CAAgrnk2V8gACAAWj75owfAvcSU56SJfQv2JwiAYC559hcIAAgACAD0ALS8D+Q5CbfKvkEAQAAIyql7TXEToHsObpIregDctFurFMZ2OQ4IAPfiDD0AAh0CAeCeg0MAuGmzdimarXScEADuxRoEAARAy3f/ogfAvcTUSoWxXY4FAsC9OIMAgACAAMA9AC3vA+1ShLM8TggACABBOXWvaaFQeLHt2eSu8SEk1Y35CAhbm2EkwHzYK8siht9u3gcgAJpnl5XfmSG0bfIjM9/pXsWOeY937dr1DBtYps3JEyMQABAA8IGc+EBWCbadfhcCwD0BcKA3ayUAiOg7MZdTNzdHRE/aiIATNo8h+eck+dvYy7RBD4B7CaydCmzejxUCwL34MRNs2eRHpdSVblbsmPeaiP7TBpiZXjTvAdsu+2djLwgA95JXu/ivK8cJAeBWDN3TscKq+JvcyMyXxlxK3dwcEd1jU1C2ex4EAHoA4AM58QFXiqjL+wkB4JYAuGbTWmsBoJT6kJsVO+a9JqIv2wgA0+a2zpUoADkoALb2wiUAtxKYy8WyFfcdAsCt+LlksEsiAI6MuZS6uTkiep9tQbl0oAMCAAIAPpADH2jFgpu3Y4IAcEsAnDw5Yi0APM+bdLNix7zXSqlDbAXA30wMI/nnIPnb2gs9AG4lsLwVwHbfHwgAt+Jnh1e0FgBmFNyYS6mbm1NK/aVtQdnfK+r7clAA2z0x2doLAsCtBNbufp2344cAcCd+ruxbb138iegf3KzWCe21UurHtkXlsr4N6AXIWATZ2goCwJ0Elrfih/3ZW0MAuBM/p0zYd/8z88cSKqVubpaILrEtKm+cnoAAgACAD2TsAyjQyRcnCIDkGcfhx7d37aNtn/9fqHM73KzUCe01Mx9oKwBMu6v61qMAZFgAbG2FHgA3ElgcSRDbiN/WEADxM03CT983PiTp/v+fbdu2PTehUurmZgcGBv6AiH5pW1heNzOtH8iwACbhRC5t09ZOEABuJDCXfK+d9hUCIP/x892efXWJ7Eb/W8ibF7lZpRPea2a+0LawmHYXDXWjFyAjEWRrJwiA/Cewdiqorh0rBED+4+fo6UnJ2b8ZAXA44VLq5uaZud+2sJh227yi/n73aoiADESArZ0gAPKfwFwriu20vxAA+Y6fC4d7RMWfiG5zszqntNdE9Pe2xcW0M+oLlwLSDxJbG0EApG+bdiqQrX6sEAD5jR/T9S+88c+IBdz8V09LENG4bXHx25kbMFo9EeTt+Hz2jZYQAPlNYHnzKezPUl+BAFjKJA9+cmfnSn3obEF69v+vu3bteka9+ofPli1bRkRfb1RYaj//+PAmiIAULwXU8g97DwGQzwSWhySKfWjsGxAAjRml7Udmxr8jClPS4q+VUq9GgbcgUC6X9yaiJ8KKStj6M0f7IQJSEgFhNqhdDwGQvwSWdsLE7zXvLhemXgAABqJJREFUAxAAzbNLwu9u7dpHHzYzLS7+zPxdi9KHJj4BInpTbTGxeX/i5Ki+t2M5hEDCQsDGFqYNBEC+ElgSSRHbTM7GEADJsZX67bWb1uodxVlx8Sei//U8b4Vf27C0JEBE37ItNJXtXjszrW/C0wGJiqBK3vVeQwDkJ4FJEx7aZ287CIDsbWDi4OIh8d3+e4SCUgrT/lrW/KpmW7Zs+Qtm/nm9AhP2mbk789zhXkwclFBPQBj32vUQAPlIYCjmbtoBAiBbu93cvVofI3zOvyYHXl5V1PBGRoCZSzVA9ygrm/WvnC3MDxj0D7gsEGuPgA170wYCINsEhsLvNn8IgGzs952effW7Ju0n9wnJh/+yffv2F8gqHlovIUBEx4QAthYDZtCgkydH9GX9G/UPO1fEWgzbMcna2gMCIJsE1o4+2YrHDAGQXvzc0LOv/sTIpvmxZWzzW512jzLzmiXFDCuaI0BEp9WBbS0E/G2YOzmNILhgqEdf1btu/p6BezsgDGyTqM+x0RICIL0EZms7tHPHJhAA8dvqjs6V+ls9a/SX+jfqD4726+OmxvV+yhPXkDq575dmVNvmKh2+FUqAiD5SB3qcBsS2iMAADOADDvmAUqIJaWDbZGxriv/m0CKGD6IRIKJ3QASgOMMH4APwgWofgACo5pGBfzzCzJ3RKhy+3ZCAGVEpA+NCMSejmMEVXOEDMfgABECmAuBuM4Bdw+KFBvEQMEqLiP4ZQiBTp0fijiFxw4fhw3H4AARAZn708XK5/Ox4Khu2Yk1g27ZtzyWi8+MIHmwjs+CBiICIgA/E4AMQAOnmMDNGjVLq5dYFCw2TIeB53igR3YMinm4AgDd4wwfgA+3oA8x8TrlcfmEyFQ1bbYoAM7+eiH7ajg6Z9jHjbAOJP22fw+/B57L2AWb+kud53U0VKHwpHQJE9FoieiBrZ8HvI2HBB+AD8IGW8IHPl8vljnQqGH4lFgKe500qpf7WzMaEIGyJIMS14hiuFSMWEAvwgcY+wMz/yMwnlMvll8ZSkLCR7AgsiIETieirRPQgAqBxAIARGMEH4ANt4gOPEdHNzPyxud7jg4vF4ursqhV+ORUCZqxmz/NYKXWsUupDRHQFEd2IfzGDe42oUkr9gIiuVUqZINqFfzCAD8TnA0qpjxLRdUqpf1RKPcjM/4BcJctVSqkbiGj3nKj5m4XxZEY8z3tRKgUHPwICIAACIAACIAACIAACIAACIAACIAACIAACIAACIAACIAACIAACIAACIAACIAACIAACIAACIAACIAACIAACIAACIAACIAACIAACIAACIAACIAACIAACIAACIAACIAACIAACIAACIAACIAACIAACIAACIAACIAACIAACIAACIAACIAACIAACIAACIAACIAACIAACIAACIAACIAACIAACIAACIAACIAACIAACIAACIAACIAACIAACIAACIAACIAACIAACIAACIAACIAACIAACIAACIAACIAACIAACIAACIAACIAACIAACIAACIAACIAACIAACIAACIAACIAACIAACIAACIAACIAACIAACIAACIAACIAACIAACIAACIAACIAACIAACIAACIAACIAACIAACIAACIAACIAACIAACIAACIAACIAACIAACIAACIAACIAACIAACIAACIAACIAACIAACIAACIAACIAACIAACIAACIAACIAACIAACIAACIAACIAACIAACIAACIAACIAACIAACIAACIAACIAACIAACIAACIAACIAACIAACIAACIAACIAACIAACIAACIAACIAACIAACIAACIAACIAACIAACIAACIAACIAACIAACIAACIAACIAACIAACIAACIAACIAACIAACIAACIAACIAACIAACIAACIAACIAACIAACIAACIAACIAACIAACIAACIAACIAACIAACIAACIAACIAACIAACIAACIAACIAACIAACIAACIAACIAACIAACIAACIAACIAACIAACIAACIAACIAACIAACIAACIAACIAACIAACIAACIAACIAACIAACIAACIAACIAACIAACIAACIAACIAACIAACIAACIAACIAACIAACIAACIAACIAACIAACIAACIAACIAACIAACIAACIAACIAACIAACIAACIAACIAACIAACIAACIAACIAACIAACIAACIAACIAACIAACIAACIAACIAACIAACIAACIAACIAACIAACIAACIAACIAACIAACIAACIAACIAACIAACIAACThH4/wFQ3DdYmoACaQAAAABJRU5ErkJggg==;" parent="1" vertex="1">
          <mxGeometry x="-2090" y="719" width="90" height="90" as="geometry" />
        </mxCell>
        <mxCell id="KE77L9WXBN6WNrBAQjAJ-10" value="" style="shape=image;verticalLabelPosition=bottom;labelBackgroundColor=default;verticalAlign=top;aspect=fixed;imageAspect=0;image=data:image/png,iVBORw0KGgoAAAANSUhEUgAAAgAAAAIACAYAAAD0eNT6AAAAAXNSR0IArs4c6QAAIABJREFUeAHtvQuYJFV5/7+oifFuTEzyi+wuu+x1bjv3+870TNd53+5ddkHZRUBF/4AQQRRFQdGQFRVBBBFFQSCKunhDgwhIAAUVROQqRCAkIWqI5IchP4OG4I3znzNM7XT3VHWft+t6ur/zPPNUd/Xp6qrPe/vWqapzli3DHwiAAAiAAAiAAAiAAAiAAAiAAAiAAAiAAAiAAAiAAAiAAAiAAAiAAAiAAAiAAAiAAAiAAAiAAAiAAAiAAAiAAAiAAAiAAAiAAAiAAAiAAAiAAAiAAAiAAAiAAAiAAAiAAAiAAAiAAAiAAAiAAAiAAAiAAAiAAAiAAAiAAAiAAAiAAAiAAAiAAAiAAAiAAAiAAAiAAAiAAAiAAAiAAAiAAAiAAAiAAAiAAAiAAAiAAAiAAAiAAAiAAAiAAAiAAAiAAAiAAAiAAAiAAAiAAAiAAAiAAAiAAAiAAAiAAAiAAAiAAAiAAAiAAAiAAAiAAAiAAAiAAAiAAAiAAAiAAAiAAAiAAAiAAAiAAAiAAAiAAAiAAAiAAAiAAAiAAAiAAAiAAAiAAAiAAAiAAAiAAAiAAAiAAAiAAAiAAAiAAAiAAAiAAAiAAAiAAAiAAAiAAAiAAAiAAAiAAAiAAAiAAAiAAAiAAAiAAAiAAAiAAAiAAAiAAAiAAAiAAAiAAAiAAAiAAAiAAAiAAAiAAAiAAAiAAAiAAAiAAAiAAAiAAAiAAAiAAAiAAAiAAAiAAAiAAAiAAAiAAAiAAAiAAAiAAAiAAAiAAAiAAAiAAAiAAAiAAAiAAAiAAAiAAAiAAAiAAAiAAAiAAAiAAAiAAAiAAAiAAAiAAAiAAAiAAAiAAAiAAAiAAAiAAAiAAAiAAAiAAAiAAAiAAAiAAAiAAAiAAAiAAAiAAAiAAAiAAAiAAAiAAAiAAAiAAAiAAAiAAAiAAAiAAAiAAAiAAAiAAAiAAAiAAAiAAAiAAAiAAAiAAAiAAAiAAAiAAAiAAAiAAAiAAAiAAAiAAAiAAAiAAAiAAAiAAAiAAAiAAAiAAAiAAAiAAAiAAAiAAAiAAAiAAAiAAAiAAAiAAAiAAAiAAAiAAAiAAAiAAAiAAAiAAAiAAAiAAAiAAAiAAAiAAAiAAAiAAAiAAAiAAAiAAAiAAAiAAAiAAAiAAAiAAAiAAAiAAAiAAAiAAAiAAAiAAAiAAAiAAAiAAAiAAAiAAAiAAAiAAAiAAAiAAAiAAAiAAAiAAAiAAAiAAAiAAAiAAAiAAAiAAAiAAAiAAAiAQDWBcrn80lKptL5UKo2VSqUC/uUMyuXyAZ7nHa+Ueo3neQX8gwF8IH4fIKKDF+Ls5chT8jyllJr2PK9vy5YtK7dv3/6C6kqAdy1NgJn7lVLHKqU+QUTXEdFPiEjjHwzgA/AB+EBb+sATRHQHEX2ZiN6rlNpeLBb/pKULYTsdnFLq1UR0LREZQ6PYgwF8AD4AH4APNPKBB5n5LNMz3E71siWOtVwu701E5xLRf6PoQ/TAB+AD8AH4QAQf+B4zv6YlimMrHwQRrSKii4noNxGM3UgZ4nOcPcAH4APwgfbzgQeMENi1a9czWrmOOndshULh+aa7hoh+i8IPpQ8fgA/AB+ADSfmAUupHc5eVx50rlK24w0qplxPRz5IyNraLRAIfgA+44ANKKfRKpNsr8dmtW7f+cSvW1dwfU6FQ+CNm/pQLgYl9RAGBD8AHkvYBCIBMfOxnnueN5r5gttIOep63ce552AeSDihsP5OAwllMumcx4N0ivCEAMs1X72ilGpvbYzGD9RDR4yjOmTo7ikaLFA3EUevEEQRA5rb8NG4QTFA6MPP+RPQkklbmjg4BAAEAH8iZD0AA5CIvfn1sbOw5CZbB9ty0GaEp7sK/n/L0q2YL+pipCX3y5Kg+Y2xAf3ikD/8WDGxtYdiCab596pzRp/fPLP3XxmaNXle2t3ldu83a93H8nu9rjbZV+ds2++638Zf+9/3f8Zf++tr9qPc9/7v+snYbtrF24uQIYq1B7jp7pE+fOjGkT9g8pl9f2KwPLM4mIWS/0Z5VOqGj9jxv0jYI6rXbqtS88b/Q36G/371a/+PGvfHfJIN6nCs/MwIAnOFn8IHmfMCIgcp4qvf60v4OxFqT+eya3nX6guFN+rUz09a869mCiD6XUDlsr82aoRiJ6JcNYNc12gFeUZ870qvv7lyJAGkyQGoTuK09IACaS/y1vPG+PTlCAKRv9yt61+u3bB6rW1Ns8h8zn9pe1TrmozWP+hHRvTawg9rs73n6gqEeFP2Yin5lEQriHbQOAiD9BFZpJ7x2mz8EQHb2u6FnX3381HgkIcDMXsxlsX02tzBrX1MGeNfkiL4TZ/yJiZ+gYh+0DgIguwSG4u8+e4kA+DwuASSS774w0Kl3eMWm6hARPWqmm2+fqh3TkRLRfkEFpdG6HcVZfXnf+kQcAQl1MaE2soP/OQTAIjP4D1hIfQACIB8+Yy4fv3tiuFkRcFVMZbE9NmPG9iei/+sXEdvla2am9R1d+6D4J9DlX5u4bG0CAZCPBFZrP7x3wy4SAYCbAJO36ceHNzUrAg5uj+odw1ES0cdtC4zf7rDZAop/CoXfLxw+90ZLCIDkk5JvEyxbj7VEAOASQDr2/+hIr1gEMPPPMW+AhTgolUr7ENFTjQpL5eevK0zhen+Kxd8Umkr+9V5DAKSTlFD8W5OzRACgByA9H2iyJ+A0ixLY3k2I6Px6BaX2s4NnZ/TdnSvQ7Q8BAB9I2QcgOpIvOBIBgB6A5O1R6fNnj/Zbnwgt1K3/2rZt23Pbu8LXOXpztyQR/bq2yIe9Z6X0NZvWIvFnkPjDbFK7Hj0A6SalygSF1+6zlwgA9ACka+/7Ny7XRxSmpCLgTXVKYHt/pJT669oCUu/9B8cGUPwzKP6msNSzS+VnEADpJiUU/dbiLREA6AFI3/bf6dnXOhcu5MV/bu8qH370exHRI5XFo97rg4oz+t6O5RAAEADwgYx8AGIj+YIjEQDoAUjeHkE+f6bwUgAzz4SXwTb9hIjK9Qp+7WeXDmDc6yBnTGtdrT3C3qMHIJuklJYf4HeSta9EAKAHIFlbhPn6vR0rpAMF7W7TMh9+2GbyhLAiUrv+kNkZnPVlfNZXa5Ow9xAA2SSlsGSF9W7ZAwLADXuZIefDcmDQejPMfXg1bMNPJN3/GN8/+6AIcuqgdRAA2dsKRd9dG5gpgoPiKmgdegCytfMByrO2FTNvbsMyH3zIxWJxXZBDB63bT3nadLkgqWXr7EG2CVoHAZCtnRAnbvOX9ADgHoBsbb1rfEgiAE4JroZtuFYpdWRQ8Qhad8rEMIp/xt3/pqgE2SZoHQRAtkkJAsBt/hIBgB6AbG19Vd9667xIRNe1YakPPmRm/lhQ8Qhat3uwEwIAAgA+kAMfgLhIvuBIBAB6AJK3Rz2fN+MClEjZioBHg6thG65l5uuDin3Qutsx2U8uil+QbYLWoQcg26RUL2Hhs/zbBgIg/zaqjKO/mp60FQC6XC6/sA3L/dJDJqKHg4pH7boDi7O5KH6VBm/X17W2CXsPAeBWAmtXf87rcUMAuBU/p40PWgsAIhpZWg3bcE1Y8ahdf9z0BARATrp+a20T9h4CwK0EltdC2K77JREAuAcg+1i7WPA4oFLqkDYs99WHbCZHCCsetetxA2D2Du4n4lrbhL2HAMiPzXzbYemOTSAA3LGViasreu1vBGTm46urYRu+M3MkhxWP2vXmMQskr3wERK1twt5DAOTDXogbN+0gEQC4CTB7G98omBtAKXV6G5b86kMuFot/HlY8atefOgEBkJdEXmubsPcQANknpbz4DPZD7gsSAYBLAHK+cfvknZ0rJfcAXFxdDdvw3ZYtW/4irHjUrn8PegBy0wNSa5uw9xAA2SeluJMctpeeTSUCAD0A6dklLAbMIHVhuTBg/efbsORXHzIEQPZOG+bM9dYHOHOg40MAuGnferbHZ+nZVDIUMARAenYJiwEIgOr63vAdBED2ThvmzPXWQwC4abd6NsVn+bMpegDyZ5N6cQIB0LDkVzeAAHDLwX3nhwBw026+/bB0w34QAG7YyY8nCIDq+t7wHQSAWw7uOzoEgJt28+2HpRv2gwBww05+PEEANCz51Q0gANxycN/RIQDctJtvPyzdsB8EgBt28uMJAqC6vjd8BwHgloP7jg4B4KbdfPth6Yb9IADcsJMfTxAADUt+dQMIALcc3Hd0CAA37ebbD0s37IenANywkx9PEADV9b3hOwgAtxzcd3QIADft5tsPSzfshx4AN+zkxxMEQMOSX90AAsAtB/cdHQLATbv59sPSDftBALhhJz+eIACq63vDdxAAbjm47+gQAG7Y7f6O5fqOzpX6pu7V+rpNa/Xlfev15wc69MWD3fpjI736g2MD2syxcdLmUX3c1Lh+y9S4fsfk6Py608cGtSlAnxju0Z8a6p7/3lf7Nuhv9K7T3+pZo2/uXqXv7NpH/6hjeW5GqPT9s1WWEABuxJnvbxAADUt+dQMIALcc3Hd0CIB82O273av1V/o36o8P92gzVLYZefH/m5nSBxdn9HbPCxyd0dZ2knYHeEV9VGGzPnlyZF407B7o1H+/aa2+q3MlxEGEKbwhAPIRZ37ea7SEAKiu7w3fQQC45eB+ANgWBwwFHN2+t3Xto6/sXaf/dqhbnz46oE/YPKZfNTOdWnG3tXVYu0pxYG5qgziw9wncBGjPys9NWS4hABqW/OoGEABuObgfXGHJvnY9BIDMvtf0rtMm6b9zYkQfUZjS27yiM4W+1vY27w+dnZm/3GAuSxih4/sXlk/7DXoAZPGTtd9AAFTX94bvIADccnA/wGySu2kDAVDfvuba/EVD3fptm8dS7bK3tV/a7Q6fmZrv5bisb4O+A4Jg/nKKrQ0wGVD9WPNzV5JLCICGJb+6AQRA9k7bTEDYJiUIgGr73t25Qn+xv0OfOj6oD5sttPTZva2P1Gt37PSkPmu0X5ubD+9uw/sJ0ANQHT/N5Ko0vwMBUF3fG76DAHDLwf1gqpe0Kz+DANhbX927Tn9kpFe/aWpCl5VC0SdqisF+ytNvnpqYPyu+vmdNW1wugABwKz9CADQs+dUNIADccnAIgMb2eqBjuf7CQKc+ZWJEHzI701SxqxRReB0sGIygunCoW9/ataplxQAEQON483NSHpYQANX1veE7CAC3HNwPMtui1E49AN/sWaPPHu3Xr3HoDn1bO+a5nekZOHliZF50tdqYBBAAbuVHCICGJb+6AQSAWw4OAVBtLxPwnxvs0idMjeNMv8mu/TjFxcGzM/q08UF9Zd/6lugVgACojjc//+R1CQFQXd8bvoMAcMvB/cCzTdqt2gNgBrk5Y2xAm4JjywLtgrvyk+JyZGGzPnekV9/Qs6+zYgACwK38CAHQsORXN4AAcMvB21kAmLvQzZC45ka0pIpWDNv9JRH9GxHdy8zfJaKvE9FnlVIfJaL3EtHblFJHEtEOZvaUUoPMvKZQKPxpoVB41rZt255bLBb/3KzzPK+PiKY8z9tKRAczs/neW5j5FCI6k4jOJ6LdRHSFUuoGZv55DPufCNu3bh6bf/rC919XlhAAbuVHCIDq+t7wHQSAWw7uJ07bRN8KPQBmFL73jQ3qHcXZRIqTLcuadv9FRDcuFPajSqXS2FxRfl7DgEu4gYlnIyyY+XgiuoiIvj8nOn5Vs++Zcfyr6cl5EXdfhOF5/RhIYwkB4FZ+hAAQJhgIALcc3E96tgndZQHwtf4N88Pu2h5rQu2eIqIfLpzFn0hE5XK5vLcwzDJvTkSriGgbEb1zodfAHNPvE2LWUGC8dmZanze8Sd/eme/RByEA3MqPEADCVAMB4JaDt4MAMGf8J02ONCwiCRSv3851yV9JRB8olUqHEFGXMJyca14sFjuI6HBmvlQplfolhJ3FWf2h0X59U07vE4AAcCs/QgAIUxAEgFsO3soC4JpNa/W7J4bTLvyPKaU+Q0QHCEOnJZszc7+5T4GZr0mzh2Cr5+lTx4fmZzD0fTwPSwgAt/IjBIAwLUEAuOXgflK0Pft14RKAGVVu1/hQmoX/ISK6oFQqsTBc2qp5oVB4vrkBkZnPIKLbbH0uart3To7qy/s25OLJAQgAt/IjBIAwRUEAuOXgrSQAvt29Wr9/fFCXKJXhee82d87P3S0/LQwRNF8goJRaa55gMD0mSqkfRy30jb5/8uSoNoM7+T6fxRICwK38CAEgTFcQAG45uJ8EGyVP//M89gDc3L1q/hl+M4Kcv58JLb+jlPprZh4WhgWaWxBg5oOUUl9JyHbzvmF8xMzjkNUIgxAAbuVHCACLwK1sAgHgloO7LAB+0LXP/FC9L/eKSRb+7xHRm8zNbZV+jtfJEWDmTcz8fiL656TEwJGFKf2F/o7UewMgANzKjxAAwjiHAHDLwV0VAGa43oRH7bucmQ8Uuj+ax0igUCj8ETMfxszmSYpERN67J0f0jSk+MQAB4FZ+hAAQBjQEgFsO7poAuK1rnyRv8HuSiD7JzJuFbo/mCRMgohFmPmvunoGH4xYD+3ue/uhIr76/Y3niPQIQAG7lRwgAYWBDALjl4C4JADMlb0Iz8/1UKWW6nDcI3R3NUyZQKBReTERHMfP1cQuBowub9Zf6NyYqAiAA3MqPEADCAIcAcMvBXRAAZsx+M3Rv3Al/biS7O5j5zcz8EqGbo3kOCJgnMJj5wrj94pSJYf2dhC4LQAC4lR8hAISBDgHgloPnXQBc1rdBHz4zFXfx/wYzHyp0bTTPKQEzV8HCJEmx+Ym5sfTioZ7YewMgANzKjxAAwqCHAHDLwfMqAEzgmel54zy7M8+bm2IhdGk0d4SAUurVcQ8wdOr4oL6nY0VsQgACwK38CAEgDH4IALccPI8C4PK+9fqowubYij8zf00pNSF0ZTR3kICZAtkMPbwwhXIsPnT09KS+pnddLCIAAsCt/AgBIEwCEABuOXieBMADHcvnn+uP8az/QTPSnNCF0bwFCJgZFs1IjUT02zj8aZvyYrkkAAHgVn6EABAmAwgAtxw8LwLg2p41+tjpyVjO2EzCZ+YPEdGfCd0XzVuMwNxsjINm6uU4RIDZRtRLAhAAbuVHCABhQoAAcMvB8yAAvjjQoQ/0ZuMq/ldhfH5h0LZBcyLaj4iui0MIRLkkAAHgVn6EABAmBwgAtxw8awHwieGeuAr/Q0qpo4XuiuZtRsBcEiKin0QVAs1eEoAAcCs/QgAIEwQEgFsOnqUAOG08nmf7mfkcpdRfCl0VzduUADOvYeZLo4qAZi4JQAC4lR8hAIRJAgLALQfPQgCYSXyOmxqP48z/75VSRaGLojkIzBNQSh1LRI9FFQLmkoDtNMMQAG7lRwgAYbKAAHDLwdMWAOZxqq1KRS3+PzHJW+iaaA4CSwiYmQeJ6IqoIsBMTHWlxaOCEABu5UcIgCUhU38FBIBbDp6mAPj8QEfUwm++/3XThVvfC/EpCMgIMPNJRPTrKEJgf6+oL2swlwAEgFv5EQJAFkfLIADccvC0BEBM1/vPFLojmoOANQEzWBQRfSuKCGAi/dnBrtBBgyAA3MqPEADW4fN0QwgAtxw8DQFwRPRR/f6biA4XuiKag0BTBJj51CgiwHz3gpB5BCAA3MqPEADCEIIAcMvBkxQA3+5eHUeX/61ENC50QzQHgUgESqUSK6V+EEUInDPSu6QnAALArfwIASAMIwgAtxw8KQFw9aa1cRT/S7Zu3frHQhdEcxCIhUChUHg+EZ0dRQR8YGygSgRAALiVHyEAhKEEAeCWgychAK6Lp/i/Q+h6aA4CiRBg5uOjiIBTJob13Z1PzygIAeBWfoQAEIYUBIBbDh63APhWz5qoZ/7/SkQHCN0OzUEgUQILUw03/ZTA2zeP6Vu6V2kIALfyIwSAMKwgANxy8DgFwHd69o1a/L9RKpXWC10OzUEgFQLMXCKif2+2N+CYqQkIgI1u5UcIAGFoQQC45eBxCYCbu1fpUrQBfs4Wuhqag0DqBLZs2bKSiH7YrAg4fGbKWiRf2t9Rdf+AH6tYppdjIQCEIQYBkJ5zxpkIbBOaOYup/d0fdK/S+3uedWIL+K2jhG6G5iCQKQEi+maAH0eJgSXfhQDIPpdCAAjDDAIge6etLdA2722TWa0AuKNrH31QsfmpfJVSLxe6GJqDQC4IKKW+aBs3zbSDAMg+l0IACEMNAiB7p7Up+LVtbBNUpQAwdza/emZ6yZmL7baIqCx0LzQHgVwRIKL3CfxdFCsQANnnUggAYbhBAGTvtLXF3ea9bRLzBcA/dCzXUUb4Y+YZoWuhOQjkkgARHWwbP5J2EADZ51IIAGHIQQBk77Q2Bb+2jW1iMgLg/o1762OmJ0VnMzXbx8h+wrhC83wTIKKuGh+PEh/z34UAyD6XQgAI4w4CIHunrS3uNu9tk5cRAG+ZGm86uTFzv9Cl0BwEnCFgG0c27SAAss+lEADC0IMAyN5pbQp+bRubhGTaGAFg27a2Xblc7hC6E5qDgFMEmPkltX7f7HsIgOxzKQSAMPwgALJ32tribvO+2SRl+73Z2dl9ha6E5iDgJAGl1FrbuKjXDgIg+1wKASAMQQiA7J3WpuDXtqmXiKJ+Njs7+zKhG6E5CDhNgIhGosYNBED2uRQCQBiGEADZO21tcbd5HzVZhX2/WCz+idCF0BwEWoLA3HTCW8LiwmY9BED2uRQCQBiKEADZO61Nwa9tY5OQpG3MdKpC90FzEGgpAguTCDV138zuAQwFXJun0n5/b8dyie12t5TzNnMwEAAQAEYoFAqFZzXjP/gOCLQaAaXUm6Xi2bR/w/TkkmG30y6A7f576AEQRiMEAATA7OzsSqHboDkItDQBpdR7pCJAKaUvHO6BCMhwBkH0AAjDEgKgvQWA6fIUugyag0BbEFBKfVQqAspK6W/2rIEIyEgEoAdAGJoQAG0tAD4pdBc0B4G2IsDMV0pFwKGzM/qezpUQARmIAIkAYOZL28qZgw4WAqBtBcADQf6AdSAAAtUEmPnfpCLg7ZvHIAByLgCI6PPVlm7DdxAA7SkA2tDVccgg0BSB7du3v4CI/lsqAj411A0RkLIIwD0AQheHAGg/AVAqlYaEboLmINDWBEqlUg8R/VYiArYqpW/uXg0RkKIIkFwCQA/AsmXLIADaSwAw8wltnclx8CDQJAEiOlwiAEzbIwpT+oGO5RABKYkACAChc0sEwKkTQ3DklBy50fO80kRk2iulviZ0DzQHARCoIKCU+ltp7J0z2oe8mVLehACocFablxIB8J5xCIBGhTmNz88d6ZWMduW3/S8bf4irTblcfqlS6kgi+vjcOOvfYOaz2vXSAzMPK6VOJqIrzJ3HzHySmYUuLtbYTnoEyuXys4nohxIRwErp6zfh0cA0ciMEgDAWJAIAPQDZXy74bs++fkEXLcvl8guFrtF0c2ben4j+X0iSNEWwbYqfuc4YwuF/iOi4piHji5kRIKJVRPR4iF0D49I8GmhuUEujCLbzb+AmQGFYSAQAegCyFwCvL2wOTDANktF+QrdoujkRbSCiJxrsz0+JaKDpH3Hki8x8RgMOxpaf37Zt23MdOSTs5gIBpdROC9tWxeoHR/shABK+FIAeAGGIQgBkX9RtFfvFQ91VCcUmATFzqoP9ENHlNvtFRL9m5r8SuqszzT3PWyG4a/w+c1bpzMFhR+cJENFuS1+fj9uSUtr04NnGO9rJczMEgDA4JQIAlwDkDhlXEN/atY/eT3lSAfCI0B2iNt9LUPT8Y9k9Njb2nKg/nLfvE9EbJMXBdCkrpbbn7TiwP+EEzGW1uScDTG+W78sNl0djwqBEBRAEQLi/Bn4iEQC4BJCdADhueqJhcqlJRP+zdevWPw40ekIrmfn/1OyD7T7f02pnwET03mZYmMsGCZkHm02AgOd5o0T0lMTWnxrsSrQIxnXS4eJ2IACETi4RAOgByEYAfLG/o2EhZeY9bcysZFmcTZbL5b0libCmrbmpqix039w2J6LTao5vj30s1t9snqLI7cFhx6oIENEHLGy6x/4HKE/fgbkCEhFBEABVrtn4jUQAoAcgfQFw38a99StnC3uSh2WiuaSx5eNvEVEAzB+jOQPeuXPnM+Pfu3S3GFEAGBaPENF4unuNX2uWADPfaRmb835+ysRIIgXQxbP2OPdZIgAwGZBwJED0AKQvAM4b3iQt/v+e5iN/lQkzDgGwkESdPwOOQQAYu/9WKfXWSsZ4nU8CC0MFW18KMGMD3IgbAmMXQRIBgKGAhQIAPQDpCoC7O1fq7Z7sxj9mPiirFBmjAJg/AzYD6GR1LFF/NyYBMC/+mPlrRPS8qPuE7ydLgJk/JukFePPUROwFMM6zaRe3BQEg9HFcAki3qEuC6tTxQenZ/7eE5o+1ecwCYP4MmJmPj3UnU9pYnAJgoag86HnexpR2Hz/TBIFCofDiOgNgBcbylX3rIQJiHBsAAkDouBAA+RQAN3Wv1ua5YcEZxW+KxeJqofljbZ6AAJg/fhfPgBMQAIaFGWBpR6xGw8ZiJbAw/LV13L52ZhoCAAIgVh8UbUwiAHAPQHpi4fipcesksiAS3isyfAKNkxIA/hmwUmptArudyCYTEgC+T5xbKBSelciOY6NRCZixMERzBXwOjwXGJoLQAyB0X4kA2FGc1cdMTeA/YQZHTU/6id52+bM8DCebsAAwLH7lyhlwwgLAsLh1dnb2ZcJwR/MUCCilBgU9d3q7V0ROjSmnvkGQO/EUgPAmQIlTo6396GBRWSmlXpdCXmv4EykIAF8QfSTvZ8ApCADD4jGl1HRDw6BB6gSamTY4ah7A92U5FwIAAsAvKC4v70o9u4X8YIoCwNjrVtN7FbIrma9OSQAYDr+bm1fhnZkfMHagigARLTfzXaAoy4pyyrw+X2W0dnwjuQSQsnFcLspp7vtIXvxWIgCY+R+j+hMz/5yZZ/IWJNxmAAAgAElEQVRy/JX7IREAh8kHelriX3Pdzld6nveiyn3A62wJENFHovo4vp+ogLgsWw/Jwa9DACTqYEsSdZwBbZJ+Dlxozy6Ya9KC4zvbjHRHRI8KvhPE05wBv2PPTuTkBTO/3/a4zAxxp48OBB2bdN1PPM/rzgmCtt+NYrH4J0T0v7Z+gHbp5mKl1C1t76RbtmxZB8dL1/Hi4q2U6s2TA0sFgNn3BQF6cwxMrt6+ffsL8sJDIgDMI59mfIjL+jbobV5RWvRr2z/JzIfmhUO774ekJyiGGKj1BbyvM1MjM9/f7v7pJ2A4Sh1HyWlgXps355VcAiCiD/v7b8b+nxvp7swYOD+UlzNgSeL3BYARAd/rXqXjuCRARJ/cuXPnH/qMscyGgLksw8y4FyCf+fW+bLwiR7+KSwBunv2bscdz5Ebzu9KsAPCPw8xgSERmVsAogjQXZ8DNCgAjAu7tWK5P3DwahcH8d80ENZ7nrfD5YpkNAWb+QkSfjuwL+P2lOYWZr8/GI3L0qxAASx3DgWB5IEcutGdXogoAsyEiWkVE98VggwuyPAOOIgD84aIvHurWZdlokEGF4hfM7O0xEl6kTsCM0bHwtEaQfbAumuCPwu/TqTtD3n4QAsA9AcDMm/LmR2Z/4hAAZjtjY2PPIaIvRxUBWZ4BxyEAjBC4vmeNPqg4GyXJme8+pZR6z7Jly/bKo9+0wz4ppS6M6s/4fuy5GgIAAiB2p4qarBt9/xt5TZhxCQD/+IjoDTE8S53JGXBcAsCIgLs6V+rj5ENDB/nRdcz8Ep8vlukR2Lp16x8z85Mo4rnKtxAAEgFwwuYxfVXfevzHyOCUieGgRB26jpk3p5e2ZL8UtwAwv+55Xh8RPRwxcf6eiHaleQYcpwAwIuCBjXvrs0f6NEfvLn3YMJVZFq3jIEBE50r8+JLBLuRaYa69vG99aO4MYA8BIBEA7xkfim3SBv86Z7svXyUbBOa2OBJRUttIQgCYfTVnrUR0XUAAS4LdtE3tDDhuAeDHyRV9G/T+nic97tr2v2bmv0rKD7DdYAIL97cYMVprj8D3Z431I98KZwoUTgYEAQABkN4Mf34S95emN8U2GSy0y/VUsEkJgIV0amZZ20VE1gk0hG0qZ8BJCQDjO7d0rdJHzExJfSeo/W5zv0VwucLaJAgw85dC/HKJfXYWZ/UDHcshAgQiAAJA6LUQANkJgHdMih71+tddu3Y9Q2jeVJsnLADmj8Xc0U5Ev7BNoiHtnlRKHZ0knCQFgBEB93Us12Z67pDjk6w3T1ysSpIFtr1IwDy+K7HZV/s3QgBAACw6UNyvJALAJBz/7BXLaMLh9s59JEnatD0ubtvHvb00BIDZZ/Nsu7nDX5JIQ9omdgactADw42/3YKfeL/qjgmbshXLc/oDtBRMgoptC/HFJTnj75ChyrkgALF/CsA5rXAKQCADcAxCt6PtJ2yw/NtIrcdQny+XyC4PTSX7WpiUAzBGbZ/yJ6Pw6wW3LN5Ez4LQEgPGlb88NJXzI7Izt8Ya2Y+YzzKiM+fGo1twTInqtrd+yUvqOrn0gAixFAC4BCGNGIgDQAxCfAJAkbKXUZ4RmzaR5mgLAP0Az7j0RPWGbUEPaxX4GnKYAMCLgns6V+vh4HhW8uVwuv9Tni2X8BMrl8rMll7E+PrwJAgACIH5HNFuUCAD0AMQjAK7pXRd6FhZUoDzPm0zG+vFuNQsBYI7A87yNRPRQEDvBOjNYzulxnQGnLQD83qXzhjfpUvRLAo8w83C83oGtVRIgovNsffN1M9MQABAAle4T32sIgHiKup+AbZanjQ9KBMA/xWftZLeUlQAwR2VmAiSiq22Tap12sZwBZyUAjP8ZgfmK6KMH/paZj0/WY9p362bSqjo+uCQ/3NizL0SAhQjAJQBhTEEApCsAzIAuO2RTvr5FaNLMmmcpAPyDJqK3xzDueuQz4CwFgBEBt3fto4+enlxSSCRFx7Rl5q/NzdT4PJ8vlvERIKLbbO2BMQHs8jQEgNA/IQDsHMvmzN6mzVWy7v/funDzn+9yeRAAZl+IaJyIHrVNriHtfqOUerN/bNJl1gLA+OL9Hcv16WOi3qYwwfCgUmqtlAHa1yfAzK8P8b0ldnhlcQY9AOgBqO9QzXwqEQC4CTC6WHjfuOjZ7S80Y9OsvpMXAWCOf8Gvb7ZNsGHtmj0DzoMA8AXpZX0b9H4q8uiBvyKiXA9ElZXfN/u7hULh+WF+F7T+2k1rIQIaiAAzlXYQu5B1eAxQIgBwE2A0AWC6//cXdP8z84HNJpcsvpcnAWCO39zQx8xnhQS/JFGIz4DzJACMELipe7U+TDbsdBifjxQKhWdl4V+t+JtE9FVb/zT3DvmiDsvgXIxLAMIokQgA9AAEO51tMF4p6/7/pWvDtOZNAPihoJTaTkTmDDasqNms/5XZjr/NRsu8CQDjo+bs6MTNotEnw7jcavJGIwb4vDEBIjrY1i/NvUO2uaZd20EANPa5qhYSAYAegGgC4IOj/WEJdcl6Zr60ylAOvMmrADDozDVsIjKD/ixhLVnHzOfYnAHnUQD4ReGioW5djv6o4KNKqWkH3DLXu2hEvmTK62/2rIEIqHMZAAJA6O4QANGKup9UbZaHyyZwOUBoysyb51kAGDgLyfbLkoIf0rbhGXCeBYDx1et71uiDoj8q+Dsiekfmjuf4DiilvhLiZ0vEqhnnwSbXtGsbCABhMEAApCMAzHCetkFORI8PDAz8gdCUmTfPuwDwAc09IXCM5KwrxG7mKYNxf5u1y7wLAFMg7upcqY+N4VFBM/6CGYehlgHe2xGQXAY4bnoCAgA9AHaOZdMKAiAdAfC5wS6JAPisje3y1sYVAWC4eZ7XR0QPhxR3W1v9jplPCrKDCwLAiAAz3ezZo/2aI14aMSMxmsFtglhgXX0CCz1TVsNZb1FK/whTBIeKIPQA1Pe1JZ9KBABuAmxeLLxrYti2qGil1MuXGMqBFS4JAIOTmV9CRDdGFAHGrkvOgF0RAH5X8RV9G/T+XuRHBZ80czM44Kq528WFx02tcsTlfRtCC6Bvz3Zd4jFAoWtLBABuAmxeAAiGZn2qUCi8WGjGXDR3TQAYaLt27XoGM59KRE9FFALmDHijbwjXBIApGLd0rdJHyO5TCStYF5jZGn0WWDYmYIZdtvW/08YGIABCLgOgB6Cxr1W1kAgA9AA0JwDMnbu2wU1Ed1QZyKE3LgoAHy8ze5IZ2kLs+YR/BuyiADAi4L6O5XqXbLCqQN9m5js9z1vh88WyPoFSqdQT4lNL+L4WkwOFCiAIgPp+tuRTiQBAD0BzAuCCoZ4lQRwW7EqpDy0xkiMrXBYABrEpWKZwhdlGsP58Zj7Dtr0ZpCdvXba7Bzu1ud5sewwh7X5hhJUj7pv5bhLRYyEcl9jhh50rcuczefBhCAChG0MANFfUJc5+kmzwlbLQhLlp7roAMCBN1zURXWCbiOu0+486n1Ul9DwKAOPfN8zNQHfI7EzVvtoeU0U7c2ll17Jly/bKjaPmdEeIyPoR1cv6N0IABFwGgAAQOjcEQPIC4AD74X9/6/LMa60gAPzwMV35c8+4P1lRyKIWwtDv51UAGBFwT+dKffzUeOi+C/hcZ2669PliuZQAEb3BlucHcR9AoACCAFjqV3XXQAAkKwBu7l4tSZ431zVWzj9sJQFgUC/M2f6QbVJutl2eBYDf03XeSK8uRb8k8LB5/DLnbpzZ7hHRBlsfMlM9+7bBcjGHQwAI3VciAHAT4KKj2QbdZ2TP/79XaL5cNW81AWDgmgFuzGN+tom5mXYuCADj79f0rtOCp1nChO+TSqmjc+W4OdoZIvqZrQ/Z5qB2aofHAIXOLBEAuAlQLgD+RvD8PzNvFZovV81bUQD4gM2AP0Rkhr4NK2xNr3dFAJhCcnvXPvr1hc1NH2sFv92uTXbl+0KSS8nsgFf3rkMvQM19AOgBEHqnRACgB0AuAMwjOxVJr+7rYrH4J0Lz5ap5KwsAA9oM/Ts3jLAZAriuHaWfuyQAjAi4f+Ny/YGxgTgYmMmZVuXKiTPembkhqt9p6z+fGMG8ALW9G+gBEDqwRACgB0AmAO6bG1yF7a+b/kRoutw1b3UBYIAvxMuttknapp1rAsBPupf1bdD7qcijBz5ORM4++RJ3EBKRsvEZ0+bdE8PoAUAPQDQXhACQFXU/+dksvyUbAOiyaJbM/tvtIAAMZTMdMBGdbZuoG7VzVQCYGDD7fthsIWpvwFNKqdN37tz5zOy9ONs98DzvRY38xf/cjNpok4faqQ0uAQj9FwIgOQHwuYFO68QYNqmM0JyZNm8XAeBDVkptJ6Jf+Qm52aXLAsAUF9PteqJsrIuwuLi5XC6/1Ofbrksi+hcbXyorNT+ZUzsV+EbHCgEgjBoIgOQEgHlW1yaQF9rMCk2Xu+btJgCMAZRSa4nIXMuW2LqqresCwE/KFw73aFOUorAgokeYeTh3zp3iDs09DvgFW4bfnRusyeePpRGjKyT+9+kUzZrPn4IASE4ASAZQaYU7ottRAJioXpjO1XoUt9rk3ioCwBSgazet1QcVZyVJOKjtb5RSb85nxkx+r+Z6ld5W6yNh77840AEBUHEfAASA0D8hAJITALaJUCn1Y6HZctm8XQWAbwxmfuPcXdy/DkvWYetbSQAYEXBX50p97PRkUGEXrVuYIvd5Pt92WXqex2G+Urv+wyN9EAAQAM2HhkQA4DFAe7Fwj6wr6rrmLZifb7a7ADCWMN3XRPRwbaKu977VBIARAQ90LNdnj/ZrjnBpZIHZg+YyS368PPk9KZfL+9bzl8rP3jE5CgFQJQCWS0QmLgFIBAAeA7QXAGYilcpArfdaKfWJ5NNK8r8AAfA0YzPmPRH9pJ7NKz9rRQHgX4++om+D3t+L/KigudFyR/IenI9fME9D2A46dVRhMwRAlQDAPQAiL4YAsC/qflKzWX6lf6NEALxVZLScNoYAWDQMEX2gssjXe93KAsDEyi1dq/TrBANihbFi5nPMI5iLlFv3FRH9UxiHyvUHFmchACAAmg8ECIBkBIC5I7oyUBu83ta8BfPzTQiARVsQ0WkNbL7HP1pdABgR8KOO5XqXYFjsOuxuNTlrkXRrvrKdf8JcYjEjM9qclLRDG9wEKIwHCIBkBMAZskcANwjNlsvmEACLZoEACI6r3YOdekv0RwUfVUpNL9JuvVdEdG4dEbRHPJo27SAgbcULBIAwFiAAghOVrcOFtZMMjNIqI6BBACwGHwRAeFyZ+2MOmZ2pKmK2xa6i3e9aYfCsRY+pfkVEb6o41rqszH0WYXmo3dZDAFT7UcN3EgGApwDCk1ptoB1pOWNaqzwCaBwNAmAx3CAA6sfKPZ0rtWScjDrF8GozZfMi+dZ4ZWYGrXPMVYLgksEuCICF+wAgAIT+DwFQP1HVFnbb9zu8YlWQ1gnm7wtNltvmEACLpoEAsIurj4306lL0SwIPeZ63cZG++6+IaKBOzqjKLRgLYNHXIACEvi8RAHgMcNHRGgkBwfPPVwhNltvmEACLpoEAsI+VK3vX6VdEHz3wCWY+dNECbr/yPG+FrQB43/gQegDQA9Ccw0MA2CeqRkXf//wuwSBAzHxhc5bL37cgABZtAgEgi6vbu/bRr7e8bNagMJ6/c+fOP1y0hJuvzDE0OM49vQDvxGBAewQQegCE/g4BIEtUfpGvtzR35doGLzO/X2iy3DaHAFg0DQSAPK7M42ynjQ9ax05YjDHznbOzsy9btIabr4jo8bBjrFz/pqmJPQWwXl5qh88gAIS+DgEgT1SNAunvN621TmKtNOkJBMBi8EEANB9Xl/Vt0PupyKMHPsbM3qJF3HtFRP9cWejDXh+B0QD3CCAIAKGfQwA0n6jChMBXBaMAEtHBQpPltjkEwKJpIACixZXpRXvVbMFaSIcUx9/Prf+bZcuW7bVoGXdeEdH3Qo6rissrZwt7CmBYTmqX9RAAQv+GAIiWqIIC67ODXVUB2iCIZ4Umy21zCIBF00AARI8rk8wl42nUibPrPM970aJ13Hi1MBtiw1yyTXkQALgJsDmnlggAjANgl9QuGBINAzzQnOXy9y0IgEWbQADYxUqQgK5d98mhHl2OPqvgTzzP61u0UP5fKaU+U0fUVAmDWmbt+h49AEK/lggAPAZol9TOG95UFZz1glgp1Ss0WW6bQwAsmgYCwC5WbAvVtZvW6oOiPyr4JBEdtWilfL8iok/Wyx2Vn/2wcwV6ATburSEAhD4NARBvojIJ7dzhXmsBwMydQpPltjkEwKJpIADij6u7OlfqY6cnrWOrskDWvN5dLpefvWitfL6SzAdwe+c+EAAQAHJHhgCIP1GdM9pnnaSKxeI6udXy+Q2hADg7n0cRz15BAMQfV35vwdmj/dbxVVP4K7/3QzPYTjzWTmYrRHRmnf2vPJb5KZd9Pu28RA+A0BchAOJPVJIEVSwWVwtNltvmEgHAzGfl9kBi2DEzvoNt8sZsbvIY/GrfBr3di/yo4L/n+eZAInqvrQ99t3s1egDQAyDPXBAA8uTTSGGfKTtDWS63Wj6/AQGwaBcIgPjjqjbuvte9Sh8xM1V1JmxbMCvafXDRavl6RUTvqtjPusf5rZ41EAAQAHIHhgCIP1GdPjpQN1grg9rwl1stn9+QCAAiwiWAhTvb0QMQLQZ3jQ9Zx1tl7C28fjCf0bRsGTOfELC/gcdqBh+rFUjt+B6XAITeLBEAeAzQLlF9YMxeABQKhT8Vmiy3zSUCAJcAaE8ihwCwi6t6Be3CYdGjt3vYmwKb14AiomNsBcBVvesgAOZ7AJZX2bYBv0/n1fap7ZdEAOAxQLtEdYZAADDz/0nN2An/kEQAENGHE96dTDePmwDtYqVeUbf9zAiow5ofNfCJTB2lzo8z8xsbFLA9xc7MqGjLq5XboQegjkMFfQQBEH+iOmvM/i7lLVu2rAyyi4vrIAAWrQYBEH9cBRWuGOYNuGzRavl6JbkEcA0uAcwLIAgAoQ9DAMSfqPAY4GL3dp0zGPQA4B6Aps9azcyBkkttIX74a2ZeI0yZqTVXSp0cst97zvz9z6/HTYAQAM14JgRA/ALgoyP2AwF5ntfdjN3y+B30ACxaBT0A8ceV3wNwe9c++vWFzUuKoF8MbZfMfOiixfL3iplPtT2WG3v2bVpM+VxbYYkeAKEfQwDEn6g+MWI/FDARYS4Aoc+60BwCIP64MgXqmt51+hXRhwR+goh25N2PmPkMWwGAG0mf9jcIAKFXQwDEn6jM5CW2gUtE40KT5bY5egAWTQMBEH9cnTfSq0tKSWIrqO2DnudtXLRUfl8x8zm2eeT7XavQA4BxAOTODAEQf6K6eLA7KPEErmPmGbnV8vkNCIBFu0AAxBdX93Su1MdPjQfGj22BNO0Wptd93qKV8v1KKfUJ2+O7rXMlBAAEgNyhJQIA4wDYJbXdg52SZFWWWy2f34AAWLQLBIBdrDS67nzD3LXtQ2ZnJPEU1PY3zHz8onXceEVEn7YVAPd2LIcAgACQO7ZEAGAcALukdnnfhqAkFLiOmV8jt1o+vwEBsGgXCAC7WKknAIyQ3hK9y/8RZh5etIw7r4joKhsBUFYKxX/j0/6GewCE/g0BED1R1SYxM3e5TeCaNuZZX6HJctscAmDRNBAAzcfVfR3LdcThff34u7FcLr900SpuvSKi22zyyM7iLAQABEBzzg0B0Hyiqi38/ntzR65N4C4IgDOas1z+vgUBsGgTCIDm4uqWrlgm+HnK8N+1a9czFi3i3isi+qlNHnndzDQEAARAcw4OAdBcovKLfdDyrs6VEgHwqeYsl79vQQAs2gQCQB5XV/Rt0PtHn+L3F0TUEvfVENFvbATAMVMTEAAQAIvJR/IKAkCeqIKKfuW6BzqWa7a/dnmVxF55bgsBsGgdCAD7uDLxcvZov+aFkRFtil5Im3s8z1uxaAV3X5XL5ReGHOOSk4sTJ0chACAAmnN2CAD7RFVZ5Bu9PsArLgnUkIC+rTnL5e9bEACLNoEAsIsr01t27PSkbazUa3dxuVx+9qIF3H6llFobki+WMDD3SzTKR+3yOW4CFPq9RADgMUC7pGaC7TUz00sCNSiglVI/Fpost80hABZNAwHQOFbM+PUHRR/V78m8D+m76BX2r8wAYUH5Imjd2SN9EAB7egAwHbC9ly1btkwiAPAYYOOk5ivtN09NWAkAIvrdzp07nykyWk4bQwAsGgYCoH6sXDjUrc3ja0EFTbDuJ600l8ai9yxbppQ6xJbDpwe7IAD2CIAVEp/6dCXztnwNAVA/UfkFXbo0vSW2AVwsFle3gvNBACxaEQIgOK7MgDUnbh61jo06MXS153kvWiTeWq+Y+ZQ6x17F7+u96yEAIACaCwAIgOBEJS34te0/JpgRUClFzVkvX9+CAFi0BwTA0rgyj8ceNluoKl62Ra6i3e+I6B2LpFvzlVLqMxXHXJfZzd2YB8DPv7gHQBgPEABLE5XvTFGWlw501A3amuA+Rmi2XDaHAFg0CwRAdVxd1rdB76c8SUwEtX1UKTW9SLl1XxHRLTU5IojH/Lr7MQzwnh4QCABhTEAAVCeqKEW/8rvXCEYDJKIPC82Wy+YQAItmYWbrM7hWnsrVFKcPjA2EFi/bIjf3bP+tJlctEm7tV0T0nzZsDi7O7Cl+lfmnXV9DAAjjAgIgGQFwe9c+kqT3daHZctkcAuBpsyilTiQiMxqdlQ+0qgAwMXB0PI/4fbhQKDwrl06fwE4VCoXn2/qOeYSyXYt90HFDAAgdUiIA8BigTCwIujzvE5otl83bXQBs3779BUR0tW3y9tu1ogC4pnedfkX0R/x+pZTanktnT3CnSqXSkO8bjZa7JoYhABZuADSCwNxk2ohZxed4CgACQFbUg1Rn2LqjC5utnTHBfJLapttZAHiet5GIHqpILta2bzUBcN7wJl2K/ojffWYwnNScN0c/pJR6ta0fXTDUAwFQJQDwGKDIlSUCAOMAyMSCUee2gayU6hUZLoeN21UAmIFoiOgJW1vXtmsVAXBP50p9/NS4tc/Xcqh4/+WxsbHn5NDFU9klc09QBYu6PPEIYHVOxiUAoYtCAFQ7UNjZfDPrjTq3DWSl1JFC0+WuebsJgJ07d/4hEV1ga+Owdq0gAG7o2VcfMjtj7e8hLH5NRC3xREyU4CSim0L4LOF7V8cK9ACgB6B5d4MASE4AGHVuG8imkDRvxXx8s50EgJl0hpnvFNg31BdcFwC7Bzv1luhd/g97nteXD0/Obi/MFMa2vUk7vCKKf0XxNydp6AEQ+i4EQHICQDItMBHdITRd7pq3iwBgZo+IzLSzoUVd8pmrAuC+juXaXBaUHGtI2+uY+SW5c+gMdqhUKvWEMFrC+bipcQgACIBoXgoBkJwAMIr0QG92SeCGBPhvBgYG/iCaNbP9dhsIgL2UUu+RPOIXYusqn3BRANzStUofMTNVdRw2x1rT5veG57Jly/bK1nPz8+tEdEQNo1DGp48NQgBAAERzXokAwGOAcrEgmBRIK6UGo1kz22+3sgAwZ6hEdJ1tcpa0c00AXNG3Qe/vRR7V7zHTk5Ktx+bv15VSn7D1nd0DnRAASwQAHgMUeTUEgLyoS24IPFcwJ4DrN0C1qgAw16aJ6GHbxCxt54oAeKBjuT57tF9zxEsf5t6J2dnZl4kSVZs0JqLbbf3n+92rIQAgAKJFhkQA4DFAuVi4ss/+RkCl1BejWTPbb7eiADCijIjM3emhXbFRP3NBAJj7Wcyoc1GP1ZzhmqcnsvXUfP66md3Q9vLSgcVZFP+a4o+bAJvwawgAeVGX9ACYkanK9sXjsSZMmJuvtJIAMM+hE9GXoxY8m+/nXQBc37NGHxR9VL8nzHgJuXHWHO5IqVR6hY2/mDbvnByFAIAAiO7FEADJCgAjFl4vGBGQiLqiWzWbLbSKADAj0BHRfbbJOKgdM/8+aH3QujwLgIuGunU5+iN+D5mRErPxSnd+VXL9/8KhbggACIDozg0BkLwAMHfrBiX+kHXHRbdqNltoBQFgxp4nol+F2MbWjo+4Phug6bk6cfOo7fGGtmPmr5k5ErLxSLd+lYj+ydbvbti0BgIAAiC6g0MAJC8AvtS/MTRBBgT830W3ajZbcFkA7Ny585nMfFaAPSS2M21vLpfLLyWi02y3lbceALM/h80WpMdd2/63zHxCNp7o3q9KYmeb8rS5IVNyKbJd2mIgIKHvQwAkLwDMcJ2CO6d/aUYDE5oxF80lScyMd56LnV62bNlCDNxsW7BD2j3FzGcYIWGOy1UBcFnfBi2YxbK26PvvHyGi8bzY14X9MEOBh/iVz3TP8oTNYyj+AWf/RuRAAAi9HQIgeQFgHPNIwX0AzNwvNGMumrsoAEyhmrvT/1Hb5BvS7nEiKlcawTUBcH/Hci28VLWnINUwme8BqWSB140JENEXajiG8dUX4/p/qACCAGjsa1UtJAIAAwE1LxbM89O2AU5E76gykiNvXBMARPR2IvqdwC5BNryHiFbVmsglAXB71z766Bge8avsAanlgffhBEyvEREZERnkX0vW3dq1KrQAtktXf9hxQgCE+1ngJxIBgHEAmhcAV/WuWxLIdQL+rkBj5XylKwLA3JRGRFfX4W9rq93lcvnZQWZxRQBc07tOvyL6I35LekCCmGBdMAHP89jWFw+dLaD4h3T/4xJAsH/VXQsB0HxRD1OhQevv37hcdG3VzDZX13A5/NAFAWAeRyOih2wTbki7/200fbMLAuC84U26FP0Rv8AekBy6Z253iZkvDPGzJUL0veNDEAAQAPH5MgRAOgLAiIITpsaXBHRY4CulTo7PyulsKe8CwAxEYzvVaphdiOgnnud1NyKaZwFwT+dKfbzAF+uwCO0BacQHnz9NYKH7/7E6jKtyhrlJM+gEA+uezuO4BCCMLAiA9ASAGbzDNtCJ6G6hKTNvnlcBYBwC1N4AACAASURBVIaeJaLzBezD7HS1Ga7VBnReBcC358aPP2R2Juz4bNc/ycyvt+GANvUJMPOMrV+a3hpT4FDsw3M2BEB9f1vyKQRAuDPFHWhmClXbYDftzIh0SwyW4xV5FADmUoqZfEbCPaCtmbZW1COTRwGwe7BT7xe9y9+qByTHbpqrXSOi8wL8LTBPmJlF485JrbY9CAChe0MApCcATLAdLXgckIjeJTRnps3zJgDMdLNE9AvbBBvS7lGl1LQUbJ4EwH0dy7W5gTfk+CTrrXtApLzatP1eRGTGTLCywSWDXRAAda7/m/wKASCMJIkAwGOA0cXCBcObrIJ9ISncLzRnps1zJAD2Ukq9x3ZmtToJ+FYTH81AzYsAML1OR8xMSXwuqK2Z18ApMdqMzdL+jhGWdXxviR3MgGKtdsYe9/GYIawFTD+dts1z93sSAYDHAKMLAPPMtcBBTVtnRlTLgwBg5pcQ0XVCxkE2+UihUHhWswGbBwFwRd8Gvb/nBR2bZN1jzfSANMutnb7HzJfa+ulbpsZR/Buc/aMHoInogQCIXtSlKlYy6Aozf6oJs2bylawFgOd5fUT0sG1SDWlnJgLaERVglgLggY1767NH+iTDT4cJgltnZ2dfFpUFvr+UQLlcfuFcr8pvQ3xwiT0+i+5/KwGESwBLfa3uGgiA9AXABUM9SwK8TiJ4koieV9eIOfkwSwFARG8gol/X4WjD/MG4brzMSgDc1blSHxfPI36RekBy4pK53Q0ieoutr5aJtHl0U3qi0Y7tIQCELi8RALgHIB6x8APhZQCl1NFCs2bSPAsBMDY29hwi+rJtMq3TzmwjNqGVhQC4vmeNPij6qH6x9IBk4oAO/SgR3V/HF6vE6tsw+Y+1+ME9AMIgkAgA3AMQjwAwytxc07NNAER0j9CsmTRPWwCYMfiJ6D4BxyDmv2HmN8YNLG0BcNFQty5Hf8Qvth6QuHm20vY8z5uU+Oxl/RutC2A7nvVXHjN6AISRAgEQX1GvdMRGr7/avzGoGNVbNyA0berN0xQASqntkglUQhLuw8w8nASotASAOeM5cfNoPb+x/SzWHpAkmLbKNpVSnwnxxyW2OrA4qx/oWA4BYHEDoMm5EADCKJEIAFwCiFcsHCwbke0ioWlTb56GADBDpyqlPmSbQOu0u9E8MZAUpDQEwE3dq/Vhs4UlRaPOMQe1/Q0RHZcUB2y3mkChUPhTIvpfWxuZWUQbnUzg88W8jEsA1f7W8J1EAOASwKKjxRF0Hx3pDUrIYevMHcN/1tCgGTZIWgAs+OrNtskzpN1TzHzqrl27npEkqqQFgBkTfj8V+RG/xHpAkmTr8raVUn8d4pdL4p6JtBnHIY5c0y7bQA+AMDogAOIt6pJAu7NzpS6RWhL4YQlCKXW60LypNk9SAJjxEIjo0TA2lut/YUYHTANKUgLg/o7l+vSxQWufqcMl0R6QNBi79hsLc1L83zo2qbIrhv6V52YIAGFUQADInUxS5Bu1feek6Prt42Yue6GJU2uelAAgorcT0e9sE2dQOzMfQJpTLCchAMwgUpIxJII4LIyO+N6ke0BSczqHfoiIDg+xSVXh99t8sb8DZ/+W1/79PAsBIAwIiQDYUZzVx05P4j9GBq8WXsNVSr1VaOLUmsctAIzYYeav+QkxwvJ8c/aVGohly5bFLQCu6V2nXxH9Eb/UekDSZO3KbymlfiTxYSP2kG9lDN4wPRkopkK4YyhgiQAIgSgBjraWE3+EsWbm/4oyRG2SyTJOAeB53kYieiiMg+X6J5j50CSPOWzbcQqA84Y3aTMVrOUxB7ZLuwckjEu7rldKURT74bt2EyYJOUEAQAAk4liBSVjonKHbyOu9AHEJAFO0ieiJiLweMiIiq4IThwAwo78dLxsvIsxnLki7ByQr7nn93bnu/59G9Ocw22J98ydVEAAQAO4JAGb+dR4TXVQBsHCT1PlRE6W5bJD1vRJRBcC3u1frQ2SPiQYVgiez6gHJo39mtU+lUukVUX0a308kT38zK5/Ize9CACTiWEHJONZ1Zrrb3DjRwo5EEQDmBj3TTR0x0ZlHJd+WBy5RBMDuwU69X8Quf3P5xPO87jywaPd9YOYfR/TrWHMH9mVPzn+w3X1zWbFYXA2H2OMQzgSaUur/xTl2fRyB0KwAMI/mEdEvIvrhI3maOrkZAXBfx3JtBtuKyMF8/+qse0Di8KdW2IZSaksM9ozDJ7CNpZcKHm0FH4t0DAvzp8M5ljqHC0zeFcn4MX+5CQGwFxHtIqLfR0ySN5fL5ZfGfDiRNicVAGbAlyNmpqL6nHlU8u2Rdhxfjo2AedSSmf8xom9H9Ql8Pzy3PxKbsV3dEASAe2f/FQnlv5Mczlbq0xIBoJT6W2a+puJYmk1UH5TuZxrtieh9tsdmJvLZ3ys2e/z+9/6DmTencWz4DTsCzHyYrQ+gXSZ5+AE7S7ZwKwiATBzPT9qRl8x8Tl7cUyIAYkh4jxNROS/HXrsfkh6AGFjcbO7lqd0HvM+OwMDAwB8Q0cMx2DZyjsA+hOb4u7PzkJz8MgRAqHO4Eni/Y+Y1eXCnFAWAmQJ4VR6OOWwfUhQAZ5oJksL2A+uzIWAG7ELhzX1uhQCAAMi9k9oIkcuzSXPVv5qSANg9Njb2nOpfzt+7FATA42ZK5PwdOfZoYcY/00NlE7tokx0nCICtW7f+sa2jYjrgdOYNuLtzhfiasFJqOuvUm7AAeJKIjsr6GG1/P2EBkPseEFtOrdiOiD5tm1NNuxM2j2HMf+GY//7Y/0HLV9kPrw4BIOkBwHTA6QgA49SfHOqRnhncn3VXcIIC4Cee5/W5VCwSFABO9IC4ZKs491UpNSgp/maI55vmBn0KKmRY11y+hQAQeDQEQHNOlnRwmmlfpRMFEdFbBKaPvWlCAuA6z/NeFPvOJrzBBATAk0qpoxPebWw+GgHzWOs9EgGAk6r48y8EgMCJIQDid8C4xMFl/RulvQCPm+uPAvPH2jRmAWDGBnj3smXL9op1J1PaWMwCwLkekJQw5+pniOgNkuK/n/L0HV374Ow/xu5/k3shAARhAQGQXwFgnPnYqQmpCPicwPyxNo1RADyWh3saosCJUQA42QMShZ2L3y0UCi8mIjM6p3W8fnikD8U/5uIPASCMHgiAfAuAG3v2tU4oFclnVugGsTSPSQDcOjs7+7JYdijDjcQgAH7PzKe42gOSIfpMflp6498Or6jv7VgBAZCAABBcOsVNgBAA+RYARtH+9cSwlQhQixPI/Hu5XH5h2pkwBgFwbqFQeFba+53E70UUAM73gCTBNK/b9DyPK8S3Vax+brALxT+B4o8eAGGUQADkXwDc1rlS7+95VomlIhF9W+gKkZsrpf6y4vcl+/tLZj4w8g7kaAOSoYBrmN1mhFSODgW7UofAwmPUj9bYsK7vHzM1geKfUPGHAKjjrEEfQQDkXwAYp75ksKtuUglJQKmOk2/O3onoqZB9Cdv/B5VSa4N80+V1zPxGIQfNzB/buXPnH7p83O2270R0ucTOW+Z66b7XvQoCAAIgH6ECAeCGADAi4JjpybAiGrheKfVUqVQqpOlpRPQ924SolPpioVB4fpr7l9ZvlUqlHlsORPS/RPTKtPYNvxMPASI6WGDj+Rg9ZxQ3/plcluQ/ngIQ+LdEAGAkwGQdt1FQmDOHrYvX+QOLfkBC+pc0Hw0UXA/NdMwCQYg03ZSZvxZgj1q7/VO5XO5o+kfwxUwImOmniei/LOy7x96HzM7o+zcuT7T4Ncoh7fA5BIAgJCQCAINWZCsATPB+YmTTnoRim3yUUp8RuETkpkqp0+vs2797njca+Ucc2IARXkqpH4exUEp9pVV7QBwwT6RdJKJvhNk1bP1VfetR/BM++zc5Ek8BCFwbAiD7oi5R5WaEwCNmpsQigIjeKXCLyE2JSM3931yRDP+VmU/avn37CyJv3KENFAqFP1JKvYeZf+6zYObrmbnk0GFgVysIGHv6trRdvn98EMU/heJvcil6ACqctdFLTAbklgAwDv6tnjXNCABzk9n+jfwh7s+J6M+YuTPu7bq4PTOfQRaPZ7rIKq/7TERl6Y2ur56Z1v/Qga5/yYlOlLYQAILoQQ+AewLABIftmUdNu4eKxeI6gXugKQiAwAKBUqm0noh+WRNTdWOxRErf0LMvzv5TOvs3uRECQBCyEABtJQBML8CVAvdAUxAAgWXLlpl7NZg59H6OMFFw7nAvin+KxR8CQBiuEADtJQAWEtWZQjdBcxBoZwJ7KaXuDCvyYeuPLmzWD6DrP3UBhB4AQahCALSlADDdlocL3ARNQaBtCRDR34UV+bD12z1Pf797derFL8q181b5Lp4CEIQqBEDbCoBftMvjeIJwQFMQqCJARPuFFfl66y/HI3+ZiR8IgCoXrv8GAqBtBYDpBfghM6+p7yH4FATal0C9Ih/2GUb7yzan4hKAIF4hALJ11ma73cKSTxPrb8FgNIKAQdO2IUBE/yaNpzdPjWd25ttsLmm176EHQBCiEABtLwBMT8A3BS6DpiDQ8gSUUjdIi/+BxVl9d+cKCICU7/qvFTDoARCEJwQABMBCortC4DZoCgItS6CZ4m9i6ONDPSj+GRd/IwYgAAShCQEAAVBxpvMFgeugKQi0HIFmi7+JoUsGOiEAIADcigkIAAiACgFgBgq60C0Pxt6CQDwEohR/CID85FH0AAjiAQIgP45bey2r3vvKop3A63cLXAhNQcB5AlGLPwRAfvIoBIAgHCEA8uO49Qp+7WcJFP2qMc2VUq8WuBGagoCzBOIo/hAA+cmjEACCUIQAyI/j1hb5eu9tBcAxUxNVhd32e6adUqoocCU0BQHnCMRV/CEA8pNHIQAEYQgBkB/HrVfwaz+zLeRGAHx2sKtpEcDMhwrcCU1BwBkCcRZ/CID85FEIAEEIQgDkx3Fri3y99xIBYLbzyaGepkWAUuqtApdCUxDIPQEiusk2hmzb4SmAfORSCABB+EEA5MNp6xX7oM9sk5LpAfC//5GR3qZFADOfIXArNAWB3BIgop/Zxo+kHQRAPnIpBIAg9CAA8uG0fpG2XdompkoBYLZ9xthA0yKAiC4RuBaagkCuCJRKpfVE9D+2sSNtBwGQj1wKASAIOwiAfDitbeH329kmp1oBYL6/a3yoaRHAzNcUCoW/ELgYmoJA5gRKpdJ225hpth0EQD5yKQSAINwgAPLhtH5ht13aJqkgAWB+46TJkaZFABHdzcz9AjdDUxDIjAAzn2AbL1HaQQDkI5dCAAhCDQIgH05rW/j9draJKkwAmO2csHmsaRHAzI+YudIFroamIJA6AWY+1TZWgtp9eKTPOkYgAPKRSyEABGEGAZAPp/ULu+0yKFkFrasnAMxvvSnCOAHm95j5eIG7oSkIpEaAiD4SFBO26y4Y3qQhANzLjxAAghCDAHDPwU3htk1ijQSA2dYJU+PW2wv53Qu2bdv2XIHboSkIJEqAiD4d4qsNfb2slL5ksGv+6RkIAPfyIwSAILQgANxz8LgFgNlexKcDTFL9DhENCFwPTUEgdgLMPMzM1zdb/F9enNVf6t+459FZCAD38iMEgCCsIADcc/AkBIDZ5qeGuhueHdVLrEqpn2MOAUHwoWmsBIjoOCL6ZT0frffZobMz+uu96/cUfxMTEADu5UcIAEFYQQC45+BJCQCz3a/0b4wkAkyCVUq9X+CCaAoCkQh4nreCiD5br7g3+uzwmSl9/aa1VcUfAsDN3AgBIAgnCAA3nbxRQvM/t7kHwCS6yv+retdFFgHM/JXZ2dmVAldEUxAQEyCiHUT0oO/vzSyPnZ7UN3evrooBPx7QA1CdG3wueV5CAAjCCALAPQc3wWeb6JoRAGb73+pZow+enbH+nZD9ua9UKrHAHdEUBKwIDAwM/AERnRnid9Z+ax6FvbNzZWDxN3EAAeBefoQAsAqhpxtBALjn4GkIAPMb3+tepY+ZnrROpmHJ2FwSwFMCgqBE07oElFITRPTtMH+zXf+e8SF9/8blocUfAsDN3AgBUDd8qj+EAHDTyW2TXLM9ACb5mf+7OldGGjCoYj9v9zzvFdXeh3cgICNgZqYkoicr/KopgWqe8fd9vN4SPQDu5UcIAEFMQQC45+AmYdkmwKgCwPyWOUt6X4T5A2r29QLcGyAIUDSdJ0BEioiurfEl6zjwv3fYbEF/rX+DVfE3vg8B4F5+hAAQJA0IAPccPG0BYH7P/H9msEvvKM6Kk66ffP0lM/94bkrWowRuiqZtSoCIliulPur7TpTliZvH9C1dq6yLPwSAm7kRAkCQLCAA3HRy20QYRw+ALwDM8ts9+8YxcuC8iDBPCmDwIEGwtllTZn4jEf3U1tfrtfvQaJ+o8Ps+jx4A9/IjBIAgUUAAuOfgJjnVS3aVn8UtAPzE+JGRXut9qNyfgNf/w8wnC1wWTVucQFzd/cbXzMh+nxvobKr4G1+HAHAvP0IACBIEBIB7Dp4HAWD24fK+9frwwuZYhIBS6gdKqdcJXBdNW4xAnN39pvi/YXpSX79pTdPFHwLAzdwIASBIDBAAbjp5wJl0YCFOqgfAJEfzb54SMI9T2e6PRbsbmfkggQujqfsE9oqzu9/42GljA/rejhWRij8EgJu5EQJAkBAgANx0cotCOl+UkxYAvhD41GDXfHer7X5ZtLuaiPYTuDKaOkZg586df0hExzDznRb+YCUyjyxM6csqJvPx/bPZJS4BuJcfIQAEiQACwD0HN8nMNmGmJQDMPpnRA82d1rb7ZtnusrmZBmcFLo2mOScwN4Lf85j5zUR0r6UPWPnUB2M6668UCxAA7uVHCABBAoAAcM/B8yoA/MR50VC3PjCGxwUri4NS6jOe540KXBtNc0agUCi8mIjeRkQPVNo26uujpyf15X32z/b7fmqzhABwLz9CAAgCHwLAPQfPuwAw+3dTz7765MkRqzM3SQFg5k8RUVng4miaMYFyufxSInonEf2LxNY2bc3jffd11B/O16bQh7WBAHAvP0IACAIeAsA9B3dBAPgJ9ZLBTm3mWbdJ5sI2t5hhYcvl8t4Cd0fTFAkUi8XVzHxKXM/yV/qHmaPiit71kW/y8/00bAkB4F5+hAAQBDkEgHsO7pIAMPv6/a5Vele8TwpUCopfENEnmdkTuD2aJkTA87wXMfNriMjcu/GbyqIdx+vtnqfPGe3TD9RMYR1WwKOuhwBwLz9CAAiCGwLAPQd3TQD4SfjzAx36tTPTlcU77tffIaLjisXinwtCAE1jIDA3jsMWIjp/bojnn8VR6IO2ccrEsL6xZ9/Ez/p9fzVLCAD38iMEgCCgIQDcc3BXBYDZbzP3+mnjg3EX/qrtKaV+TkTnmaK0c+fOZwrCAU0FBJh5mIjeF/fd/LXF/7ipcf13Cd3kV1nsg15DALiXHyEAZEH8ktqAC3tvBnwJChKsSz9IwmxUuz7NxwAlfnDdprXanNHV7m8C7x8ioo8z8/6FQuGPBKGBpgEESqXSeiJ6i1LqhgRsVeUPr5qZ1hcPdmeacyAA0s9tkjwS1BYCICBww1ahB8A9BzdOb5t88yoA/MC9pnedflc6QsAw+zciuoiIdkxMTLwgLCawvpqAUmpi4Wa+b9v6XZR2+ymlzxrtn+8t8v0kqyUEgHv5EQKgOn7rvoMAcM/BW0kA+In9yt51+uTJUWthE6XALHz3P4joEqXUISYG6gZJm324ffv2FxDRAabnZG5+BjN1c2p2effkiP5mT7Tx+32fimMJAeBefoQAECQsCAD3HLwVBYCfrM2jXSduTlUIaGZ+nIhuJKKzlVKvLhaL6wQh1BJNlVJriehNzHxNmgXf/62TJ0b0V2Mcwtf3p6hLCAD38iMEgCAlQQC45+CtLAD8hG1Gdjsh/mGFJWey5t6By5j5JGbe3Eo3E3qet8Kc4TPzqUqpK5O8c98v8EHLg4sz+szRfn1Dynf2+z5ms4QAcC8/QgBAAGR645BNYonaJiihBq3L+z0AjTh8pW+DfvfEsN6ilKR4J9H2d0T0fdNLwMx/ZUYjLJfLHWZce0G4pd6UmdeY2RWVUqcT0bVE9J9BfpLmujcUNuuLh7r13Z3RZ+tr5D9RP4cAgABIPWjT/EH0ALjn4Cap2SZs1wWAn8Bv6l6tzx3p1a8rTFkfuy2jqO0WHju8XSn1FWY+a6ErfX8iGlkowIncY2CG2C0Wiz1KKWLmw5RSJxLRh4no8wt36f931GOL8/t57eb3fSxoCQHgXn5ED4BAQUAAuOfg7SgAKpPzF/s7Ur9PIKZC+BgR/dNCT4KZ7vhzRHQuEe0iotOUUh9aeH++UupvzefM/CUiupyIrmbm64noNqXUw0RkeiRyJ4Zq98kMA533bv5K36p9DQHgXn6EAIAAwCWAheLQKj0AtYnZvL9h05r5x8UEAZ/7gllbQF18bx7jM090fGGgM9GJeoJ8Iu51EAAQAIJy6l5T9AC45+AmydkWhlYWAH6y/1HHcv3ZwS791qlxXXbgrNjWdq61M772yeFN+vvdq1tGgEMAuJcfBScEd7tXsWPeYwgA9xwcAiDcZmbiITMDoZmK+MDirLVQcq3Y5mV/Xz0zrT842q+v2bS2ZYq+LyzNEgIgPNYqOeXpNQSAQCRAALjn4CbYbAtAO/QAhCWfeztW6Mv6N87PPZDwJETW9rC1W57bvbI4M/9kxpf6N6Y2K1+YjZNeDwHgXn6EAIAAaMmzkcpkZ1sg2lkAVPIyr82wwx8Z6dXHTk+2VcG29ZWwdjuKs9rcwX/BUI++tkXP9Gt9xX8PAQABICin7jVFD4B7Dm6SU1iyrl0PARBs35t69tWXDHbpUyeG9OEz+Xu0sNaOab5/uVfUJ20enX9W/5ttVvD9wu8vIQCC48fnk8clegAEOgQCwD0HN0FnWxAgAOzse2vXqvm71j8wNqCPnp7UJcp84CFrG9v6Qlg7M+veOydG5m/gM09W5DGpZ7VPEAB28ZOVfYJ+FwIAAqDlk1hYMq9dDwHQXAIzTxZc2bd+/pLB8VPjen/PS60g19owzvd+sf/4cI82EzD9sCP/o/EFJfm01kEANBc/adkn6HcgACAAIADaYByAoOBPct0PuvbRV/eum3/K4OzR/vnr4kcVNuuX5+xpAzNsshln/8jC1PyZPYp980UMAqB5dknGYr1tQwBAAEAAQACk6gM/7FyhzfVyM0rheSO984/GvW9sUJ8yMaxPmhzRb9k8pk1vzOtnpvRrZwvzBdpca9+qlGai+bkOtilPH+AV9Q6vqM2d9ofOFvRrZqbnhz8+ojA1f2nimOlJ/fbNY/P3Lpw90qcvGuqe/00jTL7bvVrfhTP6WO0OAQABICin7jXFPQDuObhRv7bdwrgE4KZ9653h4LP0bAoBkB7ruPwaPQACHQIB4J6DQwC4abO4Ehy2k579IQDSYx2XX0MAQADE2g0Yl2PGuR30ALiXmOK0P7aVjv0hANLhHKc/QwBAAEAA4B6AlveBOJMmthVc6CAAgrnk2V8gACAAWj75owfAvcSU56SJfQv2JwiAYC559hcIAAgACAD0ALS8D+Q5CbfKvkEAQAAIyql7TXEToHsObpIregDctFurFMZ2OQ4IAPfiDD0AAh0CAeCeg0MAuGmzdimarXScEADuxRoEAARAy3f/ogfAvcTUSoWxXY4FAsC9OIMAgACAAMA9AC3vA+1ShLM8TggACABBOXWvaaFQeLHt2eSu8SEk1Y35CAhbm2EkwHzYK8siht9u3gcgAJpnl5XfmSG0bfIjM9/pXsWOeY937dr1DBtYps3JEyMQABAA8IGc+EBWCbadfhcCwD0BcKA3ayUAiOg7MZdTNzdHRE/aiIATNo8h+eck+dvYy7RBD4B7CaydCmzejxUCwL34MRNs2eRHpdSVblbsmPeaiP7TBpiZXjTvAdsu+2djLwgA95JXu/ivK8cJAeBWDN3TscKq+JvcyMyXxlxK3dwcEd1jU1C2ex4EAHoA4AM58QFXiqjL+wkB4JYAuGbTWmsBoJT6kJsVO+a9JqIv2wgA0+a2zpUoADkoALb2wiUAtxKYy8WyFfcdAsCt+LlksEsiAI6MuZS6uTkiep9tQbl0oAMCAAIAPpADH2jFgpu3Y4IAcEsAnDw5Yi0APM+bdLNix7zXSqlDbAXA30wMI/nnIPnb2gs9AG4lsLwVwHbfHwgAt+Jnh1e0FgBmFNyYS6mbm1NK/aVtQdnfK+r7clAA2z0x2doLAsCtBNbufp2344cAcCd+ruxbb138iegf3KzWCe21UurHtkXlsr4N6AXIWATZ2goCwJ0Elrfih/3ZW0MAuBM/p0zYd/8z88cSKqVubpaILrEtKm+cnoAAgACAD2TsAyjQyRcnCIDkGcfhx7d37aNtn/9fqHM73KzUCe01Mx9oKwBMu6v61qMAZFgAbG2FHgA3ElgcSRDbiN/WEADxM03CT983PiTp/v+fbdu2PTehUurmZgcGBv6AiH5pW1heNzOtH8iwACbhRC5t09ZOEABuJDCXfK+d9hUCIP/x892efXWJ7Eb/W8ibF7lZpRPea2a+0LawmHYXDXWjFyAjEWRrJwiA/Cewdiqorh0rBED+4+fo6UnJ2b8ZAXA44VLq5uaZud+2sJh227yi/n73aoiADESArZ0gAPKfwFwriu20vxAA+Y6fC4d7RMWfiG5zszqntNdE9Pe2xcW0M+oLlwLSDxJbG0EApG+bdiqQrX6sEAD5jR/T9S+88c+IBdz8V09LENG4bXHx25kbMFo9EeTt+Hz2jZYQAPlNYHnzKezPUl+BAFjKJA9+cmfnSn3obEF69v+vu3bteka9+ofPli1bRkRfb1RYaj//+PAmiIAULwXU8g97DwGQzwSWhySKfWjsGxAAjRml7Udmxr8jClPS4q+VUq9GgbcgUC6X9yaiJ8KKStj6M0f7IQJSEgFhNqhdDwGQvwSWdsLE7zXvLhemXgAABqJJREFUAxAAzbNLwu9u7dpHHzYzLS7+zPxdi9KHJj4BInpTbTGxeX/i5Ki+t2M5hEDCQsDGFqYNBEC+ElgSSRHbTM7GEADJsZX67bWb1uodxVlx8Sei//U8b4Vf27C0JEBE37ItNJXtXjszrW/C0wGJiqBK3vVeQwDkJ4FJEx7aZ287CIDsbWDi4OIh8d3+e4SCUgrT/lrW/KpmW7Zs+Qtm/nm9AhP2mbk789zhXkwclFBPQBj32vUQAPlIYCjmbtoBAiBbu93cvVofI3zOvyYHXl5V1PBGRoCZSzVA9ygrm/WvnC3MDxj0D7gsEGuPgA170wYCINsEhsLvNn8IgGzs952effW7Ju0n9wnJh/+yffv2F8gqHlovIUBEx4QAthYDZtCgkydH9GX9G/UPO1fEWgzbMcna2gMCIJsE1o4+2YrHDAGQXvzc0LOv/sTIpvmxZWzzW512jzLzmiXFDCuaI0BEp9WBbS0E/G2YOzmNILhgqEdf1btu/p6BezsgDGyTqM+x0RICIL0EZms7tHPHJhAA8dvqjs6V+ls9a/SX+jfqD4726+OmxvV+yhPXkDq575dmVNvmKh2+FUqAiD5SB3qcBsS2iMAADOADDvmAUqIJaWDbZGxriv/m0CKGD6IRIKJ3QASgOMMH4APwgWofgACo5pGBfzzCzJ3RKhy+3ZCAGVEpA+NCMSejmMEVXOEDMfgABECmAuBuM4Bdw+KFBvEQMEqLiP4ZQiBTp0fijiFxw4fhw3H4AARAZn708XK5/Ox4Khu2Yk1g27ZtzyWi8+MIHmwjs+CBiICIgA/E4AMQAOnmMDNGjVLq5dYFCw2TIeB53igR3YMinm4AgDd4wwfgA+3oA8x8TrlcfmEyFQ1bbYoAM7+eiH7ajg6Z9jHjbAOJP22fw+/B57L2AWb+kud53U0VKHwpHQJE9FoieiBrZ8HvI2HBB+AD8IGW8IHPl8vljnQqGH4lFgKe500qpf7WzMaEIGyJIMS14hiuFSMWEAvwgcY+wMz/yMwnlMvll8ZSkLCR7AgsiIETieirRPQgAqBxAIARGMEH4ANt4gOPEdHNzPyxud7jg4vF4ursqhV+ORUCZqxmz/NYKXWsUupDRHQFEd2IfzGDe42oUkr9gIiuVUqZINqFfzCAD8TnA0qpjxLRdUqpf1RKPcjM/4BcJctVSqkbiGj3nKj5m4XxZEY8z3tRKgUHPwICIAACIAACIAACIAACIAACIAACIAACIAACIAACIAACIAACIAACIAACIAACIAACIAACIAACIAACIAACIAACIAACIAACIAACIAACIAACIAACIAACIAACIAACIAACIAACIAACIAACIAACIAACIAACIAACIAACIAACIAACIAACIAACIAACIAACIAACIAACIAACIAACIAACIAACIAACIAACIAACIAACIAACIAACIAACIAACIAACIAACIAACIAACIAACIAACIAACIAACIAACIAACIAACIAACIAACIAACIAACIAACIAACIAACIAACIAACIAACIAACIAACIAACIAACIAACIAACIAACIAACIAACIAACIAACIAACIAACIAACIAACIAACIAACIAACIAACIAACIAACIAACIAACIAACIAACIAACIAACIAACIAACIAACIAACIAACIAACIAACIAACIAACIAACIAACIAACIAACIAACIAACIAACIAACIAACIAACIAACIAACIAACIAACIAACIAACIAACIAACIAACIAACIAACIAACIAACIAACIAACIAACIAACIAACIAACIAACIAACIAACIAACIAACIAACIAACIAACIAACIAACIAACIAACIAACIAACIAACIAACIAACIAACIAACIAACIAACIAACIAACIAACIAACIAACIAACIAACIAACIAACIAACIAACIAACIAACIAACIAACIAACIAACIAACIAACIAACIAACIAACIAACIAACIAACIAACIAACIAACIAACIAACIAACIAACIAACIAACIAACIAACIAACIAACIAACIAACIAACIAACIAACIAACIAACIAACIAACIAACIAACIAACIAACIAACIAACIAACIAACIAACIAACIAACIAACIAACIAACIAACIAACIAACIAACIAACIAACIAACIAACIAACIAACIAACIAACIAACIAACIAACIAACIAACIAACIAACIAACIAACIAACIAACIAACIAACIAACIAACIAACIAACIAACIAACIAACIAACIAACIAACThH4/wFQ3DdYmoACaQAAAABJRU5ErkJggg==;" parent="1" vertex="1">
          <mxGeometry x="-2475" y="723.78" width="90" height="90" as="geometry" />
        </mxCell>
        <mxCell id="KE77L9WXBN6WNrBAQjAJ-19" value="" style="shape=image;verticalLabelPosition=bottom;labelBackgroundColor=default;verticalAlign=top;aspect=fixed;imageAspect=0;image=data:image/png,iVBORw0KGgoAAAANSUhEUgAAAyYAAACtCAYAAABFqGu0AAAAAXNSR0IArs4c6QAAAARnQU1BAACxjwv8YQUAAAAJcEhZcwAADsMAAA7DAcdvqGQAAEBBSURBVHhe7d15XFRV/wfwz7C7sAhumFsuoOaOuFKiJmTmnlpZkGLpUy5lgmnUT0tLxbRcSk0w19xATE1FUcw1hUQlFVyRZdxANmWdub8/gGG4M8DMMDCAn/fzOq9X3nNnmJlnzvne75lzz5Gsv3xXQCmyHibCJPUJZKnJyEpPRUbKU/EpRNVOXl4eUlNTAQC1a9dGrVq1xKcQkZ4kJSUBAExNTWFlZSWuJiLSCGN39VWvkT0EUzMY2zWCzLYxTCytxacAACTqEhNZ5nPk3r+JjNs3UL9+fbRt0xrNmzeHlZUV6tevLz6dqNrIzMzEoUOHsHjxYly8eFFxfNWqVXjvvfdga2tb7Hwi0l1kZCTmz5+Pffv2KY55e3tj8uTJcHBwKHYuEVFJGLurv4SEBGRnZ+P+/fu4cvUqcmRymLdoC7zUChITU8V5xRITeV4uZPdv4VHkP+jduzf69esHS0tLxclE1dmZM2fg5+dX7CJJmbOzM7788ksMGTKEozBE5RATE4MNGzbAz89PXKXACwoi0gRjd82UkJCAv//+G/di76NW+24wadYaUE5MctNTkXPlPBrZWOGtt95iQkI1RkxMDHx8fErs1MTYyRHpJjk5GYsXLy41IRFjgkJE6jB2vxgSEhJw6PBhZAhGMO7cJz8xyU1PRerpwxji7o6uXbuKH0NULWkyaluaESNGwNvbG/369RNXEZGS5ORkbN++HdOnTxdXaYQXFERUiLH7xZOTk4Pjx48j6kY0JGtORwqppw9j5PDhaN++vfhcomqnvBdJYuzkiNQrad63rpigEL24GLvp/PnzMHZxaDmfSQnVBJmZmfjjjz/Qp08fHDp0SFyts+joaAQEBOD58+do0aIF7OzsxKcQvXBCQkLg4eGBFStWIDExUVytk8TEROzatQtRUVFo1qwZmjdvLj6FiGoYxm4q1LRpU0jOnTsn9O7dW1xHVG3oe9S2LN7e3pgxYwaaNm0qriKq8cq6EVWfRowYgfnz53OKMVENxNhN6kgEQVBZLpiouijPRdJ333yOhg3r45d1W3H56nVxdZl40y69SMoz73vq5Pfg0rcHNm/fi5Bjp8TVZeISw0Q1C2M3lYSJCVVL2q7WoWzq5Al4d9wwtGrZDACQlZWNHXsO4Otvl4tP1ciqVavg5eXFOfFUI+my0lYht9dfxf8mT0CP7p0Ux/4+fQFLV6zX6YKCI55E1RtjN5WFiQlVK+UZtXV7/VV8NWeaolMTS0lJQ/CBEHy9QPtOjjftUk1TnhtRu3RqD59ZU/CaS09xFVBwQXHi73NYs3aLTgkKRzyJqhfGbtIUExOqFspzkeT++muY+tH7cHbqLK5SS/rgEQI27cKvv20VV5WpsJMbPXq0uIqoWijPvO8undtj2hRPDOjfBxYW5uJqFVlZ2dixez98FywTV2mEI55EVRtjN2mLiQlVaZmZmdi9ezc8PT3FVWXq0rkDpk31wMD+fTW6SBK7c/c+tu/ah1/Xa9/JcZlCqo5CQkLg6+urdUICAAvnz8aoYe6wsbESV5UpJSUNe/cfge987RMUjngSVT2M3aQrJiZUJZVn1BYANvy6VOdOTey/azFY9vN6HDl6UlxVJq4qRNVBeW5E/eTjD/DpVE/Us7EWV2lN+uAR/H/fgV/WbxFXlcnZ2RkLFy6Em5ubuIqIKgljN5UXExOqcspzkbRowRyMGvGGXi6SxC6GR+KXdZtx+GiYuKpMvGmXqqLyzPv+ZIonJrwzEq1ebiGuKrc7d2OxbUcwflm3SVxVJl5QEBkGYzfpAxMTqjLKs1rHp1M+xOSJ78LevpG4Su/+OhyKlb8EIPLyf+KqUjk7O+PkyZOcbkIGV56Vtt5wG4BPpniiZ4+Kv/CPuhaNZSvW4nDICXFVmaKjo7m8MFElYOwmfWJiQgZXnlHbCe+MxqdTJ6J1K/2P2pYmKysboSdOY+Uv/oi8HCWuLtGRI0c41YQMpjw3onbt0hFzvafB9bW+4qoKdyE8EmvWbtQqQVm0aBHmzZsnPkxEesLYTRWBiQkZTHJyMtauXYuvvvpKXFWmIe4D8enUSejp3E1cVamysrKwbUcQ5vouElepFRgYyFU/qNKVZ9531y4dMXPaRxg0wAUWFhbi6kqTlZWF0BOn8fPq3zS6oPD29sbSpUvFh4monBi7qSIxMaFKl5mZCX9/f51Gbbt17YSZ0z7G0DcHi6sM6unTFAQFH8SXX30nriqGnRtVtvKstLV40dcYPXIo6tWzEVcZTFZWFkKPn8LPq3/Dpcgr4moFJiZE+sXYzdhdGYzEB4gqSmZmJoKCgtC/f3+dOrZNAWtwIHg7hr31BoyMjKtUadCgEb7wnoe4uDhMnjxZ/NKJKt2ZM2cwcuRIuLu7a52UTP/0I9y6fhEfeXnAzs5O5ftuyFK7dh28+/5EHD12HIsWaTbaSUS6Y+ymysTEhCrFmTNn0L9/f4wZM0bri6SlP8zH7RsRGDb0DdSqVRsSiVGVKla2TWFdvwVMTC1g37ghnDq1Er8FokpTeCOqi4uL1jejTv/0Y1w8ewwLvvkStra2Kt91Q5e6Vo1Qr2FrmJnXgZ2dHVx6dRC/BSLSI8ZuqmxMTKhCRUZGYuTIkXBxcdG6U5sxbQr+u3wOH03+ELZ2dpAYGVepUse6IWwatISJqQUkEglio//B2YMrIb0XIX4rRBUuOTkZPj4+cHR01Ppm1DeHDMbhg3vw7fx5aNO2jcp33dDFok49WNdvAbNalpBIJHgYdwPnDv2CO1ePit8KEekBYzcZChMTqhCFo7bdunXTetTW44N3EXHhb3y34Gs0bdoMRkYmVarUqm0Da7vmMDOvC4nECI8Tb+HcoV9w+8oR5OY8F78dogqVnJyM1atXw87OTuuEpHu3Ljjy1178sXUj+vTurfJdN3QxM6sDa7vmqFWnHoyMjJH+9CEiT+3Ef+d3ITPjifjtEFE5MXaToTExIb07c+aMTqO2Q990R8jhfVi98ke0bdsGEiOjKlXMa1nCsl4TmNe2hkQiQfrTh7hyNhDREQd4kUQGER8fjzfeeEPred/du3fF1s0bcOivvejTp5fKd93QxcTMAnVtGqO2VX1IJBLkZD3DtYsHcfXsbiQ/iBa/HSLSA8ZuqgqYmJDeff755+JDpXLq3hXbtwZg5x+b0bdPb5Wb0wxdTMwsUNeqIcxrWUEikSAjLSn/IuncHmSkPBC/HaJKs3nzZq2nWfzo9wOO/LUPI0cMQ53adVS+74YsJiamqGNZH7Xr5t9wn5OdiTvXziD8+O9IeXxP/FaISI8Yu6kqYGJCehUTE6PVhdL2rb/jyKH9GDF8mMqNaYYuxsYmqFXHFrVq14Ok4CLpfkw4Yi6FIPVJrPitEFU6bfYRmP/NV4iLjcHUKZNRu3bVuxG1Vp16qFXXDkbGppDJcvHg/nVcDz+ER3Ha7dJMRNpj7KaqgokJGcTyH5ci/v5tjBw5HLXr1FG5Oc2QxdjEFBZ1bGBRux6MjE0gl8nw4P51RJ0PxhPpTfFbIarSPv9sOq5EXoSPzxews6uv8n03dDGrZYXalvkJCSBB8qM4RJ3fj8S7kZDlZYvfDhEZEGM3VTQ9JCYpiFj2FiQSSemlyTwcT5OLH1xAjrTj89BE4/MBQI6MiBUYIP47iuKOOQF7sC9CCpVnSTuOOU0KzxuHgJgs8RlF5FJE7NuDgDnuovfjiWV79uF4TJr4EVSKWZ/PxO2Y6/hk6hTUt6sPI4lxlSrm5nVgbmEFIyMTyOVyJD+6j7vXz+FxYoz4rRBVacPeGop/zp3GD4sWwqGtg8p33dDF1Kw2LGrbwMTEDIAEaU8f4u7183gQG8WEhKiKYeymyqKHxCQdsVdviA+qkiYj5ZlKipBPHodj2/ZDqnxMuh/bjsWpJhUKcqTHRiNMfFghBEu9xmJkDycMmncUUuUnepaCB4o/9hjJ6XlKlYXkyIgJwpxBTugxciy8loYUr5ZuhvfYkRjk6IMgqbrHkzrTvMbjpWYvAUaSKlWMzcxhXtsSRiZmgESCZ2nJiI25iCfS25DJcsVvg6jK8xz1Grp07azyXTd0MTI1hXltS5iYmkMikSA76xnux4Tjwf1ryM3JFL8NIqoCGLupsughMdGQvS1s6qj/c/JboVgXECU6GoWAdaG4VXJmoiEpwn6YBd/g2FKSHDE5MiJ+xjDHMVgaVixdUiMadxJL+cWFivkneCmunNyrMtphqGJiYgFzC0uYmJgDyL9IenD/GpIe3OFFElVr968exbl96yDLzVP53huimBibwsy8LkxNawGQIDcnC48Tb+Nxwk1kZaaLXz4RVSGM3VRZ1GcK5dDaLxy5ggBBXBK/x0ArdX8uC7dOH0b+7xFO8Nm9GT72BVUhh3H6loYX/a39EJ5b+PdSER2yHB6Fz6NtkpMRjrWz/ZR+jekID79AhCdmK96PLDEcwbv94GHviFZNLIo9nEpmZGKG2+F7cWbfL8jLzVW5aa2yipGxCUzNasHYxBQAkJebjScP7uBxwk3k5eaIXzZRtWNWxxoPbp3B8a0LkJHyRKUNVF7JXx3HuGAzM7lMhtRkKR7G3UA2ExKiaoGxmyqLukyhcsnv4fTO0/n/be8Gdzd3uH/gVFB5GjtP39Pil45CVnAY/D98tXBs0aGQC4h6qMmUqyzE7FoGb8UvJR3h4f8H1sweDSd7M8VZRvZOGPH2bGxKXIvR9iaK41S6Vk6vw7yuLR7cPIND6z/Dw7gYQCKp1GJiag7jgp995TIZnqUlI+3pI2RnZohfLlG1Zd+mK6wbt0JGciyObJiJmH9PqLSFii7GpuYwMTOHRGIEQZAj81kaUpISkZmRIn65RFSFMXZTZTF4YiK/dRY7Q/KTAPsPXkcPq/ro4e6G/B87pAjZeVbzXzqKMYGlja34YNmUEyUAcJ2EGeM6oK7yOaQzI2MTtOjsggYvd0VOZgpO7fg/XDi0EXm52WoWMNBvMTExg4mpOSCRQBAEZD1PR0pSIrKznolfJlG1Z2RsgkatOqKJY28Ym5rjSuh6HN+2CBlPH6m0DX0XYxNTxT0kAJCT9RwpT6TIfJYqfplEVA1Updid+SyVsbsG03tictu7B0xVvlglrXxVfBrXB+6dYQUjWLXvgcGFp2gznauYPKSnJBf9s5R7XIrJSET01aL7SloPfQ1d6mrwONJK/WZt0arHEJjVssb9q0fw19qZiIk4rtIh6aMYGZsoRlkEQUBuTiYyn6WwU6MXglWDJmjT6y3UtWuG5ISrOPzbDESdPVAhFxRGxsYwNjGDRJLfZ+blZuN5QVsTBJ1GmIioCqkKsTsnm/eQ1GSVdMVdwspX4mlcPQp+4WjUAf3dCm8Q0WU6Vxpigr7FFK/diiP5v8aU/XblD+4hUpGXtEa/Vg3BiVoVo7a1HRz6DoO9Yx/IZNm4fGwd/lrvjbiblwGJUbmLxMgERsamioskmSxP0akJgiB+OUQ1lql5LbTs2h/NOw+EsVktXD+1BQd/nYHo8OPIzc1RaTvalqK2ZgwAEORyZD5LzU9I5Nr13kRUtSnH7pzMFMZu0quyr9T1ogFsLVUv71WncRW8HKOWcBnvUnCWhtO5bnujh2lhpm0NxzE/KN28PhSzxnWHVbEHqCdPT8Zt8UHSm43bDyItvfgvFQ1ffgWvuL6HBi93R0ZyLM4FLsJf62Yj+uIx5OVkQ6Lt/yRGMDIyhqRgGolcJkNO1nPkZmexU6MXRuD+MMQlPCp2zKZRc3R+/UO81MEVclkOLh9bi4O/TEPU6T+RmZEqbkka/a9YW5PLkJudhZzsTMjlsmJ/m4iqr5Jid2c3L8Zu0iu9JybqV+XahUkO4pWrlKdxtcbgXm2VEgcLtHF5A26F/9R5OhcAuGFu6DrMcrIRV5ABrN4QCI9PvsN/N+4UO25mUQctOrmg+5ufoonjq8hIvofLx9Yi6McJiAjdjgexNwAJyiwSIyOVi6TcHHZq9GJp0qQJtu4+gimzl+PIifPF6oxNTGHfpjO6uE1CK6dhkMvzcO3UZuxf5YW/96zA/Zh/kZubpdK2xEViZASJUX4IEQQBeTnZyM3OYkJCVAOt3hCIqbNXMHZThdN7YqKxtLPw9y2canUbm8c0Lza30NjRqyBpAYDd8PU/C632WHf1gX/gQYQn7sf3A1/S+I2aNGmFfop/3caZO4+gZhIalUNcwiNMmv4ddu0VbVoJwKxWHTg4u6PP6Dlo4zwKtW1ewq0LgTi5/SvsXTEZEcf+wP3of/E8PbVYr1a4lCAKLpJyc7KQm50JuTwPgKBUiGo+o4KE4eHDR/hywS9YsHit+BQYm5iiefte6D1yFjq89gGsGztCevM0zgUuQtCyCTi//zfcvnIGaUkPS2xrEATk5WYjJ+tZwWZmbGtENc3LL78MAIi+eQezvl7F2E0VStPrdT2TIy38GLaUtXehEumWYwhPK2U+V7F9TAQIJ5Zg0ug3iy3xq5EGLdCpddE/bx+9jDul/FnSTXZ2Dr5buh4fz/wOcXGqXwTz2pZo8UofuL7nC+dhs9Ci8xAAAm5d2INzgYuwf9Uk/LXuC9y/Ea54jCAIyM56hucZT5GT/Rx5eTnFCneBpRdFfHw87GyLViXcs+8Y3vacg6hrt4qdBwAmpmZo1KId+o3+DK+9+y1a9xiJOrbNEXv1MMIPLMehdZ9g7wovXD21T/FrSOGNqIU3tovbWl4e9xMgqinu3r2r+O+HDx8xdlOFMlBikozwIyFQ/UqXQhqCI+FKq2xVFJMW6D6mcB8VACErsESrXeOpNGuWfgFz86Jk8dyFyxj+zqdYu2F7sfOUNWjWFp1eG4Whn6zCoInL0HHAJDRu0xfpSXfRor0zAChW68jLzRY/nOiF9NPCT+HYtpXi39ExtzF+4mz4LliO1DT1GxvWrdcAjj3d4TZxEQZNXIau7p+gWcfBAAS81LYrjI1NkJebjcznqbwRlegFsmbpF7CzKxrsOHfhMjym+mocu/tPWMjYTRoxTGKSdgVHtkQU/GMs/KPzA5xKkV2Hv2J1rghsOXJFu+lcOqkPV69Piu5vQRQCxryFicuOICZDKT3JiMHxoN8wZ8CEEpZCJnV693gFh3f9iI7ti36Wys7OgbGFLX5eH4htO/YWO1/MyrYR2nYfgH6jpmGMd36HKJfLeJFEJFK3bm1sX+eLD98ZWuy4la099h76B0uWr0VKSsk9qpVtI7zcsQ96DpmIYdN+gYmZOQBwpS2iF1DvHq9gT8CCYrH74cOHMLawxaoNe8uM3baNWzB2k0b0npio38dEorSXiWgal9sbcGkjvjG+QLHVuTSYzqUnRg5v42f/SQWbPAJAFDZ7vwFHy/zVIiQSCSSWjhg05mMsDUtUvxQyqXB3d0eKrBGsLOtg67pvMXPqBPj5+SEjIx3ff/8dfvzxR0z48H8Y7/EJNm/dKX54yQQBcrlM68LOkGoyY8vWSEt/hplTx2PdT75479138fjRQ/zyy2r4+n6FZT+tw8p1W7Dwh+VISdF840NxO9KkcA8ToupLXexevvxHRez28/PDhA//hwkTpzN2U7npPTEpWeFeJsrTuOzhNr4v2pT4KkSrc1XWdC5Yod2kFTheLDkpifqlkEmVp6cnBg0eimnz1iIu4SEme47Cx5M9YGIsQ2pyLDJS78O+cX1s3BiAOb7foUXbzpj5mTf+vRQpfioRAYJcrnUBOzeqoVauXInho8Zh8qyfcC48Cn17dcWPi+ehnq0NUpJu43l6AkyMc7FkyWKER/6Hdl36wnPSxwjau0/8VCrE7UijwsSEqNpSF7u9Jr6vErt/2/Ab5vh+hw5d+zB2k85KTAk0Z4kWndqJD6pRcAGfF4t/AwuncXXH4C6NS30RRm36YrzSdK7Af2MLVskyQh0b26LEobUtLEt7ImV1bNBY8cCSEgsrtJvkj/jEcATv9oOHOEOx94Df7kAEh/+MD1WWQiZ12rdvD29vb5w7fwHvffQ1Dh87i7Qn92FmboW6VvaoXbcBAAEtW7aEj48PMjOz8PvmrRgwaAhatX0Fn3w6HceOhQJC/s1yHDUhUs/a2hqbNm3C7du38cnspVi+ZgvSkhMggRGs67WERe16kECCunXrYu7cLwEAwcH7MdFrKlo7dMKECR7YvTsQT5OfFiQWbGtELyptY/eTJ0mK2N2hkxNjN2lF00v5UtjAafYB1ftDVErBXiYmTph9q/DYAcwua38Ro3aYdCRR8Ty3ZjsV7MRuBKuB3yOx8PmPTIKDpu/GaiCWJIpeVwmM7J0w4u3Z2KQ4v6AkbsLst0djhJO9Pj7EF0KdOnWwdOlSjBkzBukZz+D99XKMmzAZZ07sAwQJzMwtYWxSC8+ePVMsT1jo8ePHCAj4HW8NG4mx494pGjkpXExQ5ftWduEShFSTeXh44NKlS2jXrh02bt2HN0Z64c/dG5CT/RwWFtYwMauD3Nxc2NnZFXvckydPEBi0Fx94fAiXV10RHh6uaGvQsa3xOoSo+iqM3Xv27NY6dsfFxSli94cTvRi7qUy8pqZK9874UQAAO1sbnLtwGW8Mn4Bpn0zGnf/+RvytcDxLjkPXDi3xwYRxqFWrlvjh2H/gII6FhhYdEATI8nK1LnLewEs1XIf2bXHq1ClMnz4dd2MTMOrd/8Fr4oe4dP4Q7kefR7L0FupbmmCez2do1qyZ+OG4fecOAoOCix0TtyNNilzG+/CIqru3hrojLi4O48aNKzN2169fX/xw7Ni5i7GbysTEhCrdsGHDsfX3lbC0qovatWtBEAT8tnEH+g4aq1jZo2WLZvhxyUI8SLiDjf5rMWrkcEVHN+ytoXh90CDRsxKRmLGJGZ6lxmHx4u9x6dIlODg4YGfgAfR3e0exKpeNjRVmfPoRoi5fwInQQ/jQ4310fOUVAEDPnj3hPXuW+GmJ6AWVl52Mbdu2YteuXWjUqFGJsft2zFVF7G7dKn/Z8nfGj2PspjIxMaFKs3btWgiCAHMLS4x792Ns27weLn2d8Px5Jmzr2eDx4yT4LvBDZ2fXYit7jB41Aps2rse9O9E4GXYMv6xZCVleDmTcxI1IraCgIOTl5sDY2BTNW3VBfGwM6ttZISIiHNu3b0PDRo2wPuAPOPUdVGxVru7duuLnn/xw/tzfuHI5HBt++wVWlnXy2xpnTxC9kJRj90vNHHE96gJc+7+KixfDsXDhd2XG7suRF3Ey7Bj8lv7A2E1lYmJClWb58uX4758g5OZkwdTMHH1fHYLfNmyEz6yPULdubQBArVoWePz4Ceb4foeWDl3wzfyFuHv3Xv4TCAKcunVFPRtrpbmm+XNUZbLcchdeeFFNsW/fPhzYsRwZqY8hkRjBoX13WFra4HTYIbz++iCEh0fAz88Pz59nYs26AHTvPQiekz4uWkVHENCqZUu0atmyWFsDoNJudCnK96wQUdUmjt2duvZDZmYGrl7+BzNnzkRcXBymTJnC2E16wcSEKlVOZhqunvkDaclSCIKA5i3a4P++XY61v67GkDcGwMTEGABgYWGB588z8fPKNejq1AdOzv2wbPlPuHP3rvgpoeuSg+JCVNPE/HsAiXciIQhyWNvYYvCQMYi9dxvHQw/D09MTSUlJ2Lp1Kxo2aoTg4P0YMGgIHNp3wbLlPyHi30vipwOg43LB4sIrCaJqRV3sdu75Kk6dPIZbN29g+fLlSEpKwoIFCxi7qVyYmJBB3P3vBO5dPw1ZXi5q16mLIUNHYYP/Fiz4P1+85tJb8QtK3bp1YGdbDzdv3cb8BQvRuaszfL+ZD0Hg3ghEmngUdxU3Lx9F1vM0GBsbo4dzX7i5D0XY8RAcPPAn+r/2Gu7evYuwsDDMnDkTDx8+wvwFC9F/wGAMGOTGtkZECupit4Nje6z7dSUuXvwHM2fOwPPnzxEcHIzhw4czdpPWmJiQwTxLe4Tr4X8i6eFdyOVyNGnyEj7/4kts2rINC+b7wmviBLRzbIu8ghV9GjbIv/n91KkzkMvyFCv9CAIUnV15Cn8PppoqJysDt64cRcKdS5DJ8mBlZY2x4ydgyJtDceGfs/h1zQrUq2eDpUuWICkpCX/99RcGDBiAi+H/KrW1wukXqm1H28L1g4mqr5Jit6OjI7Zt3Yg9u/9At25dERQUhKSkJOz/80+AsZs0xMSEDO5R/DXc+e8k0p4+gCDI0bJlK3zy6ef4ccUqrFmzGqt/XgIf7+lwdx8gfihQcKGUm/283EV5Hj1RTZT65D7uXjuFJw/uQCbLQ/36DTD67fGYNPkTyGW5OPDnTlz69xycundCx44dxQ8HAJV2o0uRy2XipyWiaqak2D18xCg8kMbjj63rEXvvJvr07Sl+KMDYTSVgYkJVxqP464iN/geZGSkQBAHW1vXQs1c/vPv+x/jscx/M8flC/BAi0kHK41jE3jiL9KcPIJfJYG5ujq7demDE6Ano3NkJ6empiAg/L34YEZGK0mJ3Y/uX8CCx4CZ4Ig0wMaEqJzUpAQ/vX0NGymPIZHkwNjaGvX1TvNKpFwCgyUsvFa3GQUQ6e5aWhEfxN5D8MBayvBwYGxuhQcPGaN3mFfRzcQWUVuEiIioNYzfpAxMTqrKepSch5Ukcnj6OQ3ZmBuRyGSZOnIhevXopzS3NX3IwLy9Hr0XGnarpBZKT/QwpSQlIengPmc9SIZPloW3btnjnnXeK5nIXnCtuK/ooRFRzMHZTeTAxoSpPLs9DRtpjpDyJg++XM/C/j94vfoKgnyUHixWuGkIvqOcZyUhNiseYEYOxaMEccbVqW9FDIaKah7GbdMHEhKo4QWnFDQE2NtZKx3jDG5FeCMptqqgUb29ERJpi7CbdMDGhKuHBw8e4FxuPrKwsCIIsv8jzIMvLLSg5yMtVLYXEywfqoxDVRCmpabgXG4+U1LSitibIlNparko7y8vNUVxLiNtJuQt/MSGqthi7Sd+YmJDB7TsYilcHj8fgYR4Y8/7/IH3wUHxKqQRBjrzcbL0WWR5vzqOa50bMXTi/OhKDh3nAqd8wXIyIFJ9SJnFbKXfJyxb/CSKqBhi7qSIwMSGDys7Owdz/WwEAcBv1Jq79Fw2vqbOQlcWLFSJ927LrAADgrbdHAABGvO2JpymporOIiErH2E0VhYkJGdSDh08AAIuW/oB5336NcRPeQeTlKMQnJEAmz4MsL6fUQkSaC94fiiFD38SSFX54Z+ZEAMDZcxcgl8tU2pa4cF44ERVi7KaKwsSEDKpxo/oAgKNHjyItKwPNerUDAFyPvgm5rPi8d3UFyF8lKDfrWYUWOdddpxqgn4sT4uLjEHXzGpxezd+NOeLS5YLERLV9idsaAJW2oe+Sl5ul9IqJqCpi7KaKwsSEDMrc3AyeH4xC2NHjWOA7H2GhJwAADexsxaeWQoBcnlehRRA4WkzVn2tvJ0Rdvoovpn6GnVt3AABeatJYfFqpxG1D34U3rxJVfYzdVFGYmJDBffjuCHTo4ICII2cQse8kxr49DB1fyR99ISL9GT38dYwZNQTxMfcQHnwS7V9xhNvr+Tu8ExFpg7GbKgITEzK4Rg3ssHPjCmz8dTF2bl6Fb+d9DlNjCWS52cjLzSq1oHBVdLmsQkv+Pg9E1ZuFuSkW/98X2PH7z/h97RJs3/ATGtrZQJabo9K2xKWQuG3ovfAXE6JqgbGbKgITE6oSLMzN4dKnB5y6doSFhVlhl5XfqZRWAAiCgLy8nAotcrlM/JKJqi2nrq/ApU8P2FhbatHW8tubuG3ou8hleeKXS0RVFGM36RsTEyIiIiIiMjgmJmR4ggBBUeQqP8WWVohIc0LBKKWiqGlTJRUiomIYu6kCMDGhSnU//iFS056JjgoQBFl+kedBJsvVuOQ/XA5ZbnalloJfoomqrMQHT/Do8dPiB4WitiaXy1TaU2ml8DsvbgsVXXjPCZHhMXZTZWFiQpVqlMdcTJuzHNE3Y8VVuhOQP1pTiaUkUdH3cezvq+LDRJXuU58fMWT8Fzj+d7i4qlzEbaGiS0n7OsZLk3Do+CXxYSKqAIzdVFmYmFCluxZ9F+O95uHPv8KQnV0zdoCNlybhx7X7MPNrf5yNiBFXExnMF9+sxPI1W2pMW0vLyMT2vX/Dc+ZK7Np/TlxNRBWEsZsqAxMTqlQdHF9W/PdX363G98v9cTc2QTGaockO1Cq7x0K7ufL6KIXDuI+epODX3/fDc+ZK/HX8X8V7IzK01/s7K/5749Z9+PB/3+BGzF2l0UPt2xpQ8ct7ikthW0tLf4bAA39j1KTF8P8jVPF6iKjiMXZTZWFiQgYV9Gcoho79BHsPHENmVnbRTXQaFiB/3rxMllOpRXGR5OmL7UHHxW+rRI0aNRIfIqoQaenF54NHXb+Ftz2+gN/P/khJSdOtrQEqbaGiS1Z2Nk6ejcSsb37B8rW7i72n0jRv3lx8iIj0hLGbKopEEHgrEOlPTEwMHB0dxYc10qmDAz76cCxe7dcDFuZm4mq12jm9ifSnD3H13B5xVYXIzsnF8VP/YuHyLeKqMk2ePBm//fab+DCRziQSifiQxnx9/oe33PvD2tpSXKVWo2adUa9hU5z9a424qsKcPBuJLbuP4nqMdvPanZ2dcfjwYdja2oqriEgNxu6SMXZXLiYmpFfl6dwKdezQNr+T61t2J9e+x9BK6dyyc3JxPvw/nS6SAGDVqlXw8vJCrVq1xFVEOitPYlLI13sqhmqQoDRu3qXSEpOr1+5gW+AxnDp/RVxVJm9vb8yYMQNNmzYVVxFRCRi71WPsrnxMTEivyurcRr75GoL/+lt8WK2O7Vtj2BBXDHzNGY0a2omrAQCd+ryNtOQHiPxb+1EQTV29cQ+r/ffjxq04cVWZFi1ahKlTp3LklipEaYnJhLfdsG1PiPhwiWZMeRcufbujXduW4ioAQNPWvVCvYTP8HewnrtKbuMQn+GNvGA4euyCuKtPkyZPh7e0NBwcHcRURlYGxuzjGbsNhYkJ6VVbnpqsBrzpjkGsvdOnogBbN7BXH8zs3KS6d3FzsfH24dTcRv+88htMXromryuTt7Y3JkyfzIokqVGmJia4KLyq6dWmHl5s3gXnByGdhYnJy7xLxQ8otPvEJDhy7iB3BJ8VVZRoxYgS8vb3Rr18/cRURaYixOx9jt+ExMSG9qqjOTdmMKe9isudooII6t/JeJM2fPx9du3YVVxHpXUUkJsoGvOqMpd9+BnNzswpJTNIyniP01GX8/Ns+cVWZnJ2dsXDhQri5uYmriEhLjN2M3VUFV+WiSvWpV36nVB4r1/0B6cPHkMtlQMHif+IlAXUpqWnpWLvpIN6ftkzrjm3EiBE4ffo0goOD2bFRlTDj47HiQ1o7ceoiwi/9p2hr0FNby8rKQtDBMxju8a3WSYmzszMCAwNx8uRJJiVElYSxmyoLfzEhvSpr1GXN0i+Agl2pNfVKu1YAAIc2+ct/Dh7QG316dgIAdHV5D6lJiYg4vqHYY7SRlpGJ46evYlXAQXFVmZydnfHll19iyJAhvDmOKl1pv5j4zJiArh3bYtHyTfjvxl1xtVqFba1B/XqoZ2MJl95d0a93F5ibm6GFw6uo17AZju/+VvwwjWXn5OLCpVv4I/gUom8niKvLxBtRiSpGZcTu4W/2R9dO+VOkGLupJPzFhPSqdu3a4kPFfOrzI2LjH+DQ7hUY9ZaruFqt/27cwX837mDvgTDE3LovrtZZdk4uTv1zHaMmLdapYysctR09ejQ7Nqpylq7chl3Bx7FmyWxM+3icuFqtwrYWdjoCew+E4XHSU8U9JuUVFX0fn//fRsz/cYfWScmiRYuQlJSEadOmsa0RVYDKiN2ZmdniU3TC2F2zGc+fP3+++CCRrqysrBAZGYno6GhxlcKZf67CxNgYn33yHto7vIyExEd4/OSp+DSgYMRFue7xk6e4dz8Rg1x7wsLcDI2bd0J2Zjqkd7XbufXUP9exbO0+BB48J64q06pVq7B161Z0794dpqam4mqiSlO/fn0cOnRIfFjhxs1Y3It7gEkeI/CW+6t4kpSCe/el4tMANW0NAE6fv4whg/vBxroubOxaoFYda9y9pt1Uiajo+1i98S+s33oUSU/TxdWl8vb2xsaNGzFy5EheQBBVIMZuqio4lYv0LiQkBO7u7uLDKjq0exmLfKfA2soSh0PPYenPW8WnAAXnNaxfD4+ePMW1G3fh8c6b+PC9obC2qoPu/T2RmpSAi0d/FT9Mrf+i47HrwDmcDY8RV5WJ+yNQVVPW9Atla/xmo1tnB5z55yo2bj+Aa2qmd3Vo9zIAoGH9egg7/S9cXbpjzsz30bCBLV5uPxD1GjbDsR2+4oepFS9NxqETkdi1X/sLiBEjRmDp0qVcGYeoEjF2U1XAxIT0LjMzEzNmzMCGDZrNHV0w9yMMdnVGVnZuqZ2cq0t3NG/aGO+OeR0NG+SvLa5p5xYvTcZv20N17tS4fCBVVatXr8b06dPFh9UqvDCwMDctM0FxaN0c40YNgmPB/HBNE5MnyenYe/iizgkJl/4lMgzGbqoKOJWL9M7U1BSDBw9GTk4Ozp49K65WEXb6X9y+l4AWzRpjUH9nvDN6MFq1fAmPnjzF4ycpivPu3ZfictRNJEgfw31gLwCAfcuuyM5MR+KdcKVnLBIvTcbO/efw/aq9iEtMEleXasSIEfD394eXlxfs7NRvEkVkaD179ixzSlehy1E3cfHSddjZ2qBfr04YPuRVdO/iiOeZWcWmeD1+koIbN2NxPeYeBr3mDAtzM9Rr8DJq1bHGnajjxZ6zUHpGJg6fuIw532/HfzHx4upSOTs7Y9WqVViwYAGaN89PhIiocjF2U1XAX0yoQmkzmgsAHu8Mwaihr6F500YAgMtRtxBx+QbWbAhSnNOh3cv48dtpaNigHrq7TkRKUgIuhqxRepb8i6QDoZewcad28+FRcJG0YsUKjtpStXLmzBm4uLiID5fItV83eLwzBF06tgEA3I9/iHMXo3Ag5GyxX1ECVs1Dl45t8HL711GvUTMc/WOe0rMA2Tl5uHj5Nr5dUdRGtREYGMiVcYiqGMZuMhQmJlThgoKCMGbMGPHhUo1881UMc++nuGjKzs7BvbiHSJA+hlMXR1hb1QEAOA30QsqTBFw4sjL/vJw8HDl5BWs2HSv2fJrg8oFU3UVGRuLjjz/GxYsXxVUl6t+vK4YO7ot+PTsqVuC6H/8Qt+4moM3LLykuNFq9Mhj1GjVHyLY5QEFbC798Bzv2n0fMnQfFnlMTq1atwnvvvQdb2/ypHURUtTB2kyEwMaFKocsFEwB0cGyJ8SMHwrlbezRsUE9crejcTu1fXu6LJO6PQDVBfHw8FixYoPE8cWU+099Dl45t4dimmbiqWGLyX0wCdh+8gHMRN8Wnlcnb2xtffvklExKiaoCxmyobExOqNMnJyVi8eDH8/PzEVRrp368renXvgC4d26Jls0YwNzeD00AvBO3ejrlffqFzp8ZRW6ppMjMzsXv3bnh6eoqrNNLBsSVcXbrBqbMjWja3h7VVHbR6ZTBipcn4ZPI4nRMS3ohKVP0wdlNlYmJClS4kJAS+vr5aj8CI9e/bBTYNWmLfvn3iqjLxIoleBDExMfDx8dGpjSjr4NgSTj16Y8u2HeKqMo0YMQLz589H165dxVVEVI0wdlNlYGJCBpGcnIy1a9fiq6++EldVqMmTJ8Pb25udGr0wMjMzcejQIa3nipcXb0QlqnkYu6miMTEhg4qJicGGDRt0/olYU9wfgV50ycnJ2L59u1Yr7eiCN6IS1XyM3VRRmJhQlVBRnVzhRdLo0aPFVUQvpIpMUDZt2oSxY8cyISF6QTB2k74xMaEqJT4+HsHBwdi8eXO55rFy1JaodMnJyQgLC8PmzZt1muutjDeiEr3YGLtJX5iYUJWUmZmJf//9FydPntR6Lisvkoi0ExkZidOnT2t9UeHt7Y0ZM2agadOm4ioiegExdlN5MTGhaiEyMhJXrlzBqVOnStyfYdGiRZg6dSo7NaJyiI+Px4ULF3D+/PkSp2fwRlQi0gRjN2mLiQlVSzExMbh37x4yMjLQqlUr1K9fn6O2RBUgPj4esbGxePjwIRo1aoQGDRowISEinTB2U1mYmBARERERkcEZiQ8QERERERFVNiYmRERERERkcExMiIiIiIjI4JiYEBERERGRwTExISIiIiIig2NiQkREREREBsfEhIiIiIiIDI6JCRERERERGRwTEyIiIiIiMjgmJkREREREZHBMTIiIiIiIyOCYmBARERERkcExMSEiIiIiIoNjYkJERERERAbHxISIiIiIiAyOiQkRERERERkcExMiIiIiIjI4JiZERERERGRwTEyIiIiIiMjgmJgQEREREZHBMTEhIiIiIiKDY2JCJUs7jjlNJJBIJJAMWIGIDLn4jOLkNxDg3iT/fHEZMAcBQWGIUfscT3B8Tg9IJG3gGRQnrtSSHGnH56GJRAKJpAkGLLuADPEp5ZKDhKBpBc8vQZtlEcgTn1ICeUIQvAo/zzbLEKH2gTmQRvyFPcs8FX9D8fnti4BU3cdHNUO1a2/qvqtNMGDObwg6HlP+diePRZBXp4LnHYBlEZo9o2btDIBcioh927HMs/BvFL3+fRFSqPvkiKoH7eOgPCYA7uJ+RJM2rei3piJIWlJjK0FpfZjEHXMCDiBCmiN+lI50jN0a9kNyaQT27VkGz8K+p0LewwtCIFJLJqSGzhXsAQGAADgJPqGPxScVlxsu+LUuPL+E4jpfCE3MFj3wvhDo0VoAWgsegfdFddp6LIT6OBX9Pfu5QmiqTHySzmTxgcIk+6L309ovXMgVn6SO7J4QOKlj0etq7SeEqzzwqRDuN1T1M1MUe8F1boiQqL+3Q1VGNWtv6deFQB831b+nVOw9fheup+v6Zc0W4gM/Vfo8XAW/8HTxSao0ameCIKT/I/i52qu85qLiJswNjRd0ffVEhqV9HMwN9xNaq7QD5VJC/EkMFDwAAZgiBCaqa2yl0KQPs58k+F9PFT9Sa7rFbk36IZmQHr5ccBW/buWith+mkvAXEypBMsKPhEBqPwXr18+EPSKw5cgVpIlPU2sKAhNzIQhCQUlFdKg/fFztgbD5eN/3ABIqajgy7QqObImA/aSfsX6WEyANwZHwZPFZOnqCsJXfI0A6FAv9ZqK1uLpEcqSFrcO0gCS4LvwBPiU+MB2xV03h478bweGJkBV+funXEejjBkCKsB/m4qewJ+IHUrVXjdqbPBZBM8dizNIQAG7w8Q9FdLqs4G9nIzF8P/x93CDd/B1+CEkQP1ozaaexctoaSF3nws+nr7i2BJq2MwDp8biKD+AfeBDhidkFr12G9OjA/M8NIfjh/TUIS9PnB0dUScoTBz0CkajoSwQI6dEI9feBK6QI+2EWfINj9f9rYms/hOcq/U0hG4nhm/PbojQAvhvDNewLS6Jj7NaoH5IjPfY24LMegcHhSJQp9cOBc+EK5PfDP50u53t4gYgzFSJBaXTB3idUSE0NFXzsNRh1UYx+qBs5UR5VGCv4R2cq1elhBFcQlEY3nASf0IeKEWh7n1BBD+MtBa/fXnD1+0d4WjC6pNGoS+HorOtyIfzpP/mfUUkjuSUp/P+g3J8RVUXVp70pjyAOFfzCn4pPKJAqXPefIgz1v67Drw6FvxwOFfzC7wvhfq4ljFSK6KOdFfvlSt3nSlTV6RYHFb+YeAQKieJK5V/z3fyFaOVGrY9fTNS2U6W2WFZfWCpdY7eO/VAxSr9cqf1cSR3+YkJqZOHWkR0IkDrhA/fOsLLqDPcPtBx1UWGEul1ew9DWAPAYyekaze7UjvwOjqwLgtTeDe496sOqx+v4wB6QbjmG8BJHPuXIiFiBAZIy5vVnhGPtbD+E2X+Irz/ugbri+hKlIGLtt/AOawKfrz+AU11j8QmasWqLXoM1HuehaqUatbeMSPyxKghS2MPV7xtMdbIRn1HACu0mrcWBSe2UbmTUpK3JkRGxEbO9D8LeZxY+dqonPqEEempnMIJV+x4YLD5MVF3oFAfLYoMuA1zzf2m4nYx0XZ9GK2W1xRRELHur7HtodIrduvZDYjZo36uH+CCVgYkJqZLfw+mdpwF7N7j3sAVgi57jJsAVEVi65E/EVEqnpD35rbPYGSKF/Qevo4eVEWDVHeNmDQWkv2PJnpgSfn6WIz02GmEAEBaNWLU9buFFjx0mrZ4CVytNm41S5zZpHma41hefoDF5wkUcPHobQHf079hAXE3VWTVqb3nRf2NtmBSACz4Y3lnDIF9Ig7amuIj4FKtnuMBKXK+W/toZkIOEc8dxFADceqJjIxPxCURVmm5xsCqSI+16eH5b7NQGTeuK4246Yq/eyJ/ifDUe6aLafDrGbp36ITXkCTh38AwAe7j174BG4npSS8P/l+hFotKxwQh1uw3BB272QMhhnL6VJX6IBuRI+zsQy28DsO+D7m1ri08opyzcOn0YISgYdQYA2KDb8NFwgxQhO8/iltoe2QiWLRzz54G6OqKFpbhJKF/0LMC3I1to3miUO7dv38JLGj9QWRpijgdg7vvTECC1h6vfbIxzsBCfRNVY9WlvWbhz+QJuA4DbG3Bpo+33sKy2pnwR4Y2RL5mJ6kugl3YGICMGxwO+xvtj1kCKofD7fjQcdH0uIoPQNQ6W5Qn+3rUDtwHYj+mOthWer6ch5ujPmP7+D6W0RUu06NQOgD1cOzWFpbha59itYz9UjBwZMccRMPdjjAmIAly98f04Bw3/PvFzIpHCjm0oZo3rXjRSYNQSLuNdAJzGztP3tBt1kUsREbS8oJOxh+uskeip6ciFpgpHnV0nYFxPW8VhozZ9Mb7UCzwj1HX6HCcEAcKJz+EkHpWRx2DXPF0uerIQs2uZDp1bHqRBU5WWG7SG46AVeDB0GQJDw7B/dk8tR6mpaqtO7S0P6cmP8/+zsQ1U8ooyld7W5DFBmKf1RYSu7QwA4hDk2aaorVk6YpDvAwzdHYzQ6O2YXeI0NaIqSuc4WDK5NAJBy77A+0sjAHE/pS+3vdHDVHmZXWs4us3CZqkTfEJ/L6Et2sBp9gEIQiJOqIuLOsZu3fohANIgeCpevzEsHQfB98Fg7A48gej9M1X6OyoZPykqLuMK/txyGnAbjeHdlDsDC7RxeUPDUZd1GNPEtKiTMW6CHmO8sVlqD1ef1Vg3VdN5npqSI+PSIWwJAdw+GIJuyh1AeS7wkIOE4NXwDdH+okee8BeW+O7WvnNTKwqbvSdgzPuLsPZoCWvJU/VULdsb0LpTC+h1QqE8FsFLViBE24sIvbYzANLN8B47Eu8v8sfRGK6hQ9WJnuLg5jHF9tAybtIDY7w3Qwo3+AQuK+W+sooQgaWDBsBzxRkt9/DSMXbr2A+VRLrZG2PHTMeitUdL2FOK1Cnnx041ixxpF4KxPAxwG98XbUTfDt1HXezh6rM+f8R/yWg4aDpyoLzhXLEyDgExyn8/GRd2bUMYXDDepaXoS63NBV5x8oQD+GbaGkjdPsccbS565LEI/ub/ECAdi4Vz3tSyczOB/ei1SssmypAefQK7/TxgL90Mb7cx+DQgislJjVCV2pvyhmyi4h6gcp/L7auxKPjtRA9ykBDsh2kBSXBbOE27iwid2xkANMPoTbdEyyzvgJ9HR0g3z4Kb6+cIuMHkhKqLiomD+UuCByI0ejeWjG6n4SBH4Sau4v6kCdwDbqgmRirLBSsvUxyFzbOmarVMsW6xW8d+qJD9aGwSv/7dfvCwj8Jm7zfg+ukW3GByohHN/v+iF0TBXgqQIsSrPYzFnYpxe3iFSAHshq//2VLW5Bbvq5CIE0s+wuiBDhp2aloqWLMd2A0vx1oqnaGxoxdCACDkF/hrvAdI0brn6ue3lkRpLwW93A9ihLoOrnh79s/Y7zc0/9cT3+24oPPqKlR1VNP2BgAPUvS3Mo9irwBt5mHru50BgBUcBo7H7DX+8NPb/glElURfcVC8j4lwBEsmjcZAB71P4CpdXQcMnDQXywriXsC6UA0TKh1jt079UCnqOmDg27OwZv9yuAKQbl6FjRd0XWXxBSNeP5heYIq9MjQo6tYVL3VfhdKUZ18F8Y7ZpZey1nJX0OazgPLnIdpxt8yiwQ7fBWTR/oIboMNa6lQlafMdqxLtTV/7CijTrv1C0YYrrp0JQqYQ7T82/3Fq91cgqmq0a0fq4mDp+5iUosL2MclXFPc0fH5t+lUU9mW5Wn1+KOEzVEt2XfB3sxeg0d4pJHAfEyoiR1r4MWyRAvY+oUgtNmKiVGTX4e9mX849FvSpcNTZCT6hj1Vfb0GRRfvDDVqs5V7bGg10WsjIAtYNVNcH0QcjSxs0Fh+kaqo6tjcjxZ4IkO7HtmNxGk+tKJkRalvbQvumVnHtDDCBpU3RjcNEVV8FxcHqSKfYrWs/pAGjOrBpXCHPXGMxMaECRR1b0TKDaihuoovAliNXDD/NofDna8UeEOop5utreoFn4oTZt1Q79sKSG+6H1gBa+4UjVxAgJH6PgVZGAOrCafYJlfMVJTccfvkPLJhTG44lAzXZd0FpfwW9Lf9KhlNN21vh5o+IQsC0b/F7ifdgpCEm6Bt4qZtPLmLiNBu3xO1EUdIR7ucKwBV+4ekQBAGJSwbCqsLaGZT2HqispVGJyqmi4qDB5UAa9S+uQot9hXSM3br1Q2Ur2oPMCWO6t4AG7+CFx8SEAADymD+xZGnZHVvRTXRVYdQlCzF71mKpFEp7QJSgxAs8TXajrhx5EcvQyXMZ9gT9hQhpTlGFXIqITYX7K+hz+VcylOrZ3gCgPlw/+wFzC+7B8Bo4Hcv2hCmtOFOwfv+csXAcswHxxR5bVdpaBiKWjYLnsu0I2hdRbLUfufQCNhXuPVBRS6MS6ZU+4mAVVCzudcSkKYNEC4RouPN7RcuLwLJOnli2Jwj7IqRKAzE5kEZsKdiDDCpLOFPJSvkG04ujcC8FDTq2YqMu+prOoaPCNdvLGnUGRBd4QTiWUHjhr8Fu1JXEyNIWTTZ7Y+yYoejRxFzpJugm6PHhUoQBsPf4Ab9WwPKvVJmqaXsrYGQ/GAu3bypITjbDe+wAOFoaF3xf89fv91oaAnuPH/BzsZtIq0pbM4GlrWn+Etwje6CJsdINwk164cOlIQA6wsN/cSUvjUqkA73EQQNT2cdEOe7Zw3XucixUWV1Lk53fK4FRHdg2OQrvsWMwskcTpUVMzNGkhweWhkkB+0nw/9WLe5loiJ8SAXiMqJP/atixKY+6RCFgXwQeiuu1Vgs2jXW4AHh4DSdDpBqMOucrusA7jH3/FL7qsnajVs/I0hatxQc1YVQHtq3txUcBAEYOk3AoMRzBgevh46p8TuHyr9GI2eSJduzcqrlq2t6UGNkPxvehEQgP3gY/j45KNfnf1eDwRMSrfFd1aWsmsLTVYceUUtoZYAGHSVuRGH4Qgf4++a9HoXBp1DPYNKkjBwCo6tNLHCyHOjZoXFJTK0up7bSwL4lA6PeDYa/SXZS187t6usXuUvoho3aYdCgC4cG74e/jVrzO1Qf+gScQHfMbJrUrs6enAhJBEATxQSIiIiIiosqkkoMSERERERFVNiYmRERERERkcExMiIiIiIjI4JiYEBERERGRwTExISIiIiIig2NiQkREREREBsfEhIiIiIiIDI6JCRERERERGRwTEyIiIiIiMjgmJkREREREZHBMTIiIiIiIyOCYmBARERERkcExMSEiIiIiIoNjYkJERERERAbHxISIiIiIiAyOiQkRERERERkcExMiIiIiIjI4JiZERERERGRwTEyIiIiIiMjgmJgQEREREZHBMTEhIiIiIiKDY2JCREREREQGx8SEiIiIiIgMjokJEREREREZHBMTIiIiIiIyOCYmRERERERkcExMiIiIiIjI4JiYEBERERGRwTExISIiIiIig2NiQkREREREBsfEhIiIiIiIDI6JCRERERERGRwTEyIiIiIiMjgmJkREREREZHBG58+fFx8jIiIiIiKqVP8PgcUR6Nnzyp8AAAAASUVORK5CYII=;imageBorder=#0000FF;" parent="1" vertex="1">
          <mxGeometry x="-1816" y="903" width="559.06" height="120" as="geometry" />
        </mxCell>
        <mxCell id="KE77L9WXBN6WNrBAQjAJ-21" value="" style="shape=image;verticalLabelPosition=bottom;labelBackgroundColor=default;verticalAlign=top;aspect=fixed;imageAspect=0;image=data:image/png,iVBORw0KGgoAAAANSUhEUgAAAf4AAAHGCAYAAACVRunlAAAAAXNSR0IArs4c6QAAAARnQU1BAACxjwv8YQUAAAAJcEhZcwAADsMAAA7DAcdvqGQAAMbiSURBVHhe7N15XFTV//jxF6BsgggiCihuhJr7rmllappZadqqqaXtZf1apP1jfsr6uJTf0uqTn7TUbLE0rMy0NC0tF9xXEDdkE5BFNgcc5vfHnRlmDvfeGTYF5jx7zCPn3DvDLHfu+57tfdxMJpMJSZIkSZJcgrtYIEmSJElS/SUDvyRJkiS5EBn4JUmSJMmFyMAvSZIkSS5EBn5JkiRJciEy8EuSJEmSC5GBX5IkSZJciAz8kiRJkuRCZOCXJEmSJBciA78kSZIkuRAZ+CVJkiTJhcjAL0mSJEkuRAZ+SZIkSXIhMvBLkiRJkguRgV+SJEmSXIgM/JJUB5XGL2WkmxtubmGMXHqcUnEHqcaUffZuRM7fw2VxB0mq5WTgl6Q6qDQvi5MApHIyq0AG/iuo7LOXpLpJBv76qDSVPWu/Z+lLI3Ez10yUW1emzP+KNWu2EJ8vQ4Vry2HP/NuE46P8LWzKfL5fs4a1e1KdvLgoJX/PAm4yt0bc9OpvpDr3wFqgLr/2ynC19ytZyMBfr1wkfs2r3OQRRp+xdzNt7kZh+2GWz5jI+PE30cG/O1MWbJc/dJeVx9lDx8XCclKXz+Du8eMZ2ycMj5teYpnDC4BC4v74kS0ApLJl1QFS9B9Qi9Tl114ZrvZ+JQsZ+OuL0mQ2v3o3Hca/a/4hO3KY5c9P4eWYc+IGSVK3ZS4P9hnBQ7oXjL50uOkOhgAQypB7uhNWrWeZy6SuedzcItGHlzZnijtUQU2/9iuhIp9PfXi/UmXIr7k+KE1m8+tTGfauTQ1/SDRLYmJJMZowmSy3XOI2xfDdvMmEAnCS7afS5eAkl/cYq1NKbI4T882YQmzMapvjBfMF491MeH8X+XbPYeGOX+/n+MNkwmRK4Y93bia0xs4yOaTlFImFVXAlX/uV4OjzqW/vV3KW/JrrvGKSY97lAWvQD2XIKxtJ2TSHqWN6Cz/kxkQNHcNdLy4jKWUnX0RPYHyv1jSw3UWSLNxD6T1mHHe9+DnxcauJHmIJ/6lsmfFv/rsnR3iAJEl1gQz8dV3+fr5euIZU893QqYv48m3HV+7uof2YMmclc4YGi5skSeCOX9Q45vwUwzxr8F/HjFfXEK/Z5C9JUm3lIDxItVspF3fF8P4WS9i/m7dfupXw6vhWHc0M2Byv0dRbpmy+s6WvsZT8+M02zxnGTS+tUZ9hUJrKnrVfMX9K1/KjzNfu0eljroD8eDavWcOapS+ZRzbb3kby0tI1bI6/KD7Kqvz7s7zu//HSTWFlzxU2hfnfV2QmRSn58Vv4fv4UwqyvJ4ybXvpfBUbX1wC/Pjw+f4a5TxjY+DFLtqj0IaeuYYrl+3ppM+qfYDGpe34R3qPls1pb7nMv+6wbEjb+U3PpSZaPj7D/3sJeZfPFsk+o/Hfk4Bh06rWruUj85m/tj9ewKcz//hf2pBaLO9upSE4GrX0r+/lU6P1W8ZxQ/ruort+LVGEmqQ7LMG2K7m0CTIApNHqTKVfcpcKMpry41aboIaHW59W6hU5eZNqZYhCfwKokdp6pPZigvWny6gRTyqY3TUPKPc9jptUpJTaPMphSdi4yTQ4V9xNuQ940bdL52/qMprzY91Vei9qti2nykkOmPPEpyr2/M44/N6dec67p2JKpplDxsdZbqGnIKxtNiTstfxtT+3mxJttP0DmJptWT25ufU/wOdBjPmFZP7WJ9LSOWHDMZxX1SVpsmW17v5NWmFHG7Mcm06ZURKu/N5hb6imlTruWZjabcTa/ofCa2N/v3UuFj0NFrt3tO5bM3pGwzvT/Z8pmo3EKnmpYc0/5lis+n902o71v5z8eZ91td54Sa+b1IlVEddUPpainN5Mz+FPOd3kwa2Y3Gwi4VU0r+ng+4vcN45lpbEbSlLn+a/hPeZbODGg0Ukrj9Y15+4E0HMw5Kyd/zERP6P81yR39+y5sMm/AReypVKygl72ycg9dicZjl01520J9dSOLaVx1/blve5IHXfyZZ8yUXk7zmVYZOW2rtuikvlS3vjiCi/4yrk0TGPZyBoweZ76SycetRzgu76Mthz/uP2Q9EVZOaRU6B5YNyx69lJF2FXVSFBtGkkdppzdljsGIK933IQ70H8/zyw+KmMqlLmTb0VdYkO/qdVFZ1fD5aauKcUF2/F6myKnIESLXN+aNs3Wj54bSjQ0s/YYcKyo/lvy/OKzsxDolmyaY48mxGehtTYolZEl3W3LvlTR74v236TYSksuX995VgPuQVVsfl2owav48u/ubD0O7vhzIkejExsSkY7WYlLCkbZLZlHi/+N1a3eVGdO42aBBEaOpl5361mtfAey/0d1vH+qr067zGVLcu/Ul536GTmrS6bTWFM2ckX0SPK9lz6DRsSLtk+2Ko0+Wf+9fRHZeM1Jr/PRstnZTKSF/eHMML+amhAs9aRtLfc3X6KlIpMC7m4l1XvrzPfGUH06mPlj6/v5jG5vX2Aco+aygaTCZOphJTVj5lL2zN5daL9TISUdxjaWO205uQxWEGpXy3nq1SVWTTGFGJXz2OydTzkRzz9oaPfSeVV/fPRUCPnhOr5vUhVIDYBSHWIbTOd2IRXYUWmuCV32zTZfWE6lleuEddMbCq/27Qkrkjcya5Z0vFz2v79UNOQeTtVm9dNJpPJlLfTNM/SRGjXJFy9jHFLTCMsr3/EElOc8GfE96fZNOlM87j4+U9dbUoqv5NqV4ij5mF1lWzqNwnHXft5pljxoXrNx3rbnFJiSln9mPl1tzdNXp0o7mBH/I70j0HnXp/9c4aahkSvNsWpPqfwO9E4VtWb79U53rdin4/++63ec4L4XVTt9yJVRQUu/aTa5nLKKbaLhZVVeoZt324z37mbt1+7l45+WoeHO369J/FGdG/z/b1sPZwh7CMIfYpF79yv/Zy2fz/0Qd54tA+a7Rd+3bhj0mDl36kb2RCbJe5RLdzbdedmS9X2ZBZ5ek2OQ95k01evMDTUU9wC7q0YPvF2c01dI7e++PlrDtL0JLTfEyz88pWrXPOvpEZNaGF54b9t5p8aa/5W4egYrITQqYv48t1xRKk+pzt+PccxfWoX5W7qP+w9USjuVHuJx2R1nhOq+nuRqkTrW5TqAHf/oLIm16qy7TYYcQuDI73FPQRB9Bk5wvlEQDcPZWC4yo/cIj+FuEPmv39zHzrpNkd60657P/N7d5Sk5AqJ6EontZMYAO74BgTha7538tBZyp0Sbd9/+350b6f3+ds/X53SuBsjJ5mDQ+pHjO/7CPN/0x8NXm0cHYOV4NupNc31DlX35nQZ1Ml85xyHzmYLO9RiNXlOqOrvRaoSvUNWquXc/ZvQwnovi5w8zZ+ZQ7atB+1v7k47h0eGO4079eFm870q/zgLckizdG4vH28/xUvl1rCPZXCbgxOMI6Wp7Fm7pvy0Mjc33Br2YUY1jaBrENYOy5A4Vbbvf1A7wmpxViW7lqb2QVSsezyYIf/vXV6xjJ9IXc6MER3wdxvJS0t/djj1re7xpEWbSOeCYS1zNc8JDn8vUpU4/CqlWsy22ZRTxCVdkXpTPWG7oNF47p6xXGckvVTmMhlnE6wzCkJ7tKFFBc8i7qE3885PW9hkOyCMjcyddjt9wtpw00sr6tEFQB1unZHqrQr+ZKVaxS+MDl0tkX8PKzYc1BlJW7NCWzShkVh4RYzm8ZvaVzDtsDJtbojTCxpJZXI4tjPW/O9QunYI0x6LoccviqFT5/CHMYXYmJXMm2zuByeVLXMn08fhlLC6opTC3CyUnv1Q2gc1cpmT7tU7J0iOuMoxWD+5t2HwveZBbkDqit+Jtc3KVQG2TWsnfzvAKYdPU8rFY7H8BlULACpCozeRazsFSff2My/2biI+hb6L2/jQOm1OmTZYfkqfCVNJLPOqbRBFBaTl6A8kvIpK439kztw95nuDuXdwm6qdRNxD6T1mAi8uO0Ce7XoAWz7lrZX7r0zff40qJu1MgvlY86VFE/3AX5iRa75IuPpq0zlBql56x6BU63kTOfgWrLNeU7/grcWVmdcONGtNV0uQ2/gr2xzOnc0idsNG8wktjB5tgqt2MDW/lhtHmMfx7j9DmsOTTOVdPrGX1eZ2fWVU9iOMGxp1dU9SNu/f8edvW4u8gvIP88XsBViXg5p6HyMdDvhylrIewLufvm0+nlPZ8tvhWr8+vMNAbTcyvhc3dmkm7GBP/9i/wt/71T4nSDVGfi91nHvUHbxknUKTypYZ03hq6WHHwT8/nt/mT6Hr/D3KYKMGrek13vI83/H6nF90MmYVk7r5I96y1PxCRzCyT5C4U8XYtl5sXMCcmLNXZgpPcBONwWml5Ccc5tCVOsu6B9OmR5j5jt7nX0zq5rcYM+zdKzomoTR1Owueup9p1gx1o3n+yaEaUw4rz71FG3o4PU+xkLScqzvVK3XuA4x59TeNtSOKSY5ZxOsORsbbDWTbuIYf96lliSwmddcnTH+gIt97FT+fq31OkGpMNf9spStPGCXNYZZP60qU6mI2ysIoa5a+xE3+HRgxYzllE+GCGTLtSWvrQerS8fR9aD7fCwtvlKbuYc38R+g9zJL6tAtTFz3GEN3pd87wJnLkfUwNBTjM0vG38dD8r1QXpSlN3cPaNebFQkYurfAKcbbTIFPnzmH2sl02n5NlgZyHiOr0oOPUwdUmiH73TLQOdktd+jQPvGI7yM2yuMzthFk/+5p2kfjNa/l+/hRahtmmpe3C5CX/4fGKdrFQysXNrxJ200ssXSMuXmN+f7PnMNfSGqM6cNCcdRGAVDa+Po8vjptHtpSmsmftlV7cRUmhHDbsJZba/t5KU9mz7A0eGF/WpTTi3uuILPd+hNYe1jHj9mdZsMty3FuOx0fo7Uwq62r9fK72OUGqMWJGH6kuMpryjn3heGGbcjcxK5ajBWLEm7JgTIpGWi27TF3lsoKpMZiSVj9Vgb+vkTnOEbvMYE7eVP5Ohd6fboY0M2cWrwHlc3/+eev3rZ7BzRHbzH0VuWkvWmSl+V5ts8o5uo02zYvNtn3WMrmbTNGax7rWIj3ia9Gg+drLlD1nF9Pk6KdUFv1RuQ153xSrk/XOuUV2nPzeK/D5OH6/1XdOqNB34fB1SVUhL8nqBXf8Ok7h8z32ea71dWHyvM9ZeE+UTbNPYzpOXcCW1a/YTLPS0oXJ73/HV2/fTGi1HUWehI97x8m/rwgd34trKjakH9xbM/bt921aSdR0YfL7fxD7nSXv+RXgHs7QV99jiXWEu5oRRK/ezE9zJtD1Cs8RU9YO2M6yqV0qOR7CtjaqZwSvbPqU57VaFBr34p7nR4ulV0EwXe/5N1/tXFSWk19F6ORF7PzqKXrrZL1rPPRlNi+ZqvPZmH9v7zrxvVfr53O1zwlSjRCvBKS6zmjKi/vDtHr1YpUlL7uYJs9baVq9+g+N3OJljCmxphi15xgSbVqyep0pVi3HtsA2132FlwzOizNtWr3SNE9ludPQyfNM361ebVq9KU6/5umIMcUUGyO+R+UziolNMRlta6gqNf4KvT+bGozDfU25prhN3wjvfYQpeslPZZ+78ZhpyYhQlVYbZ2WbYueNLvfZ2t9CTUOiF5tWr44xbYrTf8V2dN9rriluU4xp9ZLo8jXlChxbyvMssf/uQieb5m20PyYq9B2ZHL12RdlzDjHNi1X+mjEl1hQjvKfQyfNM38XEqtZ+1RlMKbE/mZZE27b6jDBFL1ld9vmXxJrmtVe+G/3v3bnPx5n3a1HVc0KFvosKvC6p4txMJpNJvBiQJEmSJKl+kg0ykiRJkuRCZOCXJEmSJBciA78kSZIkuRAZ+CVJkiTJhcjAL0mSJEkuRAZ+SZIkSXIhMvBLkiRJkguRgV+SJEmSXIgM/JIkSZLkQmTglyRJkiQXIgO/JEmSJLkQGfglSZIkyYXIwC9JkiRJLkQGfkmSJElyITLwS5IkSZILkYFfkiRJklyIDPySJEmS5EJk4JckSZIkFyIDvyRJkiS5EBn4JUmSJMmFyMAvSZIkSS7EzWQymcRCSappl0+cxVR8WSyus0zFJZguGfAa2F3cJLkAU8llLsefFYvrtNLcfBpENMejZQtxk1THycAvXVGmkssY/tiFMTkDw4mT4uY6ybN1K0yennh4eOA7+TZxs1TPlebmcemnP7mccYHLGZni5jqp4TXt8PBoQIPIlnhe10PcLNVxMvBLV0xpbh6XNvyNMTOH/E1/Upp9UdylzvEdPQyvZsGcOXeGNq3ayMDvYkpOnKHkn8MUn0uiYNN2cXOd4x7oT6Nbb8YEGIoNBN7Ql4ad24u7SXWc7OOXrghjSjqXftxKyZkk8tb9VueDvnugP9533oJ7YAA//rKGXTv/EneR6jnDn7GU/HOYwth99SLoe3Zqj++tN5Obf5GF898kLz9P3EWqJ2SNX9KWkwTFhWKpPU9faNJSLLVTvP84lw8mYIg/gjHxb3FzOcY8Ly7neonFqhoEGPDwN4jF5RiSGotFmrxa6l+UeDQNocG1fckt8uGnH78lcV8sHQbdyD13TVKv8ZcUQfY5sbS8wFbQ0EcsVefMdwMQEiWWaEuPF0vKaxQMjYLEUnUFWVDgRNN3db9vJ45JK2e/G5v3bSq5zKV1f1GalUve71sxptm/x6txTAKUFjegJN1XLFbl7m2kYXCB9b53l164BzcjJfUs/2xfCsBNw2fQfOR4WeOvh2Tgl8orKYK/FkDCa+IWda1mwPBZ5U7epYWXMGzagSk7n8vn9uEf9AluHql2+2gpSLmT/LP6Qcu//WF8Q9aJxaqMxdeQE38zl/P8xU1Wbg0uE9Tldxr4HBA3qTqT0oKVX5eSn+mmHfhPbYe/ngPDbvtyNV594foF0G6QuMXe9kVwZLpYqi7kYRgyUz8Q5iTBhqchd624RV2vZdBnslhq79R2+H2wWKrOqy8MWwwtdfqSS4rg95lwbp64RZ3GMWknJwnWjnPuuwEYsBpjyA0Yft+JqbiEgl17MRmK7Xa52sekIecGck/0xXS5gbjJyqdFMv4Rm5z6LZq8h+N2x+f6x49U58jA7wpykiDtqPLvVn0c19gOroEd48VSfZ0XwqCn7YqM59K49PtOSkuKacQ83HHyBGtWyAcYCRWLAfAgFV+eFYt1ldKXAmaIxVbe/EpDlNqOs/4+0ISfvvFSD/wlRfDVjc4HFouJF7S/o4oEVItWM2DUXLG0zPpo5wOqxfBt2hcoBVmwsqlYqs+rL0zYqh2oq+mYtPPtWOcvdszyi+eBVztMJqO4qdYck8W8gIH+YjEAbhTTiJm4UYGBtV594a5ftY9Jqc6Rgb++StoPZ7dB0u/lT24DVkO3cfZltipxQgTgUftDqTQjm0vrt5Oy+mUiRx+x2+aM7NOtOPNNM7EYgDb3ZRDY1okmWkHCus7kHVTvRuj5yl6xyKG8Qi/eeauJeuCvTJDGwfdTmSCNzsVEZYI0Di4mKhOkcXAxUU3HpFV6PMR0EEsdMpRMIP1kBzJ/KP9aassxWVzYhCMftBOLAWh6Qz4Rg5zo0hHpHZOYj6P9X8HFRGgcAa0H67fgSFeVHNxXn6THK83Ay/rBLz2V5mC1k+WO8fr9uWqPuQoahrUSi6w8/eybWJ2VPvEJzrz/uuqtMvx9dfpy88+LJVePVl+7VvnVoPd51ZJj0t09y/rv/YZ8Ds161nr8mKJ62+17tXj65pQ7ti03z2uuEXevuvR45eLxyHTlovTIdOX8s6yfcj7KSRIfIV1lMvDXByVFEPOIUoM5Mt25puW0w2JJmcjZYoljAWPEEqviCx5ikVP8bp4pFlnlntXuF9Vz3ej7ufPOO1Vveu9By6kkP7GoTEQ/scQ5fs3FkjKNI8QSx7z6ag/yC4lStleU3uvQe/169D6vaj4maRQsljiluKST9d9ZxstMnjzZevwEDXzCbl9n6f0+igubiEWORc4ud2xbbi2e/q+4t3P0vtM/osUShWG3cj5a1Uo5P53arpyrpKtOBv76YNcSSP9MLK28XpMrHgwGvSmWWBmSG3DmeLhYrC/kYWh/PZsLc1RvMX8ZycqpWPA/4/OMenO3hc57UFNc0pDf/9LokwZlQFTnhWKpvpCHtZu7AXpMqPh3c/0CscSeo+0ir77K69DSbpDyPiqi80L9AWTVfEzSKEgZpFgRIQ9jKNGpMbe/vsLv+/DxZqw/kV/u+LbcNm3TubBU49VX+ay0NGlJ9mntljRVIQ9Dq15iaRlnWmPSP1O6vb66UemGlK4q2cdfHyx2E0sc0+tPxTwg8EiM0menx6sJdLlLtUZp6eOPmzmTsyUGxv75KcQ5cZIIHwCdRmkP9LIoKYJj6yF5h7ilvA5j9N+vRXo8HP4eDDkAFOxdbrfZq1l/CooySE49zIZN3qSfUq6dVfv4LU5tr973bdufqkfnuylHeN+aGkcoQV/vAooa+m5q4n1X8Lu58MFXFKYkk/nDWjYX5vDCeWGQXE2872r+bva17U3TG/JpGpULgE/zQVzIOkpxcdn4hPCQAkpNbSB0Cu6jXtI/Jit6/pGDBa86Gfjrg4r+8PQGZlWjcoE/Sad7QcO+ttXXb3rm/deVJv0KEP9+65df4uCxQ2xY8T+7ct3AL9UbF+Yv0Q/8Dhx87U2MX/0kFlfKieIi7kk2z9apAPGY7jBrFqu+X0Hc9q125Q+//BYRtw51PI+/MgNOb9gAHUeIpdIVIpv66wO9vkxbkbOVmv4VCPoib/fKHWoNYpaSMuMRslrr9DHqOG8sYXN4AAdmTOO6664TN0vSFdVx5qsULv4Pp2+5jtzSyi1Std+Qz/re7bn07svipqtj+KwKd3FQnC+WSFeQrPHXB0n7lVG0Iq++EDn5qk2tsa3xA/hPvAP/vs7X4IvTMyhqG0GLXr1oHBTIkQMHSP77Hzy+/ZGgs9ojwM8bS9hdlEfg84/R68YbuO666yi5dImcnbtxd3PjcraDJlMzY34+51+3r8nIGr9rs63xAzR/ewYefs71w7t5NiTvfDpePbvTsns3srKyOLZnD+fX/EjQL38S4K6ddCeuuIjUgd1oMWY0Nw4dSlh4OPnJKRSfOUtp0SWMBWVZ+PTkbNxM4S/2Nfsq1/gtLFOIE5Y7HmB8676rck6SFDLw11YH18Cx5crAmZCHoc9T+j8U235AryYQdav+/leAGPirosGtN+B15220HjwIL29vdv/9N6l/bcfzoxU092hYLtj37tULdyB33wHytv1Nzsdfik9ZKS4d+A1FsP8v2P877DVfEIWNgS7Doe8IiHCiT72OEwN/ZXm0DcP7njvwHdi/3EVA2PpteLm5qwb7i8kp5G/5k5yfN2DYcVB82kqptsBvyzJ2Qq0L4Ap1NUraZOCvbQqy4LeX1Efpj41zbsBSLVGdgd+W35MP0HDwQEJ79sAEJCYmYjKZaNO6dY0Ee1suG/jTk+CTpyFFJ+CNWAi3TQMvnYFgdVx1BX5blosA74H9iejejezsbM6npdGoUSNaRUTUSLC3VSOB36IgC479DBnm8T3hA/QTAWGTadQvBJp30B9YKFVK5TpepZpxajt8f4t60AfYo1HuQnJLL/Pbex+zcetW9uzdi4e7O5Ht2xMZGYm7hwf79+7l7z//JG7h5+JDpcpKT4K54/SDPsDG6bDoGbFUcuBo3ElWfbmSDdu2cfTwYQIDA4mMjKRVRAS5ubns372LHWt/4uI/dXAaXKMgZV2HUXOVm6Ogv32RMu//z5FK9+VXN+onG5MqRQb+2iJ2uTLPVa9vTK3ZzAXkll7mn6KL/DSiL55ff8K0M4d46P89S6SbB0kffMSByH4cjOzHmf9bRDM3d0Y+O50h8bswrVzIhcfvr/QgKgnIzVKCfp7OcWkr/jNYbz8FUirPMug09sVpdPrla17ftoUHJtxPyPkM4p56nkNRAzh6/0Oc//kXOvfty7hVK2m1/WfS//0cp/t2xGAqFZ+y7ju1vfziU4bdSmKyg2vsy6UqkU39V1tFVh0LeRjG2jcx12ZiU//ZEp30toK8UiNZxhJyxw5n4F3j6de7NwFBQWQdPET+3zu5MOcT8SF2vJ6YiNf119HS3B1wdO9ejqxYiduPm/Bz0x5EZauJh0e5AVcu19S/4h3Y5uQqjbZei6uXff62Tf25pZfJMZZfrEdLvsnI+bahNJ1wFz0HDaJ79+4UZmeTt2c/OT/8VG7QnS2vAd1ocNsImg65gabh4SQnJ3N48x8k/riOgL8P4OnmXB2udcPyawLUaFN/RTiaFth5IfSbJpv+q4EM/FdTSRGse0a7aV/kKOlOLVMd8/gBa7DPWbUW4+kUcbNDjV563DqIqqLEOc8uFfgT42F2xReyAaDXDHis/g3gquo8fsDpYK/FchEQOOQGmoVXMCOmyjFdZwI/5srP6A9l8K8i5y4TpZpx8i/ng/6A1XUq6FeXg0Nv5+yYB7kw55NKBX2Agjn/JWPsQ6xb59w66ZLZ7o1iifP2zlPGBkh2kld+Q1yv4aQ88mKlgj6AYcdBCl6fz/b+I8VNdZve+g8W6Z8plaWCssWSpIqTNf6rafM7kOCgGTVgDIxcpJ/HvJaqjhr/Dz/8IBZVWpcuXbimgquTibUjhzX+7bfblddb/t0pHTge943/ErfUaxeu+axKNf6///6b8+e1c1BUVEUzUaJyTNeaGn9JkTKYT2+ck0XAGBj3taz5V5Ks8V9NXo3FEnuRs5WDuw4G/erSxb1Btd1qUsdOFe9GqMuMk/6FcfwUTL0eEzdJOlq7eZQ7Lit7a+emvapfVTUKaY6/nz/nC50fw1BlDX1gwlZlnr8juWuVFlOpUmSN/2pKj1dGrKoZsNrx1Jdarjpq/GLtpCpqIld/o5DmjL57Eu3ad+Bo994M/KTifa51jSlsBJdnKu/f/UAsHh+PF3ept6pa4094fRZ5K38Uiyulun5TYo0/omcfxt81idImgeQOv5EOweUHBNa42OWwd4pYaq8enCOvFlnjv5pCopTFKmx59VUG8dWzA7pFg4Zi0RV3/PhxsahKgq/pwINPvkiLqGv51q8pqUGVW+O9rjH1u8X679Lufey2uZL2lWhmNmYrK+JVh5r4TQ24fTwTJj7MhebhrG7TAbeGNdtSpqnPZOU8qMfTuVTJUnmyxl8bFGRBQaby78BW9abfSpzOVx9YavxnTsUzduz9XGgcwHM7j+ER1IRJE+9i3OyrUDu6woxPrrYL+A0+fQe3vZ/a7VNf2db46wtLjb9jp25069ydP3wDuO2HzSya/iA3d2pJVEDNdSk4lLQfNj1avt9fLu1bJbLGXxs0ClJq/yFR9Sbo12ft20Zyz12TONusBZE//MlPKRniLvWaKbCp/X1fB2NVpFrv1lF30qlzd1bgzW0/bBY3Xz0te8CYNfYrkAaMUcpk0K80WeOXakxuygUa/v4PRenVN4r5avMIaIJ7wwZsCwhh9Pdl093GdrnGZWr8l9/agSkk1HrfY8uvuH/tGoP8LlzzGQ0b+VFSUH+WlfUJaU6+hwezk7L58OAJa3mtqPHbskzhkwG/ymTgr0m2C1Q06wKRQ11qhH5GXgnHzmRzPNG5ZXDrgs7BniQkp/Dg6t/syl0q8M89gCmgifW+KwX+rx5Nx6eoiIzcS+KmOqtfUw/++89+Po21HyhY6wK/VG1k4K8pOUmwdlz5vikXWoc6y2Biy/kSJv5cs4tseJQY6Jl7mms7dmZ5Zs1OP1o8NILDBw8xd+3vduUuFfhf24Ipoq31vsfqZS4zn/+jJ3NIzCriw2PmMTk1xDs3neGNLpPk14r9l2r2mF55WxQrVn5PzOGy2j4y8Ndrso+/pmyZVT7ogzJQRao23rnpTDm/gR+nD+PTezqxuIcc6XuluWUmi0VSFTQ+c4CPIlL57pkR/HJXKya1kON+nJKTpCzmc3yjzOzngAz8NSF2uXYqXsNu5QCVqqzxmQP8J/gM7/3reQIDAwGYdF0bNg1tSg9vWUupKe6n4uzuu53YYXdfqhyPEgP9j/7Cbw90ZcLEiQAENvbjw1tb8l5nf3F3yZZlOd8d45UlfVc2VVb7k1TJwF/d0uMdJ55o6CuWSBXU/+gvrL2zHY89MhVvb2+7bdd1DOX720Nl8K8hbnv+KPt3eirkHbDbLlWcpeXqq1cm0q2bfRZIb28vnryxNV/3lcFfldpyvqAscy5r/qpk4K9ufzuxupQclQrmk91Dubv4ptVZDo1sxOYBbvyvg5FbHbTWe5QYCL62P2vPNuCVb3bz1cqV1m3JF/J55ZvdLNp0glAHgd87N53bz+/gs5DT7BxcSsr94STc2Ux2FzjgFv8NbrnKgE33v6qwkE89FBC/g1kNj/JHzzwOjWrMT71MvNmiSNytnNKGXhivGcLCv1J4beHXpCSXdZ/8fTyVV77ZzY6kfIcXs34p8cpvqnUyh0Z4kz01kh3D/Xm2dT0+ps/oLHb053/EEkkO7qtmB9coTU167jnnMiP7HQ3uG/jbXH75ejFFxUYuZOfStLEvgYHKaPGEsyl8fzSPWadLxIeV82LKN7z19tsAnEgvpNv3p8RdrDxKDDRKPs6szg0YPqg3kZGRACRn5LA7PpV2/iV069aNl9ed4YOz5adsORzcF+FpV15n5WZBtP18fVumqPswTvp/NHhjgLipzODZMOlVsbRO++hArubgPt+MRN5pnshjjz9Ocno2RYUFtGwRjLe3N5cuXWJffDLz9xfxS/nDyk7goT/484VR1mPzhwMZTNiuPSXWszCXHil7ef6mdtww+DoCAwO5ZCgmLjmb02fPcWOP9pga+hC+PEF8KNSHwX2OlvOtY8uZXwmyxl9dSopgn4OrywGrXSboO+Pekdfh7e3NVwdy6Loui7Cvk7hr8T+s3bSDpo19eHlUB1Imtua9jlUf3ORRYiDw0B+853uA46/cyuNT7qVp8zBW7Ehm3FfxRH6XxP0HjCxe8T0A/Vs2Ep/CtQQEQdTDYqmVW/w3+kEfoNuNYkm95pV2kmHDhwMQ+X0yXX/JIXBpAnO+286+I/EM7Nae1ZO7sHmwj8NWLWd4FuZyR9IWNgxyZ+v70xlz+2gyi+Dd388RuCSeAb9mMO3PdP7680+C/Lzrb62/rfKZa/rrOeX8LFnJwF9djq1XH8VvEfJwvcu/X1XnMvMA6BlWFmTXXfbnvjg/Wi0/xSc//Amll3lyaHsSxofybKibzaOd1/jMAWYat3HknQd47JGpmBr68NFfyYStOMWje7NZn1MM5hrbdT2URZPyDTU7hapOGP6gWOI8/77Q3bVqWSVNw8nMULI42o7EfzMjgKE73Rn0wV+s3bSDnlHhygXADY0Y1aTiLUQeJQb6JfzBmh6X+PadpxkwcCB/n8hg3FfxdItJ5t/xZesB+J7YSZ8+SnrlrefrafBrf719Zj+RYbdyfpasZOCvLskORjYPqT/56qvL0mRvsrOz6dWyUbm+S2NDL55PDaLV8lPMWfkbvp7u/OfOzhy8vRmTg51revQszGVM/Bq2P9qfGc8/i08jPz76K5nw5Qm8eChb3J1up/5g1K23AvBDwkVxs+vpPgjCdE6oem57WSyp9/LDovh5k7KwzFO9y4/j2dswkPvi/Bi65ABrN2ylZ2QoayZE8XVPz3LHvxa/lHhmGrex4Z1HGDZ8GCfS8nh0zUmG/XbeegFr4VmYy4NtjISFh3MgKa/G8wFcNQ194Ka5Yqm9ff+RA/1syMBfXRpHiCVlei2TTfwqLna8jlXf/4C3V0P+O6yFuBnMFwBv5obSZslRVq79nVbNAvj0nk78OLD8xYKtwEN/sOKaTL75v38RGRnJb0czuOlL9YCP+YT63LjBBAYG8vfJnHInUZf1kIMTqpqoh2GIa7Zu/e9iGAkJCXRvHajZtL7PrRH3nWzKA0t3cvDwUcYOjOKPCe2Y2VZ7tT3LRew/D3ZjxvPPgrsHH/2VTLc1Z1mRpl6T73UohudfeAGArw9cEDfXLyFR0HmhWFrGsBv2fyWWuiwZ+KvLNSPEEoVXX+h+t1gqmYP662ebWE+U/4oKEHexKvYN4OHkFgxf9BcHDx/l5p5t+WV8S55tKWTKM5YwNelHYl8fxx1jxpB8IZ+X153hji3nNWs8noW53Jv/D3eMGcOlYiMvbE0Vd3FdEVFw/2qxVJt/X5jkuq1bF9t0Z8HyHwF48+Zw3YvTdTSl/5+lvLr4J4qKCnl5VAd2jAgksrH9mBa3i2l8HJ7MF/+JJjIykr8TsnQvYjHPLnh90i3WC1m1gar1To8JyvlWy8VEscRlycBfXUKilNGjtgeeZRUpueKepvywKF5b+iuXLl3iueubO8xStsc3lOs2FfHq4p+g9DL/ueMapjxY1hfdKtCLj955lbDwcH44kEHkt+qj8231jl3JWzOV0ecL/kzRvEBwWUPGwdhlYml5/n0heg2EuHbr1rKmN7Ly61V4ezZk+agwcXM5Cy63pd1/97F2w1a6R4azcdYDNG1aNqPilr7XMPH+eyi8DC+vO8OwjfrHqHduOi9EFDBs+DCy8g2ucyHbKAh6ul4XU2XIwF+d2g2CKbtgbJwybe/eGNnE74R1zQeycMlXeHt5Mudmx4l3jA29WHC5LbctP8ymrX8TGRlJbu5FcnMvYjAUk5CYwmOrjulOgbII/vs7/u/VxwkMDOS3Y1l2A6MkG6Mmw2tx0GuGuEUJ+CMWwuytLh/0MR+fT58JZsc//3BNaACbhjUTdynnUkAI951syhOLfuRCVha+vr52x/RvexIYveq0w4tYjxIDE7O2MP1JZdGklzcm6V4k1DudRmnX+vW6Y12MDPw1ISRKBvwKMDb04u2iDqz8ehWB/r58f0dLh8HfNyOR/rmxnDkZz+Ytf7Jn337rLfFUAveGZLAwII5xRu088gHxO/juqVvo1q0bJ87nc8cfKeIukq2IKHhsLsy9oFwEWG7zd8H4p8FLv7XGlVwKCGHGb8mkJCdzXYfmLO6lpJTW0/HMbloWnWLvvgNs/2en3THtkZfCyyGnecvnBH3d1VcG9Cgx0O+fJbz6/x7D29ubj/5K1uz/r7ca+sCwxWKpMquq3zSx1GXJwC/VCsW+AUotaecuwoP9+e/QEHEXq+sSNvFBZC633dCbtu3aiZut2oU3Y1pXHxYGnaKdh32eqsZnDrDytrYMGDiQ5OwiJq87Z7dd0hEQpFwEWG6Sqtjgjty75B9SkpOZNCBcM9++d246D55Zw7vDWzGwby8aNVLPIeHv50evtk15tV0Oz/nZJxCyBP0v33uNsPBwPvorWXcMQL3WsgdMvKDkTRmwWumCHf2h7HK1IQO/VGtcCghh1OZ8duzcRfc2TVWbSEfFrWXGLZ0JCw8XN2lq16IJM0NTrMG/8ZkD/LtdHsOGDyM5u4i7fjjjWs2h0hUTG9yRCe+uJCU5mSdvbF0u+HvnpjM1ZzN33zoET0/n5vR7enoyPMKdV5uUBf8+JzZZg/4PBzJcN+hbNApS8qZ0G6d0wcqgb0em7JVqjFbKXu/cdCbk7eDaUVNUT1DeuemsH+rHgP79+DvuPMM2KUlRAg/9wQfDwmkaHCw+xCl7UkuYvy+Nf7fLU9KqZhVwV0yiatCfmvQjA269l0cP2jeVOkzZO1uYZSDVOy/dl1ouZW/jMwd4b2gkfxYGqzavP5S7i/efm4C3tzcfbz3LC0eU5FV3H/+aB8eNFHd32v/ONiZ190a+emUiYeHh/H0yh2Ebyq/+6ZuRyOyO7uxteE2511fnU/ZKFSZr/FWRk6SsxieX2XWaX0q8dSndsMbqNRzbmv91HZqz45Zm9PD24P7GaZUO+gC9Qxsy+5pCh0EfIMi9kEmD26u2Oqj54cxEGfRdxJxvQik60NV637JS5AO39CfISz1Ifh7Qj8nzv7er+fulxDOifxdx1woZ6XnKYdC3CPM2yCV+JZA1/koqKYLfZ9ovDNFqBgyfJZuUbIg1/sBDf7Bi/LUMGz4MgH8OnuSnHUeFR5VxK7jAU/fcTFh4OMlpGRzcvxcv76p9vp2v7UhAQBM++H4ruQXqg6QAujS6aF0TPTkzl7t+VKZQqdX4TX5v2jxSciX3e7zMe689be16+vLXnRxNTBd3swosyWD6NKXmv/aX3/D3rfrF4tAhN5Ccns1HMUrWQDVuhnxu79OGAQMHArDi7zM8ul+ZISBr/K5HBv7KiF0Oe6eIpUrmqEFPi6Uuyzbw90v4gyVPlq04Vhn7DxwiK7t810BFtG/XltYRrcRih5Izc5m+8Tx39mohA79kdemDIry9vcVip+TmXmTPvv1icYUNHXKDWOSUv09kMOy38zLwuyDZ1F8ZakEf4Mh0sUQyO9isM2dTtGtCtV2h0YNUjW4ByXVlXah8Klxv76rX9qviZLaLHc+ntsPmd5Tb8Y3iVpcia/wVlR4PMcoKbqoelR+nhdjU71Fi4F+Nz/HM/bfg7e3N3ydz+PF4jvgwq6D0/Twy9kYl7eiJDLLid+PbSD3/ubN69+yBl48PC/5MI1dnBb5uOdutTf2/HcuyzvFXa+pH1vpdkk/3Q3jnpvPLsAAG9usNwIpdaRzJUO9CcivKoUvpKSbeo6xj8OX6fwj3vUxVTsENGnhww+BBJGcVsPAfZRCsGre8DMa0vsyAgQO5VHyZN39LsiYDcoka//ZF5StmIQ/D2P/Zl7kIWeOvqLTDYkkZrYxREpgT9cwsimTyBz+RkpzM+fwSPjibr3rbsX4VD4zoa801Puy387z/p/bAJWfkGUr5dNWvUGrk8X5BZBmM5f6u5Xbs2DEuFZfw0V/JTiX2ubPNSrFIqsd8uh8C80DUm/+B/371E5cMJRzJuFTuWPrgbD6fHjxF3raVjL/jVi4Vl/DyujM8ctqfv3fGik9dIVsTS5TcF0GNuCPSp9zftdwWx2VwPqeQ5KwCJnx/ig8cZACsV3KSygd9gPTPXLbmL2v8FbU+2n5Qny3Zx29HrPHb8izM5d52LcpNLcI8SlprpPLrl/5kYK+Kj4Quvmxk0bkgNhV5WKdW4ebOM+vOqb6GW70NNG3SpNw2rRq/dTpfhPpMBal++OhALolZReWm8wFMDjSSYfIpt7Kjd246E8+vZ/5/3gJ3D575OdF6XEUWpPOvdhdp2rT8Mr6OZBaZmHK6Kd656Xw/sCHDhlxvN/3VlkeJgYmhvhzMp9xMlnpf4z+4BnaMF0sVkbNhqLJOhyuRNf6K0gr6AKE9xRJJQ7FvQLmgioOgD/CuR3/+PnTSrswR26CPeWrV8wu+AlMpH94Wwagm5YP1L5e8VF+fJGlZnu1RoaAPkNAohH+fasyFrIoNWk3OMzErUblYuBQQwpgDvvx32bdc16G56hRUY0MvlmcaywV9l+Cp0z14LkYscQky8FdEevmaq53mncQSqQKC//6ODx+9RTPoYz6Bzfboy5J9uaSkla/ZiI5kufHCyWBr0LewBv9SIwtHNHe4NoAkVZRHicEa9L29vVmyM131YjKhUQgPnWvJ3/HplJSUiJvt5BWVsDbJi0fPNeWU0c1abmzoxYs5kXy6dIUS/G9ubvc4l9biWrGkjGE3FGSJpfWeDPwVkXVGLCnj1VdJEylVirhgjlrQt7XGqy2PZHVg4cYjNGzgQUizZgQFBuLv78+JC8rJcXpcINFpgXYnSFuW4N/Uz4vvx7SSwV+qNpbc+W/NfNW6YI5alkoLY0MvZl/uyPijTfhlyw7Cw0IJCgwkKDAQ9waebD9XzNdJftx3ujmLL6rn8jc29OLl8+Fs2ryF665pJhP1WDhaMC07USyp92Tgr4hinQExIUPEEslJfinxzOqojDh2dsEcjxID/fd9z6z7BnH94EF06dyJHt270rd3T6bcdj0+jYM0A76t5b7defv/FhPe1I/3BskLN6l6BO7+kS/fe43AwECnc+f7ZiTy//I28/bLz9Ah6hp6dO9Kj+5dGTJ4AHcM7MThYsfJqy4FhHDXzlJ2/PMPT97YmvldHa8K6BJaqSwnbZF1Siyp92Tgry7hA8QSyQmehbncm/8Pjz3+OJeKjU4tmOOXEs9M4zZ+Xfgy3bp1IyEhwbot+2I+mEr5zx3X8OOgxg5r8caGXixs0Ju1P63jug7N+Wpg5VMCA5Dres2Gkr2A+B188eAN1i6rCdvPi7vY8Sgx0C/hD1YN8uLt12cAbmTbJKrKzsmle2Q4f0xsz78ife0eq+ZSQAjRv5wkJTmZaf2aMamF4wuGeq+ZzoDgzONiSb0nA39FtNA5ePS2SZp6HYrhrZnKqNpnftYP+pZa/qZ7Ipnx/LMUXoaX151h2RdfWPfJvOTO8AW/c/DQYW7uHsEv41vybEv9RCnFvgE8+lcOCQkJ3NmzBc+21hkMpOGugnjuWDAIopvCi/3gwHZxF8kFeBbm8nCTNOvKj466rCy1/Jg3HmDY8GEcSMxlxMwVXLBJDLTlbDGvfrKaosICXhnRjh0jAh1e0O4O7cHsT7/F28uTmTeEONy/3vNrIZaUMWjnEqmvZOCviJAoZcqeaMBqZZtUIX4p8Tw3bjCBgYGs2JWmOvDJovGZA7zne8Bay//taAajV51WnY+8J6AN1202MHf5Ony8GvKfO65h8436tf+Lbbrz+qcxXLp0iegbKjbYb6x7ERMzZtGg0DwnO283fDwY0vVP+lL902TLcl549ikuFV9m+nrtLiuPEgP9j/5ireWbGnjz7u/nGPDzORIulv8dLDB14PYlsWz682+l9j+hHe9FNRR3s/Nl4/6s/Wkd4cH+RPd08Sb/oDZiSRm9mVr1lAz8FTXoaRgbpwT7AauVf3dTMnFJFdP1SAwjRo4kObuIR2PLz4vGXCN6vnA72x/tz2OPTOVctoFH15zkji3ndVsHjA29mJnfmuGL/mLTn38zsHMEf0xox9e9tZtK1zcfyIbfNhHk78OTXZw/Ud7poZHgZ8UsMJQ/iUv1k3duOq/e1pPAwEDWH8suN7XPIvDQH8pF7PxnGDZ8mHIR+90Z/h2fK+5qZ49vKLcdbsyri3/iQlYWTw7vQML4UM0WrWLfAB7blEp2djZ39myhOm3VZTTS6cILeVgsqfdk4K+MkCgl2HcbJ2v6leSdm87Dd43E29ubmMPl+8V9MxKZmraRP+5syewXH6NlRGtW7Eqj2w/qCXe0WE6WT/x3A0nJKYzt346UCRG8117cUzlRPv3tLi5dusToa50P/Mkm9VHWxH8Gm78TS6V6yjdhN7fffjuXio3M3VP+QrbxmQP8n/c+jrzzQIUuYkULLrelw3cp/PfbX2ka0Ij/3HENB29vxrOh5Qez5kYN4LPPlwNwZ2RjcbPraBSkPcCv491iSb0nA790VbgXX6Jdu3YA1hHPHiUGGp85wL9Nu9g5MYqP/v08UR068cO+NG76MkGzVcAZX5SG0+PnLKW2dCGDJ0d2IWVCK77u7kGPBpet+11q0534+HiC/NRrUWpevdyCNE+NWR0xUyDRQf4HqV5ocP4UYeHhnMsxWAO5Z2Eufc/u4LPAoxx/5VYemzoJU0Mf3v39XIUvYm0ZG3rx3IWWDF1ygLWbdtCqWQD/ubMzh0YHMTPCft9Fm5Wlrwe0ceHAD8qy6WLw77UMOo6wL3MBMvBLV8XlRgGkpyur9X3d+TKzGh5lbdc8jr9yKzOemkrT5mH8cCCDm1YmMOGfzArViLQYG3qx4HJbum4o4tXlf3AuOZWxgzrxz6M92HmTD/9rV8CjTTJo1aoVl4or9vc+DdZICQrw4QOyyd8FXG7ejuzsbIK9S5nld5bPQk7z1wh//pzzMBPvv4fMImUwavjyBIfN+s7a59aI++L8GLrkAF/+sp2mjX14+bYuZE+NZPN1HrwZkMo7E4cBcOaC+uJBLqOhD4yaCxMvKF20DxVCn8niXi7B480335TLikk1osgIZwpKWRNffulSY0NvDCnnua59MP26RDKod2cCmzbj2PkivtyfzR1/pLH6XAFpl8svJeFRYuC23MOM9i9ioHsOncMa07VbNwAuFeTjEX+QgZ6FBPoFk6BxwbCjuBGfnS1l/76TFGek0LZFAEP6dmbYdX24VFLK7ycusvpcgfgwbm8bQPr5dLbHlc39Hd6uJYPuvJOAoF4Enlxttz8AxSmQ5wvdrxe3SHVF/H5Y9Dj9Nj/EgMQj+DSIYKuXfb+xsUlzQjNP0aVdGMMHdKPbtR247OHN2oMXmPVnGi/sz2Fnrnq/v3duOg+4neMm7zx6NipkUM/O+DdWaug56WkEpZxgQBNvLpm8VX8TaW6e/JTjzXuH8yiIP0GAu4GObcIY3u9aunXtTPKFfP697bzq72F8VFMOHjrK8fSyLrdHbuhLz17dCfd1J9CrntUPPX2gUVPw0B8cWZ/JRXqkGqO3SI8tywj6itTqexemMv/6AAb07yduAiA5q4DpvyZrDrDSMqqJp+5jxEV6Jvbryh23jSTEy41BYb40/F807NUYJfzkNug+SCyVarv0JJg7TpmtYWPctdtY3zDArszC0XGk5kHDcd55cBiBgerjS2yXh64IR69FXKTnncnj6dApih6NoZ0rDwisx+rZpZxUF+2/VPHFQ/b4hjJ8hwcrf1gvbuLvhCzuiknUPdlpqchjoscMZ9ydt9G5SUOGtPSloTtw38vgr7E884rnZIKfusZQpMzOEII+wLAC7YxvFTmOLL7w6sjt/93OwUP2S39XZHloNc6+lmv8fFn84mN07BDJ8NCGMujXYzLwV9TBNfDtWFjWDza/o6z1LF0VxoZePJzaiifnr7RmOluxK41hG1MqfCFREd7e3rwzeTz9+vZiULMGdG5qc4IMCIJJC2x3L5O3G775j1gq1WY/L1FmZ6i46FH9GfH2BLTh+g25rPz+JwCy8g0883OiUyl/qyIivAVvPPswLZs25rYIbxo3LD9DQKo/ZOCviM3vKOs6565VVnVKeA3WjnPJ1Z2uhh5GAzvO/o+iA10pOtCVg6fep4fRwOe+3Rn9VTwvrzujOfL/q/TfrY9LPv4Mky7pp1EV/SvvONmH72fSggDe+ONxRpPGzS29ae6j8hPqPggGzxZLFXvnwZY1YqlUGx3YDhuni6UAZHndxI++bcViACZdOk/CiZnW4+3H1B/FXTRNunSeo8nvM/G3O+AxNw6+t8Dpkf89jAYOnnrf+nc3JX1ND6NB3E3VjUMGc02QN6MizC1XUr0m+/idlZMEq1qJpYrOC5XEPpKdiyUmfk/VX2a0IrrsjiFq4712Zee7/5vtt71kVyZqnnqCQUvtUypf9u3Dj885l1bXLz+Lof+7vSwzn8VrcRChkcfBUASv3ajaRAzAW+cgxMGqYdLVk54Eb2j83oEtT5wiKyhcLMazuIgbv30O/8TP7cr3372FU1ED7crUDPnuVYLi37MrO3LHOuK6DrcrUzPo5zk0P/Avu7L4Ed9yuO9YuzJRaWkpHf3d6NLU+SmsdVpBFhRkKkl9XHRFVRn4nZUeDzEdxFJFqxnKNBGpZn2qMXDuUweH8JY18LXKdDu9wG0rMR5mq3z3/n1h9lbw0mjy1XocQNTD8ML/xFKpNjAUwX/uh5S14hbF1A3QX2Pu9+pF6q0Eg2fDJGVNCl2PqTSx95oBjzlxfqnKY11F7HLYO6XsfuRsuP45ZaqfC5GNOpJUWXm74YuZYmmZiCgYu0wsVcR/BuuVjGpSLbNqgXbQHzxbO+jrdA3g6+LJc2oDMeiD0l17wPWya8rAXx1ccJEHlxIRpdTQ1eydBzs3iqVlht6t/ViZ1a/22bkRtr0mliqiHoZ7nhNLFelJysJMWq7Xb26XroAji8QShXgx4AJk4JdcV+oZJfA6c7vlUfDtKj6DYulI7ZX4vHxgkk6rwOfRMqtfbZGepHyXavz7Kt+jWreOoQg+0RnjM3WDHM9xtZUUKQOyJZB9/BW0WKUPzWLiBZcdKHLFvP8IxKlMrRqxEDIT7ctObNEeWFfTwsZAC5WxA2rjE6hA/69UPQxFcN5mydzsDMg4BxsWwMVdtnuWaTMBxMF8+dmaU/3saB0Pog4D1MeidHgY7poB3r76FxCyj1+b3hgtgEddKwzKwF8ReoF/bJxcqa8qLCfj7AzIPg8XUpRgnhav3d9a3/QyLyAS0QV8/CCsnXKyd2YAoqSwdJ2cMifBiduh/N/ZIF1X+PeFa8wLQwVHQNMw9YsGGfgVSfvhl55iqSJgDNwbI5bWazLwV8T6aO3+/Bs2uOQqT5WSngSpZyHlJCQevrq187oibAy06wetOkK7LtC8lXqzsyuwXCSeOlx2gajVmuLqfLvBiBcgrD2EttZvMajPDq5RcrCoccFZWTLwV8Tmd5RRoGoGrIZu48RSySJ+PxzaBv8sl0G+ukQ9DNdeD72H1u8TuqEIju+FhH1w+HfXaQGqKb1mKN0K1/ar38eNLb1zd69lLrdKnwz8FXF8I/ypMfhH1vjVbVkDW5fLk3VN6zUDRj1cv7oFcrPg96+0p8hJVRc2Bm6cDANH1e8WpG/HKhlX1bjguVsG/oooKYKvbiw/OtSrL0zY6nJJIHQZimDRM1evX9V2QNX5E5Cs0oc3YqHSN1oZ547D8T8gU1mlr9YYuwxG1YPay/rlynTHusa3G1wzDDwalJXVhXEq/n0hek39bAEoKYLPfcXSMi44PksG/orKSYJ/Pizr6281AwY+A03q4Q+mKrSy7FVG1MPgFwjn9kGGSqB1lIGvqpn7tDi6uLEsw5ubBbk2awicOgxpZ+CPF2z3rj4v7IOoHmJp3VFTQd9yHAEUX4LDC8U9FK3uhvvegEiV6Zt6qXyrEjwt4xbUMj2Gj4EbJisXm4U5SllNjIupyuuvzQqyYGVTsbSMi43oRwZ+qUbkZkG0zg9NZBmhbBmd3M6cV18MyloXEzWdslePxlrt4MSJVC/A9Xsd2vdUTvbpp7UvLtTU5emBhiJ4Rqd2pkU8hgKbQ2AzCAhWVky0pZdKWe87c5TK13KhVxVqU/IcpXe2zGRY8TokVjEL3YiFMF4nJ0FdpdXU74ID+5AJfKQaYVu71RP1sHKynL1VmXI0/mkYMk4JxlUNyFdKSEu4+22xVJG3W1nLXStBz9C7lS4JNbveVi6AJr2qnPTfOqeclP37inuWZ6kV1kW28+v1RD2sJMZ5LU658Ju/y/4Y6j5IOYbEoG8ogg8fsC+z9ehi9aCPg1S+IxZWPehjM6XTlqOLPsvvJbiNuEXxwj7t1NEiMR9GfTHoTbFE6aId+IxY6hJk4JeqX3ONplBR/GdKmtNnfOHFfkqNfvUipYYev1+pyWgFzdqk/wjtZXjjP1PWdFfj5QNPaKQRBXh/LMx7SKkFvtFKGeSm1rIg8m0iltQd3k7W9uM/U7Lsrf+s7JhJjNfOoGjxxUztz3DsMu0uEkepfG+bJpbWHl+/qd2y5Cpa9oB7zikj+FvNUP5/168u20Urm/qlmqHXjF0Z/n3BzU09s9prcWX/VmvarcmmfgtHzcATY6DUWHbftr9WrfuiKqrzfV0Ns8Zqf47Osk1wY0mIdGo/7HxL3FOh15xeU/36arS6s+ZeKGtJu1QIKaeUf1vyGFRXgqLq6K6Qaj0Z+KWaYShSmka1akm1ge1gr6qoiYFWleHfFyYtqPsnbr1xEzVJrZk9MBR2f6N+wYl5PEWrjmJpxViyCwIkbNX+WzWtvvbvS+XIwC/VrPj98NNH1VMbkbSNWAjDJ5Rv7air5Bz+KydsDNzypPZyw1K9IwN/VeUkwd7lcC4GvMOg02ToNErO6RflZsHxWNj/u3pTplQx/n2h+1jodiN07FV/k69Yjptt38mLx+pke/zU9RYiqcJk4K+Kgiz4/pbyCX1cdIpIhSTGK8viJsXLXOvO6v8v6D0C2nSqPzX7ijAUwdk4pX87bkft6WKpC6IehpC2ENUHQtvU7TEgUpXJwF8Vscthr8YANhfMBlVl4gp9RfnKIj7UwAC42sSSZdC3CYS2gx/fAEOCuFf1DySrDyzHTOoZ5XixDJp0xYuCRt2g4KBY6jjPRX1VkAUnt4CnH7TqI5dNtyEDf1XordYXORuG1tEkKrXVe4+oN/fev7rs37aj5S20UvZWF9sR5LYKsiFO5fUCtLkfXvlKLFXE74f3NJYQ1Rt9LpXJzYK3btEO/r1fBpPNLIvanlbXsrCOhWXJZmwSXWnNCHDFwK+2Gt/wbdBOdmsgA38V6a34BDDxgrzKrE5qWc2cWW/8Skzn06J1MsZ8wTJEY0VHvemQeo+TFFoXiThYz2DnRiU/gBpLKl9PL3FL1dhOQdU6XpwJ3lV5bH2SHg8xGpkZ7znnsnP3bckEPlURdatYYm+/Ro1Och0PztLOtvf1+LJ0qyK9rH56j5OUiyatoN9rhnbQT0/SDvr+feHR95X8/ZZMedV1c8XxGjVpj8Z3D5B4laZK1jIy8FdFyx4QoHFyBjgyXelnklyXlw8886VYWubDB9SzE3r5wEM6LRmfR6s/ztXF79duKfHvq1yIqTEUwSc6c9gnLaj9YyuCI8QShStdJKbHa3e/SlYy8FdVX5WkH7b+/I9YIrmaiCj7cQi28nYraWTV6D0uZa12KmBXlZsFix8VS8s886X2tMcrkYe/plV2ien6RK+2DxDUTixxSTLwV1W7Qfq1/nPzlLn+kmsbMk4ZmKdm7zxlHIIavcdtnK7UcCXFZy9pD+a7f7VyIaWmLufhl8qc2q5f2w8Yo7TSSjLwVwtHtX7ZryQBPDyncv39k2ZqP27xo7LJHyf69bUGQzrq1580U7uVQKo9Sorgr+fEUntqK/S5KBn4q4OjWr9fc7FEckUBQcqyr1q0+vsdLf2r1VXgKg5sr//9+mrHhVTm2PryidRstZoha/s2ZOCvLlpXk159oVUvsVRyVVE9tNdGz9ut9DWr6T9CfREZzF0FOzeKpa4hPQlW6NT06lq/vu1cfVvnz4klkq1T68USe701ustclAz81aVlD2WNZ1tefeH6BTJvv2Rv1GTtfvttr2kHcb2pgd+9rgxucyWGIlgxS/brS2DIEEvKRM6WWVQFMvBXpz6TlaQ9t+5TUvZO2CozRUnq9Pr7l45UarIiLx/troK83crgNlfy8xLZry8pWg4XSxRefaH/42Kpy5OBv7o1ClJq/yFRsqYvaXPU3//J0+r9ulE9lGZoNfGfac8OqG8ObNdesjdsTP3o15ec12OCEuRF1y+Q2VNVyMAvSVeLXhBPWavd33/bNP2sfmqtBfWJo379JxZp19hrY7++VHWNgpQW1hs2KAP5Oi9UWl1li6sqGfgl6Wq6bVrF+/sdZfXTai2oDxz160/doF1jl/369VtDH+g4QlkSfdDTsl9fhwz8V9qp7criPtsXKf+WXJuXj/48fa3+fkdZ/TZ/J5bWD3r9+oNnK7Mf1CTGy359STKTgf9K2vwO/D5YWdHvyHTl39sXiXtJriakpdK3rGXFLPUavF5Wv5gp9S+rn6N+/Xs0mv8NRUqOBC2yX19yMTLwXymntqsv4Xtkugz+ktK3rNXfH/+Zdl5+vdaC+pTVryr9+l/M1O4akP36dcep7bA+Wrkd36hk65MqRQb+KyX/vFhSRgZ/CQeD9jZOV2q8IkdZ/bQGCNYlVenX37JGfY16ZL9+nbJ9kdJCem6ecvtzJKx7Rgb/SpKBv7aQwV/y8lFqrlpWPKfe36+X1U9rgGBdsmpB5fv1vx4vlir8+yq5FLRaCaTaoaRIOS8eUeniSf8MTv4llkpOkIH/SmnRRSwpzxL85VWs6wppqdRg1eTt1u7vv+9l7Sb/upzVT28kflX69R9drORSqE98/MQSRbZOVrvarKRIqdWrBX2LlFixRHKCDPxXSkiUMrfUkSPT4XcXX3TF1fUfodRk1cR/pj5iXy8hUF3N6qeXYY8q9OuPXabkUKhvQtuIJYpsnW7G2ionSQn66RotPRZejcUSyQky8F9Jg552LvifmwfpGku0Sq7hnue0+/u1RuxH9dC/YKhLWf0cZdh7clvl+/VHTRZLpdokPR7WjnMc9AGu0ejmkXTJwH+lORv80w6LJZIrcdTfv/hR9eZ7vQuGupTVr7IZ9pzp15dqr4IsWP+A/hK7Fp0XyiQ9lSQD/9XgTPD3ay6WSK7GUX+/WvO9o6x+WmMEahO9fn29kfj1uV//UqFYUj+d3OJc0O+1TDmPSpUiA//VMujp8sv4Wnj1hVa9xFLJFemN2I//DNYvF0uVrH5jNY4trTECtYVev76jDHv1oV8/rJ1Yokg5JZa4ruHblJVQpUqTgf9q6jNZOYhtV5UKGANj1siV/aQyD87SHrGv1d8/arJ+Vr/EWjiGxFG/vl6GvfrSr+/tK5a4Fk+NmQmYK0TDt8mFd6qBDPxXW7tByqpSY+OU270x0ETj5GZRUqSMepVcg5cPPPOlWFpGq79/ks7skA8fqH1N/rJfX2p/vVL5EXn1VSpEMuhXCxn4a4OGPsogFUcDVUqKlHSVn/vCqlawrB8cXCPn/bsCvUV58nbDN/8RSx2PEahNWf22rJH9+pJyLrxtqTIGyquvcuu8UKkcOaoQSU6Tgb8uWfeMMtXPwrAbdoyHr26UFwCuYMg47f7+vfPUp+vpjRHY9pp6GuArzVGNvb7369d3BVnK+enbsbDYDWIe0Z+u3ChIGQM1ZZdyG/S07PqsZjLw1xXp8drzWm0vALYvkt0A9Zlef//X49X77vWy+q14Tr2b4EpxVGN3hX79+io9XjkfrWyqnJ9yzd046Z9BTAf94C/VKBn46xPDbiXz36pWSpeAbAGofxz196v13TvK6qfWTXCl6NXYZb9+3VOQpayc9+1YJbjrpds9/L1YIl0hMvDXFZ4VHO17bh4cqMXTtqTK05uul7dbCaYivax+Wt0ENc1RjX28xgh/R60Esl//6ji4Rqnd/zmyrHavx5AjlkhXiAz8dUWTltBKo69WyxGdzG9S3aY3XU8rkN/znHaT/5XO6leVGrteK4Hs17860uOV5nypTnAzmUwmsVCqpUqKlFr83iniFm2P6ny9OUmwd7n9lXf4AOX/nn4QpLHohxpHMxJsFWRBQaZYas/Tt/wo3sfc7O+DMnDtsbnKeynWyG62ZyNsng6FwGWb8tfilNqzmpIiyD4nlpZX3e+7UbAyuMkZuVnw3hAoOiRuUUzaAC3aQGCrssFRifEwu4O4pyLqYXhsDhQ6eI1q340e8bspNsDiifav22C+AbywTzt4b1mjXDCorc0SfjdMeLvsfnV/N1V932psvxt0vp/7V8OgUfrHZNoZWDESLgrl969WBoaq0XrfWWegOF/5t6efMs1Ob4Bd7PKKnZcAbt0HLTW+Z6lGycBfFxVkwf6v9PvPMCcDujdGLFUUZMH3tziXHtMZXn3h+gWO59keXON8zaDVDBg+q+yEoxr4n4OIBvazHfRkAmfN/9YK/En7YdOjzn02AWNg5CLHAaEiJ0bxfavJSYIts7QHfNoSv5v1y5UkPqJmQJu2UHpa3FKeM++7pAj+WgAJGtP0RJlAz2Xag/IS4+H/OkB7oKG4UYX4vrVU5ZhUU1KkrLDp7DHZa1lZJjqtwH/HfMj81rljsgQ4CRSY72sF/oock5Z59Frf9/ZFjs9HFl59oefL0E3lNUlXhGzqr4ss010mXoABq+0z/9ka9KZYUmb/V86dRJxl2A2/D1YuKLSc2u78CRbzOAVHSxS7bXf+BAsQbA5wWgqy4Jeezn82uWuVlcT0BlIeXOP8CRbz+961RCy1t+Fp54I+Nt+NZRT10LvLdxM0BiJwLuhjft8bNPrgLXYtcT7oY/5uwjUytxmK4KMJcI2TQZ+reExWJOiDcmyc0plW6QUkv+j8MdkQ5XNqYL5fZK6526roMWnYDf98KJaWaapyAS0KGKOcryZslUH/KpOBvy5rFKT8gKbsUlJZRs5WaiSRs5UsgHrNaBcTxZLqcXKLWFImzokBP6Jz87RP3F4Au8RSx5qKBTb0Xr8Ww244t1csLXNMJZ++I3q1p/R45wZPiU5sVP7v5VM+q1+w/V2n5K7Vn5Kl9x60aH1WX8yEhnvAQ9zgBL3vtLqPyYKsigV9C73XoXehqsUDCDT/O1FlpU+tz1mP3vtqfz2EaIw5iZytNOvfG6Ocr/RaS6QrQgb++qLdIBj6Koyaq/y/Iv2btZ1aHySWwF9L5J8XS8pUJkjXBNuLvZCW9pkAPcv+eVWpfVaW0f+16fvWOia1yq8Gvc9L7XOuioY+MPpDuGGDUvloNUP598QLyvlIrxIiXXEy8LuqDir5sKuD3nLCjSPEEucEthJLFBcBWoiljhWLBTb0Xr+eII1V1TDXeCpKLV+5RaPKVM+BQOFi0DYTYGVnVum9Fr33oEWsNdqO/s+23+Q0ve+0uo/JkCjtrjc9eq/DMuixovTGFVbmmHQ0q6ihD3QcoVQ+Rs1V/u3sQFXpipKB31W1G6S9LHBlhTysP5Cqx4SKnxQHrHbQNNhfLNBnBJLFQhvtBpUPPo60mqFfo+lyl1jimN74jEZBFf/ujEC8yhu3ZPXLNO9TEb2W6Z/Y9d6Dlutsgos4X7/AZsCas67GMdnzZbFEn1df5XVoyQC8h4ul+goAjd4IqMQx6dUXBj4jlkp1lBzV7+os03ks03fyUirX/984AvpN0z8hYjMjwZm/0WGM/UlbdVT/DBg9AQ59JW4pc+EEZMQogS3FJnhojeovKYJj6yF5h7ilvPAB0GmU4/etNnVSS9cJ+hcSFqe2l+8bLr0MiZvg0sGysmLzxY4BeHJb+Wx4B7bDx4OVwWARQrN/o37Q6kabArPwAc4N0Nq9FraOVe+bd28BkfeDewPwaqIEI9suqk+j1RP8tARa3wrNOotb7F2JY1JL0n79Y9LCqwn0mlw2Wt5QBM+oJOvq9RwMHOz4mDw+D/KBNJupq5YpryJnjslmXcCvhePpfFKdIgO/VHdoBX61k5oty9xvkVbgr+vSk2DuOPUkN/59IXpN+fz3K97RXh1v6gbocT2cV5lDrvf55WbBW7eovw4cfP5a3xnmfAMv/E8srT8qe5xTxcdKLkM29UtSfRPSUlncRk3eblgxq3w+f72sfktHKrXQ2R3K3x5zg/cegdWLIH6//eM+e0k76N+/WjvoVyWrnyRJDsnAL0n1UfdB2rn54z+Dn4U8AY4W/9ET/xlsnA7v9YRZY2HnRvOFgEaegV4z1BPKoNKvL5J5+CWpymTgl6T66p7nIExjZP3G6Urfvq1TKvO9KyplrdJCsFFjDr9/X2VpYS0yD78k1TgZ+CWpvvLygSd0Fmpa8ZwyHiA9SWmu12per07PfKm8LjWOVuvTSuUrSVKFyMAvSfVZSEtlcJ6avN2wJFoZCKjVLF+d9Pr14/drX3jIfn1JqlYy8EtSfdd/hHZ//5mvtZvWtbSdoATxwbO1uxJEev36uVmw+FGxtIzs15ekaiUDvyS5Ar3+fi0NW4slitNfQVg7mPQqzIyBt87BiIXiXmUc9evrjf6X/fqSVO1k4JckV+Cov190/2qYvVd7it/iR5WaOubuhPFPw9wL5VsWLHkDtPr11y/X7maQ/fqSVCNk4JckVyEuzKPGv69Sgx8yTmlev/ttcQ9F3m745j/2ZQFBSivAW+eUv3P/api9tXyyIIv4/RCjsTSsf194WmcZWEmSKk0GfklyJT2HgIfOwkb9JtgHar3xAXvnKXP2LRLjldulQuXCYcg47Zq+o359vdH/kiRViQz8kuRKfv8KjGliaZlNz5XPwKeX1W/ZFCV732Nu5TP6Peam5NvfskaZMmhLr19fb/S/pC9KZYEprSmSksuSgV+SXIWhCP5ZLpaWt/hR+5S+Xj7KyHo1ehcRmIPO1+PhjVZKVr8D2/X79fVG/0uO+QWKJZJUjgz8kuQqju/VrmXbytutZNCz5e0Lfr3syyoqZa2yCqBev77e6H9JkqqFDPyS5CoObhVLtO2dpzTRG4qUGvrsDpC/V9yresl+fUm6ImTglyRXcSBGLFH49RRLFF+Ph3lTtGvo1Un265eR/fRSDZOBX5JcgaFIvZk/6mF4bKlYWubcd2KJvqiHlWQ+vWZoDwgUyX59e7KfXqphMvBLkis4f04sUbTprmTGG7tM3FI58Z9B18Hw2FyYvwte2Fe1rH6SJFU7GfglyZU1DVP+P2qyehOzml4z4I0E7Rq97ayAqB5lWf16zbDfz7+v7NeXpKtABn5JkhQPzwHfrmKpvakblNp8y/b6Wf3EWQEBQcrjXotT+vNHLFSy+sl+fUm64mTglyRJERAEYTpT9gKvhx7Xl93vP6J8Ld5CzOpnERGl9OePf1rW9CXpKpGBX5JcgbevWKI4d7zs34nxkKDT15/9F6xaYF/24CztJv/vXi+fsU+SpKtOBn5JcgVaC+Wc2lX2763f225Rt+01+5q8Xla/vN2wQg7ck6TaRgZ+SXIVaoP3UtYqtfLcLCWoO2PpSPuafFQP7ZH78Z8piYAkSao1ZOCXJFdxrU3/vK2/YuDMMbFU3ydP2+fzv20ahI2x3aPM1+OVbgRJkmoFGfglyVW07yaWKDZOhyPbxVJF9+fEEkXKWvh5Sdl9Lx94aK7tHvY+j7a/UJAk6aqRgV+SXEVUD+1a+cGfxRLFXS+qdxFgvmA4YHPBEBGlTNVTk7IWNlcwC6AkSTVCBn5JciU3ThZLFNl/iSXKaP2QMJg0U3vk/orn7Pv7h4zTvlCImQLx+8VSqTr5NhFLFHJ2hWRDBn6pbsjNEksUWic6Sd3AUdq1ftE1Q5T/h7TUT9azYpZ9M77ehYJtVj+p+rXqKJYoLhWKJZILczOZTCaxUKqfCoqzKCjOpNhYSFbRKWu5n2dz2gUNsttXTYmxiGMZ60m+uEPcVE6H4DFOPWdOURJ7U5djuJwjbrLTuMSbzqveokmasOH+1eUWeDmVtZ24zLVlBTknIKv8ynThbRbS6ZppNPTQTyRTYixiV9ISLhoSxU12vBo0IarprbQM6CFuKic9P57D6d87ft9eEfQInUAjzyBxUzkH09Y49d20LW5Lx4VPisXlFAyczv6bosre9/kdUFC+ZcCrBLq4v0HI6H+XFe7cqIz+FyRFwaF+10PzAeImO818u9A99G6nvpurdkx6RdA5ZCxNfDSmStood0xqCG88gE7rttFwl5AvAeDTslO15jEpHOteJRAVDy3vjnOYJTE9P54TFzZan9OrQROCfZULCU8PP4J82gAQ4qf/PFLtJwN/PZaUu5/4C79w0XCa9MLPxM12QnwfZnTUh7on2phjjzh8HludgxcyqPXTYrFVen48MXEdxGJdYzdAyFmbAiHwxyYtZ+9555eRdfS+S4xFfHXoRgxGlZXtNAwIX023FtqrzSXl7ueXBI2lcFV4efRlTIc1ugFmfXw05/KcX7q11aXhjFr+u1hsVRAI349rhsEjQ9ykabjHJ7Tr8XhZwafRdsvJHrwOdnQp2+yIl0dfJnTdqvndUFuOyQ5xusGwwsdkUTdGf3+QhmLDiDnwV+qYbLSQbh2133dFjkkvj770bPGy7jEu1W6yqb+eOpW1nV8SepKQ/ZpTJ8b0ws84lrFeLLY6lbXdqeexdSRzOjlF2n2Lf59zPlBZ/K1TUSwozqrQCRbz+z6ZVb4Wa3Eg9bsKnWABdiSPp8QonrXLbD/3pliky2Dczd7U5WKxVVLu/goFfYBz3r+TNPhOsdhqf18qFPQB/jK8aN8lY5PVr8SnYkEf8/s+kKo9ILDWHJM6j6nUMelzkJOdxVJzZsXKHpMF06vtmDQYd7MjeTxJuXK8Rl0lA3899VeixjQsHXrNpfnF58Uip6TlHxWLrCp60gZIDxBLyhQUZ4pFTknJixWLrDIKD4tFTsku0lgGF8g1OG7yFZ27WL6rwsK226Yisrr0EYusLjYSSxwzNCggZ5VNrdImq192SFlxReh9/rXmmNR5TKWPyRZiSRm9z0SP1jFZYiyq1DF56PxXYlE5OUVJHM/YSFLuft0LD+nKkoG/jsgpSuJg2hoOpq0hPV8/GUp6fnyFawQ1xdIvqMbLQ2MAmA6vErGk6iz9mGq8GlRu8KCnh0Zu/EoK8TUPtFPh6eEnFjnF84BOXv5KahL7Nay3aZ0wZ/XzNNju5bzKfv56qv2YrMRjHAnWGMtKFT6T6j4mHdl+dhGrjrbiz8SR/JLQk8/3+7L51DucytouLwKuMhn4a7GC4ixik5bz7eGxrDraih3J49mRPJ6YuA5sP7tI3N2qkWewWOSUtoHDxSKrFn4VbKc1nxADfVqJxVaRgRpTy3REJoslZQJ9WlXqJKz33qKa3ioWORTgNUa3P76Vv8aKdjrCG2v3cbQK0K6562l1XPsCMrwSlelWlp4BcdrebdNo4j6GgEoMLG/T5EaxyErve9NSI8ekzmMqfUzqHOd6n4mWAI9hmsdkQw+fSh2TehcgxzM2ciRzulhMQvZr/H56sN1FgHTlycBfC53K2s76+GhWHmrK3vNTVJvhjmRO16z5N/IMqvAPOcT3YdoHaaR0NY/kHd52m1isyTIgTW9gVr+W0yr0OltlQD/t7ngaevgwpsOaCp1oh7fdpjswq2VAD3o1d75mHOA1hpHttS/KAIa3n0WIr8ZcdxWdgxfqDqRq5BnE8LbbnH7fXqa2DP8HGmWLW8p0+xs6nxFLtYXkwvBfbQoWP1rW32/O6jfydyoU/Hs1X6Y7Cr9WHJP+M+jXcppYbFWpY/LSbPsBrIJ2QYMqdkwWwsjG/xKL7dzQ5uUKHZMAXULuEousTmdrDxy1sFwELNvfT14AXGFyVH8tciprO7tT5qkGejV6o8dzipLYcmaWav9jiO/DeHkEWqfrODudD3N/oFZfoa1An1a6J1hbOUVJFBv1I4JnehpN5qjUdFSm82Hu7rDatxH+Kl/7aHT/Thq17ScWq7JMhXRE7yJC5NT79vDVrKmJnPpuzh0j8NOx5UeMA3i2heLTdkUFgVDQvCvcvwT8VAZYmD9b1UAV9TC88L+y++uXQ8wU0lvb7mTWfw70H2u928gz2KkpjDj7vmvimKzAd4N4TGpo5BlMo7+3KOsbiF6zn5KnekyqHOshZ8s/Vkt6fjxp+fZjCCxjf9ILt2Aw7ibE92GuazVD91iv6CwTnJgdIVUfGfhriYpMp7HQCvxFFGHESBFFZOaf4BJFXMZII58WlHq4Y6CSHa5XUePERK6ZXf69pt0/l+QhQ8ViO+FbNtPi62ixmBOvreFiRIRYXG955ebS6a3peOSpD2478+xy2nyg3mxdFDWWuKdnYPTyEjfR4dMP8durPusgY+wsEkeNtt6/9r238YlXH6h46oWVZEdVbCpdfVSV47Uqj7XlhReeeFr/7YUXHnjggw+e5v/0bD+7SLWpX09k4GyGtntVLJZqgGzqryViUz4Sixzy82xOPvmkkcYpTnGMY+xhD0c5ShxxJJJIoZ8XpX5NcPdrSpFHSZ0M+lL1aP/ZQs2gn3b/XC5cey1p96svtOMTH0OHRfPwMJQ/fhIefAyj/7ViMQDNYmbSOLEsycyZSY/abbfVevFs1eeXrjwDBvLM/2WSSTLJJJJIHHEc4hB72EM88ZzlLBlkkE++3eN7hE6oUPcG4DBhklR9ZOCvJdSa5PWEBr9OdpA3ccSRTDLZZFOIftOk5Loi1q/TrGnn95psbTVJGziI4jCVLhWb4O+bnm5XbvTy4tQzGil9gXYfvm4N6IUhISRPVR8D4ZF3lLarVorFUi1luSiwXBBYLgbSSMPk6cmErlvp1XwZAV7OpYhu7OV8i4RUNTLw1xLODqwJDHyStm2XENa6rD9UkvQExsfRLGamWAyA0f9aEh58rOy+lxdnH3rWbh9bPvExtPrhG7GYixERmq0FHnlHifziU+v9tP4DyO+l3qUQsO1jgg8cEIulOiKPPJJJJo44DnocJajlYG7uspTx157RvQjw8uhL5xB5TrtSZOCvJfqEPSUWWfn6jqVt2yX06LGddu2mEhTUXdxFklT5pqfTevFssdjq1DNvl+u3vxgRwdknl9iV2dLqz08eMlQzoPvtXU74ls3W+2fum6LZPdByxXt45eaKxVIdlE02pznNGZ9MGrccYL0I6By80NoV0Mp/hsOU1AfT1rBsfz8W73Fj8R43YpOWy1wAVSADfw0qMRZxPGMjB9PWcDxjo+6B2jKgBwPa/kIDj67WsuDgaK699hc6dXqdoKDueHiUH1glSVo8DAbarFis26+vNeCrMDRUMzBrleMgoLf4Otra328ICODso6+Ju4C5haDNN85PV5PqhjzyrBcBoa1vZWyP33i0t4lRUXMdBv0dyePtkpLtPT+Frw7dKNMGV5IM/DUkKXc/Xx26kT8TR7IjeTx/Jo7kq0M3lssTXkwxSSSxn/2UBIXQvcfn9O4dS+/esbRufQ8+PpXMdSq5vIif1zrVry9yeMFwt/bKfnoBHaG/PzuqA7mD1Z9LbCGQqsbjknal42rIJpsEEjjMYdJIw4hR3MXqWKZ6C5PBuJtfEnqyPj6agmKdVIdSOTLwV7MSYxGbT73DLwk9y6XNNRh388+5D8E85e4sZznEIc5zXvfAl6SKCj5wgKCN9n3ua/4At8XKzf/x5fRx61P+FjaTH197j392q18w5A5+krT+6lkES1OPsXXND/z7sWetf8dtMYT9Ad+fhviS8gP4Tt8zUXMwYYuvo8sNJJT05bWLFIsA8E3RSQV4FRkwkEwyhzjEWc5STLG4i8O8Jufy5vH90Vtk7b8CZOCvRun58Xx16EYSsrVrPOfy5hFPPEc5SiaOE8JIUkX5pqfTcsV7YrFzUtcx8701DPsWphyCVJssH8VhN3L6nom2eyvyE9k5fya3hk3ihfGzWbbF/rhOPQF3/wYdvoUF6eC/7WNa7FSSwjgaTNhmxWI5xc8FGDGSSabqBYDWgEBbltq/XipzqYwM/NXkYNoaYuI6lKvlq8kjTyySpGrhqJkeghm9eh2xpthyt6PnfyZnahu+6w+hwPJ/YEJsWfA/+cRL5QYCkn+StU9F89SMdWQygClLFrAi5R9iTbEcytnE5Rc6EncbzLsGKITnY+D1FAhd+rS1Nn8xIoKMsbPsn9fMJz6G8M2O079K9Yd4AdA3zPkUykcyp3MwbY1YLAlk4K8G288uYkeySopNFY391Uc9S1J10OvXLwxpDHiLxWC9YPiMgAZnuKs77LkNhgBb9sHrZ+Dc1EUUhgjjTUpT2fzsa7y1PAGGPMYnKQuYPvV6OoU2BGt//xtEhcGLQ2C1OSnfu5shpgDafzLHWptPHDWaoij16VxiEqD6rjAsXCwCwP9UglhUr1kuAHyD2jO07Z9OJwTSW15cUsjAX0WnsrY7nZrSw+NaWra6TyyWpGqh1q9vURw2gPQ2/mKxlXjBEBoG8/sr/156bhBbO4trGpRSuO8Pvl2aAKF3M/fLB+lrDvi2sqM6kDUiGtxgbB+Y6qvU/D9NggYpW+36+/Wy+tkOCqzvjN7OrSfgKpJJJj/In1u6xhAZqD01VXKeDPxVlJq3TyxSFRj4JF27/k+O0pdqhKN+/ZNPPIHRw00sBp0Lht6d4EV/4Hgmv++6aL+x9Dw7Pv6RPQTT+/nbGBBePuhbJN42hqKosbg3gpfMlbYenlBoTthj6e8vDAnRTQIks/q5LiNGkjxSadnuLoZF7tCt/csMgI7JwF/DPDyuJTJyJe3aTZXz8KUa4ahfP3nqIgpDgsVicHTB4Amdp0QCF4g7k0Op7bb8JI6sTwBaM/imtvjabhMYvbw4M+lRjP7XEtUBTI/CnLbgZ94ebtPfr5cESGb1k/LIIyegAcO6rlKt/Xt59KVH6ASxWBLIwF9Fof7aK+o19p/MtdcuJCBArjgm1Ryxmd6W3vQ7xxcMCwjo2QbIZMfWU9jOlDaeOM6mVCC0Gx2vUR83YKswJISkSS+IxVa2o/f1kgDJrH4SwHmPC4S2u5NhkTuIDJxNK/8ZdA5eyF3X/ur0cs6uTAb+KmoXNIg2weWvPMPD53JN1DN4eqqsYS5J1aTFzh2qzfToTb8zc3zBcB2+TczHb1oehdYqv5Hss0kkAXRtSXM/504jmd27K/39KnziY4j4WZmvbQgI0LxIkFn9JItCCskL8KJru0cYFTWXQa2flkHfSc79YiVVxRRzjGM0bT2SDh3WEB4+l/DwuVx77S+0aKGeFU2SqotvejrhS58Wi61Up9+ZafXro3XBcPIiBXZt/WYt/PGtwFnE0t+vJmjjXGtTfmb37jKrn+SQESOJJHKKUw6ToOUUJXEwbQ2nsrbrpk93BRX4yUq28snnKEetS+H6+UXQosVQWrQYKgfwSTXOw2Cg/SdzxGIrpV9f/ThskJup3a/v4IKhqiz9/VparnjP2t9/+p6Jmk3+MqufZCubbI5xjCLUA/r2s4tYdbQVO5LH8/vpwarp012JDPwOFBRnkZ4fT3p+vLUsgwziiHN4hSlJNaXtqpV4pmwViwHIGhGt2a8PJhpt/UqnX1/jgqF9YxqpnS22J5NxWSzUVxgSQvJU9QxrHnlHrf39Ri8vTj3ztriLVZsVi8UiyYUZMBBHHFl2o1HgeMbGclOuDcbdrI0b57LBX+2nLJnFJi1n5aGmxMR1ICauA98eHsuRoh0k4jrJRKTap8XOHQRs+1gsBqAoaiyJt+mlOM2jQcoGsRBUBwIayDh1BoDgHmE0tZ4tPAhs3ZKWAIUXyS/r/HdaWv8Bmk35tv39jrL6RaxfJxZLLsyIkdOcJo00a9npbPXMj64c/GXg1xCbtJy956fYleUa1hJ78mW7Mkm6kvT69Y3+1yrT5jSa6QMzLgHCfHwz1X790nTifzsLBBPZoRm2aWU8runIsFAg9SDHT1yy2eLAxd0sDHuahUv/Yt0N92gu0BO0cS6B8XEAJA8drjkuwNWy+knOSSaZs5wVi8tx1eAvA7+KU1nbywV9C4NhK/n58kQjXXmO+vWTJr2g3kwP+KZnEpSgviiU0f9a1X790oQD/LYxE+jBzYPD7E8Wja9hwKROwB5WrjpCge02TaUUxO5iXeoOlk1bx3GDJyefeEncyar14tl45eY6HBfQ+vMPXCarn+S8TDKJJ56mvurjRCwMxt1sOPm0Sw34k4FfkJS7n99PDxaLJemqc9Svn9m9u1gM1guGT8RiK/ULhjzifvyDHQAjBtIz0lPY3pjO94yiN5C5YjM7k0uE7Sryj7HmrZ/IBIKjxzM8ytNhf3/7zxaCg6x+nkLqX0myyCMP39DuhPhOFTfZyTWsZV38My4T/GXgt5FTlMSm09o1Cws5N1+60qrSr69cMKgvXKJ+wVBC5uZv+L8Z24DBPPvOUCLKnSnc8e15E/dOjYTU74h+4At2p+oE//wzbH7rEz7YkgmhdxP9TA8amTc57O839+M7yupn6RpwZQXNm4tFAPjFHRaLXIbBo5TIqKfx8ugjbrKTXvgZB1K/E4vrpXI/Z1dVYixiw8mnHS6r26L5LBn4pSuqKv36FbtgKCFzz3Y2zX+bB4Z9quThn/cI43trLO7jHsrQD97g2SHBsOVTngh7joVLN7M73qbhvzSTY2t/YOHtjxM9dwcwgIe+nMoQIbe/3tS9ZjEzrUFdL6ufpWvAlWkdB67O4FFKlw7zHAb/I5nqrU/1jQz8Zn+dXUCuQRlJrCU4OJrwlqPFYkmqMR4GA1FzXxSLrdSb6RVaFwzLfwO3xeD7Ygw9vQfRx62P+TaQW/o8y0sz1pFJJKPfn8Ps5zvr5uHHrzOTfvovc6MHADtYNi2aJzrcWPacHrcwaexslm3JhNDRPL/zTZ4Y2qzcicfR1D1LUJdZ/aRK8/F3GPwdVfzqC/H355IKirNIyH5NLLbj6zuWli21m1MlqSZEfvGp5px79WZ6haOBgFqCJz/LnNUfsCJlBbOe606wM2cIvzYMnbOAX2M/YO53zzI61H6z8pyfsiZ+JhP6BWuedC5GRGj249v29zvK6mdZ7a+uks31NcjHn46R/xZLrdQW/qmPtH6DLqWgWH20s4WX141ERc2Qq+tJV1T4ls347V0uFoNqM709tYGA425SVsa78H00saZY1duvyyYxbNwgOoVqL7OrriHBvQcx9K5JzEpRe87eRDiR01+vH98nPsaaqleva8B2tb+6SDbX16wGfiF0b/u9WIyXR196haofe/WN41+iC2jkqb5kKeZlddu3f0kGfemKapyYSIuv1Re0qd5+/don4cHHNIN6i6+jaZyYiNHLi7OParfSyax+kp4GQW3o3+GPciv7NfFpKe5aL8nADzTyDKJF4AyxGIC2bV+TufelK8rDYKDdh6+LxVZnH32twv36OHHBUFs46u9v9+HreBgMZEd1kFn9pEq77OdPj3aPu+TKfjLwA1lk0aL1WFo0n4WHh1LT8PK6kcjIlQQEdBB3l6QapdevnzF2FtlR6seko359vYGAtY1eql6PvKNEfvEpmLP6aWX/k1n9JEdOc5p88sXies/lA38RRZzmNB4eXoS3HE2PHsvp3TuWLl3ek0FfuuIc9uuP0p5Votavb6E3ELC2Shw1WjNVr2VpXqOXl372P5nVT3IggQSKKRaL6zWXDvxGjMQhk35ItYOjfv2TD9uvMGarrvfrazn58HSH/f2OsvpZFvyRJDVGjJzkpFgM5vwutiuz1hcuHfhPclIurSvVCs706xsC1BNH1Yd+fS2GgADdQXyWGn3ykKGarQO2C/5IkppCCkmibKGeEmMR6+Oj+Xy/LzFxHVi2vx8H09bYPaYuc9nAn0YaeeSJxZJ0Vch+fW16g/hs8/TrtQ60XjxbNvlLus5znlyUzI+/n5zJubx51m0G4252JI/nVNZ2m0fUXS4X+E9lbWdP2jfsSVshV9mTaoWI9etkv74Dev39Ads+psXOHRgCAki7Wz2xj+2AQEnScprTXCzOsAv6tv5KfK5eLOTjMoG/xFhEzLFH+P30YPYk309ycjRxcePIyjog7ipJV0xgfBzNYmaKxeDC/fpa9Gr0lqQ9egv+1IesflLNMmLkZPFBsdjKYNzNsYz1YnGd4zKB/1jGetILPxOLOX16GsXFrr2wh3R1eOXm0nqxdopQV+3X16KXpx+g/Sdz8DAYdLP6tfju4zqd1U+qeZc83cQiOzuSx1NQnCUW1ykuEfhLjEXsS/uPWGwlA790NbT/bKHs16+gzO7dyRqhPvPB0t+vl9XPI++ozOon6fL0DCAk+GWx2M7+1K/EojrFJQL/rqQlLrPqklQ3RKxfh098jFgMQH6vybJfX0fibWMc9vfrDQi0zflfH6klNPI5ESsWSTrCWt5OQ49uYrHVkczpdbrWX+8Df0FxFkcytftJPTyuxcdHfTUsSQLg4m4WhpmXmQ37iN0XS8U9KsRRv37Cg4+JxVau1q+vxuh1mS0R7fi+qKO4iTV/QMsBz/PW50d0s/pZcgDUR8UtWotFmi1LkjoPDy9CWjwgFtupy7X+eh/4T2ZtEYvstGjxoFyAR9JRTOL3q1mWar6buoMdsReFfZznqF//1DNva/bNu2K/fjn5J1k7ZRq33rOVfaOeEbeaFdNoq3JSPvvQs+JGK5nVT9LTrNkgGnh0EYut9CqUtV29DvyO+vY9PK6lWbNBYrEklSlNYd+3+4EhPD3vboI5xrqVe8moZKVfr18/7f65XIyIEIvBxfv17eSdZe/yBAAKorqU6++3LD280msDET+v5WJERJ3M6qfWUqE15VOqGR4eXrSKeE4stpNTVJb0py6p14H/ZNZfun37srYvOVKacIDfNmZC++70vbUjkUDm0o38nVDx3N6O+vWThwwVi61cvV9fS+JtY1SDJOaMfcEHDtTJrH5qzfXSlRcU1B1vr5vEYqu6uoxvvQ78p7N/F4usZG1fcqyYpG3/sAMIHt+RNh27c/OIYGA/v21LoSKVftmvXzMcLdLTcsV7+KanK90gGlP8ZFY/SU/LVg+LRQD0ar5MLKoz6nXgN+mcmmVtX3Io/wRbV+wHOjF65DU0cg/nusduIphMdnx7gCTtw6tMaSanly/nv8On4LYY3BbDTTthcy5QCFMWQ4P33PjisNqaESUU/PYzGx572vpYt59gaQrkA99v88T3xRhuX3jKZsWJQo7Nf4w+bmOZuSaVwvh/WDHlPmVgott9zFx6kkLhb2Tu2c6m+TO5xc08gNHtPmbO/5WtezJ1fkHKezu29gcW3nSL+XG38NhLa9kdXwCpm5np1oc+bo+xYo/9X1QUkLh5q/B3Lc/xA5s3Jwqv8zybp4ylT1g06wDYwwd9bqCPWx9GLL9A4tRFYB7c57YYppxWHmWZvmfJ6ldaCGvj4CbL57kYWv14lMPPvUOm6pu1fJ59GDv/GEYKSNy80eYz7UOfmxaydu0xjcdLdV1AQAfat/2cxl53AODl0ZcB4avp03KyuGudUa8Dv6dvmFhkFRTUWyySJBulFOzawsotmRA6gAF9GgMNaTZ8KKNDgY3fs3ZLjvgge/kn+Wnyk9w95UPmnbtsLd5yAIZ9C6+ew7xahLfNgywKOPfpbO4b8SbTbJNLpsK0n+H23bCvtXpyHwtj/HreGzKdD8x94pDDBTzK/lppJkcWvM0DfZ7lpRnryLQ+MoF1M17nhT5PM6vchYJZ/knWPvQ0k8bOZtkWyyMz2TP3LZ7o8BIfrU/UXv7KPEBv3LAXhL+L+TlmEz3sUZ57dafTwVTJ2Kd+IvaJjyF88zp2Je9hyJcwdivYDvlNPQGTPlnHLX3/xe7UEpstgssp7Hr1JcYNe9XmMwW2LOOtsZN44JHNlR77IdVuTYK6MqTLpzza28SUHrvo1mKcuEudUm8DfzHFNA4dgK9v+b69tm2X4Ompf9KUXN1Fjm7YQSYQPKkf1zY2/1QaX8OASZ2AY6zbcIIC8WEWpalsfvY1Zq08Bb4wbzTkPaoMPEu5E6JD4d2t8IP4OABKyFiziCce/5lUYHJ/iHtIeazxAfiiO2zZB++szxAfaCOJX1/5mLUdHmJu3FZiTbv4M24eT40KN//oCzjzxSe88Pw6MhnAlC+W8asxllhTLLHGX1nxxRR6k8C6aa/x3ppU+5q/+b29tTwBQkfz7MY1/GmKJdb0D7/G/pspQxL4fNoifrV9jFUOu996U3nskCm8Gfsru0zmv2vaxZ9xC3l2cqRyAfDuD2y3jqVoztBlMcSmzEXJcNCbZ2P/JNYUS8yLnfAATt9zJ5d9fez+mkXxgnd4fPzn/EUwN/YNJ/YB5fM0PQpxo2GyL7D3F564ZznH8tWjd9IrLzH9XZiy5BPW5O0i1hTLrpRlvBk9AIDMpZ/zjaOLQanOyhQuUeuyehv4s8jCw8OLqKgZREQsorH/ZIKDo+nQYQ1BQa45EEqqgIsn2LHiWFkzv3VDY64dOYBgIHPFLo5qzOkvTdjFz0uVWuG8kfBiOPiZt4U2g7fvaMXYULuHlClN5sjcjaQBQ/rDR90hqqGyyd0X7nlgBO892E58lIpOTHljIkOjGgHu+EZ1pVOo8kSlyTtZ8fpaMhnMs7HvMn1KZ4ItZwP3YDpNeYoFsc/TmwTWPr2GPTbvszRhF2uWJgCDefanF5l0cwS+ADQkuPetPPVlNGM03ltp/FaWzT2mPHb+g9zWO9jmJOSOb9RAJr52P0ooPc7ew9k2j9Zn9PIkrUMTsRhK4OvDkE4D+j4fzX+Wz6W38oIBiAqHj24zB/9tn/PRqkSNLo5Ixqx+jaem9iXCT3nV7qGdue2NJ3h2SDBwjE17U7VbOqQ6zYCBLOpu0h5b9TLwGzGSRhqYp2Q0azaAa6KeoXXre/DzU58uJUllSimI3cW6VGya+S3cadSnn9Lcn/oTy75XCxKFnP0qhj+B0A5wf7C4HRL+vZDJbw8XiwHw2rSeT3bmgi9Mjyy7YMAyX3/y/+P6Vyaag6OOcq/dopikDRtZmwrB0RMZ19tf3EEJwj2v49YRwULugkLifvxFGfA49Q5u6Vn+se7hg5mi8d7co8awyBRLrOn/mKT6d8G9XRT924ulzjF4ewBN7couZsD7qQCXmdpwGw07dig3DdCvCbzWF+ASO/77rfr4jdDruWV48/InTb9wOvZrBkDSoVScv1SR6poUUsSiOqncMVwf5JKLUV53S5VVep6dK/8q38xvYW3uVx/k51GUROY3JwDo2gJChTU/kqcuojCkJS0HDywXvD0Mebh99CMnAYKgi03NFJv5+u6RlhkGOrq2pLm5Zmovm4Stx4GW9O8fYdOaIXAPIerm1vY12dJ04n87CwQTOagdTdWeHk/V96YrP5Hdazazec0PLLz5OT44Ke5QET6UtBtvvXciA1IBWsLQrB+JWL9OdRpguyBoD7D7O47sVJmfrfl5euLXTPiipHrJgIF88sXiOkftKK7z6stVmXR1lDVlD+eJad1VAmNZcz8b/2GfMKc/4qdfyU+9BEAPf/sfWe7gJ0nrr4REd39/oW4KbVd9xaU0pe8+tCm0sLlosJuv7+6Dfwu1QYE2Wvjjq/YLLy0iL+0SkMS68aNtRtSLtxuYNGMP2NZkS4u4eDITaEaHNk00TyBq781Waeoxti5dyGOWv+U/jifGRxM93nawYOXl3fSAdfpervJVWD/PZjEzaXz2TLmsfg0agWWCb4Mv5pef4qf1eUou5QIXrP/OKUoiPT++ziXyqXeHcRFFGJBzcqXKKpu7D7/zVofrVAJiP24c9rl5qM/vfLLkgHWQX/CBAwT9tJxD5pbxZua+eczZ2E7fM7GsQKDM1/8fZ83diL7emPvOq3m+vjV4V0JGKgknAXxpEuApbnVCCZmb/8cTYZN4YdoylMsKgGB6R7/G3NUfsCJxCc9WsqnfwtTQk1PPvA1Ajnlagu3n2XrxbAqaN9fM6tcgYxvhm7XzgEiuK5NMLhnzWR8fzaqjrYiJ68Cqo61YHx9NibFI3L1WqneBPx251rZUBdYUvc6zDPLzTU+n5Yr3oAG0MEeYDJvZYSefeEkzl37DrExrHv4m5scWXoLCGs3D35LRq9eZR9Q7uC0bqrRwNPInOBSgkJzcimcv5OJ+vn7gU/YAwZOfZc4my4yAX/l0zp0MHTeITqGVuaAoT0nXO7Pc54l5fn/kF5/qZvVrFjOTwHily0aSbP2VtIhzefPsys7lzWNX0hK7stqq3gX+TGMaWVkHSEvbTG5u7UvFKdVu1hS9DOeNuL/LB0DrbRd/xj5Pb5SFe3b+k0GbFYuVPPwNoUOQ8nz786DU2q9vn0u/NC/P3GhYStPv37eWtzQPTE+9AGkmjTz81ub6SmgQRPiglsAlLuQUqQxO1OHXjIiuwUAGcWdyNB9b9t5sGcn8/XdlwaPQh3hr4USGDbXMCLBhbVWouuQhw2gYqay+afk8Lfz2Lid8y2ZrVr/LBbDdvK2duX+n9eJ5uF/WepeSqzqd+YpYBHVo4Z56FfjPFR1j/6GpnD49jeTkaBISJnIi/kOMRtn0Lzkjj7gf/1Ca+UcMpGekXs3TZtQ7x/jipYWcizPn4XeDNuYO7kM5kGLTr1/GtkvhPA0ytlm3tPCHUIAsOHb9DNU8/GUXKJURSOSNHZXBiSv+Jk5j3roq9yaE9WgGZJIQl4F6w6bte7NlIOPUGeWfN3eirThoEpQZFceOsVMsrjRv3B4ZqXyeSbBNWFixxdfRNLh0ibS7H+FUFsqgysbQ2jx8wiPvOOEHzts/qI4qN2ZBqhFJuRVrMbwa1H55ddbWk89iNNqvfHYxbzkZGZbreEnScfE4v7+/DQhmwL3daeno1+EeRs97eyj/PvCrXVAZ0hFGAKkHgngvsnzffGnqPn5aYTlB2A9GbRwKb7cECr15OzmqfOa80gz2fPGbSmB1ls2o+y0/8s2q0+X/BpYMe/fRx+0Wnl56xly7b0LvaXcxAMicu5I1e5Tcg7bs35utBjQKClT+mZhGhtoFR/4x1rz1k3n8RBIHTmVVcX6OOz4DB3KHucFkRTyk2tT6Adp9+DrnQ4qYbX7JI3pCT5vv3u903RosnN9BfSnZRufrxwVMbeDlpb4wFEBa3kGxqNZxdGqrM9Lz4yk0/CYWA5Cd/bdYJEkC27n7NzFupCXDnR5POt44jGhzW/W3aUqzPoB7ALzTHyCL/xv/ISt+s+SeLyFzzy98NGEmn2uNXneD8UOa05dLxL4yhznz/yHRHCRLU4/w8yuzeOLdyod9APeooTw1b7CSnnfaa3Z/Q3mNm1nxlDk735DJPHVPhPXzKHvsNj64fX4F3pvtBcdy/u+tLTZ/s4DEzWtZePsLfKD6WLNmoUS2B8jlzNlcSinlUv4lzS4HABr3YOwnd9McJePhhF1gu3zAyeNHmd/zVZbnAq2a8047jRNjserlkeSC/P37i0VWSXl/iUW1jurxXRedzt8lFlkZjTKlhuSIbYreofQPtxmOr8HDYKD9lz8x8hrl/sZ42GczmK/Ff17ljcmRkLqOD0aM4wa3PvRxG8gtff7Fsi3teHlkCBPKdreT8+IbvLRkDMEksG7GdMb596OPWx/6hU3hzbkJ9H7lJZ6dUJUlQf3p9PxrfPLKAHNu/rK/obzGaCUffegY3vhkDJ3s5q/70+nx6TrvLZKHljzNLTaPsCi7aMhkz9xom795I+OGvcWyLZFMWf0pc6M7AXApIx+7kQwNQuk4vhOQwNrxt9PPrR9j3zqk0eVg0ZBm457mk9UPcb15rYQ+X5Yt0tNhHXydC/S4mS+/nktvra/+xC9iSY0pDm4hFgHgmy4HL9cG/v4dxCKr9MLPxKJap94E/vOF2s0rvr6dxSJJsqeZoldb21Ur8Uz5m37tYAjKAjqrzOnzs0ZEkzZkHGM+X8SKmNeYMsSSbCeY3tFv8POs9rzbLJ0G5lLLYDKAjLGzyOw+gDZTX+bL2AW8Yc4FD8CQKbyxaTEL3rmB8AYALeneLgiPsj2c596Mvu8s4NfYD5gzb7Qyat9iyBTeWP0pa+JfY0xHlU/Dr73me/skbg5PjYowv6Y2hIfZzkbwp9OLs1mz6Q2bx6Hk/P/uA1akLGD6uJ7010yL3ITe/+9la358gMz9KVzQrfIDNCJi3BPMj32f70Y2Vb4vs9Br4LsRkNL3N3pd04zcwU/abLVxcRcttmwWS2tEcVP15EwNLlVyQKdUrfz82ohFdtLz48WiWsXNZDIJPV5109L9XblsPCwWAxARsYhmzcTBVVJdEnzgAK0/niYWkzx1kcrAOXvhWzbT4mv7FK0AJ15bw8WIyqVwbrFzh3X6nagoaiSf7DvMCyuTCY7+hNVz+tpdSFhez+UM6PgDnPSFTffAUE8oihrDn20bcMv41RD6EJ8cf4K+aoPgLh9jRcdJfHCyE1M2LWT6UJUc9TXiPJunPEb08iTV92Zh3LOC8X0+IEnvPVwlgfFxtHtPPZ9CcdiNxD03kw4LZuGZslXcDMCxt34pP8uimlXlmK3KYyXnHT78AgaD+jEyIHx1rV7Br/b8GqsgpzhNM+gD+PhoL88r1Q1e2eUnhwEUhl7579Y3PV0z6Ctz7p+g7VClqVqssTZOTLSelA+kKKPIQ6+BPp7KY08+/AxBXa5V+sHtcuTbKqXwwD62ndTLx19TLDMCyr+3MnnE/7GHJK2Ux1dZdlQHMsbOEosB8EzZSsTa78tl9bPVZsViOUJe0u3nzyw8LhbVKrXrF1lJGcXnxCI7cmEeqbp4GAy0/2SOWGylzLm3ycOf+jlvTP+GnfEFeBgMtPvwdUoLYc0BuN08Z+35dtAYOPvoaxgCAmzy8B9j2QMLbAbPAaWZHFuzkjm3v88egun9/BA6X9HAajNAz+a9WZSmHmPz/Pk8N2MbMJiJ93RUbRG42hJHjdZM3BOw7WN8U1M0Lw584mNkVj8JX9+6G1eu5BmjxiTn7xWLrBr7TxaLJKnSlH599eY921z67lHDeXHJGKWfevn7PNXhRnp6D6LBe0fx+BLG71QWjnnlNni+mdKvnx1lHjDkHsHNHzxtXgHQdvBcH/p43MKk8R+wLjWY3q/MYvbzncsnwKlhau/Nks64X9gkomesI5MBPLTpNSZqrMBXG1gS96gJX/o0mb37al4cNIuZSePERLFYciEBAUqrnpo2TbSn+9UG9SLwZxXaz9235emlPjpWkipKyaX/sVgMqrn0G9Fm6musifuUuUumcJ3NFnxh3nCIfQDeCQND1FgSR4222cEd3463MSt+DZ+sth08BxDJ6Hlv817sl3zyTn+Cr8ov2P699bbdZDNI76mhzWr1CaYwJISkSS+IxVbtP5nDuXsfFIut2n34umzyd2GengG0bVs+RW/n4IW0C7Is91Q71fnBfUaMrEuaTdr5meImkAP76o2qDFiqymMtfNPT6fTGrWIxmPv146Pnaw74apyYyDWz1Qf6GP2v5dgbCzEEBIibpCuk7epVBG1UX6wnd/CT5EddqzmmI3fwkyRMmioWV1lVjtmqPFaqOGNxPt5ZyhikFn5dCPGLEnepdWrzBblTiigioElXsdhKrzlGkpzhYTAQNfdFsdhKNZe+maVfX4ulX1+6ehJvG6PZpB+w7WMue/uQ30u9yzBg28cEHzggFksuxMPTj44tbqNbi3F1IuhTHwJ/Pvn4+UUQEbHIrtzD41ratl2Cp6c8qUpVE/nFp8riOyps+/XV6D3Wrl9fumqMXl66/f0tV7zH+eG36m73ys0ViyUXUuQghVRtU+cDf6F5vHOzZgPo2nUTbdsuoW3bJVx77UKCgrRPyJLkjPAtm/Hbu1wsBtV+fXsOH2vXry9dTXr9/R55RwmL+YZzD84QN4F5e5tvlonFkguRgf8Ku8xl6789PQMICupOUFB3WdOXqsx2zr1Ima//KEYv26x0ZRw99uTDdWP5TleS2b27ZtY+n/gYGscd09xuWeJXck2WCmhdUecDfx7lVweTpKpypm9e9uvXP6fvmUhxmPpUrKCNc7nYqZtmk3+Lr6NlLn0XZVsBrQvqdOA3VnHBTknSUpW++ao8Vrq6jF5enHziJbHYKuybD0l+4Dmx2Epm9XNNda0CWqcDf13rV5Hqhqr0zVflsVLtUBgSQvJU+8HCFh55R2m2aV2tzupXGBYuFgHgfypBLJKqSX5+IjHHHmHxHje+PTyWg2lrxF1qlTod+GWNX6puVembr8pjnWXcs4Kxbn3o4/Yum1Pl8V9T0voP0OzP94mPwe1yieYUwKud1c/o7SMWSTUoPz+RuLhx1uV4cw1r2ZE8ntgk9QpAbVCnA7+s8UvVqSp981V5rFQ76fX3B//8NhcGDxeLraqa1c8Q2FQsAsA3NUUskq6y9HT1Fp6956dQUJwlFtcKdTrwW+TnJ3L48Avs2dOHPXv6cPbsKozGyv/oJNdUlb75qjxWqp2MXl66q/SFfvcxGWPfFIvB3CXQdtVKsdhpxYGBYhEAHkV1a/S4KzBezheLrAqKM8WiWqFOB/7LXKaoKJ24uHF26yJnZs4lPn6e3b6SpCdi/bpK983Lfv3662JEBGn3q6fz9cg7it/R/bpZ/QLj48RiSbrq6nTgL6SQ9PQtYjEAhYUx5OdfvX42qe4IjI+jWYz6Wg+O+uavRL++dHUlDxmqGdx94mMobhaqOcWv9eLZMqufVOvU6cAPUGxIE4us8vPlKFbJsZA/NohFVo765kO2qvfv4cRjr5r8RHav+ZUVU+6zLqer3J5m4dLN7I4vsN+/9AxrR95CH7dbeHrpGUrtt5a5uJuFYX3o4zaJhZtzhI0lZO7Zzqb5M7nF+vfuY+b8X9m6J1P1Oa0DGadsJjM/kZ02j71lys+cyVd7VM1IePAxzeAetGGObta/4H17xGJJuqrq9Op88cSzN342F/PUm1nDw+fSosVQsViqRbxzSwjZmY3HJf0R6g1yC2iYW36urKF5U0q9GorFdhw91is9C/dLxeJmLjduREkT/fXk1R572d2TksZGTj/Qza68Ohj3rGB8nw9IYjxzU6IZGuoh7qKjlMLjvzBn6JusSxW32RrAQ5tm8oR1Wd1iEpf+i3HTfocRb7Bm/RgiylUZSinY/Anjh31OZuhDfHL8Cfo2Nu9UmsmRDxbywvPrUO/xjGT0ktm8NLU9vjal1vc64TGe9d7EB0ttLuQ1X0fN0Vtlcc+nsUSuWErAto8pafEkl5v1tG4rCfDnckAju/0dcTeU4HVeWfHNljPPVZXHqnEzweWiEjJvbkFhU09xs8s7Ef+hZgwa2yGuVi7cIwO/dNU0TrlE6KYLGFMzMObU/eZQN28vaNEcL29v8n1LOXeX+nzqqqhS4L+4m4Udn2BZajC9o5/h//2/m+kUarloKiDxt7UsmfK+clEgBNbS+LU80+EtdjCcN+L+zZgoMQDksPul6Twx9xjB0Z+wek5flBBTwJml7/P4tLVkMoApXzzB/ZM6E+yuXBAcW/E1//fgMvYQyZjVC3htXKi1GbLsvQIMYMrqF5k2rg2++YnsifOlZ+/gK95kqbbkbXHYjRya+R4eBgMd/ruLUv82FCeew1RcYrdfXdSgWTBugQF4uHuQdHMQeaHqKapdmQz8V5gM/HVXyP5cmh4s5NLxeIp27BM31zkNIkLxGtSf/KICLuZdpGmX1iSNCRN3q7LKB36bWvuQ51nx03108hPDps0+4vOXnmHtqMd5ayMMWPJfPpzaxj7oWi8qOjFl00KmD22iPCx5M7P7RrM2dTDPxr7FpN5iC0ophXu+4bk+77NHaCmwDfz2FxNXV9vVqwjaqAz4Kw67kZNPvIQhsBltfkqjQeYl8rdsx5im3rZRlzQaeh2eEa2ISzhOh8iOJI5qSkEz8YJPqouBX/zlS1KN8igx0XJzOkH788j/e1e9CPpevbrge+MgLuRk8cUn75GecV7cpRbwJGLqf4g1xRL7xwSVoK/sE969My3FYgD3MHre2wPIZMe3B0iy614vpSB2l9JSEDqAAX0am8uLSdqwkbWpEBw9kXHlgj6AO749r+PWEcGQuoMdsRfFHYBOjB55Ta0I+gCnx9/D/g+3c+ytXzg08z1KvQKJ/DYV97NZXFz7a70I+v53jcYzohW/bV7Pqo/mi5ulOk7t1y9JNaJhoZE2a1PxPZ5L3sYtlMSfFnepc3xG3IBvt84cOX6Yz/7zBgXptTHo6ymlMH4Pm9dsZvPShTxpbVoXeRJx13imhAIb/2Ffgu24hosc3bCDTCB4Uj+utfTtk03C1uNAS/r3j9AO3O4hRN3cGjjGpr2pKvk4w4loadv7f/UZvbwoDAkh8EQ+bddmcvlsMnk//YapqG7nD3EP9Md/4jhMXl4sW/5fdvy0WtxFEng08BOLrDw9atdxayGb+qUrIiCpiNDNWbjhjuHU6XrR/+neMgw3by+2/Pm73Qly5KRH6HRTv1rW1G9RQuaeHWxf9S1vzd0hbrSh9vyWfvwM++Z+jWb+su6BCtSAJ8/l12VDCa6W91qz2mzIwOf8ZYwX8yhJ0R0tWSe4e3vjFh7KxfyLLPvv+3YXsW8s+Ew29WuwpOwVtfKfwago9RwQV5us8UtXRKPkYkrzCihKSabU2xNT40Z1/ubp58f6jT/VnVpRaQa7X32OW/o8JwT9AUxZMoe5MStYt/NZ9aZ+ABpz7cgBBNs199s08w8ZxfB+lmZ+oLSIiycrEPTrGO+kIgzp6RTnXyx3bNTFW4MWzbiYf5GP//1SHWy5unr8/CKIjFyJj9cwa1nn4IUMb6++kFNtUOdr/IfPLiEzU/2q6tprf8HHR33NdOnKanYkn0brE0j86GNxU53VYdYsVn2/grjtZVkjqbU1fpvpdkQyet5UbrtjEH2j7BvgHT6/tXZvGd1fqN4KAHD5GCs6TuKDky0ZvfpTZo1rbv9cDjh8LVdZp+WpnItZTeG+g+KmOiniqSfJMZXy2X/eEDfJGr8T/PEnito3kE9Nna/xh4aOxMOjfGKNxv6TZdCvpf4pukjP03sqdPOfeIf4NFUiPr8zt7otg53LflP64aNfIPrFEeWCPhjJPpuk0cdv1vgaBkzqBOznt20plF48wY4Vx4Ae3Dw4zP6E0iCI8EEtgUtcyClSTdJTX/y7R0S548XRrTpV5jfle6v6AkRS/VfnA7+nZwAdOswnMFBZQtPD41qCg6Np1/4xcVepligyVTwE+PftLRZJFXE5i+TtSQ4G2uVxeqf6QkNlbJv793Fsp7mZf8RAekaKtcFAIm/sqMwEWPE3cVcw096VFhV1dWt6lflNNRkhxz+5qjof+AF8fEJo124qvXvH0qPHclq3vgcPD5looj5JbdaUv+8dWW03l+PuQ+P2wcAl0k5lUn6Nt1IK9/zCZ3OPme+fITlFbYS6O42GjOaJEcGwcSebfz9BJsEMuLc7LcudTTxpOXggAwC2/Mg3q06r/F0g/yRrp9znOCVwPSMek1W5FT90j/j0kqSpzvfx51E+FatU+9j28W8uzOGF8yfFXWq9fW3tWx3qVh+/bXIemyx4mHP3r1rLZ9OWUdYA3ZtnYxcwqbfadCTb5wI0s/kB5HFs/htMmrFNSc0771mmPd6fCD938wyDv1j/4WI+WJ5QLrFQ5d/rlWHbx//NPcOZM2eOuEutdn7tz6T8v7LFqWQff9XIPn5Jqmbxv29iR5ue7Gvbu8q3La27i09fB60mOqy/sMhO+dvY+cfM8+I9ibhnEs8OCQZ2sGz8Xdxg2c9/HE9MW8aeIQ8xd+ccZa4+heTkll+/QGFTk0ermd/Cn07Pv8YnrwwAElg3Yzrj/PuZX99AbukTrQT90DG88ckYjcRC9dOmIbeWOzYre3uhaSvx6SVJk+v8yqRaI7xBxbthooYPo9X2n0n/93Oc7tsRQwX7NHNLL/NP0UV2P3YPnl9/Im52DX6dmfTTYj5ZMgXbtovgyc8yJ2YFv256iqH9epsH7x1j3YYTCOv0Wbm3i6J/e0Czmd+GezP6vrOAX2M/YM680QTbbhsyhTdWf8qa+NcY01F95EF9NejXNVxeuZBzj9/HeWPF81rEFRexLtyf2Ben8cSOzeJmh4z5+WKRVAWG4hzS8+NJz48XN9U6sqlfuiLE6Xy+t96IR6DzS9Yas7JxG9SfpkNuoGl4OCnJyRzfvIWin34lbLf6gLTc0sscNRRy6cG7GHDH7fTu1Qt3IHvfAYqPHufS6TPiQzQZs3Mp/MW+Sf9qNPXXFo4X7an/bJv6PdqG4XtdH3EXXaaAxjQcPJDQnj0wAYf27iX1r+14frSC5h7qK07GFReR0DaE5vffw4DBg+javTtF2dkU7N1P0ekzGM4kig/RVPh3LMbTKdb7sqm/8s6eXWU3rTzAawwj2y+iiY92VoyrSQZ+6YoQA39VeA3oxuXRIwi76QaCbS4Ccj9bTuCZNI4aCskcM4yBd42nX+/eBAQFkXXwEPl/7+TCnOqr7btu4C/r4w+eOpcV/xtKM70afz1VnfP4/Z58oNxFQOZf2/H5+EsumUwciQim6YS76DloEN1tgv2FNT+VuyCtLBn4Kycr6wCnT08TiwnwGsO9XWLE4lqh3vxci4rSSUvbTFbWAYxGtdHIUn1h2HEQ4xvzOTf4Do7e/xAFx47Te/St3Ll1A132bOLBk/v516f/pXfzFuSuWsPBobdzdsyD1Rr0XVcJmbvWsuT134HBTHyyr0sG/eqW//GXZE94iqOdBnHqw49p7ObG0P/3DIMSYul/YCsvbNvM3fffT4uMLOKeep7jvYZz7uEXqy3oS5V3IVP9O8g1rK21zf714id79uwqjh69leTkaE6fnsahQ4+QlXVA3E2qRwymUvYb8vktwIczplJMKA1X3m5uuOMGQLKplEOllzlp1BqkJjmrNH4tT1sG5PWfw7rUYHrPe4TxqivuSZVx3ljCz/lZ7PLz5pKvL15eXhgNBtyLlePXw8eHBNNljpSWkFt6WXy4JDmtzgf+rKwD5VL2Go1HSUx8T9b86xlLsP9zZH/y/jeXOw//w7P//ZiezVtw0VyzP9FnBMe6XE/cU8/jm3GBG+67lzu3bqBBzFJSZjxCVuuKpY2VFO4twugQar4TOppnVy9g9vOdlemAUqVZgv32R++m8Tf/JfrcMSZOnUp44SUSXp/Fsa43cmrArRwcejuJX6ygdUhzxn2ykG77/qBw8X84fct18iJAqrA638d/4NQHZGer9xu3bbuEoKD6MHWr7rPt4z9vLOGIQWu8uL0Sk4lMYwlBNw2k5R23cfOwYYSGh5OTcJKLv/9Bzqq1dgOU1DS49Qa87ryNFr160Tgo8P+3d+/xTdX348dfcmhupA0pLRRaWlpKK8VCkYmATiagjqnA8LJ5Yw6nOOZ0E0Xn/I7hbg5lTqduuh/ToTjmDVSYoiKCclXEghZbWmhLW3qBtKEhaVICvz/ahubk1pRbk7yfPPZ4rO/PqQ9CT8/7fG7vD18XFrJr4ybKX3mVuD1dWww1RmfE1Ku3Vyx25/hP0FqtaK1WAA6np6ubo1rnOf4vnTYs7q4lYPuxYxw55ibtvrmcP/ESz6JT645Cmj/dRNOzL6u/xYuSOQjd9dMwjL+QtFEjsVgsfL19O9tef5PWFWuIO6dtxCsY/Tm9GK/vdKCSzPF3256SpwKeEDsjt5j+xp63tz/iE78cyxsZTkUBH1t1DYc/3kDTqjU4t3RvQVXHS0DOlBMnaXXVjh5QwKenMJcUM/Cd19CXeC9eslw+n5opV+A0dX3HRqQ62QI+rS0tNO4o5EgXkn0gHS8Bx8ePJXdUeJ2cmmXLqXv4Mc/Xkvi7JxITf8QP9YvYUP7hR3x44eVse+D3lHzyGRWtzm79r+ytDyi69R71f16EIfONV8lafJNP0gdIfH8Rw3/3cwz19eomobI6+1tsuu42Cp9c4nOfdvV/e0v2UfT7J3lh0tXq/3xIitGoDokYIT1+cUacbI/fYrFw6NAhdbjbhg0bpg6FJD1+SH93NckrT5R5DcQdn0fJ/Mex94/eEzJPtse/Z88edeikhHtPS8neUyMSe/yS+MUZcbKJ/0hpGbavOw6QOXkDpl+lDoXUlcSfNCyXH9z0EwbfPcvr2mgwfxT8+UJ1NLDqI5C2TB2NLt98/9ZuJ/66t1apQ91WddzNmBnT1eGgupr4x119DZdNmsqeyekcTQ2/wmC0k8R/hknijxwnm/jVD6mT1Z3z0EMl/tyLJjJjxg2Yb/u+13XRouQHMCzMqftnvoa7Nqqj0eWLIed3K/Gr76eTcSp+p/wl/ut/dh+52eeyc2gux751DK1WyvyqRWLilzl+ccZdpFpN3BX2klM7LHqqfee6m7n+2luoSE5RN0WF+aMCJ/09VmhpOwnIxw3Z6kh0mmE7u1uHx+jCn69v/izwy2+f/gOY+5s/k5V9Lk8eOUbN4Az1JaKdRuv/d16rXIBZ3zMPT5IevzgjTmXJ3p4id+FC3v7fm+Tm5JGVlcNGUzJXvv4+86dPYdEPLlZfHtE2TocJfkog7LFCzn/h9nPh+UvUrW3u2AD//EYdjR5fDDlfHYpIHT3+99e8xTXX3sIxk5k7vijlnZoG3vjTr0gZsE96/H643U5KSh7Dbvde7Dol81OyEi/yivUUUZ34ZR9/zxGtid/V6uKoRss/bW4e+nQHAPOnT+HCcblkpFeovyVi5S+ch6bGtzTpnl+/6dm/n/nGqyS+711MC6D2hkVUfyf6XsBPZa3+niD9Z3NRzGbO6dWLmr5J5L2+1tMmiT84t9uJ3fINx5pr0SoJDOt3eY8c4u8Q8Yl/b8MHVFbepW4CID9/LRpNgPFJcUYZt/UmdddenI0WdVPE0vcfgFWjYc72tl5Rh2hL/IrTScHdvj0X16CJ7Fqw2PO1uaSYrMU3eV0DYL14LqW3zFaHI97wpQdwNjVyrL2kbqTT9jXTS6NhncHEVSu8j/mVxB9aPPHk0HOTfWcRn/ibaWb37t/7DLNIb79nsR1MpqW8NxV10fPgGJVi4NH3N7DyK+/1B9GW+BMqKxn2h5nqMJbL57Pvmuu9YmPm+B5Nazt/FsVz7laHI17DnmEcqmzgSKAFDhEmY4CR5hY71/3ddyuGJP7QJPGfIZ2P5bVYCnG52vZ5G43ZGI2xVT60p7NaB7C7PJ77Nu5XN51ShoZKHsg8Tpkui6UHT+8DedlVOby07PWYTfz+hvADTQlsf+5zdSjiVVTm8/K2Kt6tt6ubTqmxpeu4/epJPLOvF1+expeMxy8aDI4m7vrbi+omSfxdEEmJP2pW9ScmjiIlZRIpKZMk6cco8651vFDQyvxZV/Lc9cNZfK5efYk4zVwpsvr7VNHYrcz4ahn/mTeTmy8dwetXpXBLitzT4uRFTeIXsUtpdTJu67/ZMG8q06afKGIyd9JQ1k5O9rpWiEhgrCnh4V6f88JfFjAoNRWA1P5mnrpyMPekadWXCxEWSfwioums9fyi+SPefe53ZGf7bhqfkDuA0usHU6BT1E0BGRoq0Vml1nx3GL/w3WHjGjRRHRJBmEq2sPw7Ju6/9x50Op1Xm06r4dFpw3i+oOv79jV2K4aGSpTWs1trQPQckvhFj2Aq2cL/SyqhbLqZxtnZ7PpuPO+MjWOWOficZoupP/V5M/nt2lp+tfwztmze7GnbVNbEg6vL+dvWRq/vUdPYrVxw4Eue6PM1Wy8+RvUDk2j81SRqbkjj+fPN6stjzlFV8ulgLP7K6+uO43nVYnH4X2O3MvvQBtaNbqbmhlRqbkhl66V6/pLuCPkSas0ZxwfOoTy4upxfP/6cV9uDq8t5cHU5Xwe/pTE0VDKt6mOWZ1SzfcYADi34HrZ7xlB6bapMF5wGLpeVvVUrebdkPhsrnqbeVqK+pEeJmsV9omcLtrhPZ63nUXMJc+68k8K9dezbf4DzBpvJzmpLGNW1DbxVWMe8EBVJDQ2VvFDQ6hnuX1HYwI0b69SXeRgaKvlhr3JumTKagtGj0el0VDc0UVRzmC9K9nPN6AFkZ2cz85US3m3y3bIVbHFftBXwOX6HOtJm3ErY2j448u9LYZafc2I+qILL/6eORofvv1bmd3Ff0qbXWPfbW0gbnMGnX1XQR2nl3IyBmM19Adi8s4wXv3GFXIDa/39/o2LVieSvf9b7ZaszpdWJcd8OFo7UcvUVkzxTBIV769hZY+NIZRG3zryM4joH41ZXq79dFvd1k8tlpajo57jdRV7xnlzAR3r84qzr5Wph/IQJANz5sYUbvu5N/nvNTHhmK39fsQGDtjdzrziPmhvTWTxU/d3hMzRUcq99I1tvyuGZ/5tLwfnf4ov9zdzxZhnZr1UxbeNhHi11svbDDwHIMYV3Ilm0JX3aK/T580DBif9/VYA1tZ8fVEeix4rr/N+QvZpqyc7OZr+1lau3tjBpk5tB/6nizv/3MZu/+JrROak8d/1wdl6dzKyk4CMAoSitTsy71rHYUMjuBdcwZ/Yt6BPMPPNJNeP/tZtx7zVwx04Hv1tbhOXQIUZlyCjWqXTgwBqfpA/wSeUvaXU71OEeIWoSf23tR+wpeYo9JU9RW/sRbrfMZ0WKo31MfLVrFwA3DztRx3/HOX2490Aig5fu5aGl6zh06FDbC8BNGd1asa+xW5m+7z3WfT+NP9w3h7TBGazYUculy0qZ/EEdL9We+CU1lH7G5ClTACix+vb2Y83mAEsepg5uq+O/cTokBlhz9la5OhL9jg7IorGxkcF947yG9v/tSmLSluNMWlLIW2u3MDjZxHPXD+eji/VM7RveCybtiwAX8Blf//Fm5tw+m+Nxep75pJpBL+3lvl2Nnu1/SquTS1r3MCg1lcIqGSU9lRob/Z+y6HR/RqPDd4SzJ4iKxL+n5Cmqq+dzuHkph5uXUl09n5KSxyT5RwiXwcTzm6tpaWnhhtH91M2447Q8YUsmf80RHnr+HexHbMydNJSdV/Xr8gpn8651PJtazYu/u4uRI0dSWGnlxjf2cePmgz57ozV2K7MHNpOdnc2eOpvfYf5g5v/3U3Uo4j37tf+DeHRK21G9/ur4A2yqOzEVEEtswy/mkw0b0GnimD8mSd3MjnP68MNiY9sLwJr1jM5J5c0bc3h7fJ+QawDoeIkteZPNt47k/nvuRN/HyEvbakldWsp9u3wXACR8s4lf3ddWROnTfYfVzeIk+Ovt93QRn/it1mK/tfrt9pVYLG2100XPt2PIRby/Zg2JRh2vjPd9UHZ44mgmua/VsGzVxwzub+bRacOCPix11npmV73N5w/P5KYbrsd+tG2B1LhV+wMm9PN3reTeefMAWNLNceo3Kk6U8I0GW+vh3W50Xh4rVEeiy/df87/wxGUw8fimBhobG5l6bt+Avfkd5/Thh2X9uPlfW9n5VRGXjc5k3U1DWZAZp77Uw1Sype0l9tH5ZGdns6nUwqUvl3JHgHtVZ63nl1ktjBw5kupGh98XAxFbIn5x357at6iunq9uAsBsnktWVvTVCI9EwRb3dbigYgtvPXgNZrOZB1eX82RF8IVEY+wHeOySRMaPHUOjtZlFq3Yy3njQs7hv5fov6dVU0eXFfrQ/VJddlcnkKZPZVNbE5DVV6ks8gi3ui6bKfR0Up5O8Rx/yW5nPH3+V/aJJqMp9SquTBb0Luf9ns6k+ZCP7v8HnPJRWJ3fra7j/uosxm80U7q3jFwsfZ92/H/Nc88NfPMLv77qR7OxsLLYWFq2vDfl7Mn7Ds/zvxb+g0+mC/l7J4r7u2b7dt0x1hzvG9Mz0GvE9/mDcR+UmjSSfZYzj4SdeAOC3U1ID9uI7bDcMZNLnWh56/h04dpQ/3XQR377kxNmwMyYWMG36dPYcsHLHm2Uhk77OWs+81EYmT5mMxeZk3voD6ktimlurpeynD+COz1M3+bBcPj+qk35XuOO0/PHwENZ+9DGp/YysvSzAfEg7d5yWJ45mctXSr3jr3bWMyhrAu8/9zuuajl7+isIGUpeWBkziHZI2vcbzv78XnU7HisKGkNeL8DgckTmPFfGJX6PxnRMWkevf/Sby3L9eQqeN4/Vpg0Imf9qH/6/+1xes/fgTevVSqK6poaJyPxWV+1m14Qt+svwLr4V7/iitTm6qe5ef//zntLiO8uD7VT5z/wLs/ftTMv9xHDkz1E0eDTMW+hzeE6taTP258b1qaqqrmTAsma7UhfgizswP9w3gp0+8Rm19PYcOWTz3c1n5fh55ZT23fFyp/jYfCeWFvHjrJZ61KqFefEX43O4WdSgiREHiD/yL5G/uX/Rs7jgtD9alsmXrNlKTTCydOkh9iRel1cmE0rXc0Gcv53Cc7Tu+pLiklLK9+yjbuw/DMRsLRissHVTOnDj/PXil1cnYzUt4/NHfodPpWLLVe4W/8Gbv35+ieQ+zd94yGmYsxHb+LGznz6L2hkV8tWgtlVOvVH9LTDs8ZBQ3LH6TlpYWbhmXyuP5gZ9ZtG83vbVqNZMGK+zdW07hrq8893Nd7QEuHnQOrw9v5LE+33BBL/+JJ6G8kEeympk8ZTLVFjuzVgeeYhPd5w6yXW9w/P3qUI8R8YlfUfxXFRORq8XUn6kf2diydRvDBpoC1tvXWeuZU7OC+787guHn5qqbvfTrm8C0YVr+lriXLOXEvFtH0n958a/R6XQ880m1LH7qosacXCqnXknxnLspnnM31d+ZhNNkUl8mgG3Zl3LvE6/Q0tLCz74duHre8K/X8GS2lesuH0+/pMCLXDUaDXkZ/Xkoq4k5Ou9FfTprPY9kNTPnzjux2Jxcu7JCRq9OE4fDtxBSJIj4xK/X91eHvNhsoYfExNmlsftWh+mc/CfkDvBJ/jprPfed8wVXTr0cjcb/iml/slL6smBQLaiS/qDUVL9JX2l1So1zEZZA98wLprGe5P/UlYN9kv/wr9fwq0szPRX3ukKj0TAtqxdz+jRBRxXMpHLm3HknLS633ykrf3830T3BppqTDeepQz1GxCd+AEUJvNgo2FCMOPvMu9bxxoW9uSfD99CRYMn/6gNrGT9urNf1XZUUr+WXxoMhkz6AtqmOZTlNYR2KImKX0urk6uLXKb7Z/whUR/Ln+DGv5G9oqOS2EX2C9vKD+e6gVrKPtCf922fT4nJz96pyv1NWCd9s4p3zj/u8eIjwmUznBsw/6X3HqUM9RkQnfgMGAPoYAm+niNShmGintDq5cMfrvPfTiUz59oXqZg9/yV9nrWdigZ+i8GEY36/Fk/Q3lTX5TfodznHZuGXCEJ9RByE601nr+UXju7zwlwWk9gv8otg5+T8/cyiLR8RzfvnHDM/zn0C6QhOn8H+Z1pBJv8OQJL0c8XsKKIqW3NzH0WpPnECpVS5gSuan9DfmeF3bk0T0Pv5aaqmmmuqq1dTWLVA3A5CdvQyTyf/btzhzOu/j11nrubF5C7/+2Y88w5qbt++k/mDg5MvRFq6YPLHtIJ2aAxSXeO+d744LLxiDovRmzfot6qYTjh1lxLAMz5G/e6oOMuv9Br5sccfcPn7hrfM+/oTyQp4YBTfedJOn/a01wesdZA40M3LkSADWfrSOc3qF3sESTKLZTMGofHYWlbBvv/+FrND2u3TJhLGYzW2LDJ9dX8G8r5tlH/9JSrAdw4QJs34wcUrPHk2JisTvcNRTVPQ9dTNa7USGD/8jiiJvtWdb58Q/z/IuD9/3c5+zxsPx0ccb1KGwjRldgMl04myAruooxiKJP7Z1JP6N2zbzyuUpTJ4yWX1Jl1VU7qds7z51OCwdib87VhQ2UINGEv9JyCUXI4FHenqSiB7q19P2VqXX9yc7e5nXcEtC/CyGDn1Akn4P9Iwyho3bvlCHz7jevcPvYbW4WllZ5LsYUcSuw0NG8fo3R6ip7v60YnfuxVOl2mJn0Xb/5X5FdIroHr8NG8UUe8VcLiuKopOE38OoS/YqrU5+Yyjj7lumhSwlqrPWc1Pduzz+6O+gl8LCt4uYoKumj7H7b9fHjx9n8qUTqT5o5dq3a3xWPncwNFTyQkEr06ZPx2Jz8uD7VZ65U+nxxzZ1yd4x9gM8/m0T4y5sW3Sqf/Yr1XeckLh9NW/85BLGjR9PdaOD3//lH1w3eYz6srAkmvtSMGqkZ+g+EPOudWyYN9VT53/y+zUgJXtP2hhO7ud3JkVFj78zjcYkST8CuOO0LGjNY9aT71BdG7jspc5az0PaXZ6kf/eqSv5ar/Dq5lL1pWHZWKfwj3//l9QkU8gKgcc1RvbU2bjy1b1BF0yJ2LbdMJApWxT+8fKb6iYvSZte8yT9wkor164o5xXTWGpqgszLh+A66uYPG+rZsnUbcydmhFyIelxn4qVttZ6kL2JLRCd+hcAPaxEZ3okfzrX/O8T6Ot+E2rEn+f5774Fecdy9qtKTeFf0v4jde4IfehLIQcdx/mTpyy+PjGDun/5FP6M2YPK3J6fz78bBjHyjPOCogBAd3HFafnk4h5mvlKiboD3pv/az7zJu/Hg2lVoYt2o/X7a4207zKzqGy+X/xMhQ3m1IYJWS4rMDxp/G/Et5YENjwNP8RPjiiVeHerSITvxE4D+48PVli9snqXYM7//olhtpcbX6bE9yx2l5wD6CHcXhFWgqazrOwspEz9cdW6uCJf9Ax/cKEYi/e6Zz0q9udPj0tosH5fPol0c5dMjiFQ/GddTNWwf68Hxj2yinevvr29/xfzCQv7+fCI/b7cRiKaS29iOO2CKrJHLEJ/7e9FaHRITT2K2eOX2dTufV0+/MHaflYXcBS3Y5qKkP/rCsbnLyz4oE7q7px173OV5t3sk/zW/yF+JkJJQXeiX9a1f4H63aakzjx1WD2VRSz5Ej/o/7BXC1uvnacg7zypI8Sb9D5+R/WV4yi0dI5+hUczjq2bXrdvbtu43q6vl8VjyFj/b+UX1ZjxXxib+jiI+IDkqrkzGfL/Mk/Wc+qfab9Dt7U0nlZ5XJvPbBFoakD2ZoViZDszIxxPflwzo9C0r7ckfNQFYeCfyS+IJpLPMe+QupSfH8Y1LwMtBChMNYU8IjWc1tSd9i59oVwaeN3HFa/nD0XGZvtvPNN9+Qm5PtuacPtWr4T5WReXuTmF9r9nmJ7dA5+c+dmBHyYCARnrKyP+N2F3nFSht/zc7a4Os7eoqIT/yB9k3abJVUVLzK3r3/oqFhC2631KeOBImf/CfsA3MSygtZZCrmif+7m6ysTDLSB5ORPphxY0bymxmjuKi/7yJQf/494Aqe+9dLjBrSL+TZ6UJ0hc5az5zeRZ7a+T9/z7d2vlpHVcu112cz9847SB00yHNPX3fZOO4aP5CEuMAvsR1aTP2Z/sYeaqqruW1sspToPUWs1mKcTv/FmaoPBykG1oNEfOL3t7K/umo1xcUzOXhwEY2Nz1JZeRclJY9J8u/hTCVbeOHOqV0qo0unB+QHN+cz5/bZOFxudu7c6WkvLKmA48d4dNow3h7fJ+QQvudI4M2bmTAsWXpJ4qSNLnydhx+8jxbXUe5eVR5ybt1YU8IC96e897cHGTlyJJs/2+HVvnbDJkYNHci6m4bym+zQo52Hh4zil8+saD8bID3k74AIrampUB2KOBGf+BUUtJyY43K5rH7L99rtK7FYvH+JRM+hsVv5Sd/atvPDGx1MXlOlvsSL+gH5QVEDVz+/ifJ9J6qf7XUYmPL0J+z8qojLRmfyv2vSQtYmbzH1Z/7Kr2lsbJRekjgp5l3r+OtDd6LT6ViytS7olFXnXn7bLpbe/OnD/fxw4T+8rpu+Q8tDf38Dh/0Iv7o8iy1X9AuZzFcPGM/fnnsRnTaOpVMHqZtFmBobV6lDHgnadHWoR4r4xI9qZb/N5n/RDEBd3WvqkOghEr58n3n3/IwW11F+/m7gFbIau5XpJW+y+daR3H/vPRw6cpQHV5cz7eM6dh9pVV/OdsNAJqx1sGjpavTaOB6dNowtl5uZ2jfwUb6fZYxj8XMvodNquH+CzPeL8GnsVm7rV8fIkSMprGoOOnqVUF7o8xJ76ct7eKTEt0KkO07LE8dzuXrJ5yd6/zdmsTgnTn2phztOy6NN6ezcuZNhA00yknUSrNZin7n9zjL6XqwO9UhRl/gVJXD9d6dzPQ5H4GIx4uzQ2K08fPFAzGYz7+5u9DscqrQ6GVu6jpeGHWT5X39D2uAMVhQ2kP3fwBX/OrjjtCywZTDl6U/48JOtjMpO5ZWZ6fxnjCFgb+nvzmy2bN7MsJR4v0cGCxGMcfen/OjWW2lxHWXhBv+FeQwNldxr38jGOy5se4m1u7njzTKmfVwXch3AdsNArvoqgYeef4dDFgtzp+RSes1A7hnof7GfPTmdu59/j5aWFm4YHfgMeRFcsGF+rXIBaaYCdbhHiorE33mBn16f4tWmZjn0mTokzrI+ZV8wfsIEAJ+a4Rq7lQsqtrAsq5Y1f7ydadOns2lPAze+sY8bN9Z5XRvKdsNArt7Vh+sWv01V9QFmXJjFuhuz+M9ojc8LgD05nSdfehuAaef29WoTIpRLzqkhOzubL/bbfF5kOxL+1pty+MN9c0hLz+ClbbVkL98XdDrAnyeOZpL7Wg1/f30tBk0vHv3+CHZdmej3BWDHkIvY+OlGEo06mcLqBrfbGXSYP9s8Sx3qsaIi8WvQeOb5NRoTZvNc9SUeDQf/qw6JHiAnJ4c9tc2eno6xpoQfW7ex5qJevL/wZqZffSX7m1p5cHU5kz+o83mYhmOVPov8NUd4aOk6qqprmDE+h3U3ZvLO2Di+pzuxAPTTwxoaGxtJjg88LSCEP9kpbaOQZYdaoH3EKqG8kL/qdpxI+IMzWLGjlktfLj2pKnruOC331g9gyJIi3lq7hX4Jeh79/ghKZw7gL5lHPS+17jgdH3+8DoBvp/VR/VdEKFbrN1ExzE+0JH6AvpzolfXtG/iwBLe7CIsl8HCNOPPc8YmUlJQwLCWe5UMPsercgxT+9EKe/dVsCs4fwxf7m5n5Sgkj36wIOawfjidsyeSvOcJP/7GGHUVlTPlWLm/MHkPp95N5J/8IT/+g7czyhubwXjJO5rhhER322NpeFiel92J5Zh2bLo2j4pFrmDP7FvoNGMRL22q5dFkpN24+GHJYv6tcBhM/LDYyZEkRf1+xAY67+enUAjbPHs7W72hYltPEj269FYBPqo6ov12E4HIdUoc8ImmYn2hK/J3n+U2mc1GUPK/2zg4d9L8HU5wdR1LPZfmXh9i5u4wrJo7j/G9dQHlzL575pJpLl5UF7eHrrPUs7PUly4ce4l9jteSNGOFpy09wsHzoIf4zSgm6mO/FY6lM2nKcCc9s5e+rPuPgYTtj8odzxeWXsam4jhcLA//Cq919xbcZVZCPKaFJ3SRiyLtpk3n5va0ATJ86GX3iQD4pbeKON8sY9NJe7vg8cMI371rH8qGHWD70EE/NmebVtnzoIZYPs/J8QeB1Jy6DiXsPJJK94iBzXvqcleu/xKDXtf09+ibzQVFDl6cUhhkNPH/fHI4fP4qi+P8djBWKEnj75Iiku9ShHi2ij+VV+5IvcdP2y1RR8SoHDy5SX+KRn78WjcakDovTRH0s76k0xn6AZ68YyMj889RNALy0rfakhlID6Xws7zCjgR/PnMqwnCxSUmrQ631XZIvooj6W91T65TnF/ObHV/odPVIfD32qqI/lnZKVxk9+9AO02qOkppbTq5f/F5VY4XY72bXrdp/hfq1yAdfmvUcfzYkzQHq6qOnxA5g5sU2lf//veLWpuVzyYI4W2w0DmfCRk2Wvv+MVb3Ed5U8f7j8tSb+zC1P68cBPb2FYbjqpaeWS9MVJe+J4LpctWkVpWZlX/EwdD337JRfw09tvISHhCIMHl8V80gdQFC25uY+j1U70xEza6UzNfjmikj7R1uO3YqWUE+e07yl5isPNS72u6VBQsBFFCV7MRZw6p7PH39mP7YX84bYrsR+PY+HHtaf1Abnsqhy2bvmM88cUoNW2kDpovzwgY8jp7PF30FnrebHgONOnTuaD3RamrfM+0e9U6ujxH7Y2kzs8B1NCJX37ykusPw5HPTmcS399propIkRV4kc13G+zVVJcPFN9Campi0hJmaQOi9PIah3A3moT/ytqUDedcomatoEsi+uYuumUunlsGgB9DAdJSvK/V1tEr4rKfNZ/08D+w6e/FHimsTf7bEfV4VPqe8OTSYzXcvzYUQallqOJO30vzZHOgIHhDFeHI0bUJf4KKjjIiaFdm62S+voPOXz4Y/oYvkW/pIkkJo7y+h5x+h05ksiu0sgaDgvFpFMYNLAJU0J49QREdFi/PQtt7+iZLdXFKXD8KCOHy3x+KOmkk0yyOhwxoi7xO3BQROC9lkIIIcTJKKAABf9VPyNB9LyuttOjx0DgbRdCCCFEdyWRFNFJn2js8QNYsLCPE6e0CSGEEOGwWAppbi6mt9IHvSHNM0WcS65XmfhIFJWJ342bXezyLPITQgghuspfHZikpPkMz7g1ohf1dYi6oX4ABYUUgh/W08HtdsqJfUIIIQBoaNjik/QBDh5cRG/bqSsZfjZFZeIHQq64dDjq2VPyFF9+eRFFRd/jq6/mYbUWqy8TQggRI9xuJ9XVz6rDHg7b6a1DcqZEbeJXUEgiSR32KCv7s1dxH6dzPaWlN2GzVXpdJ4QQIjZUVCzzKckbjaI28QMMZKA6BIDVWozT6f+gnvLyJ3G7T39BDiGEED2H1VpMY2Pg3j5AummsOhSRojrxa9D47fU7HNXqkIfTuZ7aAx+qw0IIIaKU2+1k374/qMNeRiT9jb76tmqdkS6qEz9AGmk+ey6Nxmyvr9Vq6xbIkL8QQsSIvWXPBR3i1yoXMDbtNnU4YkV94ve3wt9oTCchfpZXTK209GEZ8hdCiCjncNQHPMytw+TM54lT9OpwxIr6xE/7Cn8t3ifxpQ3+odfXam53EXvLnlOHhRBCRBGbba865CXb/AfSTAXqcESLicSvoDCIQV4xvb4/6elPe8XUDjcvxWIpVIeFEEJECb3eOzd0plHO59sZv1SHI15MJH6ARBKJJ94rlpw8LuSQf1PTdnVICCFElDAa09FqJ6rDAEzJXBJVQ/wdYibxAwxhiDpE1tA5KEqeOuzhPhodlZqEEEL4N3ToA17Jv7cygkmZG6JuiL9DVNbqD6aWWqrx3s5ns1VSXDzTK9YhM3OJ53AGIYQQ0cvhqMftbqHAOAkTJnVz1IipHj9ACik+x/YajelkZi7xigEkxM+SpC+EEDFCr+/PYOOoqE76xGKPH8CBgyJ892zabJXYbKUAaDT9JOkLIUQMUVDIJ9+n9ku0icnED9BAA5VIkR4hhIh2LpcVq3U3brcdozEbozFdfQkA2WRHfW+fWE78ACWU0EyzOiyEECJKWCyFVFYu9qrMlxA/i2E5d3tdN4ABpBEdJXlDibk5/s6GMtSnsE9XWK3F1NZ+JMf4CiFED2axFLJv320+5XgPNy+ltvYjz9cGDDGT9In1Hj9B5vv9cTjqKSv7s9fJfgbDDHJy7kdRwn+BEEIIcXp0JP1AOnr9Cgp55KFBo74kasV0jx9Aj55MMtVhv6r2L/c5ztduX8nu3Q/hcNR7xYUQQpwdDQ1bgib9zrLJjqmkjyT+Nokk+j2+Vy3QQQ5O53qKi++TE/2EEOIsq6h4lcrKu9RhHwbDUDLJxIhR3RT1JPG3yyADM2Z1uMvc7iKKi2dKbX8hhDhLKipe5eDBReqwD4NhBiMG/oBEEtVNMUESfycZZPgU9+ksUD3nzvbtu42KilfVYSGEEKeRw1Hf5aQ/PudRhiq56qaYIYm/EwWFHHICJv/Bg+9Qh/w6eHAR1VWr1WEhhBCnSajjdWlP+gU5v4nppI8kfl8dyd/fNj+TKZfc3DeDHurTobZuAS6XVR0WQghxGmg0wadqE+JnUZDzG4YrI9VNMUcSvx8KCkMZ6rdso9GYTm7u411K/pL4hRDizDAahwR8LiclzWdUzoMMV0b6fa7HGkn8AejRk0uu35tEr+9Pfv4/MRhmqJu8aDTRX/pRCCF6AkXRkpv7uM9arPT0pxmecSs55Ph9nseimC/gE4obNyWUYMeubsLtdlJV9ZbfBSX+SkIKIYQ4/Tq2Vuv1A4hXzJL0VSTxd0Gw5E97sYjq6mc9ZSGTkuaTljZdqvkJIcRJcrmsHDiwhsbGVQCYzVd1+fmaRBJppEnSV5HE30Vu3JRRFvRQH5fL2qXh/a6eFCWEELHK7XZSe+BDausWqJswGGYwfPjD6rCXJJLIIEMdFpL4w1dBBQc5qA53mb/60Qnxsxg4aIa8AAghYp7b7aShYSO1tS/6HK7TWWbmEhITR6nDAKSTTjLJ6rBoJ4m/GyxY2Mc+dTgkt9vJrl23B7yZ5QVACBGruprwO6SmLiIlZZJXTEEhk0xMhB55jWWS+LvJho1SSnHjVjcFZLUWU1p6kzrsw2CYwYABVwd8mxVCiGjidjspKXkMu32luimg9PSnSU4e5/nagIEhDEGP3us64Uu283WTESP55BNPvLopILe7RR3yy25fyb59t7F79+9xu53qZiGEiCoWy46wkr6i5JGYONrzdRJJ5JAjSb+LJPGfhI4qf6mkqpv8MhqHqENB2e0rqap6Sx0WQoio0tS4TR0KSKud2F5ETesZ2s8gQ1buh0ES/ymQQgp55Pkt89uZRmMiPf1pdTio5uat6pAQQkQVpXfoo3EVJY/U1EWcd95i9Pr+GDCQR17MnrB3MmSO/xRy4+YAB6ijTt3kxWar5EDNSg43L1U3+VCUPAoKQl8nhBA9hdVajK25FLu9DID4hPNITr4o4N77UOufUgYsJGXgFE8vP6X9j+geSfyngQ0b+9kfsOBPh668ACQlzScj43p1GPzsc1WUPBISvkN8fB56/SDZHSCEOO1cLisOR60n0Qd6nhkMM8jJuT9g8q+uWu2zZz8paT4DB17hqY8STzxDGIIGjdd1IjyS+E+jBhqopjrkyv9ALwCKkkde3t8CFgWqqHjVb7ngzrTaiRgMI4iPz/NaASuEECfD7Xayt+w5n+dWMMH23gM4HPXYbHtRFD1G4xDPs0+LlsEMlm16p4gk/tPMjZsqqrpU9MfhqMdq/Qq7vZz4+LZVq4Hejl0uK7t2TVaHg+pKtSuXy0pD/aeeITp/NNoUDIb0oH+/ziyWQpqbi3E5a9VNHgbDUEx987s0SuF2O7FYdgRdEKT0NmIwDCExcUzAF6fObLZKrE27Qn7u+PjcoA+uziyWQpqatuM+alM3ecQnnNfl6o0ulxWLZTvNh79SN3kovY0h753ObLZKDh3aEvJnozekdelzd/xsmpuLQn7urv5s5J4M/rlP9T3Z1c+9p+SpsJI+AfbeB9MxrJ9MsizeO4Uk8Z8hLlwc4ECXXgC6wmarpLh4pjocUrA3bn9VBYMJNXRHF0clOlPvzVVzOOopLr6vSwU+aB81yc19HL2+v7rJI9zPbTbPJStrtjrs0Z09ycF+LnTjc2u1Exk+/I+n9GcTbNqJbnxuRckjO/v3QRNMuD8buSf9C/dnQ4h7sjsdD8JM/EkkMZCBMqx/Gsiq/jNEg4YMMsglFzNmdXPYutJj8Kepabs65FFZuVgdCspuX0lDw0Z12MNiKQzrAQtQWXkXLpdVHfY4cGBVlx+wAG53EVX7l6vDHi6XNawHLEBj47NYLIXqsEe4e5Jp/7cPVrOhrOzPYX1up3N90K2gDkd92D+bgwcXeU4986eq6q2wPrfbXUR5+ZPqsBe5J7vmTN+Twf49gklMHKMO+UgiiXzyySBDkv5pIon/DDNiJIss8skniSR1c5dpNCZSBixUh0PSagaoQ9A+ghDOw6tDsGFnl+uQOtQlVutudcijsfFZdSikYMOR3X2ABXuBCjbcG4jbXYTDEXg3iNO5Xh0KqeM0M3+s1sA/t2BstlJ1yCPYsHkgTud6HI56dRjkngzbmbwn9Xr/z5FAFCWPzMwlATssCgoDGCAJ/wyRxH+WdIwA5JNPKqndmr9KGTgl7ORv6puvDvU4itLzq28pSuh9x2db796RcUhJsGH5nkLuSW+Kog357NFqJ5KUNJ/MzCXk5//T77SBFi3ppJNPPmmkScI/QyTxn2UaNKSQQgEFZJIZ1jSAomhJTbuSMWM+Jzf3TdLTn8ZsnotWO1F9KbTvhQ00n2o0pgf8vmD6mseqQx5GY7Y61CXBKhwmJc1Xh0Iym+eqQx56/QAUJU8dDik+Plcd8uiXFP6/o6LkBfzZ0H6AU7ji4y9Uhzy6MuTqj8l0njrkEZ8QuC0QrXZiwF6g3JPhOdX3pFY7Meg9mZp2JampizAYZkD7PZoyYGF7ol/LeectJiPjehITR/m83CWRRC65nMd5snDvLFB++9vf/lYdFGeHHj1mzCSRhA4dre1/ukKjMdGnTxpm82j697+CAQN+hMl0FX36fBuT6Xukpt5FYr8Tta39iY8fjcWyg+PHG9RNfpnNc0lLu1od9tBoTLS29sVuDzznqpaZuQSjMfAZ2vHx2Rw+bKG19Rt1k18GwwyGDr2TXr16q5sA6NWrNxpNFk1Nb6ubAmrbWxx4YZNenxLW5+5Y7BUX10fd5GEwZIb1szEYZpCZOTvg51YUHTrdhWF97szMJSQkDFWHPfT6QWH9bBQlj2HDHgn6ucO9J5OS5jNo0BXqsIfck1373F352QAYjZkkJ1/CoEF30K/fhSQk5KDXp6AoOvWlmDEzkIEMYQhmzNK7P4tkVX8P58KFFSvNNNNIo7r5lOvYluR2By8+pNenYjIF7mF01rFNMRhFMWAyDQ/Y+1OzWApDztdqNP0wmc716W3443JZsVp3h/zcJtN5QVdjd2azVQadEyfMz+12O7Favwn5ucP52XRsEQwlnM9ttRbjcFSrw17C+dnIPRn8c4fzs+nKPRnO3zEYBYUEEuhLX0yYpFffg0jijzAdLwF27DTTrG4WQoizJp54EkjA2P5H9EyS+COcDRsOHNix48QpLwNCiDMinngMGNCixYhRjsSNIJL4o5Cr/Y8DB27cONv/0F5JMNQZAkKI2GbA4BmaN2CgN73RtP/Ro5dh+wgniV8IIYSIIbKdTwghhIghkviFEEKIGCKJXwghhIghkviFEEKIGCKJXwghhIghkviFEEKIGCKJXwghhIghkviFEEKIGCKJXwghhIghkviFEEKIGCKJXwghhIghkviFEEKIGCKJXwghhIghkviFEEKIGCKJXwghhIghkviFEEKIGCKJXwghhIghkviFEEKIGPL/AeQJL4wK26yqAAAAAElFTkSuQmCC;imageBorder=default;" parent="1" vertex="1">
          <mxGeometry x="-2473.46" y="1117" width="490.91" height="437" as="geometry" />
        </mxCell>
        <mxCell id="lZpWyIr3AbtwXoO6nz6H-6" style="edgeStyle=orthogonalEdgeStyle;curved=1;rounded=0;orthogonalLoop=1;jettySize=auto;html=1;entryX=1;entryY=0.25;entryDx=0;entryDy=0;strokeColor=#FF0000;dashed=1;" edge="1" parent="1" source="KE77L9WXBN6WNrBAQjAJ-2" target="batxA4M3d1ItoKZKUvxp-33">
          <mxGeometry relative="1" as="geometry">
            <Array as="points">
              <mxPoint x="-2408" y="215" />
              <mxPoint x="-2408" y="931" />
              <mxPoint x="-2908" y="931" />
              <mxPoint x="-2908" y="921" />
            </Array>
          </mxGeometry>
        </mxCell>
        <mxCell id="lZpWyIr3AbtwXoO6nz6H-10" value="" style="edgeStyle=orthogonalEdgeStyle;curved=1;rounded=0;orthogonalLoop=1;jettySize=auto;html=1;" edge="1" parent="1" source="KE77L9WXBN6WNrBAQjAJ-2" target="KE77L9WXBN6WNrBAQjAJ-36">
          <mxGeometry relative="1" as="geometry" />
        </mxCell>
        <mxCell id="lZpWyIr3AbtwXoO6nz6H-11" value="" style="edgeStyle=orthogonalEdgeStyle;curved=1;rounded=0;orthogonalLoop=1;jettySize=auto;html=1;" edge="1" parent="1" source="KE77L9WXBN6WNrBAQjAJ-2" target="KE77L9WXBN6WNrBAQjAJ-36">
          <mxGeometry relative="1" as="geometry" />
        </mxCell>
        <mxCell id="KE77L9WXBN6WNrBAQjAJ-2" value="" style="image;aspect=fixed;perimeter=ellipsePerimeter;html=1;align=center;shadow=0;dashed=0;spacingTop=3;image=img/lib/active_directory/internet_cloud.svg;" parent="1" vertex="1">
          <mxGeometry x="-2331.5" y="117" width="206" height="129.78" as="geometry" />
        </mxCell>
        <mxCell id="KE77L9WXBN6WNrBAQjAJ-30" style="rounded=0;orthogonalLoop=1;jettySize=auto;html=1;" parent="1" edge="1">
          <mxGeometry relative="1" as="geometry">
            <mxPoint x="-2426.7082634381154" y="498.78" as="sourcePoint" />
            <mxPoint x="-2425" y="730" as="targetPoint" />
          </mxGeometry>
        </mxCell>
        <mxCell id="KE77L9WXBN6WNrBAQjAJ-34" style="rounded=0;orthogonalLoop=1;jettySize=auto;html=1;" parent="1" edge="1">
          <mxGeometry relative="1" as="geometry">
            <mxPoint x="-2043.9982634381154" y="496.55999999999995" as="sourcePoint" />
            <mxPoint x="-2042.29" y="727.78" as="targetPoint" />
          </mxGeometry>
        </mxCell>
        <mxCell id="KE77L9WXBN6WNrBAQjAJ-36" value="DDOS Protection" style="text;html=1;align=center;verticalAlign=middle;whiteSpace=wrap;rounded=0;fillColor=default;fontStyle=1" parent="1" vertex="1">
          <mxGeometry x="-2283" y="318.78" width="110" height="30" as="geometry" />
        </mxCell>
        <mxCell id="KE77L9WXBN6WNrBAQjAJ-37" value="Perimeter Firewall" style="text;html=1;align=center;verticalAlign=middle;whiteSpace=wrap;rounded=0;fillColor=default;fontStyle=1" parent="1" vertex="1">
          <mxGeometry x="-2285" y="444.78" width="110" height="30" as="geometry" />
        </mxCell>
        <mxCell id="KE77L9WXBN6WNrBAQjAJ-38" value="&lt;b&gt;External F5&lt;/b&gt;" style="text;html=1;align=center;verticalAlign=middle;whiteSpace=wrap;rounded=0;fillColor=default;" parent="1" vertex="1">
          <mxGeometry x="-2286" y="570" width="110" height="30" as="geometry" />
        </mxCell>
        <mxCell id="KE77L9WXBN6WNrBAQjAJ-41" value="" style="endArrow=classic;startArrow=classic;html=1;rounded=0;exitX=1;exitY=0.5;exitDx=0;exitDy=0;movable=1;resizable=1;rotatable=1;deletable=1;editable=1;locked=0;connectable=1;dashed=1;" parent="1" target="KE77L9WXBN6WNrBAQjAJ-12" edge="1">
          <mxGeometry width="50" height="50" relative="1" as="geometry">
            <mxPoint x="-2389" y="764" as="sourcePoint" />
            <mxPoint x="-2200" y="763" as="targetPoint" />
          </mxGeometry>
        </mxCell>
        <mxCell id="KE77L9WXBN6WNrBAQjAJ-40" value="&lt;b&gt;&lt;font style=&quot;font-size: 14px;&quot;&gt;External Firewall&lt;/font&gt;&lt;/b&gt;" style="text;html=1;align=center;verticalAlign=middle;whiteSpace=wrap;rounded=0;fillColor=default;" parent="1" vertex="1">
          <mxGeometry x="-2293" y="750" width="129" height="30" as="geometry" />
        </mxCell>
        <mxCell id="KE77L9WXBN6WNrBAQjAJ-42" value="" style="endArrow=classic;startArrow=classic;html=1;rounded=0;exitX=1;exitY=0.5;exitDx=0;exitDy=0;entryX=0;entryY=0.5;entryDx=0;entryDy=0;movable=1;resizable=1;rotatable=1;deletable=1;editable=1;locked=0;connectable=1;dashed=1;" parent="1" edge="1">
          <mxGeometry width="50" height="50" relative="1" as="geometry">
            <mxPoint x="-2380" y="963" as="sourcePoint" />
            <mxPoint x="-2071" y="963" as="targetPoint" />
          </mxGeometry>
        </mxCell>
        <mxCell id="KE77L9WXBN6WNrBAQjAJ-43" value="&lt;b&gt;&lt;font style=&quot;font-size: 14px;&quot;&gt;External Firewall&lt;/font&gt;&lt;/b&gt;" style="text;html=1;align=center;verticalAlign=middle;whiteSpace=wrap;rounded=0;fillColor=default;" parent="1" vertex="1">
          <mxGeometry x="-2287" y="945" width="129" height="30" as="geometry" />
        </mxCell>
        <mxCell id="KE77L9WXBN6WNrBAQjAJ-45" style="edgeStyle=none;rounded=0;orthogonalLoop=1;jettySize=auto;html=1;exitX=0.5;exitY=1;exitDx=0;exitDy=0;entryX=0.074;entryY=0.01;entryDx=0;entryDy=0;entryPerimeter=0;" parent="1" edge="1">
          <mxGeometry relative="1" as="geometry">
            <mxPoint x="-2030" y="802" as="sourcePoint" />
            <mxPoint x="-2027" y="1114" as="targetPoint" />
          </mxGeometry>
        </mxCell>
        <mxCell id="KE77L9WXBN6WNrBAQjAJ-44" style="edgeStyle=none;rounded=0;orthogonalLoop=1;jettySize=auto;html=1;exitX=0.5;exitY=1;exitDx=0;exitDy=0;entryX=0.074;entryY=0.01;entryDx=0;entryDy=0;entryPerimeter=0;" parent="1" edge="1">
          <mxGeometry relative="1" as="geometry">
            <mxPoint x="-2430" y="806.78" as="sourcePoint" />
            <mxPoint x="-2426.67266" y="1119.37" as="targetPoint" />
          </mxGeometry>
        </mxCell>
        <mxCell id="batxA4M3d1ItoKZKUvxp-41" style="edgeStyle=orthogonalEdgeStyle;rounded=0;orthogonalLoop=1;jettySize=auto;html=1;endArrow=none;startFill=0;" parent="1" source="KE77L9WXBN6WNrBAQjAJ-14" target="batxA4M3d1ItoKZKUvxp-29" edge="1">
          <mxGeometry relative="1" as="geometry">
            <Array as="points">
              <mxPoint x="-2565" y="966" />
              <mxPoint x="-2565" y="947" />
            </Array>
          </mxGeometry>
        </mxCell>
        <mxCell id="KE77L9WXBN6WNrBAQjAJ-14" value="" style="shape=image;verticalLabelPosition=bottom;labelBackgroundColor=default;verticalAlign=top;aspect=fixed;imageAspect=0;image=https://www.svgrepo.com/show/331527/palo-alto-networks.svg;" parent="1" vertex="1">
          <mxGeometry x="-2463" y="926.78" width="78" height="78" as="geometry" />
        </mxCell>
        <mxCell id="KE77L9WXBN6WNrBAQjAJ-48" style="edgeStyle=orthogonalEdgeStyle;rounded=0;orthogonalLoop=1;jettySize=auto;html=1;exitX=1;exitY=0.5;exitDx=0;exitDy=0;entryX=0;entryY=0.5;entryDx=0;entryDy=0;endArrow=none;startFill=0;" parent="1" source="KE77L9WXBN6WNrBAQjAJ-16" target="KE77L9WXBN6WNrBAQjAJ-19" edge="1">
          <mxGeometry relative="1" as="geometry" />
        </mxCell>
        <mxCell id="KE77L9WXBN6WNrBAQjAJ-16" value="" style="shape=image;verticalLabelPosition=bottom;labelBackgroundColor=default;verticalAlign=top;aspect=fixed;imageAspect=0;image=https://www.svgrepo.com/show/331527/palo-alto-networks.svg;" parent="1" vertex="1">
          <mxGeometry x="-2070" y="924" width="78" height="78" as="geometry" />
        </mxCell>
        <mxCell id="batxA4M3d1ItoKZKUvxp-9" value="" style="strokeColor=#666666;html=1;labelPosition=right;align=left;spacingLeft=15;shadow=0;dashed=0;outlineConnect=0;shape=mxgraph.rack.f5.big_ip_6900;" parent="1" vertex="1">
          <mxGeometry x="-2520" y="567.78" width="168" height="40" as="geometry" />
        </mxCell>
        <mxCell id="batxA4M3d1ItoKZKUvxp-27" value="" style="strokeColor=#666666;html=1;labelPosition=right;align=left;spacingLeft=15;shadow=0;dashed=0;outlineConnect=0;shape=mxgraph.rack.f5.big_ip_6900;" parent="1" vertex="1">
          <mxGeometry x="-2120.5" y="565" width="168" height="40" as="geometry" />
        </mxCell>
        <mxCell id="batxA4M3d1ItoKZKUvxp-29" value="" style="strokeColor=#666666;html=1;labelPosition=right;align=left;spacingLeft=15;shadow=0;dashed=0;outlineConnect=0;shape=mxgraph.rack.f5.big_ip_89x0;" parent="1" vertex="1">
          <mxGeometry x="-2766" y="921" width="168" height="40" as="geometry" />
        </mxCell>
        <mxCell id="lZpWyIr3AbtwXoO6nz6H-1" value="" style="edgeStyle=orthogonalEdgeStyle;rounded=0;orthogonalLoop=1;jettySize=auto;html=1;entryX=1.01;entryY=0.81;entryDx=0;entryDy=0;entryPerimeter=0;endArrow=none;startFill=0;" edge="1" parent="1" source="batxA4M3d1ItoKZKUvxp-30" target="batxA4M3d1ItoKZKUvxp-33">
          <mxGeometry relative="1" as="geometry">
            <Array as="points">
              <mxPoint x="-2834" y="1022" />
              <mxPoint x="-2834" y="1021" />
            </Array>
          </mxGeometry>
        </mxCell>
        <mxCell id="batxA4M3d1ItoKZKUvxp-30" value="" style="strokeColor=#666666;html=1;labelPosition=right;align=left;spacingLeft=15;shadow=0;dashed=0;outlineConnect=0;shape=mxgraph.rack.f5.big_ip_89x0;" parent="1" vertex="1">
          <mxGeometry x="-2766" y="965" width="168" height="40" as="geometry" />
        </mxCell>
        <mxCell id="batxA4M3d1ItoKZKUvxp-42" style="edgeStyle=orthogonalEdgeStyle;rounded=0;orthogonalLoop=1;jettySize=auto;html=1;endArrow=none;startFill=0;" parent="1" edge="1">
          <mxGeometry relative="1" as="geometry">
            <mxPoint x="-2465" y="966" as="sourcePoint" />
            <mxPoint x="-2598" y="983" as="targetPoint" />
            <Array as="points">
              <mxPoint x="-2565" y="966" />
              <mxPoint x="-2565" y="983" />
              <mxPoint x="-2598" y="983" />
            </Array>
          </mxGeometry>
        </mxCell>
        <mxCell id="batxA4M3d1ItoKZKUvxp-43" value="" style="group;fillColor=#A9C4EB;strokeColor=none;" parent="1" vertex="1" connectable="0">
          <mxGeometry x="-2933" y="876.84" width="100" height="177.88" as="geometry" />
        </mxCell>
        <mxCell id="batxA4M3d1ItoKZKUvxp-33" value="" style="rounded=1;whiteSpace=wrap;html=1;arcSize=6;" parent="batxA4M3d1ItoKZKUvxp-43" vertex="1">
          <mxGeometry width="100" height="177.88" as="geometry" />
        </mxCell>
        <mxCell id="batxA4M3d1ItoKZKUvxp-34" value="&lt;font style=&quot;font-size: 10px;&quot;&gt;DEFENDER1&lt;/font&gt;" style="rounded=0;whiteSpace=wrap;html=1;fillColor=#f5f5f5;strokeColor=#666666;gradientColor=#b3b3b3;" parent="batxA4M3d1ItoKZKUvxp-43" vertex="1">
          <mxGeometry x="10" y="11" width="80" height="24.88" as="geometry" />
        </mxCell>
        <mxCell id="batxA4M3d1ItoKZKUvxp-37" value="&lt;font style=&quot;font-size: 10px;&quot;&gt;DEFENDER2&lt;/font&gt;" style="rounded=0;whiteSpace=wrap;html=1;fillColor=#f5f5f5;strokeColor=#666666;gradientColor=#b3b3b3;" parent="batxA4M3d1ItoKZKUvxp-43" vertex="1">
          <mxGeometry x="10" y="44.879999999999995" width="80" height="24.88" as="geometry" />
        </mxCell>
        <mxCell id="batxA4M3d1ItoKZKUvxp-38" value="&lt;font style=&quot;font-size: 10px;&quot;&gt;DEFENDER3&lt;/font&gt;" style="rounded=0;whiteSpace=wrap;html=1;fillColor=#f5f5f5;strokeColor=#666666;gradientColor=#b3b3b3;" parent="batxA4M3d1ItoKZKUvxp-43" vertex="1">
          <mxGeometry x="10" y="78.12" width="80" height="24.88" as="geometry" />
        </mxCell>
        <mxCell id="batxA4M3d1ItoKZKUvxp-39" value="&lt;font style=&quot;font-size: 10px;&quot;&gt;DEFENDER4&lt;/font&gt;" style="rounded=0;whiteSpace=wrap;html=1;fillColor=#f5f5f5;strokeColor=#666666;gradientColor=#b3b3b3;" parent="batxA4M3d1ItoKZKUvxp-43" vertex="1">
          <mxGeometry x="10" y="110.88" width="80" height="24.88" as="geometry" />
        </mxCell>
        <mxCell id="batxA4M3d1ItoKZKUvxp-40" value="&lt;font style=&quot;font-size: 10px;&quot;&gt;DEFENDER5&lt;/font&gt;" style="rounded=0;whiteSpace=wrap;html=1;fillColor=#f5f5f5;strokeColor=#666666;gradientColor=#b3b3b3;" parent="batxA4M3d1ItoKZKUvxp-43" vertex="1">
          <mxGeometry x="10" y="143.88" width="81" height="24.88" as="geometry" />
        </mxCell>
        <mxCell id="lZpWyIr3AbtwXoO6nz6H-2" value="" style="edgeStyle=orthogonalEdgeStyle;rounded=0;orthogonalLoop=1;jettySize=auto;html=1;entryX=1.01;entryY=0.81;entryDx=0;entryDy=0;entryPerimeter=0;endArrow=none;startFill=0;" edge="1" parent="1" source="batxA4M3d1ItoKZKUvxp-29">
          <mxGeometry relative="1" as="geometry">
            <mxPoint x="-2764" y="902" as="sourcePoint" />
            <mxPoint x="-2830" y="901" as="targetPoint" />
            <Array as="points">
              <mxPoint x="-2682" y="902" />
              <mxPoint x="-2832" y="902" />
              <mxPoint x="-2832" y="901" />
            </Array>
          </mxGeometry>
        </mxCell>
        <mxCell id="lZpWyIr3AbtwXoO6nz6H-3" value="DMZ Defender&amp;nbsp;&lt;div&gt;in K8S&lt;/div&gt;" style="text;html=1;align=center;verticalAlign=middle;whiteSpace=wrap;rounded=0;fontStyle=1" vertex="1" parent="1">
          <mxGeometry x="-2926" y="1057.72" width="87" height="30" as="geometry" />
        </mxCell>
        <mxCell id="lZpWyIr3AbtwXoO6nz6H-4" value="DMZ F5 LTM" style="text;html=1;align=center;verticalAlign=middle;whiteSpace=wrap;rounded=0;fontStyle=1" vertex="1" parent="1">
          <mxGeometry x="-2673" y="891" width="87" height="30" as="geometry" />
        </mxCell>
        <mxCell id="lZpWyIr3AbtwXoO6nz6H-8" style="edgeStyle=orthogonalEdgeStyle;curved=1;rounded=0;orthogonalLoop=1;jettySize=auto;html=1;entryX=0;entryY=0.25;entryDx=0;entryDy=0;strokeColor=#006600;dashed=1;endArrow=none;startFill=0;" edge="1" parent="1" target="KE77L9WXBN6WNrBAQjAJ-19">
          <mxGeometry relative="1" as="geometry">
            <mxPoint x="-2833" y="997" as="sourcePoint" />
            <Array as="points">
              <mxPoint x="-2833" y="986" />
              <mxPoint x="-2324" y="986" />
              <mxPoint x="-2324" y="933" />
            </Array>
          </mxGeometry>
        </mxCell>
        <mxCell id="lZpWyIr3AbtwXoO6nz6H-9" value="" style="group" vertex="1" connectable="0" parent="1">
          <mxGeometry x="-2966" y="830" width="163" height="51" as="geometry" />
        </mxCell>
        <mxCell id="batxA4M3d1ItoKZKUvxp-24" value="" style="rounded=1;whiteSpace=wrap;html=1;movable=1;resizable=1;rotatable=1;deletable=1;editable=1;locked=0;connectable=1;arcSize=17;align=center;verticalAlign=top;fontStyle=1;fontSize=14;fillColor=#ffe6cc;strokeColor=#d79b00;" parent="lZpWyIr3AbtwXoO6nz6H-9" vertex="1">
          <mxGeometry width="163" height="51" as="geometry" />
        </mxCell>
        <mxCell id="batxA4M3d1ItoKZKUvxp-25" value="Cequence Defender Pool" style="text;html=1;align=center;verticalAlign=middle;whiteSpace=wrap;rounded=0;fontStyle=1;fontSize=14;" parent="lZpWyIr3AbtwXoO6nz6H-9" vertex="1">
          <mxGeometry x="50" y="9" width="99" height="30" as="geometry" />
        </mxCell>
        <mxCell id="batxA4M3d1ItoKZKUvxp-26" value="" style="shape=image;verticalLabelPosition=bottom;labelBackgroundColor=default;verticalAlign=top;aspect=fixed;imageAspect=0;image=data:image/png,iVBORw0KGgoAAAANSUhEUgAAAKQAAACsCAYAAAD15gcsAAAAAXNSR0IArs4c6QAAAARnQU1BAACxjwv8YQUAAAAJcEhZcwAADsMAAA7DAcdvqGQAACH9SURBVHhe7X15cJ3Xfd0B3r5hBwhwEylS1E5LoiQ7lijJsh0r8lKncRLLjj1O4naSzHSa6Uymf3TapDOdTjuajpoqjV1bybiWa1uyrJ02JVMSV3ERSXADSYAASILYd7yHt78H9JwLQNLIlESCeHjbPfLje8B7z/i++53v/H7n3t+9t2KWgIVFgaBy/tnCoiBgCWlRULCEtCgoWEJaFBQsIS0KCpaQFgUFS0iLgoIlpEVBwRLSoqBgCWlRUMj70GE8mUY2OwOn0wGv2zn/W4tyRd4JeaF/HGPhGFwk5Ir6IGqCPnhclpjlirwTspOEbO0cQEfvKFKZGdx/yxps2bgCdTVBvlsx9yGLskHec8gZ3g/DUzEcbh/Atv0deOlAB7YfPY/j5/oxOjmNPN8vFsuMvBNSGpjKZDE2ncD5/gnsPtGDX+w+jWd2teHtth70j0aQYY5pUR4oCEI6nZVwe5yorKhA3/AU9py4iF/ubcfz+9qx49h5tF0YNnmmQrrVy9JG4XT7kJkORwV8ATeqqv3Iknp72i7hv/7yAP7zT3fj2TePo3doAjMzlpKljILqh6RAwlFZgUo+RLtkOovJiWkc7x7Ccwe78NTrx/HivjPo6BlBMpma+5JFSaGgCGlYuPAgOz0uB/xuB+LJDM5cGsO2g+fw3J7T2PbOORxo70fv6BSiiZQ1PiWEwiLkB1DJEF7hdMDFZ0cmgwm67tbuYbx0qAtPv3nKkPPk+UFMTMfN5y0tix8FTUilizI96jT3+txw+1xIxFPoOj+M1/Z34AevHcPzb7fjwJk+XBiaRDKVmfuiRdGioAn5fsyKmQzjFVJNVyVmHEA4msRrBzvxvVcO46lfH8We492YiMTmvmBRlCgKQpq0kv/oUelQF5ELPq+bobwSA+PTONzRb/LKn+05g+f3neXPfaabyKL4UDQK+X7IxBgjQ8UMBj1w0/gMTcaw/dgFfP/VI/i/rx/DnpMX0E/TE0ukkbVdRUWDoiTkAnTwppuISulgtulgDjlCxdzLnPJHb7XhfzGUv3qwHef7x+1oT5GgqAkpmDBOpXQxr1Qoh7MSY1TL4yTltr1n8eyu09h2uBOtXQMYm4paYhY4ip+Q88/qTDdKSULKmidTaYxOkZhdQ3iFjvz/vXES2w91oKt/DHG+Z1GYKHpCLkBKqcohMdSlDvWQD8FqL5LpDI53DuIFGh6R8tUD7XinvR/9DO3pTHb+2xaFgpIh5Ach0zPD6Ox0OxEMeFBB9Wzrm8Dfv3wEf/uTPfin7a04fX7QVKtbFA5KlpAL0Pi4+i6ZaJr8MR5LopNhe/ux8/jBjpP4/q+OYNeJCxikYlrkHyVPyAUox3TT+AR9ND6Uzp7BCbx5pBs/f+skfslwvuvkRZyjG5+OJ+e/YZEPlAUhNcijE3WqU93rNkUbFaokmpxGx6UxKuRFvPj2Wby4vx1Hz/VjxFSqm69aLDPKRiHFL/WPK2zPqpvI60KwisYn6DXdQbtaz+NHO44b47Pz+EWcH5pEJJ5CxjJzWVE2hLwcFqgm4+OgaoYjCew+2YPHXziIv/3pbry8rw0X+8ZtUfAyorwJOc8zzQn3kJQK7RPTCZzrGcUeGp3n9nfgWeaXrx3uRBfzy1jCFgXnGmVNyPcwx0wHc0yfx4kaGp8Z5piHOofwi72n8WOG8pf2ncGx7kGMhzXak31PXi2WFJaQxHx/unHiTpcTTo/LkBOJNEbHwmbe+MuHu/H0rjPYfvgcOi+NWLXMESwhPwCN9uihYUiv10lX7jJze7ovjWLHgQ789M1TePlQJ45SLVVhlEjZ0Z6lhCXkR0CkrKh08FGBLEkajidxumcML7/dge+9egT/+1dH8GZrJwbHI/PfsLhWWEJ+BGSupZYVlVRLnxuBgAfpzCzOXBjBKyTlj35zHD/beQpvtHajo28M4VjCOvJrhCXklULE5JNToz0hL2pCHpCd2Nk+iH/8VSv+8cWD2HGkCwNUS1vitnhYQl4lZHxcWmnD6dDwOGYZxvuHJ01R8LP7OsxsyB2tXegbmZz/hsXVwBJyMTAVG2w8DUWSnArSI1MxHD3bh5f3ncazO9vw2pFudA2Mmym6tsztymEJuQiYOT18riAxNcKjriKF8wjJ19k7hj0ne/DCvrP4+Vtt2HG0G+29o4jEbNHGlcAS8hohDyOCmtyyygtfwIdYMoODbb148vmD+IeXDpGcZ3Dq4hCiWi3Ymp6PhCXkEoGcNOTUpDOX2wmv3w2Xx4GLI2H8cv85PPHiO/g/rxxCa0cfUnZBgw+FJeQSQ+mlVnFzM5RrKkU6M4PhsQiOdQ7g18wrn2Eof2F/O453DWJkMmqIbPEeLCFzAON5zINqKePDR4phvGtwEttJyqffOIFnd7fhwJle9NChaxhyRvMtLCwhc4GF8C3MTc+V8alElqF6eGgKRzr66cK78CqVcvs753C0sx9Dk9NmNKjckXdCyp2WMkRM9ZOrW12O3B/0wONxYjwSx+4TF/DUa8fw1PZW/IZuXMvCaJXgckbeCanmN2qih4lz+m1pwnQTaWnByrm+y2g6a0h4sL0fz+w6jR9sO4wdh8+hj2G8XJPLvBOS6ZUhoYbbFNJms3MXQtwsRSzwrJKklBvXPJ/J6SRau4bwIg3Ps3vPmGqifacvoZcOXRtLlRPyTki/ywk/L4wuUGWGV2teLks9lC9AqqlhSFdlBSI0Nzuplt+j6Xn8xYN4+jfHcLZn+N2ZkOUgmo6/I+Zf5wUiorpGYukMxrJZE8KllNlU1lwAKYguWqleCxPGSUazBAyRiqcwPRnFKEP5cDiGpOaSJ9K8T2fhozkq9V3O8k5I5VNVfi+aa4NoCPmQTacxGUshbApfZ81CUpJLkbNUw/h751VhCjZ0zjN8HeeNOTAcRs/wFCaiCbaVAzVsIzONt0QbI++EVMNqHksLCbm6LojagAcBvwcVbPRwPI1oJIE0yamaRBkCXYcS5aWBpk44nUxh+KzayvFwHENUzKGJGJ15AtPJFM9/Fn6PqyTVMu97HV4Ow+NhU871k73taDvZg+lYEg6fC5XOCjglIeaSlAl4uhnekJpGofSmpTGIL9y5Hr971wZsvr4FAd7MGhEykaQEUJCElOPWdNTO4Um0dY/g0NleMwbcMzhpQprH64LT7aJazmLW9PGVNqSUs/NFv5UkXyDoQ3NNALe01OL+W1bj07euwarGavN+sSPvIftyUBGsjyGpqcqHNWzoxiqv2UtbW4QwdiPFi6MCBZkfMdQ4dCpEqRKTiYppE5kf9YpFmU+O0fQMjITRz5A+EU0iRQXVMKU63Z1sj+WG2j5FbdPx6VosVq8LkpCCIpAcdsjnJiH9aGZ+2VwfMgm9Cl6jdKOx9Iy5UPyfaZCSNT48J000mzs5PnhDZngzqjtoYCqGQT4UVRpCHjRUB0xuuVzNoHaf4nUY4vFM8qZw8BjdunkWeSEKlpDvh1aVaK4LYUNzDepoerSK2QxPOsmTNl1EJKjqDNV7qQu3XBcjH9D2KLoJjcvmHai11d1MX1rqAti0shYt9VXwipDL0AhSxNF0BvunEjgSTmA0k8FKplMBCsliCVmQOeSHQUeq/rjpWALdA+PY3dZjdozt7B0nKWfMGj0q+1LEKp6zujpoU9JMMmuqh3zuStx94yr83idvwIOb12FDS50h6nKQMUkB6KFC7x2L4p+HIrhIYXigzof/sXEFmq5BoYuKkO9HIpXGJeZQpy6OmOqZY52DZn1H5VfqMnExB9XFMZMNipicUkMdvqKA3LYGEtc2hnDz6nrcel0TNm9YgVvWNmEl0xmlOLnFrCn+aIum8OZkDHuZvw4k0uieTmKWf/rhhiCe3NRCQjLXXySKlpCCwrTyyY7eMRw4cwkH2/twvm8cg5NRRNhQupJm2xAnTQ+fhWI4W6NwPE6zigbPT88aQAjwJlvB1OWeG5tx3y1rcPv1vPi1ASolb765r+YMsWwWQ8kUOknGnZMJ7JiI4eQ0b34erIvvVTM6Pcgb5XGjkGVKyAWkmMdoSeZOKuSpi8PYw1B+vHMI8VjKXF0zEYuk1EUrhuKuBXJp/fNUMs18DGisCeLm9Suw9dY1uJMXfeOqetSF/POfzA1EDNVoRjKzOBuN4wBv9EPMFU/E0hjVhlQ8PjOqxOcQ3f1DTSH8dyp2I9t7sTdISRBS0FlkZ2bMfOjdJy9i58lL6BycwlA4hoSKE6g0IqcWvy9k46NzmCsw4eHyWH0aVq3x4/Y1DVTF1bj/1rUkZ8BsSJpLqPtmikS7ROKdZRr0NkP0frr5i/EMCahhXRrK+ahTyTAecjvwAAn5OAlZ9gr5fqj7Y4oN2D8WMaFcavn2mV6cH5qCgxZV29AZtVRbFtCZ63h0JZLME1O8ebRm5ZqGED531zp8+ua1uIGK2KAVM4K+d9OPXGKAynyQJHyNpuUMQ/MATYsIGuf9ompOc0vPH4Yl5BUizDBzonsY+2l6Dp/rR3fPGIan4ybUqPNYFTZzHer8Lx+tYK4p/z7/uI5JxsXldBoF3ETTsoUGQSMxMi8aKFgODJKIXUx1DkcS2EdCHqFxGaWjV6qjYdvLFXVYQl4FdHbjvMNPdg9g+4EOHOoaxNDYtNlbWyHHeFiF8ss0dK6gv6RGn1XfKQ9Qa57rEgZ5IVc1VeNTN63GQ59Yh7tuWknD4jY5ZC6hPFGlqMNsk52MLHLQhyNJ9CazPMYZo94fdQiWkFcJnWGYd/2FwTG0M4wfbqdi8nGubxQJNrqZR+3VIqVzza7P56pRFG1F/gzVMBFPm2etQbmJOeJDt8k5r8BNqxuwurEaIb9n/lu5xYV4CkephPsnaVwYQc5TEc0o2HwuO/MxN4Ql5CKgs5Qb15Bj28UR7DvTg/1n+9A1HDHVRIyZqKAaSK3MupA5UEwpopnuKmXk/38FbwTVN25sqsKnb1xpOrfXt9Qi5PO8W5icKySYIgySeBcSGRwhCRWeTzBMx3Wj6DiVTOjm4Wc/jiCWkNeISDSJS2NhdA9N4kjXEE50DqCLyjkSiRvSqJxroZNZjbMktOD/kfLEJC+4Wryh2o+b1zViC4koB72JRFzdWMVc0T3/hdxA5xPjTXGWacyeiRgOMTRf5A3Zy9xxjKqov27uA/5zpcSwhFxCXOgfw/62S9hzpg9He0YwrqmoVFI1ijJMJXAyPqLnYhtKTWzyRb52uZyorfJj83WN+Pzm67D19jVY2Vgz98EcIyZVZJ7YxSixdzKK10encSKaRiV/75Ya0uh9XHi+HCwhlxCqNVRX0aWRKew8cR5vHOnGqQvDGGNOJUqq/lCTsOZKvxbXVBptUTOHgj7cdX0jPnPH9bj3pjVYSwOjAtvlMFTTJM0pRoAd4zHsIhk7SMpwdlYEmP/E4mEJmQOo72+ADvNszyjaSEhtAXLMrL8TM4UbbuZ7HlWtkztqsMu12oJhyfJCq/ghoeFLKuxahmKZlbs2teC26xqwcVUDVtQETSldrhHleZ1kbniQN9g7fG6NpjDGY1NNqcES3AuWkDmCxsa1zo6IeerCEPYxlB87P4Je/qyl9GTCK9lcZqSH4W2hD9OAT3OGBWY7OpkWUzbHXPHujc3Yett12LJppckd/XTV+m6uICWfIhFlWtpjKeyeiJr+xIu8QSbVv0OIMjoClbNdKywhcwwRa3Qqiq6BCRwlIY+eH0L7pVEMj4YRi6dN0q+RFM2lNo3Hn40qkgRy0G5VuzeEcNO6Jty1th6f4PONqxtMTWcuoWMRGft4jCdoWt4JJ9AWS+AsTdwQyZmRYePBzuhGWsL7wRJymaCWiUQTOHlhEHtPXcLes/04Q5Jqz20n31SINuwkFSSOaki3z431TTX4NNXw81vWMWdcAb/fqw/ykTtI+KSKw6k0DkzGzZDfgak4klT2DB2ZCppztfyCJeQyI0FnOkZDoLHx7Yc68GZbD7r6JpV4GteczmaN8VnXXIMHbluDB+9Yh9vXN6Opxg+ve3mG/PoTGewaj+At5rytVET9nCBR3k0pcpgiWELmCTES8GRnPw53D+HEhRH09I2bRUdV8LBhVR1uW9eAe25YiZuva0Q1f5dr6Mp1Ua1P0KgckWHhTdNOMo6msyZ0u6WIuRVmA0vIPCJNdxql8bk4PIVWkrOtexjrW+pMB/f1zdWGnC7H4i/IlUDTB6bVVcW88PXRCF4fm8Zpmpcofy+Wqs90GXj4LiwhCwDqPB+amDZlbvVVAaxq0ChLbleS0IWKM1k9HUmaSVWHmd8eDtOwxJPGUJliWTJRDn85L6olZIFAHep6aHqBNlPKFXSBNL48qlEWhujXqIh7mStepJuWYmtfWlOhKDKabywvlpKQuWvFMoDGu7WAQS7JKGiUpTUcx/NDU/hh/yR+TUKqf3GCqpiknhj3nCcyLjUsIQsYERLxXDxFAkbwi6Ewnh0O83UUnVTG1AzgojKbOb/LmTDmGJaQBYYFlZugU97PsPyfuobwH7tH8WMSsi2mmZR0z4zNpg+0BGEJmUdcLsSOJtPYSRX8Qd8EnuyfYK6YwFgijQqZFvW+lzgsIfOIBZHT2PcIDYv6EbePT+NnDM0vUBGPT0QxTTev1So01GfK4UoclpB5hhYB6GEofkNLktCw/GJwCm+RiB3RlNmlQX5VFUSmK6f0+WgJmQ8oVGtm8/TMLM5MJ7GDrvknA5N4qpcheiyGcYVokm/W6TCFEOUES8g8oIKMPEsiPtkzhn/TMYTHe8fxTjQJDx3zrGNuZbdyUMPLwRJyGZGiKTk3ncCzw1P4/sAEnhuJ4ATzxkEqYsKMtCg8z3+4TGEJmWMoPGsui5YkORCO42WSUOH5FRqXTqqkckjNZyntzT6uHJaQOYRqHbSq7NFIAs+RgE/RtDw/GkHrVALheAYedeO8a1jKXBrnYQmZI6hgVp3bhyZjeJqK+E+XxvFW3xTOR5KIUxXhrERmfqqtxXuwLZIDjCQz2DUWwT/QtPx93wTenIihn78LUwQ1l7H0u7cXD0vIJcMsxlMZE55fYFj+8eAUfk7zspsKKdOivkSHa24pQIsPhyXkNULrKKZn50zLzvEoftg7jif5eGF8Gv0M2R6+71nID/na4qNhCXkN0LTZ7ngKzwxP44neCfzz4CS2MTwPxNLwpGfg5PvqT5wrmp3/ksVHwhJyEVBN81QqjZPhGLYxPD9D97xtYAptk3FMM2xr7Fmd2+XSqWjWQpdRUwS4xihgCXmVUEFsRzSJ7STi08wTXx4J4yiJ2ceQHc7MqATf5IvLPY0gn9B5qotrbqmZd+c5LgqWkFeINBt7nGFYldsvDEfww/4wfjwUwdGpBGK8GtofZ9ZZWXb9ieKgk+ccdDpQyzbQGkjX0gJ2Ts0VIJHNmiKIt8ZjeGUiiq5ECjGqoRaqqmTrGV0osxxR4/FaHUGbgtb53HiwLoA/bqrC5xpC11Q8bAn5oZjFRDKDk7EUjmn1ikjSFER082cNBRoZoDKUGQ/h4LknpIiOSqxyO9Dsc2Fz0If7qv3YUuVB8zWuhW4J+QGoNZIzWYwk0zhOAr5IVTw1Fccwf47yzYyWsNMH+U+5lIbpLEUTQxT+43dV4ia/G5+q8mFzjR83+zxY7XGiWssWXmOTWEK+D0rKx1JZdFMRj08nsD+SwA4656lYGm6FZ16Ihb1ZygrzFFGuGKIC3hny4IEqL7ZSFW8NeeHWRLMlgiXkPNJsBe3bd5iOWQ76bariUFq7EMwpQzkXP2R46tqb6zqS8Yv1QXylMYRbgh4amcolT1ksIYneeArvTMXwFknYylzxEk1LJJM1JDX7mpYbF0kJ3Yhavi/BXPEBKuFDDM1bqr24KeBFs9sJ/7XG5g9B2RIyyeR8mOH5InPDVqqitk47SDKqMEINwuhMHpYXE0kGQ0R13dQwH9SehTU0LV+qDeKzdX5soirmuk3KjpDZ2RlMU/0uMC/URpJvR+JmQc++xNzWaS5eELnnxSz+XtTgaWvLOC/pUO914ZaQD/dU07SQhJt8brpn55Lmih+GsiJknGTriyVwimZF621rS4yz8TTizBW1VLNIWHaTqnje6ktN87S1oeeNdM/30ajcX+PDHXxu8WonseVrk7IgpM5Q6+BoD7/fjEWwh85Zr9XhPc33JIq699XuJd8Y8xDFdOlTfOHg2dcxR/kE3fM3mqpxV5XP5Ik+5onLSUah5Ampqu226YRZ0FP9iqf4Wou/a90cD+mnxevLDbrkMiyax7OWIXkzjcrteqYi3stQXefO7fqWH4WSJKQULzEzgwkq4GE6Z3XjaKnj88wTXXzPxbu+zCLzHHiptWWch+euRwtV8HONIXylIWhU0SxelWeUJCG148BRElF9iYem42aTICml6hOFcqrEWYCD567NNBMMw+vpnD9V7Tfjz3dSGdcxT/QWyPyekiKk9nW+mEgZw7KPZDxO0zKeSpuNJs08Fikjn8qBjDpPXlxzsqpU8pBwzdp1NuAxJLyvxs+c0YsgVVHbmxQKip6QOnitLjsgVQzHsWciavLEnuTcZpIqHJ0zLOWlijpXPXTumkKxke55a20AD9T6qZBurGS4DuV4odXFoKgJqWLZ/ngG7QzJ2ihItYoH6aDHUhnTp1bJO78ch/w0z0cROOR0YDXD8XqvE/dQDT9DVdzMXLGQUbSElCr2JJJ4aSiCbWNRtEWTqGBozkoJy4+D72KhT7GRTvl3qrz4/YYq3EdlXJHjBfmXCkVHyDTds6YQHGSOqA0lD07PjbJo8yJdjJJdWvYjoFxxhrKo/wIMxXdTBR9kaP5ktQ83+D1ocDmLplmKhpAqilX/4blYEofDCbxDQnbw9bgqt3kGGutXmxfV3XUNEAnVjZPhWWuJ5xpXJcOzCxuZHz5ARbyXZFxHN63hvmK6RQuakDowrS6rTux2bYehDceZK3bH0xhMZUnSrOncNUQsk1xRZ6keAxHSyQZy8U5c4XHhduaIn2SOeDvNywaSspFKWUju+UpRsIRUYh6mKvbSLWu7tH2TMbw8GkGYKmmYSgKWY7GsGXPns4OupYaheBNV8e6gB1trAribhJRSFjMKlpDaJGjfZNTsyXKcIVqd3RHG5rmplkQZumeduTZJ8vLUb2du+IW6AB7g43qqYq3TCQ/VsthbpeAIKSJqHcU9UzGzE35HLIVxktGMvWpoq9x4KEVkuNAS0Jpqe0vAjc1BL+6lcbmHLlr9i8tRFrZcKAhCpkg2bSapipwDDM0vjsyNPUeZO2oeh4sk1LTLcunO0WnOXZVZY9ZCbIMqkrGFqvgI3fP9NC0bAh5UMWyXDhXnkHdCah3F8/GU2Wx891QUZ5gv9tC0hGla3Dw0mZW5zcfLBws1iir9qvE4sJlKeA8V8RMBL26gc9YQoLeEVPH9yCshFYbOkYBvjEfNhpInSUqNO+v36uAWykkVeTHm8kSeu+Y9byTx1Ln9EPPEzSGfcc5OfnC5axSXE3kjpJyiunOeGZrCSyNhY1yiaVMCYbbvk2kpJ1XUmcuwiXCabL8l5MXD1XLOXlzndaOaIbsckDdCSgVVnfPEpTG8MBzGpUQGfpKw3OayqPmVtsghN3qcWEsy3kUy3l/twydDfjR4y2s5/LwlIuKdlDDAC+FneCrlMPRR8PDhZWtozvNX6gP46zV1+KvVdfh8Q6jsyCiUZmZcwJBZcTJV0SJNszRrN1INv7W6Bv9uXQMeW1GDe6v9aNEMvzK9QS0hlwEmGjA0V8zMmo7tCo07+934bE0A/7KpCo81V+P3GoK4KehFHXNFdXWVKywhcwxRS3miGe4j0VQUezOJ9yhD8rdJxC+SiHdSJeucDnipmOVLxTlYQuYaUkYS0edyYk3AY8zK1xtD+A7J+KWmEDb6PWWtiB+EJWSOoK4LdeOkmC9W07Q9XOPHf1hbi8c31OPbK6uxiSppG/+3YdtkiaGZfRkaFinjKpqTR6iCf766Ft9qqcYDdUGs9fvgdzrNkKDFb8MScgkgbsmwgEScqZhFvdtpZvR9vi6Ab6ysxR8zPG+lQjbw9+VYpXQ1sIRcAphxZxLSlZ1F0O3CfTQq3yIRH2upwWdqA6aK28ewbfHxsK20SEjnTFeOyMj46/Q6EQp58Eh9CN9trsE3VlSbuS3VBTjVtJBhW2sRkGHR1ArNfJziY5Pfjb9aWYP/uakZ/3ZNnalT1EJNcs82QF8dLCGvAqYaRyMsJGHQ4TDLGj/aGMQfUQ2/zseX6oO4NeBGwIbnRcO23JWCZBQCVL0VLqdZO/HrzBH/7vpGfJPquD6gUWmLa4Ul5MdAZsUp98znGacDdzYE8Cera/AXq2rxVeaLt/k9qFVxyPznLa4NlpCXwYJhcczMIElFdLoc2MDw/Lt0zN9sqjY7Vqlodq2Z92yzxKWEJeRloHHnJCN0gi+0BImWrfs2w/O/Ymh+mKTUCmIak3ZaMi45LCHfD5KQkdkUQVS5HWZ1WU01/bPmanyXhPwcXzcVyRo5xQpLyHnIQVcyRGstxRaS8Wt0z09sWoG/Wd+IrXVBBMpkCkG+UdaE1AiLVkzLZLJmp6rrg158s6Uaf7m61nTj/E61H2uoiCoLs1gelB0hFwyLxp41r0dLGWta6R1VXjzaGDK54lcbq3BHyIcQ37MhZHlRfu1NVVSXoiacuh0VuCHkxRdUtU3D8gdNIaOKK0lQO/acH5RVqytEa+GBpJTP7cJGuuXHqIp/s7oOf0plvI0h25aF5RdlQUgpYjY7a/Y3DPKMH6724t+vqcV/27ACX2GuuMo3t+m45WL+UdKEVJ6YoXNWR81Kr9OsFPY1EvCbzdX4GsPz1hqfmeFXrlNwCxElSUgKovlHulfD8LzB7zIjK9+he/4uw/MjDVVY57Njz4WIkiKkckQ5aMVobbFb73fj/vqAKZT9Fh+frQ3gJv5ONYpWEwsTJUFIkUsd2xryi1dUIqhqnKAHX60P4k+b5Z6rsKXKh1qXoxzXxC8qFD0hFZ61mGlS+SLJtoG54pdJxD9fVWPmsnyqxm8Wg/eQiZaLhY/iJaSJzKIjEGQIvs7nNir41YYg/qS5yqwIod1NtXmQRfGgKAkppdNOXW7yMUiHfGfIR0WsxX/Z0Ii/WFOPu6r9BbGzqcXVo2iumkioYtnZmRmzfJ2P+eDt1T58o6Ua3+HjS1TGu0nM5vmxZxueixMFT0ijhvPOWSvLBhiC1Y2zlSr4+40hfJ154sN1QbOhpPJEq4vFjYK7fh9UNu3mqpIwvdNEw3JPDfNEEvGxFdV4tD6EO5k3agf8YtwkyOK3UXCEnLMp7wOPcJampd7nwhdr/WbO879mvvjlphDWB9zzH7IoFRRmhFOumJ2hKNKwBL3469V1plj2L9fW436G5ybP3NizRekh74RUoDXBlmFZxbIz6Sx8/IXmrfwLGhWF5q81Vc3NZfF7zChLYd5FFkuBvF9biqEplBWUB4YcFdgU9OAR5okqCftiQwi3kJw+qqXNEksfeSWkCJakMoqQfhqTVSTiFqril1dU4Q+pivcxZ1SxrF3Qs3yQ131qtJXcEz1j2DsZNZPtH60L4ME6DfW5qZZ0zpaIZYe8EVJ/NpbOYH84jgHmjfUuJzZTITXuPJ9VWpQh8kZImZhsJoMY//psZSW8DgfclodlDuD/Az2H8DDBRqUfAAAAAElFTkSuQmCC;" parent="lZpWyIr3AbtwXoO6nz6H-9" vertex="1">
          <mxGeometry x="9" y="9" width="31.47" height="33" as="geometry" />
        </mxCell>
        <mxCell id="lZpWyIr3AbtwXoO6nz6H-12" value="&lt;font style=&quot;font-size: 14px;&quot;&gt;&lt;b&gt;Internet&lt;/b&gt;&lt;/font&gt;" style="text;html=1;align=center;verticalAlign=middle;whiteSpace=wrap;rounded=0;" vertex="1" parent="1">
          <mxGeometry x="-2258" y="165" width="60" height="30" as="geometry" />
        </mxCell>
      </root>
    </mxGraphModel>
  </diagram>
</mxfile>
